<svg xmlns="http://www.w3.org/2000/svg" xmlns:xlink="http://www.w3.org/1999/xlink" width="255" height="383" viewBox="0 0 255 383"><defs><style>.cls-1{fill:none;}.cls-2{fill:#9c6745;}.cls-10,.cls-3,.cls-8{fill:#010101;}.cls-3,.cls-9{opacity:0.1;}.cls-4{fill:#54381d;}.cls-5{fill:#765530;}.cls-6{fill:#3d4433;}.cls-7{fill:#ddb893;}.cls-8{opacity:0.05;}.cls-11{clip-path:url(#clip-path);}.cls-12{fill:#7f563a;}.cls-13{fill:#fff;}.cls-14{fill:#a9ae8c;}.cls-15{fill:#b08968;}.cls-16{fill:#55574e;}</style><clipPath id="clip-path"><path class="cls-1" d="M107.7105,344.4564l-27.9386.723a76.8584,76.8584,0,0,0-12.4986,1.3519l-15.9548,3.062a.7438.7438,0,0,0-.6036.7305h0a.7439.7439,0,0,1-.764.7436l-7.0543-.1906a.744.744,0,0,1-.7227-.7029l-1.5422-28.1294L107.7105,335.46Z"/></clipPath></defs><g id="Assets"><path class="cls-2" d="M32.9257,256.1355l-18.4977,1.62a10.6,10.6,0,0,0-8.29,5.32l-3.616,6.3591a20.9134,20.9134,0,0,0,1.77,23.303l12.0582,15.2612a37.8312,37.8312,0,0,0,22.2644,13.6428l69.0952,13.819v8.9962a2.2675,2.2675,0,0,0,3.0247,2.1374l19.4339-6.8841a9.7442,9.7442,0,0,1,4.8872-.4213l46.5093,7.9094a3.0631,3.0631,0,0,0,3.4718-2.2254l9.403-35.02,35.4781-20.7239A32.1732,32.1732,0,0,0,241.6,277.4542l8.9266-15.5643a17.3339,17.3339,0,0,0,.3185-16.6667l-2.2768-4.3464a20.45,20.45,0,0,0-11.8184-9.9676l-5.155-1.6685a24.6828,24.6828,0,0,0-11.2254-.9319Z"/><path class="cls-3" d="M194.44,309.9526,73.9268,283.2908s-11.9507-8.7332-23.4418-6.435,6.5182-5.8791,21.1436,2.7579,1.8386-5.9754-23.9014-7.8139c-25.2161-1.8012,9.6525-3.2175,30.6151,6.9908C85.8813,282.462,194.44,309.9526,194.44,309.9526Z"/><path class="cls-3" d="M133.4253,294.2327s60.9278-31.1661,70.1207-35.3029-10.5718,7.3543-14.7086,9.6525,21.0555-8.3257,33.97-11.2873-21.6863,7.6983-34.0331,14.319-52.4319,23.3826-52.4319,23.3826Z"/><path class="cls-4" d="M107.7105,344.4564l-27.9386.723a76.8584,76.8584,0,0,0-12.4986,1.3519l-15.9548,3.062a.7438.7438,0,0,0-.6036.7305h0a.7439.7439,0,0,1-.764.7436l-7.0543-.1906a.744.744,0,0,1-.7227-.7029l-1.5422-28.1294L107.7105,335.46Z"/><path class="cls-4" d="M185.0374,344.9724l48.3853-1.0088,10.2448-1.6757a1.0275,1.0275,0,0,1,1.0579.5039h0a1.0278,1.0278,0,0,0,.9712.5143l8.2015-.6342a1.0275,1.0275,0,0,0,.933-1.2015l-7.08-40.5012a1.1248,1.1248,0,0,0-1.3125-.8806l-7.629,1.4508a1.1251,1.1251,0,0,0-.8663.7782h0a1.1247,1.1247,0,0,1-.6445.7118L227.724,307.01a65.9505,65.9505,0,0,1-21.6218,4.9493l-12.3873.6951Z"/><path class="cls-3" d="M238,308l6,32s-4-4.6383-6-16.3191S238,308,238,308Z"/><path class="cls-3" d="M222,312a32.0159,32.0159,0,0,0,0,15c.8828,3.5314,6,13,6,13s-7-2.7793-9-13S222,312,222,312Z"/><path class="cls-3" d="M189,337c9.1645-1.006,21-2,13-3s-11.7582,3.2728-12,1c-.1064-1,0-5-1,0C188.6078,336.9612,188.4443,337.061,189,337Z"/><path class="cls-3" d="M193,318.5505c9.1645,1.006,21,2,13,3s-11.7582-3.2728-12-1c-.1064,1,0,5-1,0C192.6078,318.5893,192.4443,318.49,193,318.5505Z"/><path class="cls-5" d="M209.1069,335.2754a.5.5,0,0,1-.455-.2915l-.57-1.2442a13.3849,13.3849,0,0,1,.1143-11.4365.5.5,0,0,1,.9.4346,12.3889,12.3889,0,0,0-.1055,10.585l.57,1.2441a.5.5,0,0,1-.4541.7085Z"/><path class="cls-5" d="M205.1069,335.2754a.5.5,0,0,1-.455-.2915l-.57-1.2442a13.3849,13.3849,0,0,1,.1143-11.4365.5.5,0,0,1,.9.4346,12.3889,12.3889,0,0,0-.1055,10.585l.57,1.2441a.5.5,0,0,1-.4541.7085Z"/><path class="cls-5" d="M201.1069,335.2754a.5.5,0,0,1-.455-.2915l-.57-1.2442a13.3849,13.3849,0,0,1,.1143-11.4365.5.5,0,0,1,.9.4346,12.3889,12.3889,0,0,0-.1055,10.585l.57,1.2441a.5.5,0,0,1-.4541.7085Z"/><path class="cls-5" d="M197.1069,335.2754a.5.5,0,0,1-.455-.2915l-.57-1.2442a13.3849,13.3849,0,0,1,.1143-11.4365.5.5,0,0,1,.9.4346,12.3889,12.3889,0,0,0-.1055,10.585l.57,1.2441a.5.5,0,0,1-.4541.7085Z"/><path class="cls-5" d="M212.5,335.9326a.5.5,0,0,1-.459-.3013l-.6074-1.4038a13.4023,13.4023,0,0,1,.313-11.3393l.3061-.6118a.5.5,0,1,1,.8946.4472l-.3062.6118a12.4035,12.4035,0,0,0-.29,10.4947l.6074,1.4038a.5.5,0,0,1-.459.6987Z"/><path class="cls-5" d="M216.83,337.5122a.5006.5006,0,0,1-.4575-.2969l-1.9986-4.499a13.3874,13.3874,0,0,1-.9736-7.66l.6064-3.6382a.5.5,0,1,1,.9864.164l-.6065,3.6382a12.3931,12.3931,0,0,0,.9014,7.09l1.9985,4.499a.5.5,0,0,1-.4565.7031Z"/><path class="cls-5" d="M220.8516,337.5122a.4988.4988,0,0,1-.41-.2134l-2.4307-3.4746a13.3648,13.3648,0,0,1-2.2583-9.8066l.5835-3.6709a.5.5,0,1,1,.9873.1572l-.5835,3.6709a12.3719,12.3719,0,0,0,2.09,9.0762l2.4306,3.4746a.5.5,0,0,1-.4091.7866Z"/><path class="cls-6" d="M88.0361,106.3967l.259-10.52a4.9808,4.9808,0,0,1,4.5839-4.8425l42.6541-3.3972a5.1744,5.1744,0,0,1,5.5281,4.3906l.2037,1.3576a3.5946,3.5946,0,0,0,3.5548,3.0614h9.1891a34.8756,34.8756,0,0,1,29.6558,16.5224l46.28,74.7812a32.9093,32.9093,0,0,1-13.1346,46.687l-49.8053,25.1824L98.5177,252.265l-1.79,11.3964a5.0086,5.0086,0,0,1-4.9479,4.2314H36.58A26.0346,26.0346,0,0,1,10.9914,237.06l13.2661-70.7526a65.0722,65.0722,0,0,1,44.1148-49.981l16.0842-5.15A5.1523,5.1523,0,0,0,88.0361,106.3967ZM61.4015,230.317l-.28-5.0274-.7538-19.4485L49.7956,226.9846ZM171.64,184.2379l-3.7162,32.6346,14.7085-13.7893Z"/><path class="cls-3" d="M93.596,101.3771c-1.9814-3.1571-3.6607-6.3784-2.7745-9.709a4.977,4.977,0,0,0-2.5265,4.2082l-.2589,10.52a5.1521,5.1521,0,0,1-3.58,4.78l-16.0842,5.15a65.0717,65.0717,0,0,0-44.1147,49.981L10.9915,237.06A26.0345,26.0345,0,0,0,36.58,267.8928H64.6537l.1382-.6861a48.4031,48.4031,0,0,1-10.5876-6.1228c-.6757-.5077-1.3234-1.0516-1.9846-1.5785a103.7137,103.7137,0,0,0-22.8642-9.9944c-3.7548-1.1031-7.4707-3.0162-9.65-5.6024a5.232,5.232,0,0,1-3.3633-6.8866c1.9507-5.8324,4.9-11.4146,6.2264-17.4434,1.5037-6.8331.4392-13.8746.538-20.7914a54.3271,54.3271,0,0,1,3.6084-19.8161A24.2665,24.2665,0,0,1,37.98,158.5772c1.0029-.6193,2.0149-1.2225,3.0305-1.8191,1.8537-1.1675,3.6569-2.406,5.44-3.6921l.063-.0482c1.82-1.4707,3.61-2.9784,5.4065-4.4782,6.5445-5.4642,13.1827-11.0106,20.53-15.374a82.779,82.779,0,0,1,11.6941-5.7118,9.2636,9.2636,0,0,0,5.7234-9.1417l-.0032-.07c-.0869-1.9387,1.3788-4.0482,3.0483-6.0693A9.2278,9.2278,0,0,0,93.596,101.3771Z"/><path class="cls-3" d="M229.9443,187.75l-46.28-74.7812a34.8757,34.8757,0,0,0-25.2523-16.2414c0,.1645-.009.3236-.0129.4858l.0148.0333q.9267,2.0863,1.9907,4.1106.2379.4532.4741.9038a19.2691,19.2691,0,0,0,8.2275,8.2417c6.8885,3.5359,12.9487,10.8677,17.3508,16.72,8.9673,11.9214,16.2573,25.1552,23.02,38.42,5.2316,10.2624,12.2455,22.0548,12.3616,33.95a10.2641,10.2641,0,0,1,1.2878,7.2305c-2.4389,16.72-29.7819,38.1827-29.5523,39.3615L216.81,234.4367A32.9092,32.9092,0,0,0,229.9443,187.75Z"/><path class="cls-3" d="M91.1634,116.2108s10.5718,12.41,33.5539,6.8946c23.09-5.5417,17.926-25.28,17.926-25.28s8.7333,24.361-17.0067,28.9575C96.4347,131.9972,91.1634,116.2108,91.1634,116.2108Z"/><polygon class="cls-3" points="61.402 230.317 96.449 238.246 61.121 225.29 61.402 230.317"/><path class="cls-3" d="M90,230.4426c26.8126-3.44,33-10.104,46-6.0624s30,9.43,18,4.7152-13-8.0832-25-6.736-24.8085,5.0389-30.4043,5.8875S69,233.137,90,230.4426Z"/><path class="cls-3" d="M104,223.033c22.9785-4.7626,34-6.736,42-3.368s7-6.7361-18-2.6944S78,228.4218,104,223.033Z"/><path class="cls-3" d="M121,221.0122c10.48-3.0254,17-2.6944,20-1.3472s-7.4681.6736-14.234,1.3472S114,223.033,121,221.0122Z"/><path class="cls-3" d="M182.6322,203.0832s9.4227-6.6648,19.9945-9.4227-4.5964,0-12.41,3.6772c0,0,12.87-7.8139,7.3543-5.5157S185.16,198.7166,182.6322,203.0832Z"/><path class="cls-3" d="M171.64,184.2379s4.3275-29.1873-.7285-43.4362c0,0,5.9753,7.8139,5.9753,24.8207a240.8663,240.8663,0,0,0,2.0684,31.1567Z"/><path class="cls-3" d="M60.3673,205.8411s14.4788-29.1873,12.1806-47.1134a34.7822,34.7822,0,0,1,.2472,21.0018C69.33,191.3623,60.3673,205.8411,60.3673,205.8411Z"/><path class="cls-7" d="M163.3273,231.1214l-26.2613,19.696a23.9075,23.9075,0,0,0-7.52,9.4552l-6.635,15.0009a11.8779,11.8779,0,0,0-.8727,6.6385l1.4256,9.1244a8.6784,8.6784,0,0,0,1.6315,3.8668l4.9561,6.6082a8.127,8.127,0,0,0,5.3525,3.1692l3.1024.4432,6.1481,3.9782a5.3011,5.3011,0,0,0,3.63.7973l3.1057-.4437a1.59,1.59,0,0,0,1.3651-1.5739h0l.4247.0849a2.7642,2.7642,0,0,0,2.8861-1.2455l.0916-.1465a4.0169,4.0169,0,0,0,.1865-3.9254l-1.0438-2.0877a.2287.2287,0,0,1,.2768-.3192l1.3847.4616a2.28,2.28,0,0,0,1.6646-.0874l.6669-.3031a2.83,2.83,0,0,0,.9026-4.5015l-2.5329-2.7277a7.1132,7.1132,0,0,1-1.2459-1.8592l-3.4041-7.3756a6.52,6.52,0,0,1,.7177-6.6625l13.2734-17.5677,11.9507-10.1121-1.6294-4.8881a20.6146,20.6146,0,0,0-11.628-12.51Z"/><path class="cls-8" d="M123.4641,291.0364a8.67,8.67,0,0,0,1.5083,3.68c.5068.2332,1.02.4506,1.53.6732,6.0782-1.9133,16.1893-5.0753,18.7043-11.4953,1.7659-4.5076,2.8645-9.1228,4.7954-13.62A39.0967,39.0967,0,0,0,153.19,256.01c.0933-5.3178-.7258-11.5479-5.6467-13.05l-10.4773,7.8579a23.9081,23.9081,0,0,0-7.52,9.4553l-6.635,15.0009a11.8771,11.8771,0,0,0-.8728,6.6385Z"/><path class="cls-3" d="M138.5066,305.1238s-.6895-.23-1.1491-1.6087-6.8947-16.0875-6.8947-16.0875l5.8791,17.387Z"/><path class="cls-3" d="M139.6557,290.6451s3.6771,10.1121,6.435,11.9507a80.874,80.874,0,0,1,6.6648,5.2859,1.7068,1.7068,0,0,1-.589,1.2354s-6.5355-4.2231-7.9144-6.5213S139.6557,290.6451,139.6557,290.6451Z"/><path class="cls-3" d="M147.9292,287.8873s3.0122,11.1176,4.0341,11.9938a15.3653,15.3653,0,0,0,3.5824,1.7854l-.7829-2.7772s-1.3179.489-2.6968-1.35S147.9292,287.8873,147.9292,287.8873Z"/><path class="cls-5" d="M183.5335,378.1893a1.8451,1.8451,0,0,1-1.1924,2.2511h0l-1.3948.4649a1.8455,1.8455,0,0,1-1.5212-.1613h0a2.6823,2.6823,0,0,1-1.0707-1.1827l-2.492-5.3809a1.8455,1.8455,0,0,1-.1017-.2748l-2.0719-7.35a1.8452,1.8452,0,0,1-.0663-.3966l-.3122-5.5239a5.5787,5.5787,0,0,0-.85-2.6594l-1.2177-1.9326a9.9652,9.9652,0,0,1-1.3079-3.2019l-1.7949-8.2865a19.4088,19.4088,0,0,0-1.1027-3.4737l-1.5305-3.6058a1.8267,1.8267,0,0,1-.0775-.22l-2.0381-7.23-3.4624-13.077-2.4312-7.83-3.2486-11.5244-1.79-6.3507-1.4291-5.07L149.7,281.4559l-2.5694-9.1151-11.6194-41.2194-.4391-1.5579-.9456-3.3542-.6417-2.2768a1.845,1.845,0,0,1,.2571-1.5484l.6007-.8708a1.8453,1.8453,0,0,1,1.5189-.7974h1.2048a1.8469,1.8469,0,0,1,.344.0323l.6435.1221a1.8453,1.8453,0,0,1,1.4583,1.4172l.6652,3.03a12.39,12.39,0,0,0,.5077,1.7127l.2432.6456a28.2556,28.2556,0,0,1,1.1378,3.8175l1.4183,6.3693q.0146.0651.0337.1291l7.8362,26.1239q.383,1.2766.6563,2.5823l1.1931,5.7q.5363,2.562,1.2468,5.0828l2.2743,8.068a1.8792,1.8792,0,0,0,.0632.1857l2.2683,5.6608a1.8617,1.8617,0,0,1,.0632.1857l5.4775,19.4315,3.1362,9.7873q.0192.06.0342.1207l2.6638,10.7889,1.0232,3.63.4522,1.6043a30.98,30.98,0,0,1,1.0493,5.7635l.1072,1.2521a8.3954,8.3954,0,0,0,1.1659,3.6032l.7963,1.3272a7.8656,7.8656,0,0,1,.8362,1.95l2.0064,7.2519,1.5459,5.484,2.1415,7.5968a1.8474,1.8474,0,0,1,.0653.3807l.1839,2.8229a1.8451,1.8451,0,0,0,.2806.8643l.9726,1.542a1.8427,1.8427,0,0,1,.2153.4838Z"/><path class="cls-4" d="M163.9737,323.6891a3.4821,3.4821,0,0,1,3.48-3.7617l-1.7264-5.3876a3.7743,3.7743,0,0,1-1.12-1.3609c-3.5454-6.99-5.2382-14.61-7.9851-21.9087a3.1631,3.1631,0,0,1,.8758-3.763l-.71-1.7731a1.86,1.86,0,0,1-.0632-.1856l-1.75-6.2078a4.1125,4.1125,0,0,1-4.1451-2.8523,21.263,21.263,0,0,1-1.1385-9.03,4.2773,4.2773,0,0,1,1.7-3.2072c-.0132-.0449-.024-.09-.0375-.1353l-6.2784-20.9307c-3.3326-7.4-6.6275-14.8265-9.414-22.4449a1.8358,1.8358,0,0,0-1.3192.773l-.6007.8708a1.8449,1.8449,0,0,0-.2571,1.5484l.6417,2.2768.9456,3.3542.4391,1.5579,1.6552,5.8717a4.0129,4.0129,0,0,1,1.437,1.3243c6.8206,10.1488,7.6315,22.3567,9.1235,34.1348a3.6987,3.6987,0,0,1-.117,1.5891l2.09,7.4145,1.3295,4.7166,1.4291,5.07,1.79,6.3507,3.2486,11.5244,2.4312,7.83,3.4624,13.077,1.5245,5.4081C164.4608,331.534,164.1358,327.619,163.9737,323.6891Z"/><path class="cls-4" d="M183.5335,378.1893l-.2605-.9242a1.8427,1.8427,0,0,0-.2153-.4838l-.9725-1.542a1.844,1.844,0,0,1-.2806-.8643l-.184-2.8229a1.84,1.84,0,0,0-.0654-.3807l-2.1414-7.5968-1.5459-5.484-2.0064-7.2519a7.8656,7.8656,0,0,0-.8362-1.95l-.0788-.1314a228.5127,228.5127,0,0,0,6.4991,24.4294c.9353,2.9056-1.4492,4.7976-3.8237,4.7925l.7325,1.5818a2.6823,2.6823,0,0,0,1.0707,1.1827,1.8455,1.8455,0,0,0,1.5212.1613l1.3948-.4649A1.8452,1.8452,0,0,0,183.5335,378.1893Z"/><path class="cls-7" d="M99.97,243.7327c7.2517-3.7509,9.7522-3.7509,18.2542-7.0016a57.6114,57.6114,0,0,1,18.0041-3.2508l1.0641,3.7509s9.0513,3.7985,13.6893,5.7513c1.7816.75,2.7861,2.6233,2.25,5.5013-.9563,5.1383-2.0317,11.7214-2.5006,13.7531-.75,3.2507-3.0007,2.25-3.0007,2.25s-2.5006,7.0016-4.0009,10.2523-2.56,5.4586-6.0014,3.0007c-1.75-1.25,1.25-11.0025,1.25-11.0025s-4.1443,6.4522-5.2512,8.0018c-1.25,1.75-2.5006,4.251-4.251,4.001s-2.7506-2.2506-1.75-5.7514a25.7836,25.7836,0,0,1,3.5286-7.38,2.0267,2.0267,0,0,0-.2867-2.7029,25.0053,25.0053,0,0,1-3.742-4.67,28.096,28.096,0,0,1,2.0005,6.7515c.25,2.7506-4.501,7.7518-6.2514,9.3319s-3.5008,3.9211-4.7511,3.171-2.5006-1.75-1.5-4.251a19.459,19.459,0,0,1,3.868-4.9476,2.9461,2.9461,0,0,0,.3087-3.7643c-1.0064-1.4418-1.987-3.1319-2.5863-4.2068a1.287,1.287,0,0,0-1.6943-.5223c-12.6056,6.1764-20.4007,1.6883-20.4007,1.6883m42.6211-15.3562,5.9406,6.1322a.2215.2215,0,0,0,.3748-.2037,11.7029,11.7029,0,0,1-.204-1.9564,2.9648,2.9648,0,0,0-2.0063-2.697,30.0509,30.0509,0,0,1-3.8219-1.6589A.2417.2417,0,0,0,138.8406,246.1305Z"/><g class="cls-9"><path class="cls-10" d="M139.894,258.7979c-.857-.888-9.9088-8.9176-9.9994-8.9994,0,0,3.5834,2.1861,8.5845,5.9369s5.0011,5.7513,3.2507,9.2521-4.0009,12.7529-4.0009,12.7529c-1.75-1.25,1.25-11.0025,1.25-11.0025S142.73,261.7368,139.894,258.7979Z"/></g><path class="cls-3" d="M144.7812,252.2627a.2215.2215,0,0,0,.3748-.2037,11.7029,11.7029,0,0,1-.204-1.9564s4.28,6.383,4.78,7.6333a3.8308,3.8308,0,0,1,0,3.3066,29.8,29.8,0,0,1-2,3.4449,34.012,34.012,0,0,0,1.75-4.501c.25-1.25-.5-2-1.5-3.2508-.9109-1.1385-3.2-4.4729-3.2-4.4729"/><path class="cls-3" d="M124.4759,253.2348c3.5008,4.7511,6.4926,9.6716,6.4926,9.6716a25.0053,25.0053,0,0,1-3.742-4.67C126.2263,255.4854,120.9751,248.4838,124.4759,253.2348Z"/><path class="cls-3" d="M137.2927,237.2312a18.9775,18.9775,0,0,0-4.3149-1.25c-2-.25,3.7957-.58,3.7957-.58Z"/><g class="cls-11"><path class="cls-3" d="M51.1369,311.4331l1.0273,32.5414s2.9081-5.39,2.3474-17.228S51.1369,311.4331,51.1369,311.4331Z"/><path class="cls-3" d="M70.3332,314.1463a32.0163,32.0163,0,0,1,.3764,14.9953c-.7939,3.5524-5.6719,13.1465-5.6719,13.1465s6.9281-2.9541,8.671-13.2218S70.3332,314.1463,70.3332,314.1463Z"/><path class="cls-3" d="M105.95,339.31c-9.1869-.7757-21.0436-1.4724-13.0712-2.6728s11.8366,2.9767,12.0213.6985c.0812-1.0024-.1255-4.9984,1-.0251C106.3413,339.2616,106.5072,339.3573,105.95,339.31Z"/><path class="cls-3" d="M101.4884,317.967c-9.1363,1.2356-20.9432,2.5263-12.9206,3.3253s11.6724-3.5669,11.9711-1.3009c.1315.997.1255,4.9985,1-.0251C101.8815,317.9959,102.0424,317.892,101.4884,317.967Z"/><path class="cls-5" d="M85.8063,335.0908a.5.5,0,0,0,.4476-.3028l.5389-1.2581a13.3847,13.3847,0,0,0-.4012-11.43.5.5,0,1,0-.8892.457,12.389,12.389,0,0,1,.3711,10.579l-.5389,1.258a.5.5,0,0,0,.4717.6969Z"/><path class="cls-5" d="M89.805,334.99a.5.5,0,0,0,.4477-.3028l.5389-1.2581A13.3851,13.3851,0,0,0,90.39,322a.5.5,0,0,0-.8892.457,12.389,12.389,0,0,1,.3711,10.579l-.5389,1.258a.5.5,0,0,0,.4717.6969Z"/><path class="cls-5" d="M93.8038,334.89a.5.5,0,0,0,.4476-.3028l.5389-1.2581a13.3847,13.3847,0,0,0-.4012-11.43.5.5,0,0,0-.8892.457,12.3886,12.3886,0,0,1,.371,10.579l-.5389,1.2581a.5.5,0,0,0,.4718.6968Z"/><path class="cls-5" d="M97.8025,334.79a.5.5,0,0,0,.4476-.3029l.5389-1.258a13.385,13.385,0,0,0-.4012-11.43.5.5,0,0,0-.8892.457,12.389,12.389,0,0,1,.3711,10.579l-.5389,1.2581a.5.5,0,0,0,.4717.6969Z"/><path class="cls-5" d="M82.4308,335.833a.5007.5007,0,0,0,.4513-.3127l.572-1.4186a13.4023,13.4023,0,0,0-.5975-11.328l-.3214-.6039a.5.5,0,1,0-.883.47l.3214.6039a12.4037,12.4037,0,0,1,.5528,10.4841l-.572,1.4186a.5006.5006,0,0,0,.2767.651A.5059.5059,0,0,0,82.4308,335.833Z"/><path class="cls-5" d="M78.1417,337.5207a.5008.5008,0,0,0,.45-.3082l1.885-4.5478a13.3876,13.3876,0,0,0,.7811-7.6822l-.6975-3.6218a.5.5,0,1,0-.9819.1888l.6975,3.6218a12.3918,12.3918,0,0,1-.7231,7.11l-1.885,4.5478a.5.5,0,0,0,.474.6914Z"/><path class="cls-5" d="M74.1215,337.6216a.4987.4987,0,0,0,.4047-.2236l2.3427-3.5345a13.365,13.365,0,0,0,2.0115-9.86l-.6755-3.6551a.5.5,0,1,0-.983.182l.6754,3.6551a12.3721,12.3721,0,0,1-1.8619,9.1257l-2.3427,3.5345a.5.5,0,0,0,.4288.7761Z"/></g><path class="cls-7" d="M92.8161,86.1483l.4,3.1924c.2419,2.7.2488,5.0393,1.8413,7.5417a11.3305,11.3305,0,0,0,5.1348,4.2392l10.4476,1.4564Z"/><path class="cls-7" d="M142.955,44.1069l-.62,10.2347a16.08,16.08,0,0,1-.4743,3.0206l-2.29,8.9291a13.6437,13.6437,0,0,0,.05,6.9676l.2487.9151a9.9026,9.9026,0,0,1-.567,6.7522l-5.5647,12.04a18.5606,18.5606,0,0,0-1.6822,6.7277l-.13,2.2711a4.4687,4.4687,0,0,0,.0377.8871l.1587,1.111a4.4689,4.4689,0,0,1-.1271,1.86h0a4.4691,4.4691,0,0,1-1.8183,2.4911h0a7.3137,7.3137,0,0,1-4.0566,1.2282h-4.4049a10.647,10.647,0,0,1-5.4765-1.5164l-.4827-.2895-.6646-.4371L98.5175,95.3818a14.2957,14.2957,0,0,1-3.35-3.3855h0a14.647,14.647,0,0,1-2.57-7.2815c-.1516-1.8991-.6358-1.5964-2.3-3.2608-3.5594-3.5594-6.7156-18.9825-6.7156-18.9825Z"/><path class="cls-7" d="M95.1678,91.9963a14.647,14.647,0,0,1-2.57-7.2815c-.1516-1.8991-.6358-1.5964-2.3-3.2608-3.5594-3.5594-6.7156-18.9825-6.7156-18.9825L142.955,44.1069"/><path class="cls-3" d="M115.0917,107.2989,98.5175,95.3818a14.2957,14.2957,0,0,1-3.35-3.3855,6.5329,6.5329,0,0,0,3.2366,5.8288C102.0333,100.2309,115.0917,107.2989,115.0917,107.2989Z"/><polygon class="cls-12" points="94.985 64.549 96.219 70.317 98.175 69.327 99.65 62.882 97.318 62.57 94.985 64.549"/><path class="cls-6" d="M145.8779,39.3821h0a1.3617,1.3617,0,0,1,1.36,1.43l-.4876,9.6883a2.9361,2.9361,0,0,1-2.9325,2.7886h-1.9147a23.2692,23.2692,0,0,0-5.4957.6583l-9.1607,1.33A99.7589,99.7589,0,0,0,109.5312,59.53L99.65,62.8818a23.7655,23.7655,0,0,0-9.4788,4.7346L86.8128,70.377a2.801,2.801,0,0,1-4.4567-1.3427l-3.84-12.5227a2.5224,2.5224,0,0,1,1.0124-2.838h0a2.5221,2.5221,0,0,0,1.123-2.0767l.0888-10.2042a28.7836,28.7836,0,0,1,5.232-16.2989l5.5184-7.8532a47.3349,47.3349,0,0,1,7.4582-8.32l7.2795-6.406A6.5984,6.5984,0,0,1,110.5879.87h0a6.5984,6.5984,0,0,1,4.9611,2.2479L120.5,8.7634a47.3345,47.3345,0,0,0,9.4653,8.2637h0a28.784,28.784,0,0,1,10.2651,11.9748l4.41,9.5875A1.3618,1.3618,0,0,0,145.8779,39.3821Z"/><path class="cls-12" d="M107.6945,67.5922l1.641-1.94a5.536,5.536,0,0,1,3.1713-1.8585L120.878,62.17a1.671,1.671,0,0,1,1.9628,1.3435h0a1.6711,1.6711,0,0,1-1.5068,1.9624l-8.0039.6618a5.535,5.535,0,0,0-3.458,1.6024l-.9665.9665a.8234.8234,0,0,1-.657.2378h0A.8235.8235,0,0,1,107.6945,67.5922Z"/><path class="cls-12" d="M136.6074,59.39h0a1.3856,1.3856,0,0,1,1.0582-.6245l3.2386-.24A1.6025,1.6025,0,0,1,142.601,60.4h0a1.6024,1.6024,0,0,1-1.7168,1.3206l-2.6541-.23-.31.0343A1.3858,1.3858,0,0,1,136.6074,59.39Z"/><path class="cls-13" d="M111.6388,71.0642h0a4.726,4.726,0,0,1,1.8829-1.53l.9792-.4407a7.3688,7.3688,0,0,1,3.0235-.6489h2.17a3.6374,3.6374,0,0,1,2.804,1.32v0a.8921.8921,0,0,1-.2382,1.3389l-1.6013.934a7.3682,7.3682,0,0,1-5.1235.8673l-3.4367-.6706A.7456.7456,0,0,1,111.6388,71.0642Z"/><path class="cls-13" d="M134.0933,67.9736h0a3.4214,3.4214,0,0,1,2.2266-3.206l1.9086-.7113a.9486.9486,0,0,1,1.1523.4138h0a2.0421,2.0421,0,0,1,.2636.8113l-.12,1.4613a5.1151,5.1151,0,0,1-.7271,2.2394h0a.7346.7346,0,0,1-.798.3329l-3.4382-.8193A.5252.5252,0,0,1,134.0933,67.9736Z"/><path class="cls-3" d="M130.7417,64.7l2.4275,16.82a2.6712,2.6712,0,0,0,.2985.8969l.5447.9986a2.67,2.67,0,0,1-.5224,3.23h0a2.67,2.67,0,0,1-2.958.4637s-1.5894-.9894-1.395-.6565c.2792.4781,1.1351,2.855,4.8569,1.1675,3.246-1.4717.9636-3.8938.3445-5.6166S130.7417,64.7,130.7417,64.7Z"/><circle class="cls-14" cx="118.0826" cy="70.7244" r="2.28"/><circle class="cls-6" cx="118.0826" cy="70.7244" r="1.3972"/><circle class="cls-13" cx="119.1108" cy="69.6962" r="0.3689"/><path class="cls-14" d="M138.9662,66.5694c0,1.2693-.3221,2.7579-.9193,2.7579s-1.2433-1.4886-1.2433-2.7579.4842-2.2982,1.0813-2.2982S138.9662,65.3,138.9662,66.5694Z"/><path class="cls-6" d="M138.573,66.653c0,.8077-.205,1.755-.585,1.755s-.7912-.9473-.7912-1.755.3081-1.4625.6881-1.4625S138.573,65.8453,138.573,66.653Z"/><path class="cls-13" d="M138.573,66c0,.1934-.0783.42-.2236.42s-.3025-.2268-.3025-.42.1178-.35.2631-.35S138.573,65.8069,138.573,66Z"/><path class="cls-15" d="M120.3151,96.1707l3.7084-2.1976a1.67,1.67,0,0,1,1.38-.1476l1.2184.4062a1.67,1.67,0,0,0,1.393-.1557h0a1.67,1.67,0,0,1,2.0482.25l.8459.8493a.3215.3215,0,0,1-.2278.5484h-3.514a13.0788,13.0788,0,0,0-1.4047.0757l-5.3771.5813A.1134.1134,0,0,1,120.3151,96.1707Z"/><path class="cls-3" d="M128.1646,99.8935l-.0724.0111a7.6093,7.6093,0,0,1-3.5443-.2985l-.52-.1723Z"/><path class="cls-3" d="M129.42,101.6077l-1.018-.4631a6.4117,6.4117,0,0,0-4.36-.3447l-2.9282.8078s3.2172-.2032,4.782-.2032S129.42,101.6077,129.42,101.6077Z"/><path class="cls-3" d="M87.0609,70.173l2.9352,8.0851a2.1573,2.1573,0,0,0,1.76,1.4045h0a2.1574,2.1574,0,0,0,2.2138-1.21l1.29-2.6981s-1.2424,2.4784-3.2982,2.72S87.0609,70.173,87.0609,70.173Z"/><path class="cls-3" d="M88.9466,68.6229,90.8143,75.76a1.1086,1.1086,0,0,0,.6437.7417v0a1.109,1.109,0,0,0,1.2929-.3273l.9334-1.16s-1.2308.6054-1.7219.1975S88.9466,68.6229,88.9466,68.6229Z"/><path class="cls-3" d="M93.5022,68.6229l-.0173.0033a1.8737,1.8737,0,0,0-1.4872,2.2006L92.23,72.01S92.4037,69.4831,93.5022,68.6229Z"/><path class="cls-3" d="M128.3726,82.41H127.89a4.4364,4.4364,0,0,0-3.117,1.28l-.45.4446a4.0425,4.0425,0,0,1,1.3081-2.2977C126.6779,81.0629,128.3726,82.41,128.3726,82.41Z"/><path class="cls-16" d="M145.0054,39.3821l-8.8744-.0472a88.2646,88.2646,0,0,0-29.2162,4.8111L83.5821,52.1834s28.0553-11.9037,37.5315-14.592S145.0054,39.3821,145.0054,39.3821Z"/></g></svg>