<svg xmlns="http://www.w3.org/2000/svg" width="260" height="171.907" viewBox="0 0 260 171.907"><defs><style>.cls-1{fill:#765530;}.cls-2{fill:#010101;}.cls-3{fill:#d6bb84;}</style></defs><g id="Assets"><path class="cls-1" d="M28.0019,156.8418c.3115,2.5965.33,3.9587.8824,5.3741a11.6839,11.6839,0,0,0,1.71,2.8309c.5859.7668,1.0839,1.38,1.5148,1.8786a11.4326,11.4326,0,0,0,2.63,2.389,17.9821,17.9821,0,0,0,5.2647,2.2787c2.2584.5379,2.665.3788,4.9037-.4343s2.0781-.965,2.8244-1.7817a11.29,11.29,0,0,1,2.5223-2.1557c.6618-.4435,1.8258-1.4969,3.44-2.8953,1.6347-1.4163,3.7312-3.1863,6.2354-5.035,1.2442-.9185,2.7161-1.0993,3.6449-1.8888,2.7865-2.3687-1.332-.4464,7.1041-6.619a28.16,28.16,0,0,0,3.0008-2.2452c1.0438-1.0792,1.3943-1.9224,2.7777-2.752a17.98,17.98,0,0,0,3.215-2.33l.1935-.4553s8.2709,8.3331,9.7541,9.8051.8509,1.3206,1.833,1.8426,2.1914.983,2.9188.5293a8.0543,8.0543,0,0,0,3.2533-2.2872c1.47-1.7371,1.7672-.8445,2.7287-3.0761a4.2285,4.2285,0,0,0,0-4.1133C99.9824,144.9051,89.61,135.084,89.61,135.084l2.2845-1.8518,2.0742-1.6813,3.6-2.9183,2.397-1.943,3.2666-2.6479s2.1256.7244,5.1754,1.761c1.3692.4653,2.9246.9936,4.5576,1.5475,1.5325.52,3.1334,1.0622,4.7126,1.5963,1.4059.4755,2.3086,1.2355,3.6169,1.6762,1.0794.3635,2.59.4168,3.5243.73,2.7.9042,4.6453,1.5454,4.9745,1.6283a3.2469,3.2469,0,0,0,2.2819.11c1.2074-.2367,1.6514-1.5757,2.0954-2.9147s-.5951-2.3152-1.4076-2.9429-.9163.1225-4.1944-1.3684c-.5511-.2506-1.1735-.5076-1.8446-.766-1.546-.5954-3.202-1.511-4.9855-2.0639-2.0477-.6348-4.2164-.8909-5.7885-1.3035-.5677-.149-1.1363-.3189-1.6909-.4992a47.5606,47.5606,0,0,1-5.4157-2.1667l2.5224-2.04,2.96-2.3935,4.5319-3.6653,5.7041-3.809a2.0183,2.0183,0,0,0,.4918-.465l1.4181-1.884,4.8907-3.9554,1.434-1.16,3.7689-3.0481,3.8219-2.6217,2.4373-2.44s2.1109.7473,3.1668,1.1476a4.7113,4.7113,0,0,0,3.5488-.3961,7.3621,7.3621,0,0,0,3.3529-4.5733,6.2871,6.2871,0,0,0-.0737-4.402v.0475l3.3409-2.7348,3.89-3.1844,5.7339-4.6936h0c1.4066-.7172,1.1108-.77,2.1312-1.9793l1.796-1.2354,3.6674-2.154a2.3844,2.3844,0,0,0,.5508-.4457l3.1158-3.4037,1.7718-1.45s3.1,1.13,7.1143,2.61c3.1521,1.1624,6.8674,2.5409,10.0865,3.7578,3.7727,1.4262,6.8638,2.63,7.5679,3.0052,2.07,1.1013,4.5224-.46,6.6262-4.1426a5.6033,5.6033,0,0,0-1.1554-7.149c-.3-.2244-3.5509-1.5089-7.297-2.9521-5.445-2.0977-11.9369-4.5307-11.9369-4.5307l4.1142-3.2946,3.4893-2.6578c.7385-.3314,1.57-.0588,1.8726-1.4905l3.1332-2.6545,3.1432-2.517,3.134-1.7861a6.6138,6.6138,0,0,0,1.6651-1.3489l2.194-2.465,3.4709-2.78,2.1214,2.1324,1.9692,1.98s2.3981,1.9443,5.5062-1.18a24.5436,24.5436,0,0,0,2.8386-3.2921,5.32,5.32,0,0,0,1.1574-2.9564c0-1.339-.0623-.8554-.9191-1.7667s-2.85-2.9245-2.85-2.9245.8325-.5882,1.7414-1.2748c.7053-.5329,1.4566-1.125,1.9-1.5475,1.0155-.9667,2.886-4.7653,2.3948-7.1061s-1.7944-8.595-6.0269-11.047c-1.3367-.7744-2.2625-1.3668-3.07-1.8051a7.852,7.852,0,0,0-4.2483-1.0345c-.6462-.0059-1.397.02-2.2987.0739,0,0-3.0519.76-4.3839,2.099-.2834.2849-1.3015,1.1712-2.7289,2.39-.7312.6245-1.2528,1.7566-2.1551,2.52-.6284.5313-1.6047.667-2.28,1.2358-1.0307.8679-2.0989,1.7652-3.1519,2.6484-1.063.8916-2.1106,1.7688-3.0889,2.5871-.7179.6-1.3984,1.1692-2.02,1.6886-2.0553,1.7168-3.4687,2.8938-3.4687,2.8938l-.1544-3.74q-.044-1.0647.0113-2.13l.1926-3.7082.0149-2.8825s.1812-1.444-3.1489-1.5807-3.33,2.0951-3.33,2.0951l-.37,5.21a15.0639,15.0639,0,0,0-.004,2.0773l.3742,5.5707V23.153s-1.053.8752-2.7442,2.2784c-1.0419.8644-2.3259,1.9291-3.7553,3.113-1.2738,1.0551-2.7206,1.3605-4.1566,2.5475-1.0513.869-2.07,2.6022-3.1446,3.4884-1.3333,1.1-2.6637,2.1955-3.94,3.2442-3.4381,2.8252-6.4824,5.3089-8.1279,6.6095a12.0208,12.0208,0,0,1-1.29.9623c-.37-.0219-.7941.8694-1.9142-.6921s-5.7148-5.309-7.1915-7.229-2.3647-4.1516-3.2528-4.1516-4.1317-2.836-4.9519-4.096a11.3033,11.3033,0,0,0-2.31-2.3218c-.73-.7234-4.678-4.7132-5.59-5.6194s-.7221-.7366-1.9272-1.9373-.7611-1.6469-2.0932-1.6469-2.7741,1.6886-3.6071,3.0759.44,1.8978,1.3871,2.7263c1.1822,1.0338,12.6395,13.5687,12.8762,14.2824.444,1.339,6.2161,5.8023,7.5481,7.1412s1.8894,1.8961,2.7207,2.7334,1.53,1.934,2.0689,2.5014-3.4576,2.3528-4.3456,3.2454c-.1887.19-1.3147,1.2093-3.0059,2.7187-.9836.878-2.1585,1.9216-3.4512,3.064-1.2734,1.1252-2.6611,2.3462-4.0933,3.599-1.4436,1.2628-2.9324,2.5579-4.3946,3.82-.9123.7873-1.8142,1.5617-2.6884,2.3073-2.2052,1.8807-4.2338,3.578-5.8064,4.8363a31.9936,31.9936,0,0,1-2.7093,2.0186,33.4827,33.4827,0,0,0-3.6617,2.56c-1.2757,1.0258-2.1142,1.849-2.778,2.34a21.9691,21.9691,0,0,0-3.48,3.02,14.0494,14.0494,0,0,1-3.1888,2.215s.0154-1.5432.0349-3.8993c.0309-3.737-.2942-8.9611.0793-14.4314a52.8117,52.8117,0,0,0-.1142-9.169c-.2593-1.4284-2.8-1.7369-3.9719-1.5827s-2.0751.2985-2.2893,1.7885a52.6235,52.6235,0,0,0-.2142,5.9533c0,.9965-.222,7.8107-.222,9.15,0,1.84.222,5.4338.222,6.0254V90.007c0,.4463.4441,1.0826,0,1.4339-.15.1186-1.8158,1.4165-3.992,3.1187-1.1383.89-2.4162,1.8913-3.69,2.8921-.8456.6645-1.6893,1.3288-2.4889,1.9606-.9458.7474-3.5059,2.6927-6.4984,4.996-.9031.695-1.8455,1.4227-2.7949,2.16-.83.6446-1.6656,1.2965-2.4847,1.94-3.4016,2.6736-6.52,5.2064-7.8,6.4929a44.9156,44.9156,0,0,1-3.51,3.1288c-1.3553,1.1015-2.7271,2.1345-3.9819,3.0989-.8215.6315-1.5928,1.2335-2.2764,1.8062-1.6572,1.3881-4.3451,3.4671-6.14,4.9477a8.5721,8.5721,0,0,0-1.8519,1.7471c0,.1455-1-.0739-2.4-.4613-1.0489-.29-2.3225-.6747-3.5687-1.0707-2.195-.6975-4.3053-1.4307-4.9542-1.7477a5.5024,5.5024,0,0,0-4.4325.6091A6.7666,6.7666,0,0,0,37.6,129.9532c-1.5455,3.1243-.3023,4.87.444,6.2486.56,1.0338,1.66,2.4942,2.8813,2.6215a5.0583,5.0583,0,0,1,1.3637.3351l1.5271.614S42,141.643,40.5708,142.8065c-1.4208,1.1564-3.2859,2.67-5.0751,4.1068-2.25,1.8074-4.3808,3.4942-5.3559,4.1984C27.61,152.939,28.0019,156.8418,28.0019,156.8418Z"/><path class="cls-2" d="M189.8934,4.0026c-3.33-.1366-3.33,2.0951-3.33,2.0951l-.37,5.21a15.0639,15.0639,0,0,0-.004,2.0773l.3742,5.5707V23.153l.0849,2.1931a5.8186,5.8186,0,0,0,2.8961,1.1367C190.7815,26.4055,189.8934,4.0026,189.8934,4.0026Z"/><path class="cls-2" d="M126.5676,20.7781c-.8329,1.3873.44,1.8978,1.3871,2.7263,1.1822,1.0338,12.6395,13.5687,12.8762,14.2824.444,1.339,6.2161,5.8023,7.5481,7.1412s1.8894,1.8961,2.7207,2.7334,1.8469,1.8319,2.3853,2.3994l3.1081-2.2316-28.915-28.6175Z"/><path class="cls-2" d="M105.5939,56.8246c-1.1714.1543-2.0751.2985-2.2893,1.7885a52.6235,52.6235,0,0,0-.2142,5.9533c0,.9965-.222,7.8107-.222,9.15,0,1.84.222,5.4338.222,6.0254V90.007c0,.4463.4441,1.0826,0,1.4339,0,0,.1492,5.3083.1856,5.6194s.4805,1.65,2.7005,1.65Z"/><path class="cls-2" d="M43.8158,139.7724l-1.5271-.614a5.0583,5.0583,0,0,0-1.3637-.3351c-1.2213-.1273-2.3216-1.5877-2.8813-2.6215-.7463-1.3784-1.9895-3.1243-.444-6.2486l12.3364,4.7987Z"/><path class="cls-2" d="M228.4745,31.37a24.5436,24.5436,0,0,1-2.8386,3.2921c-3.1081,3.1243-5.5062,1.18-5.5062,1.18l-1.9692-1.98-2.1214-2.1324c-.8373-.8619-1.886-1.2987-1.8057-2.1961s-.3457-2.6305.3113-3.5492,2.8771-3.5967,4.4311-4.2662Z"/><path class="cls-2" d="M210.2119,67.3563c-2.1038,3.6826-4.5562,5.2439-6.6262,4.1426-.7041-.3747-3.7952-1.579-7.5679-3.0052-3.2191-1.2169-6.9344-2.5954-10.0865-3.7578-4.0138-1.48-7.1143-2.61-7.1143-2.61-1.8-.9069-3.329-1.4372-4.1184-1.8415s-1.2333-3.0823-1.6773-3.9749-.0357-2.2686.4261-3.3659,1.2932-1.2019,2.4316-.257S210.2119,67.3563,210.2119,67.3563Z"/><path class="cls-2" d="M152.8927,87.7616a7.3621,7.3621,0,0,1-3.3529,4.5733,4.7113,4.7113,0,0,1-3.5488.3961c-1.0559-.4-3.1668-1.1476-3.1668-1.1476a32.7485,32.7485,0,0,1-3.9887-1.4724c-.4466-.3272-1.9285-1.6309-1.41-4.9959s.319-5.0555,1.529-3.9872S152.8927,87.7616,152.8927,87.7616Z"/><path class="cls-2" d="M134.1708,130.1763c-.444,1.339-.888,2.678-2.0954,2.9147a3.2469,3.2469,0,0,1-2.2819-.11c-.3292-.0829-2.2741-.7241-4.9745-1.6283-.9342-.3128-2.4449-.3661-3.5243-.73-1.3083-.4407-2.211-1.2007-3.6169-1.6762-1.5792-.5341-3.18-1.0765-4.7126-1.5963-1.633-.5539-3.1884-1.0822-4.5576-1.5475-3.05-1.0366-5.1754-1.761-5.1754-1.761-1.6958-.7834-1.7554-1.0145-1.9476-2.0147s-.4456-2.1156-.0969-2.2274,2.1716.3251,4.8122,1.4456,13.89,4.021,15.5914,5.0255a107.942,107.942,0,0,0,11.4695,4.5751C133.5048,130.8458,134.3928,129.5069,134.1708,130.1763Z"/><path class="cls-2" d="M97.6243,152.8908a8.0543,8.0543,0,0,1-3.2533,2.2872c-.7274.4537-1.9367-.0074-2.9188-.5293s-.35-.3707-1.833-1.8426-9.7541-9.8051-9.7541-9.8051-2.451-1.9308-2.6-2.58a6.6962,6.6962,0,0,1,.3342-3.1761,16.06,16.06,0,0,1,.9017-1.833.5839.5839,0,0,1,.917-.1339Z"/><path class="cls-2" d="M46.0783,138.0583c-.8221,1.388,6.6365-6.2579,8.181-6.9583s-1.5634,1.0848-3.7835,2.4238A14.6931,14.6931,0,0,0,46.0783,138.0583Z"/><path class="cls-3" d="M90.957,153.6081s.1894-3.7526,2.72-5.67,4.4676-2.7211,5.2753-2.7655,1.2517.8482,1.2517,2.6335-2.664,4.91-5.328,6.2486S91.4777,154.5007,90.957,153.6081Z"/><path class="cls-3" d="M130.3,127.8458a2.2681,2.2681,0,0,0-1.2867,2.2634,4.4293,4.4293,0,0,0,.4957,2.0756c.444.8927,2.22,1.339,2.664.8927a3.4332,3.4332,0,0,0,.888-1.339,6.6652,6.6652,0,0,0,.444-2.678c0-.4463-.444-.8926-.888-1.3389S131.0908,127.5237,130.3,127.8458Z"/><path class="cls-3" d="M145.097,82.8992c-2.5412,2.13-1.7934,2.5828-1.8087,4.7337s-.16,3.0787,3.5367,3.9362c2.886.6695,3.996-1.7853,4.884-3.1243s.444-4.3034,0-5.7223a3.4254,3.4254,0,0,0-4.7-1.5471C145.0489,82.1963,146.9212,81.3706,145.097,82.8992Z"/><path class="cls-3" d="M201.29,62.146c-1.7293,2.5781-2.0726,4.4288-1.1846,6.2142s4.218,2.4547,5.1061,2.4547a4.7594,4.7594,0,0,0,3.552-2.6779c.888-1.7853,1.554-2.4548,1.11-4.24s-.4848-2.7539-2.24-3.3854S203.3628,59.0562,201.29,62.146Z"/><path class="cls-3" d="M219.9027,33.6179a6.6426,6.6426,0,0,1,2.22-4.2431,35.94,35.94,0,0,1,3.22-2.1764c1.4029-.7929,2.64-.9923,2.91,0s1.3792.7692.0472,3.4472a9.0606,9.0606,0,0,1-3.7194,3.96c-.9426.7265-2.4967,1.396-3.3847.95S219.72,34.5818,219.9027,33.6179Z"/><path class="cls-3" d="M187.0488,6.2586a2.7152,2.7152,0,0,0,2.2388.8781,6.9386,6.9386,0,0,0,3.095-.5843c.6189-.2316.6189-1.1242-.2691-1.5706a4.3727,4.3727,0,0,0-3.5521-.4463C186.7854,4.9818,186.4242,5.75,187.0488,6.2586Z"/><path class="cls-3" d="M104.12,59.4847a4.4244,4.4244,0,0,0,4.0763.3953c1.332-.4463.8219-1.16.8549-1.4727s-.8549-1.2053-2.1869-1.2053-2.3806.038-2.7443.6885S103.5958,59.0894,104.12,59.4847Z"/><path class="cls-3" d="M30.0516,153.1622c-.3971,1.1976-1.776,6.6949-.444,8.9265a16.6788,16.6788,0,0,0,5.3281,5.8022c2.22,1.339,3.996,2.678,6.216,3.1243s3.9359-.1234,5.298-2.74,2.25-.3846,1.3621-5.2942-1.776-6.6948-3.552-8.48-1.7194-3.2915-5.0777-4.5469S30.94,150.4842,30.0516,153.1622Z"/><path class="cls-2" d="M145.1518,92.0389c-2.3908-.77-4.4753-3.0829-3.42-5.721a2.6082,2.6082,0,0,1,1.4614-1.5291,1.7375,1.7375,0,0,1,.2239-.3922c-.4149.0831-.8834.1914-1.4484.2982a2.31,2.31,0,0,1-1.8928-.4073c-4.2022,5.6487-9.4966,10.2993-14.7454,14.9611-5.7479,5.1051-11.1624,10.5135-17.1247,15.3679-4.267,3.8733-8.2237,3.0627-13.2239,11.1289-3.0988,3.0436-9.8217,1.6974-13.204,4.431-4.4509,3.5972-4.9189,11.6113-8.3936,16.1537A64.33,64.33,0,0,1,62.6679,157c-3.2433,2.6509-7.2451,5.6718-11.6772,5.1889a2.3686,2.3686,0,0,1-1.8934-1.1391c-.35.6654-.6942,1.3338-1.0265,2.0091a2.5147,2.5147,0,0,1-.1625.28,12.6456,12.6456,0,0,1-1.0879,3.5528c-3.028,6.0676-9.4647,1.8922-12.5734-1.7769l-2.1379,1.8115a11.43,11.43,0,0,0,2.63,2.389,17.9821,17.9821,0,0,0,5.2647,2.2787c2.2584.5379,2.665.3788,4.9037-.4343s2.0781-.965,2.8244-1.7817a11.29,11.29,0,0,1,2.5223-2.1557c.6619-.4434,1.8258-1.4969,3.44-2.8953,1.6347-1.4162,3.7312-3.1863,6.2354-5.035,1.2442-.9185,2.7161-1.0993,3.6449-1.8888,2.7865-2.3687-1.332-.4464,7.1041-6.619a28.1733,28.1733,0,0,0,3.0008-2.2452c1.0438-1.0792,1.3943-1.9224,2.7777-2.752a17.9762,17.9762,0,0,0,3.2149-2.33l.1936-.4553s8.04,8.1,9.6842,9.7355a1.9037,1.9037,0,0,1,1.0152-.09,41.112,41.112,0,0,1-3.6755-10.22,7.1449,7.1449,0,0,1-.3734-4.5351,4.2888,4.2888,0,0,1,3.9246-3.48l1.454-1.1786,2.0742-1.6813,3.6-2.9183,2.397-1.9431,3.2666-2.6477s2.1256.7243,5.1754,1.7609c1.3691.4653,2.9246.9936,4.5576,1.5475,1.5325.52,3.1334,1.0622,4.7126,1.5964,1.4059.4754,2.3086,1.2354,3.6169,1.6761,1.0794.3635,2.59.4168,3.5243.73.7031.2354,1.3534.4524,1.9389.6471a2.3728,2.3728,0,0,1,.43-.59,4.144,4.144,0,0,1,1.92-1.0543c-2.0992-.71-4.1671-1.5374-6.239-2.4106-2.258-.9516-4.5179-1.8862-6.8049-2.7655a25.5284,25.5284,0,0,0-4.7508-1.5373,2.21,2.21,0,0,1-1.5855.254,3.4258,3.4258,0,0,1-1.5884-.6807,2.2507,2.2507,0,0,1,.7831-4.1116l-.0783-.0375,2.5224-2.04,2.96-2.3935,4.5319-3.6652,5.7041-3.809a2.0183,2.0183,0,0,0,.4918-.465l1.4181-1.884,4.8907-3.9554,1.434-1.16,3.7689-3.0481,3.8219-2.6218,2.4373-2.44s2.1109.7472,3.1668,1.1475a4.71,4.71,0,0,0,3.5488-.3961,5.7575,5.7575,0,0,0,1.8163-1.56C149.4032,91.8638,147.5364,92.807,145.1518,92.0389Z"/><path class="cls-2" d="M205.4476,70.9782a6.458,6.458,0,0,1-6.81-3.7946,2.3486,2.3486,0,0,1-.2167-1.15c-.0487-.0175-.0962-.0381-.1451-.055-1.6093-.5564-3.3231-.8343-4.9615-1.2941-3.4533-.9691-7.0889-2.3882-8.4285-6.0112a1.88,1.88,0,0,1,.0222-1.2678,14.12,14.12,0,0,0-6.1323,1.2341,2.2686,2.2686,0,0,1-3.2959-1.7673c-3.199,2.8815-6.5335,5.617-9.9535,8.2489A104.8651,104.8651,0,0,0,154.613,74.77c-.5217.53-1.0555,1.0558-1.59,1.582a13.6688,13.6688,0,0,0,1.9008,5.3325l1.2359-1.0117,3.89-3.1845,5.7339-4.6935c1.4066-.7172,1.1108-.77,2.1312-1.9793l1.796-1.2354,3.6674-2.1539a2.3848,2.3848,0,0,0,.5508-.4458l3.1158-3.4037,1.7717-1.45s3.1007,1.13,7.1144,2.61c3.1521,1.1624,6.8674,2.5409,10.0865,3.7578,3.7727,1.4262,6.8638,2.63,7.5679,3.0052,1.6407.873,3.5212.0674,5.2784-2.1357-.0165-.0026-.0328-.0066-.0493-.0093A5.0126,5.0126,0,0,1,205.4476,70.9782Z"/><path class="cls-2" d="M231.8992,13.7944c-.4913-2.3408-1.7944-8.595-6.0269-11.047L216.68,10.5361a2.5806,2.5806,0,0,1,1.99.8959c1.7835-1.3052,3.6054-2.56,5.4765-3.7477,1.8245-1.1581,4.3022,1.1967,3.0375,3.0533a37.2215,37.2215,0,0,1-8.4777,8.36c-.0356.0274-.0707.0552-.1063.0825a2.2808,2.2808,0,0,1-.53,1.5818c-1.8839,2.3252-4.109,4.3119-6.1186,6.52-2.1083,2.3167-3.4564,5.129-5.2939,7.6448-3.4728,4.7548-8.6409,7.2124-12.9228,11.0573a2.101,2.101,0,0,1-.5884.3732,31.4329,31.4329,0,0,1-4.8372,4.48c-1.0153.7553-2.0452,1.4859-3.0638,2.2275a47.2,47.2,0,0,1,9.2028,1.3943c-2.7586-1.0427-4.626-1.7347-4.626-1.7347l4.1142-3.2946,3.4893-2.6578c.7385-.3314,1.57-.0588,1.8726-1.4906l3.1332-2.6544,3.1432-2.517,3.134-1.7861a6.616,6.616,0,0,0,1.6651-1.3489l2.194-2.465,3.4709-2.78,4.0906,4.1119a3.3812,3.3812,0,0,0,2.8508.4784c-2.31-1.2634-3.7834-4.3311-4.3569-6.7263-.3621-1.5126.4859-2.7131,1.7146-3.674a4.5486,4.5486,0,0,1,3.716-2.1463c.0314-.0008.063.0016.0944.0014.2149-.1017.4183-.1984.603-.29a2.1931,2.1931,0,0,1,1.6542-.1531c.3205-.232.75-.5463,1.1982-.8852.7053-.5328,1.4566-1.1249,1.9-1.5474C230.52,19.9338,232.39,16.1352,231.8992,13.7944Z"/></g></svg>