<svg xmlns="http://www.w3.org/2000/svg" width="426" height="171.907" viewBox="0 0 426 171.907"><defs><style>.cls-1{fill:#765530;}.cls-2{fill:#010101;}.cls-3{fill:#d6bb84;}.cls-4{fill:#1f190f;}</style></defs><g id="Assets"><path class="cls-1" d="M28.0019,156.8418c.3115,2.5965.33,3.9587.8824,5.3741a11.6839,11.6839,0,0,0,1.71,2.8309c.5859.7668,1.0839,1.38,1.5148,1.8786a11.4326,11.4326,0,0,0,2.63,2.389,17.9821,17.9821,0,0,0,5.2647,2.2787c2.2584.5379,2.665.3788,4.9037-.4343s2.0781-.965,2.8244-1.7817a11.29,11.29,0,0,1,2.5223-2.1557c.6618-.4435,1.8258-1.4969,3.44-2.8953,1.6347-1.4163,3.7312-3.1863,6.2354-5.035,1.2442-.9185,2.7161-1.0993,3.6449-1.8888,2.7865-2.3687-1.332-.4464,7.1041-6.619a28.16,28.16,0,0,0,3.0008-2.2452c1.0438-1.0792,1.3943-1.9224,2.7777-2.752a17.98,17.98,0,0,0,3.215-2.33l.1935-.4553s8.2709,8.3331,9.7541,9.8051.8509,1.3206,1.833,1.8426,2.1914.983,2.9188.5293a8.0543,8.0543,0,0,0,3.2533-2.2872c1.47-1.7371,1.7672-.8445,2.7287-3.0761a4.2285,4.2285,0,0,0,0-4.1133C99.9824,144.9051,89.61,135.084,89.61,135.084l2.2845-1.8518,2.0742-1.6813,3.6-2.9183,2.397-1.943,3.2666-2.6479s2.1256.7244,5.1754,1.761c1.3692.4653,2.9246.9936,4.5576,1.5475,1.5325.52,3.1334,1.0622,4.7126,1.5963,1.4059.4755,2.3086,1.2355,3.6169,1.6762,1.0794.3635,2.59.4168,3.5243.73,2.7.9042,4.6453,1.5454,4.9745,1.6283a3.2469,3.2469,0,0,0,2.2819.11c1.2074-.2367,1.6514-1.5757,2.0954-2.9147s-.5951-2.3152-1.4076-2.9429-.9163.1225-4.1944-1.3684c-.5511-.2506-1.1735-.5076-1.8446-.766-1.546-.5954-3.202-1.511-4.9855-2.0639-2.0477-.6348-4.2164-.8909-5.7885-1.3035-.5677-.149-1.1363-.3189-1.6909-.4992a47.5606,47.5606,0,0,1-5.4157-2.1667l2.5224-2.04,2.96-2.3935,4.5319-3.6653,5.7041-3.809a2.0183,2.0183,0,0,0,.4918-.465l1.4181-1.884,4.8907-3.9554,1.434-1.16,3.7689-3.0481,3.8219-2.6217,2.4373-2.44s2.1109.7473,3.1668,1.1476a4.7113,4.7113,0,0,0,3.5488-.3961,7.3621,7.3621,0,0,0,3.3529-4.5733,6.2871,6.2871,0,0,0-.0737-4.402v.0475l3.3409-2.7348,3.89-3.1844,5.7339-4.6936h0c1.4066-.7172,1.1108-.77,2.1312-1.9793l1.796-1.2354,3.6674-2.154a2.3844,2.3844,0,0,0,.5508-.4457l3.1158-3.4037,1.7718-1.45s3.1,1.13,7.1143,2.61c3.1521,1.1624,6.8674,2.5409,10.0865,3.7578,3.7727,1.4262,6.8638,2.63,7.5679,3.0052,2.07,1.1013,4.5224-.46,6.6262-4.1426a5.6033,5.6033,0,0,0-1.1554-7.149c-.3-.2244-3.5509-1.5089-7.297-2.9521-5.445-2.0977-11.9369-4.5307-11.9369-4.5307l4.1142-3.2946,3.4893-2.6578c.7385-.3314,1.57-.0588,1.8726-1.4905l3.1332-2.6545,3.1432-2.517,3.134-1.7861a6.6138,6.6138,0,0,0,1.6651-1.3489l2.194-2.465,3.4709-2.78,2.1214,2.1324,1.9692,1.98s2.3981,1.9443,5.5062-1.18a24.5436,24.5436,0,0,0,2.8386-3.2921,5.32,5.32,0,0,0,1.1574-2.9564c0-1.339-.0623-.8554-.9191-1.7667s-2.85-2.9245-2.85-2.9245.8325-.5882,1.7414-1.2748c.7053-.5329,1.4566-1.125,1.9-1.5475,1.0155-.9667,2.886-4.7653,2.3948-7.1061s-1.7944-8.595-6.0269-11.047c-1.3367-.7744-2.2625-1.3668-3.07-1.8051a7.852,7.852,0,0,0-4.2483-1.0345c-.6462-.0059-1.397.02-2.2987.0739,0,0-3.0519.76-4.3839,2.099-.2834.2849-1.3015,1.1712-2.7289,2.39-.7312.6245-1.2528,1.7566-2.1551,2.52-.6284.5313-1.6047.667-2.28,1.2358-1.0307.8679-2.0989,1.7652-3.1519,2.6484-1.063.8916-2.1106,1.7688-3.0889,2.5871-.7179.6-1.3984,1.1692-2.02,1.6886-2.0553,1.7168-3.4687,2.8938-3.4687,2.8938l-.1544-3.74q-.044-1.0647.0113-2.13l.1926-3.7082.0149-2.8825s.1812-1.444-3.1489-1.5807-3.33,2.0951-3.33,2.0951l-.37,5.21a15.0639,15.0639,0,0,0-.004,2.0773l.3742,5.5707V23.153s-1.053.8752-2.7442,2.2784c-1.0419.8644-2.3259,1.9291-3.7553,3.113-1.2738,1.0551-2.7206,1.3605-4.1566,2.5475-1.0513.869-2.07,2.6022-3.1446,3.4884-1.3333,1.1-2.6637,2.1955-3.94,3.2442-3.4381,2.8252-6.4824,5.3089-8.1279,6.6095a12.0208,12.0208,0,0,1-1.29.9623c-.37-.0219-.7941.8694-1.9142-.6921s-5.7148-5.309-7.1915-7.229-2.3647-4.1516-3.2528-4.1516-4.1317-2.836-4.9519-4.096a11.3033,11.3033,0,0,0-2.31-2.3218c-.73-.7234-4.678-4.7132-5.59-5.6194s-.7221-.7366-1.9272-1.9373-.7611-1.6469-2.0932-1.6469-2.7741,1.6886-3.6071,3.0759.44,1.8978,1.3871,2.7263c1.1822,1.0338,12.6395,13.5687,12.8762,14.2824.444,1.339,6.2161,5.8023,7.5481,7.1412s1.8894,1.8961,2.7207,2.7334,1.53,1.934,2.0689,2.5014-3.4576,2.3528-4.3456,3.2454c-.1887.19-1.3147,1.2093-3.0059,2.7187-.9836.878-2.1585,1.9216-3.4512,3.064-1.2734,1.1252-2.6611,2.3462-4.0933,3.599-1.4436,1.2628-2.9324,2.5579-4.3946,3.82-.9123.7873-1.8142,1.5617-2.6884,2.3073-2.2052,1.8807-4.2338,3.578-5.8064,4.8363a31.9936,31.9936,0,0,1-2.7093,2.0186,33.4827,33.4827,0,0,0-3.6617,2.56c-1.2757,1.0258-2.1142,1.849-2.778,2.34a21.9691,21.9691,0,0,0-3.48,3.02,14.0494,14.0494,0,0,1-3.1888,2.215s.0154-1.5432.0349-3.8993c.0309-3.737-.2942-8.9611.0793-14.4314a52.8117,52.8117,0,0,0-.1142-9.169c-.2593-1.4284-2.8-1.7369-3.9719-1.5827s-2.0751.2985-2.2893,1.7885a52.6235,52.6235,0,0,0-.2142,5.9533c0,.9965-.222,7.8107-.222,9.15,0,1.84.222,5.4338.222,6.0254V90.007c0,.4463.4441,1.0826,0,1.4339-.15.1186-1.8158,1.4165-3.992,3.1187-1.1383.89-2.4162,1.8913-3.69,2.8921-.8456.6645-1.6893,1.3288-2.4889,1.9606-.9458.7474-3.5059,2.6927-6.4984,4.996-.9031.695-1.8455,1.4227-2.7949,2.16-.83.6446-1.6656,1.2965-2.4847,1.94-3.4016,2.6736-6.52,5.2064-7.8,6.4929a44.9156,44.9156,0,0,1-3.51,3.1288c-1.3553,1.1015-2.7271,2.1345-3.9819,3.0989-.8215.6315-1.5928,1.2335-2.2764,1.8062-1.6572,1.3881-4.3451,3.4671-6.14,4.9477a8.5721,8.5721,0,0,0-1.8519,1.7471c0,.1455-1-.0739-2.4-.4613-1.0489-.29-2.3225-.6747-3.5687-1.0707-2.195-.6975-4.3053-1.4307-4.9542-1.7477a5.5024,5.5024,0,0,0-4.4325.6091A6.7666,6.7666,0,0,0,37.6,129.9532c-1.5455,3.1243-.3023,4.87.444,6.2486.56,1.0338,1.66,2.4942,2.8813,2.6215a5.0583,5.0583,0,0,1,1.3637.3351l1.5271.614S42,141.643,40.5708,142.8065c-1.4208,1.1564-3.2859,2.67-5.0751,4.1068-2.25,1.8074-4.3808,3.4942-5.3559,4.1984C27.61,152.939,28.0019,156.8418,28.0019,156.8418Z"/><path class="cls-2" d="M189.8934,4.0026c-3.33-.1366-3.33,2.0951-3.33,2.0951l-.37,5.21a15.0639,15.0639,0,0,0-.004,2.0773l.3742,5.5707V23.153l.0849,2.1931a5.8186,5.8186,0,0,0,2.8961,1.1367C190.7815,26.4055,189.8934,4.0026,189.8934,4.0026Z"/><path class="cls-2" d="M126.5676,20.7781c-.8329,1.3873.44,1.8978,1.3871,2.7263,1.1822,1.0338,12.6395,13.5687,12.8762,14.2824.444,1.339,6.2161,5.8023,7.5481,7.1412s1.8894,1.8961,2.7207,2.7334,1.8469,1.8319,2.3853,2.3994l3.1081-2.2316-28.915-28.6175Z"/><path class="cls-2" d="M105.5939,56.8246c-1.1714.1543-2.0751.2985-2.2893,1.7885a52.6235,52.6235,0,0,0-.2142,5.9533c0,.9965-.222,7.8107-.222,9.15,0,1.84.222,5.4338.222,6.0254V90.007c0,.4463.4441,1.0826,0,1.4339,0,0,.1492,5.3083.1856,5.6194s.4805,1.65,2.7005,1.65Z"/><path class="cls-2" d="M43.8158,139.7724l-1.5271-.614a5.0583,5.0583,0,0,0-1.3637-.3351c-1.2213-.1273-2.3216-1.5877-2.8813-2.6215-.7463-1.3784-1.9895-3.1243-.444-6.2486l12.3364,4.7987Z"/><path class="cls-2" d="M228.4745,31.37a24.5436,24.5436,0,0,1-2.8386,3.2921c-3.1081,3.1243-5.5062,1.18-5.5062,1.18l-1.9692-1.98-2.1214-2.1324c-.8373-.8619-1.886-1.2987-1.8057-2.1961s-.3457-2.6305.3113-3.5492,2.8771-3.5967,4.4311-4.2662Z"/><path class="cls-2" d="M210.2119,67.3563c-2.1038,3.6826-4.5562,5.2439-6.6262,4.1426-.7041-.3747-3.7952-1.579-7.5679-3.0052-3.2191-1.2169-6.9344-2.5954-10.0865-3.7578-4.0138-1.48-7.1143-2.61-7.1143-2.61-1.8-.9069-3.329-1.4372-4.1184-1.8415s-1.2333-3.0823-1.6773-3.9749-.0357-2.2686.4261-3.3659,1.2932-1.2019,2.4316-.257S210.2119,67.3563,210.2119,67.3563Z"/><path class="cls-2" d="M152.8927,87.7616a7.3621,7.3621,0,0,1-3.3529,4.5733,4.7113,4.7113,0,0,1-3.5488.3961c-1.0559-.4-3.1668-1.1476-3.1668-1.1476a32.7485,32.7485,0,0,1-3.9887-1.4724c-.4466-.3272-1.9285-1.6309-1.41-4.9959s.319-5.0555,1.529-3.9872S152.8927,87.7616,152.8927,87.7616Z"/><path class="cls-2" d="M134.1708,130.1763c-.444,1.339-.888,2.678-2.0954,2.9147a3.2469,3.2469,0,0,1-2.2819-.11c-.3292-.0829-2.2741-.7241-4.9745-1.6283-.9342-.3128-2.4449-.3661-3.5243-.73-1.3083-.4407-2.211-1.2007-3.6169-1.6762-1.5792-.5341-3.18-1.0765-4.7126-1.5963-1.633-.5539-3.1884-1.0822-4.5576-1.5475-3.05-1.0366-5.1754-1.761-5.1754-1.761-1.6958-.7834-1.7554-1.0145-1.9476-2.0147s-.4456-2.1156-.0969-2.2274,2.1716.3251,4.8122,1.4456,13.89,4.021,15.5914,5.0255a107.942,107.942,0,0,0,11.4695,4.5751C133.5048,130.8458,134.3928,129.5069,134.1708,130.1763Z"/><path class="cls-2" d="M97.6243,152.8908a8.0543,8.0543,0,0,1-3.2533,2.2872c-.7274.4537-1.9367-.0074-2.9188-.5293s-.35-.3707-1.833-1.8426-9.7541-9.8051-9.7541-9.8051-2.451-1.9308-2.6-2.58a6.6962,6.6962,0,0,1,.3342-3.1761,16.06,16.06,0,0,1,.9017-1.833.5839.5839,0,0,1,.917-.1339Z"/><path class="cls-2" d="M46.0783,138.0583c-.8221,1.388,6.6365-6.2579,8.181-6.9583s-1.5634,1.0848-3.7835,2.4238A14.6931,14.6931,0,0,0,46.0783,138.0583Z"/><path class="cls-3" d="M90.957,153.6081s.1894-3.7526,2.72-5.67,4.4676-2.7211,5.2753-2.7655,1.2517.8482,1.2517,2.6335-2.664,4.91-5.328,6.2486S91.4777,154.5007,90.957,153.6081Z"/><path class="cls-3" d="M130.3,127.8458a2.2681,2.2681,0,0,0-1.2867,2.2634,4.4293,4.4293,0,0,0,.4957,2.0756c.444.8927,2.22,1.339,2.664.8927a3.4332,3.4332,0,0,0,.888-1.339,6.6652,6.6652,0,0,0,.444-2.678c0-.4463-.444-.8926-.888-1.3389S131.0908,127.5237,130.3,127.8458Z"/><path class="cls-3" d="M145.097,82.8992c-2.5412,2.13-1.7934,2.5828-1.8087,4.7337s-.16,3.0787,3.5367,3.9362c2.886.6695,3.996-1.7853,4.884-3.1243s.444-4.3034,0-5.7223a3.4254,3.4254,0,0,0-4.7-1.5471C145.0489,82.1963,146.9212,81.3706,145.097,82.8992Z"/><path class="cls-3" d="M201.29,62.146c-1.7293,2.5781-2.0726,4.4288-1.1846,6.2142s4.218,2.4547,5.1061,2.4547a4.7594,4.7594,0,0,0,3.552-2.6779c.888-1.7853,1.554-2.4548,1.11-4.24s-.4848-2.7539-2.24-3.3854S203.3628,59.0562,201.29,62.146Z"/><path class="cls-3" d="M219.9027,33.6179a6.6426,6.6426,0,0,1,2.22-4.2431,35.94,35.94,0,0,1,3.22-2.1764c1.4029-.7929,2.64-.9923,2.91,0s1.3792.7692.0472,3.4472a9.0606,9.0606,0,0,1-3.7194,3.96c-.9426.7265-2.4967,1.396-3.3847.95S219.72,34.5818,219.9027,33.6179Z"/><path class="cls-3" d="M187.0488,6.2586a2.7152,2.7152,0,0,0,2.2388.8781,6.9386,6.9386,0,0,0,3.095-.5843c.6189-.2316.6189-1.1242-.2691-1.5706a4.3727,4.3727,0,0,0-3.5521-.4463C186.7854,4.9818,186.4242,5.75,187.0488,6.2586Z"/><path class="cls-3" d="M104.12,59.4847a4.4244,4.4244,0,0,0,4.0763.3953c1.332-.4463.8219-1.16.8549-1.4727s-.8549-1.2053-2.1869-1.2053-2.3806.038-2.7443.6885S103.5958,59.0894,104.12,59.4847Z"/><path class="cls-3" d="M30.0516,153.1622c-.3971,1.1976-1.776,6.6949-.444,8.9265a16.6788,16.6788,0,0,0,5.3281,5.8022c2.22,1.339,3.996,2.678,6.216,3.1243s3.9359-.1234,5.298-2.74,2.25-.3846,1.3621-5.2942-1.776-6.6948-3.552-8.48-1.7194-3.2915-5.0777-4.5469S30.94,150.4842,30.0516,153.1622Z"/><path class="cls-2" d="M145.1518,92.0389c-2.3908-.77-4.4753-3.0829-3.42-5.721a2.6082,2.6082,0,0,1,1.4614-1.5291,1.7375,1.7375,0,0,1,.2239-.3922c-.4149.0831-.8834.1914-1.4484.2982a2.31,2.31,0,0,1-1.8928-.4073c-4.2022,5.6487-9.4966,10.2993-14.7454,14.9611-5.7479,5.1051-11.1624,10.5135-17.1247,15.3679-4.267,3.8733-8.2237,3.0627-13.2239,11.1289-3.0988,3.0436-9.8217,1.6974-13.204,4.431-4.4509,3.5972-4.9189,11.6113-8.3936,16.1537A64.33,64.33,0,0,1,62.6679,157c-3.2433,2.6509-7.2451,5.6718-11.6772,5.1889a2.3686,2.3686,0,0,1-1.8934-1.1391c-.35.6654-.6942,1.3338-1.0265,2.0091a2.5147,2.5147,0,0,1-.1625.28,12.6456,12.6456,0,0,1-1.0879,3.5528c-3.028,6.0676-9.4647,1.8922-12.5734-1.7769l-2.1379,1.8115a11.43,11.43,0,0,0,2.63,2.389,17.9821,17.9821,0,0,0,5.2647,2.2787c2.2584.5379,2.665.3788,4.9037-.4343s2.0781-.965,2.8244-1.7817a11.29,11.29,0,0,1,2.5223-2.1557c.6619-.4434,1.8258-1.4969,3.44-2.8953,1.6347-1.4162,3.7312-3.1863,6.2354-5.035,1.2442-.9185,2.7161-1.0993,3.6449-1.8888,2.7865-2.3687-1.332-.4464,7.1041-6.619a28.1733,28.1733,0,0,0,3.0008-2.2452c1.0438-1.0792,1.3943-1.9224,2.7777-2.752a17.9762,17.9762,0,0,0,3.2149-2.33l.1936-.4553s8.04,8.1,9.6842,9.7355a1.9037,1.9037,0,0,1,1.0152-.09,41.112,41.112,0,0,1-3.6755-10.22,7.1449,7.1449,0,0,1-.3734-4.5351,4.2888,4.2888,0,0,1,3.9246-3.48l1.454-1.1786,2.0742-1.6813,3.6-2.9183,2.397-1.9431,3.2666-2.6477s2.1256.7243,5.1754,1.7609c1.3691.4653,2.9246.9936,4.5576,1.5475,1.5325.52,3.1334,1.0622,4.7126,1.5964,1.4059.4754,2.3086,1.2354,3.6169,1.6761,1.0794.3635,2.59.4168,3.5243.73.7031.2354,1.3534.4524,1.9389.6471a2.3728,2.3728,0,0,1,.43-.59,4.144,4.144,0,0,1,1.92-1.0543c-2.0992-.71-4.1671-1.5374-6.239-2.4106-2.258-.9516-4.5179-1.8862-6.8049-2.7655a25.5284,25.5284,0,0,0-4.7508-1.5373,2.21,2.21,0,0,1-1.5855.254,3.4258,3.4258,0,0,1-1.5884-.6807,2.2507,2.2507,0,0,1,.7831-4.1116l-.0783-.0375,2.5224-2.04,2.96-2.3935,4.5319-3.6652,5.7041-3.809a2.0183,2.0183,0,0,0,.4918-.465l1.4181-1.884,4.8907-3.9554,1.434-1.16,3.7689-3.0481,3.8219-2.6218,2.4373-2.44s2.1109.7472,3.1668,1.1475a4.71,4.71,0,0,0,3.5488-.3961,5.7575,5.7575,0,0,0,1.8163-1.56C149.4032,91.8638,147.5364,92.807,145.1518,92.0389Z"/><path class="cls-2" d="M205.4476,70.9782a6.458,6.458,0,0,1-6.81-3.7946,2.3486,2.3486,0,0,1-.2167-1.15c-.0487-.0175-.0962-.0381-.1451-.055-1.6093-.5564-3.3231-.8343-4.9615-1.2941-3.4533-.9691-7.0889-2.3882-8.4285-6.0112a1.88,1.88,0,0,1,.0222-1.2678,14.12,14.12,0,0,0-6.1323,1.2341,2.2686,2.2686,0,0,1-3.2959-1.7673c-3.199,2.8815-6.5335,5.617-9.9535,8.2489A104.8651,104.8651,0,0,0,154.613,74.77c-.5217.53-1.0555,1.0558-1.59,1.582a13.6688,13.6688,0,0,0,1.9008,5.3325l1.2359-1.0117,3.89-3.1845,5.7339-4.6935c1.4066-.7172,1.1108-.77,2.1312-1.9793l1.796-1.2354,3.6674-2.1539a2.3848,2.3848,0,0,0,.5508-.4458l3.1158-3.4037,1.7717-1.45s3.1007,1.13,7.1144,2.61c3.1521,1.1624,6.8674,2.5409,10.0865,3.7578,3.7727,1.4262,6.8638,2.63,7.5679,3.0052,1.6407.873,3.5212.0674,5.2784-2.1357-.0165-.0026-.0328-.0066-.0493-.0093A5.0126,5.0126,0,0,1,205.4476,70.9782Z"/><path class="cls-2" d="M231.8992,13.7944c-.4913-2.3408-1.7944-8.595-6.0269-11.047L216.68,10.5361a2.5806,2.5806,0,0,1,1.99.8959c1.7835-1.3052,3.6054-2.56,5.4765-3.7477,1.8245-1.1581,4.3022,1.1967,3.0375,3.0533a37.2215,37.2215,0,0,1-8.4777,8.36c-.0356.0274-.0707.0552-.1063.0825a2.2808,2.2808,0,0,1-.53,1.5818c-1.8839,2.3252-4.109,4.3119-6.1186,6.52-2.1083,2.3167-3.4564,5.129-5.2939,7.6448-3.4728,4.7548-8.6409,7.2124-12.9228,11.0573a2.101,2.101,0,0,1-.5884.3732,31.4329,31.4329,0,0,1-4.8372,4.48c-1.0153.7553-2.0452,1.4859-3.0638,2.2275a47.2,47.2,0,0,1,9.2028,1.3943c-2.7586-1.0427-4.626-1.7347-4.626-1.7347l4.1142-3.2946,3.4893-2.6578c.7385-.3314,1.57-.0588,1.8726-1.4906l3.1332-2.6544,3.1432-2.517,3.134-1.7861a6.616,6.616,0,0,0,1.6651-1.3489l2.194-2.465,3.4709-2.78,4.0906,4.1119a3.3812,3.3812,0,0,0,2.8508.4784c-2.31-1.2634-3.7834-4.3311-4.3569-6.7263-.3621-1.5126.4859-2.7131,1.7146-3.674a4.5486,4.5486,0,0,1,3.716-2.1463c.0314-.0008.063.0016.0944.0014.2149-.1017.4183-.1984.603-.29a2.1931,2.1931,0,0,1,1.6542-.1531c.3205-.232.75-.5463,1.1982-.8852.7053-.5328,1.4566-1.1249,1.9-1.5474C230.52,19.9338,232.39,16.1352,231.8992,13.7944Z"/><polygon class="cls-4" points="361.252 94.568 364.05 93.773 365.227 94.771 357.831 97.384 357.735 98.726 354.855 99.866 358.823 105.352 362.995 102.692 364.965 102.692 357.431 107.727 365.409 116.437 368.449 112.673 373.398 110.405 370.899 113.113 367.217 118.353 376.098 124.479 377.177 121.464 382.801 122.865 382.215 125.716 398.249 125.519 397.466 121.764 401.343 121.165 402.309 124.164 413.666 118.485 408.876 111.894 412.726 111.381 415.284 114.242 422.325 108.287 416.12 104.001 416.796 103.648 420.236 105.901 425.269 100.106 413.517 95.351 414.374 95.078 417.159 96.137 422.681 91.443 413.441 89.85 418.716 84.748 395.029 85.488 404.362 84.682 406.777 84.142 416.492 83.131 416.397 78.087 409.261 80.213 404.435 79.57 411.211 76.575 405.65 73.546 410.605 69.619 406.662 67.962 405.487 68.89 398.988 76.146 398.477 75.936 402.722 70.998 402.82 69.917 408.551 62.667 405.2 61.506 406.899 58.662 400.289 57.813 402.301 52.302 398.161 53.025 397.497 55.655 396.535 55.222 398.087 47.927 394.634 46.506 394.819 44.928 387.502 43.939 387.658 46.572 382.892 47.41 383.714 51.884 378.928 51.45 380.34 56.015 375.879 55.341 378.103 60.284 377.837 60.406 379.139 63.521 371.564 62.21 376.101 68.055 375.969 68.401 382.353 76.392 381.339 75.985 377.813 71.961 376.624 71.35 374.06 68.617 366.366 67.745 371.844 71.949 370.989 72.63 375.806 76.026 372.541 76.283 367.44 73.411 365.217 75.983 383.863 83.487 381.686 82.962 370.697 79.243 363.392 76.709 362.757 81.606 370.989 82.963 373.33 84.169 386.035 85.56 361.085 82.987 362.037 88.05 357.366 88.401 361.252 94.568"/><polygon class="cls-4" points="381.686 82.962 373.422 79.628 374.252 81.036 381.686 82.962"/><path class="cls-1" d="M397.5709,124.8a.9728.9728,0,0,1,.2326.1.959.959,0,0,1,.1952.1537.9541.9541,0,0,1,.2427.4323.93.93,0,0,1-.046.602.9447.9447,0,0,1-.1627.2559.9647.9647,0,0,1-.243.1966l-4.3541,2.5046a6.2882,6.2882,0,0,1-6.13.072l-4.5926-2.4936a.9532.9532,0,0,1-.4569-.5524.943.943,0,0,1,.0586-.7123,1.0647,1.0647,0,0,1,.1171-.1844.9762.9762,0,0,1,.1466-.1491.94.94,0,0,1,.1718-.1117.9533.9533,0,0,1,.1929-.0724l6.0149-1.5774q.1959-.0515.3943-.09t.3984-.0644q.2-.0256.4011-.0386t.4023-.0128q.217,0,.4336.0149t.4318.0448q.2151.03.4284.0747t.4234.1046Z"/><path class="cls-1" d="M413.6657,118.4847a.73.73,0,0,1,.1238.1738.7215.7215,0,0,1,.022.6095l-1.3661,3.1909a3.9149,3.9149,0,0,1-.6117.9894,3.968,3.968,0,0,1-.8568.7565,4.0108,4.0108,0,0,1-2.196.6533l-.0356,0-.0356,0-.0357-.0008-.0357-.0011-5.6558-.1938a.7384.7384,0,0,1-.57-.3.7342.7342,0,0,1-.1033-.1977.77.77,0,0,1-.0411-.208.7278.7278,0,0,1,.0173-.2026.72.72,0,0,1,.072-.1876.7345.7345,0,0,1,.1231-.1629l2.9035-2.8643a4.0146,4.0146,0,0,1,1.9695-1.06l5.6192-1.204.04-.0075.04-.0054.04-.0032.04-.0011a.7407.7407,0,0,1,.2895.0588.7306.7306,0,0,1,.2445.1687Z"/><path class="cls-1" d="M372.97,120.7569l2.9682,2.9281a.7251.7251,0,0,1,.202.3722.7246.7246,0,0,1-.1546.607.7348.7348,0,0,1-.1592.1416.7462.7462,0,0,1-.41.1225h-.0084l-.0084,0-.0084,0-.0085,0-3.717-.1606a4.0607,4.0607,0,0,1-2.3-.8351,4,4,0,0,1-.8413-.8789,3.95,3.95,0,0,1-.5428-1.1144l-.8894-2.9281a.726.726,0,0,1,.1243-.6572.7317.7317,0,0,1,.1731-.1591l.1122-.0747a.7524.7524,0,0,1,.0964-.0527.7675.7675,0,0,1,.1017-.0377.7758.7758,0,0,1,.1054-.0227.7689.7689,0,0,1,.1964-.0023.7426.7426,0,0,1,.1745.0423.7491.7491,0,0,1,.0831.037l3.7565,1.9761q.1316.07.2575.1483t.2457.1662q.12.0875.2325.1833T372.97,120.7569Z"/><path class="cls-1" d="M388.7814,120.53l-4.0062,1.774a7.3,7.3,0,0,1-1.459.4715q-.2562.054-.5151.0894-.1176.0161-.2355.0283a7.311,7.311,0,0,1-4.0941-.7663l-1.2941-.6633-2.8524-1.4622a1.0117,1.0117,0,0,1-.2239-.1577.9985.9985,0,0,1-.17-.2073.98.98,0,0,1,.07-1.1257.9983.9983,0,0,1,.243-.2183,1.0191,1.0191,0,0,1,.3107-.1314l4.9068-1.16q.2076-.0491.4172-.0857t.4208-.0612q.2111-.0245.4232-.0366t.4244-.0123q.1656,0,.331.0075t.33.0222q.165.0147.3295.0369t.328.0517l6.085,1.1125a1.01,1.01,0,0,1,.33.121.9973.9973,0,0,1,.26.2184.9839.9839,0,0,1,.1708.2915.9722.9722,0,0,1,.0613.3405v.62a.9685.9685,0,0,1-.0419.2818.9878.9878,0,0,1-.1194.2544,1.0051,1.0051,0,0,1-.4306.366Z"/><path class="cls-1" d="M406.2088,117.7625l-3.3412,2.5129a7.61,7.61,0,0,1-1.0473.66q-.2352.1228-.4778.2288-.321.14-.6534.2505a7.6817,7.6817,0,0,1-2.4188.3907q-.1473,0-.2952-.0057t-.2956-.0171q-.1479-.0114-.2957-.0285t-.2954-.04l-4.3428-.6807a1.0317,1.0317,0,0,1-.6247-.3449,1.023,1.023,0,0,1-.1822-.3047,1.0135,1.0135,0,0,1,.4393-1.2351l3.9922-2.3414a7.5846,7.5846,0,0,1,1.8645-.7842,7.68,7.68,0,0,1,2.01-.2674H405.51a1.047,1.047,0,0,1,.5811.1758,1.03,1.03,0,0,1,.2241.2025,1.0156,1.0156,0,0,1,.1571.2638l.07.1743a1.0056,1.0056,0,0,1-.1011.9473A1.0221,1.0221,0,0,1,406.2088,117.7625Z"/><path class="cls-1" d="M383.5324,114.3529a1.0665,1.0665,0,0,1-.3015-.1049,1.0507,1.0507,0,0,1-.543-.7309,1.0357,1.0357,0,0,1,.1151-.71,1.052,1.052,0,0,1,.23-.28,1.0721,1.0721,0,0,1,.3228-.1913l5.956-2.2444q.3016-.1136.6117-.1991t.6255-.1429q.3156-.0573.6354-.0861t.641-.0289q.1427,0,.2853.0057t.2852.0172q.1425.0114.2848.0287t.2838.04l5.7988.9354a1.0726,1.0726,0,0,1,.3593.1253,1.0606,1.0606,0,0,1,.2839.2334,1.0485,1.0485,0,0,1,.1861.315,1.0378,1.0378,0,0,1,.0657.37,1.1538,1.1538,0,0,1-.04.3038,1.0741,1.0741,0,0,1-.1145.269,1.0362,1.0362,0,0,1-.4178.39L394.67,114.94a7.1288,7.1288,0,0,1-3.26.7884q-.1678,0-.3358-.0079t-.3359-.0238q-.1678-.0159-.3353-.04t-.3342-.0556Z"/><path class="cls-1" d="M421.9,108.1561a.75.75,0,0,1,.2925.0591.7361.7361,0,0,1,.3605.3226.7193.7193,0,0,1,.065.54l-.6789,2.4961a3.7355,3.7355,0,0,1-.489,1.0787,3.782,3.782,0,0,1-.7829.8583,3.8325,3.8325,0,0,1-2.1787.8389l-2.5867.155-.0115.0006-.0115.0005-.0114,0-.0115,0a.7325.7325,0,0,1-.15-.0155.7478.7478,0,0,1-.273-.1177.7529.7529,0,0,1-.115-.098l-.0336-.0332a.7339.7339,0,0,1-.1925-.3857.7239.7239,0,0,1,.0578-.4251l.9847-2.1061a3.7729,3.7729,0,0,1,.8946-1.2043,3.8217,3.8217,0,0,1,1.2965-.7663l3.3273-1.1567c.02-.0071.0405-.0132.061-.0185s.0411-.01.0618-.0131.0414-.006.0621-.0078S421.8792,108.1561,421.9,108.1561Z"/><path class="cls-1" d="M363.2238,111.6989l2.2134,3.9132a.7943.7943,0,0,1,.0656.6285.79.79,0,0,1-.0935.1962.8033.8033,0,0,1-.2963.2686.823.823,0,0,1-.3832.0945q-.0326,0-.0653-.0026t-.0654-.0078c-.0217-.0035-.0435-.0079-.0651-.0131s-.0432-.0115-.0646-.0185l-2.884-.966a5.6694,5.6694,0,0,1-2.3636-1.5214,5.58,5.58,0,0,1-1.3284-2.4554l-.7994-3.2325a.7788.7788,0,0,1-.0213-.2449.7933.7933,0,0,1,.0538-.2345.8088.8088,0,0,1,.1216-.2087.8236.8236,0,0,1,.1825-.1671.9783.9783,0,0,1,.1138-.0622.877.877,0,0,1,.1157-.0438.8179.8179,0,0,1,.5794.0415.8126.8126,0,0,1,.1056.059l3.0944,2.059a5.568,5.568,0,0,1,1.7843,1.918Z"/><path class="cls-1" d="M403.1509,112.4128a.9315.9315,0,0,1-.4821-.2023.9187.9187,0,0,1-.2949-.4287.9121.9121,0,0,1,.1561-.846.9193.9193,0,0,1,.2253-.2028l4.2082-2.6817a6.3343,6.3343,0,0,1,3.114-.9825l5.0021-.2242.01,0,.01,0,.01,0,.01,0a.9367.9367,0,0,1,.5878.2064.911.911,0,0,1,.3227.5306l.05.2519a.9055.9055,0,0,1-.03.47.9188.9188,0,0,1-.2616.3933l-3.0636,2.6846-.05.0441a6.2815,6.2815,0,0,1-1.941,1.16,6.3316,6.3316,0,0,1-1.089.3l-.0426.0076a6.3452,6.3452,0,0,1-1.09.0942q-.0906,0-.1815-.0026t-.182-.0078q-.091-.0053-.1821-.0131t-.1821-.0183Z"/><path class="cls-1" d="M362.8226,109.2523l-1.9357-2.43a.9647.9647,0,0,1-.1584-.297.9546.9546,0,0,1-.0461-.323.9386.9386,0,0,1,.2437-.6033.9775.9775,0,0,1,.7226-.32q.03,0,.0593.0018c.02.0013.0395.0031.0593.0056s.04.0055.0593.0092.0394.0081.0591.0131l5.2909,1.3228a9.5535,9.5535,0,0,1,3.5208,1.6993l4.8536,3.7278a.9517.9517,0,0,1,.3463.9761.9424.9424,0,0,1-.1556.3357l-.0392.0526a.962.962,0,0,1-.3456.2917.9739.9739,0,0,1-.4367.1032l-.0435-.0009-.0437-.003-.0436-.0049-.0437-.007-6.1214-1.0959a9.6222,9.6222,0,0,1-3.2228-1.2018,9.4824,9.4824,0,0,1-2.5789-2.2521Z"/><path class="cls-1" d="M379.5763,109.4612a5.5738,5.5738,0,0,1-2.5373-.61,5.5236,5.5236,0,0,1-.7586-.4684l-4.3821-3.2158a.9633.9633,0,0,1-.1812-.1735.9418.9418,0,0,1-.1274-.21.9269.9269,0,0,1-.073-.483.9381.9381,0,0,1,.1029-.3354.951.951,0,0,1,.2113-.2685.9671.9671,0,0,1,.6425-.2428h6.3795q.263,0,.5244.0247t.5186.0738q.2571.0491.5091.1221t.496.17l4.5952,1.8071a.9542.9542,0,0,1,.5716.6324.9348.9348,0,0,1-.1648.8316l-.1066.1356a.9538.9538,0,0,1-.1792.1754.9648.9648,0,0,1-.1053.0686.9867.9867,0,0,1-.1139.0549l-3.7312,1.5056q-.253.1019-.512.178t-.5215.1265q-.2625.0505-.5273.0757T379.5763,109.4612Z"/><path class="cls-1" d="M405.7292,103.7754l-2.6457,1.9235A7.4038,7.4038,0,0,1,401,106.757a7.4779,7.4779,0,0,1-2.2925.36q-.2239,0-.4482-.0135t-.4483-.0405q-.2238-.0271-.4469-.0679T396.92,106.9l-2.5305-.6228a.8261.8261,0,0,1-.154-.0545.8377.8377,0,0,1-.1395-.0828.8284.8284,0,0,1-.1211-.1082.84.84,0,0,1-.0988-.1308l-.345-.5646a.8179.8179,0,0,1,.0812-.9616.8347.8347,0,0,1,.2834-.2118l3.5854-1.6522a7.4816,7.4816,0,0,1,3.1283-.6848q.1,0,.2.0026t.2.0081q.1.0053.2.0133t.2.0188l3.9163.4234a.8425.8425,0,0,1,.6.3553.8167.8167,0,0,1-.196,1.128Z"/><path class="cls-1" d="M425.269,100.1057a.6269.6269,0,0,1,.1.139.6162.6162,0,0,1,.0572.1575.6021.6021,0,0,1,.0125.1662.59.59,0,0,1-.0346.1656l-.693,1.904a5.0891,5.0891,0,0,1-1.0544,1.7272,5.1483,5.1483,0,0,1-.7607.6728,5.2053,5.2053,0,0,1-.8893.5169l-1.0577.4816a.6142.6142,0,0,1-.0637.0251.6059.6059,0,0,1-.0652.0179.6211.6211,0,0,1-.066.0107.6135.6135,0,0,1-.0663.0035.6227.6227,0,0,1-.4514-.1928l-.0308-.0332a.6034.6034,0,0,1-.1033-.1449.612.612,0,0,1-.0636-.34.5989.5989,0,0,1,.0435-.1713l.7743-1.8266a5.1312,5.1312,0,0,1,1.9779-2.3275l1.6467-1.0461a.6175.6175,0,0,1,.08-.043.6288.6288,0,0,1,.0835-.03.6205.6205,0,0,1,.0858-.0181.6291.6291,0,0,1,.4409.1027A.6214.6214,0,0,1,425.269,100.1057Z"/><path class="cls-1" d="M358.0506,105.5134l-.9651-.41a2.5859,2.5859,0,0,1-.8792-.6134,2.5484,2.5484,0,0,1-.3221-.4261,2.5073,2.5073,0,0,1-.2267-.4882l-1.0745-3.1384a.453.453,0,0,1-.023-.1595.4589.4589,0,0,1,.2418-.3885.4773.4773,0,0,1,.0533-.0239.4619.4619,0,0,1,.1107-.0272.46.46,0,0,1,.0562-.0034.4642.4642,0,0,1,.1642.03.4628.4628,0,0,1,.1458.0884l2.11,1.8763a2.5344,2.5344,0,0,1,.3911.4348,2.4988,2.4988,0,0,1,.2795.5116l.836,2.0619a.4485.4485,0,0,1-.0126.3673.46.46,0,0,1-.282.2388l-.2862.0857-.0332.0085-.0336.006-.0339.0036-.034.0012c-.0155,0-.031-.0007-.0464-.0022s-.0308-.0038-.0461-.0067-.03-.0068-.0454-.0113A.4661.4661,0,0,1,358.0506,105.5134Z"/><path class="cls-1" d="M420.4745,100.7118l-3.2935,2.66a4.3729,4.3729,0,0,1-.3852.2771q-.1135.0726-.2309.1377a4.3466,4.3466,0,0,1-.4451.215q-.1116.0462-.2256.0862a4.3542,4.3542,0,0,1-1.4424.2458q-.1182,0-.2366-.0065t-.2369-.0193q-.1183-.0131-.2366-.0325t-.236-.0456l-4.5587-1.0046a.7357.7357,0,0,1-.2262-.0929.72.72,0,0,1-.1775-.1562.7019.7019,0,0,1-.1159-.2039.6894.6894,0,0,1-.0415-.2361v-.15a.7.7,0,0,1,.2592-.5432.7062.7062,0,0,1,.1812-.1071l4.6907-1.929q.1945-.08.3956-.14t.4068-.1016q.2057-.0411.4151-.0622t.4209-.0222l4.8619-.0221a.7336.7336,0,0,1,.2282.0359.717.717,0,0,1,.1988.1011.7064.7064,0,0,1,.1565.1556.7.7,0,0,1,.1052.6147.7111.7111,0,0,1-.0886.1881A.7319.7319,0,0,1,420.4745,100.7118Z"/><path class="cls-1" d="M358.0348,97.3523l.0255.0005.0257.0015.0257.0025.0258.0035,4.138.62a5.3407,5.3407,0,0,1,.6987.1545,5.2739,5.2739,0,0,1,1.2953.5779,5.2161,5.2161,0,0,1,.5787.416l2.8139,2.33a.6528.6528,0,0,1,.1668.2061.6483.6483,0,0,1,.0391.4984.6589.6589,0,0,1-.2329.3224.67.67,0,0,1-.38.1327l-2.29.0737-1.15.037-.0443.0013-.0442.0009-.0441.0006-.0442,0a5.264,5.264,0,0,1-3.124-1.024,5.2,5.2,0,0,1-.8232-.7558l-1.9567-2.227-.2147-.2443a.65.65,0,0,1-.1291-.6365l.014-.0443a.66.66,0,0,1,.0979-.1836.67.67,0,0,1,.3277-.2323A.6621.6621,0,0,1,358.0348,97.3523Z"/><path class="cls-1" d="M381.0383,98.8548a1.269,1.269,0,0,1-.5116-.4629,1.2491,1.2491,0,0,1-.1405-.3131,1.234,1.234,0,0,1-.0492-.3449,1.2493,1.2493,0,0,1,.2889-.8053,1.28,1.28,0,0,1,.3273-.2805,1.3,1.3,0,0,1,.4162-.1595l6.9968-1.3562q.1683-.0324.3377-.0568t.3394-.0406q.17-.0162.3405-.0243t.3411-.0081q.2379,0,.4755.0157t.4736.0473q.2363.0313.47.0786t.4651.11l6.3991,1.7408a1.2782,1.2782,0,0,1,.7123.5,1.261,1.261,0,0,1,.1837.3917,1.2479,1.2479,0,0,1,.0382.4424l-.0336.3377a1.24,1.24,0,0,1-.0807.3362,1.2523,1.2523,0,0,1-.1669.2971,1.2655,1.2655,0,0,1-.2417.2427,1.29,1.29,0,0,1-.3047.1728L392.58,101.93q-.32.1279-.6484.2237t-.6619.16q-.3336.0637-.6707.0956t-.6748.0318a7.13,7.13,0,0,1-3.1851-.7486Z"/><path class="cls-1" d="M402.0484,96.1538l-.0617-.3184a.845.845,0,0,1-.0045-.3047.86.86,0,0,1,.2877-.5086.8641.8641,0,0,1,.2638-.1552l4.8871-1.8377q.1746-.0657.3538-.1152t.3611-.0826q.1821-.0332.3663-.05t.37-.0166q.069,0,.1381.0023t.1383.007q.069.0047.1381.0116t.1378.0163l5.0694.6807a.8922.8922,0,0,1,.3019.0991.8788.8788,0,0,1,.24.1908.8619.8619,0,0,1,.1585.26.852.852,0,0,1-.0515.7238.875.875,0,0,1-.128.1742.8971.8971,0,0,1-.17.14l-.2181.1357-.5743.3575-3.2362,2.0142a4.1095,4.1095,0,0,1-1.6067.5828,4.13,4.13,0,0,1-.57.04q-.1274,0-.2548-.0079t-.2548-.0237q-.1272-.0159-.2539-.04t-.2522-.0557l-4.9319-1.2481a.8735.8735,0,0,1-.561-.4414A.8559.8559,0,0,1,402.0484,96.1538Z"/><path class="cls-1" d="M372.5015,93.984l4.786,2.6734a.6719.6719,0,0,1,.3421.6328.6617.6617,0,0,1-.0671.2472l-.188.3709a.6562.6562,0,0,1-.091.1373.677.677,0,0,1-.1212.11.6924.6924,0,0,1-.3068.1207l-3.3469.4345q-.1164.0151-.2328.0265t-.2327.0189q-.1162.0075-.2325.0112t-.2323.0038a7.1877,7.1877,0,0,1-2.4568-.4326,7.0791,7.0791,0,0,1-2.1621-1.255l-2.732-2.3129-1.1779-.9973-.2057-.1741a.6636.6636,0,0,1-.2363-.5207.65.65,0,0,1,.0343-.1961.6739.6739,0,0,1,.2508-.336.6889.6889,0,0,1,.3975-.1257l.0209,0,.0209.001.0211.0015.0211.0022,5.5407.7058q.3408.0436.6752.1195t.6591.1832q.3249.1071.6387.2449T372.5015,93.984Z"/><path class="cls-1" d="M417.08,95.1878l2.236-2.2056a4.0183,4.0183,0,0,1,1.4027-.9l1.6047-.6115c.0185-.007.0371-.0132.0558-.0184s.0376-.0095.0565-.013.0378-.006.0568-.0077.038-.0025.0569-.0025a.6448.6448,0,0,1,.4754.21l.32.357a.6286.6286,0,0,1,.1113.1753.6156.6156,0,0,1-.0552.5829l-.7631,1.1375a4.0426,4.0426,0,0,1-2.3285,1.65l-2.62.6891-.0412.01-.0412.0067-.0412.004-.0408.0013a.6369.6369,0,0,1-.3656-.1155.6246.6246,0,0,1-.2331-.31.6164.6164,0,0,1,.0474-.5009A.6113.6113,0,0,1,417.08,95.1878Z"/><path class="cls-1" d="M357.004,91.1141l-.3169-1.9041a.6107.6107,0,0,1-.008-.1142.5926.5926,0,0,1,.1034-.32l.07-.1023a.6091.6091,0,0,1,.2278-.2029.62.62,0,0,1,.1392-.0515.63.63,0,0,1,.1466-.0173.623.623,0,0,1,.232.0446.6173.6173,0,0,1,.2053.1356L359.905,90.68q.1178.1173.2232.2456a3.3089,3.3089,0,0,1,.1975.2663q.0921.1382.17.2851a3.2847,3.2847,0,0,1,.1412.3016l.8445,2.048a.6054.6054,0,0,1,.0326.35.6036.6036,0,0,1-.2628.3879.6274.6274,0,0,1-.34.1.6351.6351,0,0,1-.1572-.02.6216.6216,0,0,1-.0765-.0251.6284.6284,0,0,1-.0737-.0352l-1.933-1.0961a3.3872,3.3872,0,0,1-1.1046-1.0014,3.34,3.34,0,0,1-.5619-1.373Z"/><path class="cls-1" d="M405.12,89.3207l-2.9935,2.0978a8.1436,8.1436,0,0,1-4.6677,1.47q-.2613,0-.5233-.0169t-.5231-.0506q-.2611-.0339-.5211-.0848t-.5175-.1193l-5.4369-1.4391a.7591.7591,0,0,1-.4072-.27.7485.7485,0,0,1-.1568-.4584v-.3514a.7468.7468,0,0,1,.1305-.4217.758.758,0,0,1,.1513-.1633.776.776,0,0,1,.198-.1152l5.12-2.02q.3577-.1411.7257-.2474t.7431-.1773q.3749-.0709.7551-.1067t.7623-.0357q.1909,0,.3821.009t.382.0269q.1908.018.3811.0449t.38.0629l5.3388,1.0128a.7551.7551,0,0,1,.62.749.7453.7453,0,0,1-.3223.6044Z"/><path class="cls-1" d="M381.74,92.4092q-.2463.0654-.4948.1143t-.4983.0813q-.25.0324-.5.0486t-.5006.0162a7.7238,7.7238,0,0,1-4.13-1.193l-4.4747-2.8256a.6984.6984,0,0,1-.1758-.1559.69.69,0,0,1-.1517-.4217.7011.7011,0,0,1,.0357-.2306.6918.6918,0,0,1,.0874-.1731.705.705,0,0,1,.13-.141.7171.7171,0,0,1,.3521-.1563l5.5828-.8137q.14-.0207.2808-.0361t.2813-.0256q.1406-.01.2814-.0154t.2815-.0051a7.7281,7.7281,0,0,1,3.4479.81l4.8,2.3884a.6978.6978,0,0,1,.3237.3324.6924.6924,0,0,1,.0439.459l-.0674.263a.6826.6826,0,0,1-.07.1721.7033.7033,0,0,1-.1119.1461.7143.7143,0,0,1-.32.1855Z"/><path class="cls-1" d="M417.1193,89.11a5.3694,5.3694,0,0,1-.7178.7449,4.5762,4.5762,0,0,1-.5915.428q-.1017.0618-.2054.117a3.88,3.88,0,0,1-.8546.3346,3.5628,3.5628,0,0,1-.8908.1139q-.05,0-.0994-.0015c-.0332-.0009-.0663-.0023-.0995-.0042s-.0665-.0042-.1-.007-.0665-.0062-.1-.01l-4.9656-.5672a.5019.5019,0,0,1-.1793-.0587.625.625,0,0,1-.157-.1241.8091.8091,0,0,1-.1249-.18,1.0088,1.0088,0,0,1-.0831-.2268,1.15,1.15,0,0,1-.0322-.3178,1.1345,1.1345,0,0,1,.0525-.3025.9312.9312,0,0,1,.1273-.2573.6655.6655,0,0,1,.1919-.1824l4.9124-3.03a4.1817,4.1817,0,0,1,.4045-.22,3.9032,3.9032,0,0,1,.4163-.169,3.7242,3.7242,0,0,1,.4254-.1171,3.5571,3.5571,0,0,1,.4314-.0641l3.5882-.3073.01-.0008.01-.0006.01,0,.01,0a.4737.4737,0,0,1,.2062.0482.6074.6074,0,0,1,.18.1348.8242.8242,0,0,1,.1391.2071,1.0412,1.0412,0,0,1,.0842.265l.0926.512a1.1731,1.1731,0,0,1,.0188.2315,1.16,1.16,0,0,1-.0261.2261,1.0493,1.0493,0,0,1-.0688.209.87.87,0,0,1-.109.18Z"/><path class="cls-1" d="M364.8229,85.1417q.1977.1162.383.2508t.3562.2861q.171.1515.3268.3193t.2946.35l1.84,2.4354a.8317.8317,0,0,1,.1662.4525.8212.8212,0,0,1-.1156.4691.8421.8421,0,0,1-.3123.3028.8531.8531,0,0,1-.4166.1088q-.0278,0-.0555-.0018c-.0185-.0013-.0371-.0031-.0556-.0056s-.0371-.0055-.0557-.0092-.037-.0081-.0554-.0131l-2.9514-.7915a4.7048,4.7048,0,0,1-1.8193-.9527q-.1646-.14-.3158-.2936a4.6319,4.6319,0,0,1-.9144-1.3357l-1.0886-2.4216a.8251.8251,0,0,1-.0251-.6117l.0532-.16a.8334.8334,0,0,1,.13-.2359.8419.8419,0,0,1,.19-.1767.8674.8674,0,0,1,.4861-.1493.8513.8513,0,0,1,.3253.0647.859.859,0,0,1,.104.0516Z"/><path class="cls-1" d="M411.0623,80.4176l.0476.0969a.7588.7588,0,0,1-.0571.7814.7666.7666,0,0,1-.2009.1954l-3.3441,2.2363a5.6249,5.6249,0,0,1-.7308.4142q-.07.0329-.14.0638a5.6677,5.6677,0,0,1-2.2744.4763q-.1944,0-.389-.0134t-.3887-.04q-.1939-.0268-.3868-.0673t-.3837-.0946l-4.7075-1.3311a.8021.8021,0,0,1-.1875-.0818.7925.7925,0,0,1-.1579-.1244.7735.7735,0,0,1-.12-.16.7538.7538,0,0,1-.0124-.7245.7688.7688,0,0,1,.1673-.215.7834.7834,0,0,1,.2408-.1476l4.4887-1.7325q.2456-.0946.4977-.1662t.509-.1193q.2568-.0478.5171-.0719.1922-.0177.3856-.0224.0682-.0016.1366-.0016.0536,0,.1071.001c.0357.0006.0714.0017.1071.003s.0715.003.1072.0051.0714.0044.1071.0071l5.0751.3857.3507.0267a.7779.7779,0,0,1,.6368.4206Z"/><path class="cls-1" d="M368.19,79.1636l2.5073.0791,1.2772.04a3.7308,3.7308,0,0,1,1.888.5867l3.6752,2.3442a.6442.6442,0,0,1,.2.201.6714.6714,0,0,1,.079.5318.6546.6546,0,0,1-.1331.2524l-.0336.0359a.6279.6279,0,0,1-.1571.1353.6176.6176,0,0,1-.0922.0457.6041.6041,0,0,1-.0986.0294l-2.9906.6448q-.0975.0212-.1955.0369t-.196.0263q-.0981.01-.1962.0157t-.196.0052a3.7142,3.7142,0,0,1-1.3217-.2438,3.754,3.754,0,0,1-.61-.2985,3.8012,3.8012,0,0,1-.5554-.4108l-.3592-.32-2.909-2.5889a.6438.6438,0,0,1-.1621-.2229.67.67,0,0,1-.0424-.1321.6905.6905,0,0,1-.0144-.1405.6654.6654,0,0,1,.05-.2546.6564.6564,0,0,1,.1369-.2076.64.64,0,0,1,.2025-.14A.6207.6207,0,0,1,368.19,79.1636Z"/><path class="cls-1" d="M413.4525,81.0459a1.5962,1.5962,0,0,1-.0084-.28,1.4441,1.4441,0,0,1,.0382-.26.968.968,0,0,1,.0787-.2153.4745.4745,0,0,1,.1132-.1476l2.132-1.7324a1.9887,1.9887,0,0,1,.2343-.1653,1.6283,1.6283,0,0,1,.24-.1189,1.3959,1.3959,0,0,1,.2437-.0717,1.278,1.278,0,0,1,.246-.0241l.0522.0011.0522.0033.0523.0054.0523.0076,2.5782.41a.2208.2208,0,0,1,.0934.0417.3839.3839,0,0,1,.084.088.6721.6721,0,0,1,.07.1291,1.0268,1.0268,0,0,1,.0524.1646l.0253.0941a1.4511,1.4511,0,0,1,.0363.2671,1.5952,1.5952,0,0,1-.0107.2695,1.3123,1.3123,0,0,1-.0544.2461.7813.7813,0,0,1-.0946.1971l-1.588,2.2361a3.1513,3.1513,0,0,1-.3477.4134,2.2124,2.2124,0,0,1-.37.298,1.611,1.611,0,0,1-.3847.18,1.3248,1.3248,0,0,1-.3934.0606,1.294,1.294,0,0,1-.184-.0132,1.3372,1.3372,0,0,1-.1839-.04,1.4617,1.4617,0,0,1-.1829-.0667,1.6542,1.6542,0,0,1-.1814-.0937l-2.2359-1.334a.3354.3354,0,0,1-.0888-.08.6117.6117,0,0,1-.0746-.1235.9738.9738,0,0,1-.0567-.1594A1.3085,1.3085,0,0,1,413.4525,81.0459Z"/><path class="cls-1" d="M361.2629,80.6528l-1.588-2.2361a.7646.7646,0,0,1-.0946-.1955,1.2939,1.2939,0,0,1-.0544-.2456,1.6,1.6,0,0,1-.0108-.27,1.472,1.472,0,0,1,.0364-.2687l.0224-.094a1.0628,1.0628,0,0,1,.054-.1646.6806.6806,0,0,1,.0712-.1288.3782.3782,0,0,1,.0843-.0872.2141.2141,0,0,1,.0935-.04l2.5754-.4124.0511-.007.051-.0051.051-.003.051-.001a1.303,1.303,0,0,1,.2485.0241,1.406,1.406,0,0,1,.2457.0719,1.6333,1.6333,0,0,1,.2415.1193,1.979,1.979,0,0,1,.2356.1662l2.1322,1.7325a.4616.4616,0,0,1,.1131.1464.9607.9607,0,0,1,.0788.2151,1.4511,1.4511,0,0,1,.0382.2592,1.5812,1.5812,0,0,1-.0084.2787,1.314,1.314,0,0,1-.0352.1877.9726.9726,0,0,1-.0567.1593.6126.6126,0,0,1-.0746.1236.3367.3367,0,0,1-.0888.08l-2.236,1.3339a1.68,1.68,0,0,1-.1817.094,1.4786,1.4786,0,0,1-.1833.0669,1.3581,1.3581,0,0,1-.1843.04,1.2851,1.2851,0,0,1-.1844.0133,1.3217,1.3217,0,0,1-.393-.0606,1.608,1.608,0,0,1-.3843-.18,2.2057,2.2057,0,0,1-.3691-.2982A3.1372,3.1372,0,0,1,361.2629,80.6528Z"/><path class="cls-1" d="M397.829,79.3659q-.1827.057-.3679.1t-.3719.0708q-.1868.0282-.3744.0423t-.3752.0141a5.0061,5.0061,0,0,1-2.6824-.7775l-1.88-1.1927a1.0425,1.0425,0,0,1-.2167-.1814,1.0254,1.0254,0,0,1-.2469-.49,1.021,1.021,0,0,1-.0162-.2811.6725.6725,0,0,1,.047-.1981.68.68,0,0,1,.1017-.1721.6887.6887,0,0,1,.148-.1358.6992.6992,0,0,1,.1858-.0891l2.3006-.7112q.1812-.0561.3654-.0982t.37-.07q.186-.0281.3732-.042t.3745-.014q.2452,0,.49.024t.4857.0717q.2412.0478.4779.1194t.4663.1669l1.5039.6245,2.2021.9143a.69.69,0,0,1,.1962.1228.68.68,0,0,1,.2169.3847.6666.6666,0,0,1-.055.4095.6785.6785,0,0,1-.1031.1554.6967.6967,0,0,1-.314.2034Z"/><path class="cls-1" d="M377.3092,74.8145q.3212,0,.641.0316t.6351.0945q.3151.063.6242.1571t.6085.2194l3.3244,1.3893a1.0126,1.0126,0,0,1,.2555.1525.9956.9956,0,0,1,.32.4752.9837.9837,0,0,1-.0111.6155.9931.9931,0,0,1-.1545.2827,1.0114,1.0114,0,0,1-.5421.3559l-2.1518.5674q-.204.0537-.41.0938t-.4134.0669q-.2073.0266-.4153.04t-.4159.0133a6.5135,6.5135,0,0,1-2.4057-.46,6.4546,6.4546,0,0,1-.7482-.3545l-3.2262-1.7906a.5409.5409,0,0,1-.208-.2023.5465.5465,0,0,1-.056-.1335.5534.5534,0,0,1-.0194-.1457.5472.5472,0,0,1,.1146-.3352.551.551,0,0,1,.2977-.1961l1.8247-.4887.8518-.2281q.2067-.0552.4157-.0965t.4195-.0688q.21-.0276.4218-.0413T377.3092,74.8145Z"/><path class="cls-1" d="M364.419,75.4582l-1.3411-1.32a.461.461,0,0,1-.0743-.0985.4508.4508,0,0,1-.0445-.1129.4371.4371,0,0,1,.0094-.2424l.0324-.0932.0332-.0985.0327-.0994.0308-.0964a.4494.4494,0,0,1,.1659-.2245.4558.4558,0,0,1,.1256-.0631.4666.4666,0,0,1,.1433-.0224l2.5865.025a2.4709,2.4709,0,0,1,.7734.1321,2.4346,2.4346,0,0,1,.6911.3687l1.6693,1.262a.4621.4621,0,0,1,.075.0721.4483.4483,0,0,1,.0555.085.443.443,0,0,1,.0344.0944.4294.4294,0,0,1,.0118.1.4378.4378,0,0,1-.026.1489.4435.4435,0,0,1-.0725.1286.4546.4546,0,0,1-.2521.157l-2.3818.5424q-.0683.0155-.1366.0269t-.137.019c-.0457.0051-.0914.0088-.1371.0114s-.0913.0037-.1369.0037a2.4836,2.4836,0,0,1-.9323-.1815,2.4406,2.4406,0,0,1-.7981-.5243Z"/><path class="cls-1" d="M410.2673,72.3373q.1094,0,.2188.0025t.2191.0076q.11.0051.2192.0127t.2193.0178l2.8165.2658a1.1225,1.1225,0,0,1,.2925.068,1.1092,1.1092,0,0,1,.2585.14,1.09,1.09,0,0,1,.3637.4591l.02.05a1.0742,1.0742,0,0,1-.1487,1.0792,1.0934,1.0934,0,0,1-.2918.2574l-2.1658,1.3146a9.336,9.336,0,0,1-2.3475,1.018,9.43,9.43,0,0,1-2.5318.3459q-.11,0-.22-.0026t-.22-.0077q-.11-.0051-.22-.0128t-.22-.018l-2.9316-.2767a1.113,1.113,0,0,1-.633-.2757,1.0827,1.0827,0,0,1-.2172-.2656,1.0713,1.0713,0,0,1-.0525-.9756,1.0869,1.0869,0,0,1,.1777-.2763,1.1025,1.1025,0,0,1,.2592-.2159l2.309-1.3811q.1042-.0624.21-.1219a9.4172,9.4172,0,0,1,4.6172-1.2084Z"/><path class="cls-1" d="M382.1213,72.9176a.856.856,0,0,1,.0745-.2378.8714.8714,0,0,1,.1369-.2039.8885.8885,0,0,1,.189-.1588.9025.9025,0,0,1,.2309-.1025l2.0226-.57q.1694-.0477.3405-.0832t.3435-.0594q.1722-.0237.3453-.0355t.3461-.0118a5.0607,5.0607,0,0,1,2.1174.4639l2.4352,1.1208a.8748.8748,0,0,1,.5106.8441.87.87,0,0,1-.28.5842.89.89,0,0,1-.1832.13l-1.4055.7472a5.0631,5.0631,0,0,1-4.8786-.0692l-1.97-1.1236a.8756.8756,0,0,1-.3534-.3789.8673.8673,0,0,1-.0765-.2466.8561.8561,0,0,1,.0007-.263Z"/><path class="cls-1" d="M374.3565,70.6956q.1091,0,.2178.0094t.2165.028q.1077.0188.2137.0466t.21.0652l1.41.5051.9074.3251a.4759.4759,0,0,1,.1243.0674.4539.4539,0,0,1,.0956.0977.4408.4408,0,0,1,.0831.2584.448.448,0,0,1-.0147.1215.4478.4478,0,0,1-.1209.2065.4526.4526,0,0,1-.1.0732l-1.6187.8884a2.5363,2.5363,0,0,1-1.2148.31q-.0963,0-.1926-.0074t-.192-.0221q-.0957-.0149-.1905-.0371c-.0631-.0149-.1259-.0323-.188-.0522l-3.013-.9493a.4641.4641,0,0,1-.13-.0655.4563.4563,0,0,1-.101-.1.45.45,0,0,1-.0653-.125.4439.4439,0,0,1-.0231-.1417v-.1134a.4564.4564,0,0,1,.1881-.369.46.46,0,0,1,.1288-.0655l.3556-.1142,2.24-.7189q.0947-.03.1907-.0532t.1934-.038q.0972-.0151.195-.0227T374.3565,70.6956Z"/><path class="cls-1" d="M402.918,70.1584a.9379.9379,0,0,1-.0427.5875.96.96,0,0,1-.3837.45l-1.7084,1.0461a4.7264,4.7264,0,0,1-2.4716.6975q-.16,0-.32-.0108t-.3191-.0326q-.1592-.0217-.3175-.0544t-.3147-.0766l-2.9149-.8163a.9735.9735,0,0,1-.2847-.1322.9618.9618,0,0,1-.2217-.2093.9467.9467,0,0,1-.1437-.2668.9333.9333,0,0,1-.0512-.305v-.1883a.9412.9412,0,0,1,.1609-.5258.96.96,0,0,1,.1858-.2051.9693.9693,0,0,1,.2424-.1464l2.3426-.9769q.2174-.09.4418-.1583t.4532-.1133q.2289-.0454.4611-.0682t.4655-.0227q.1391,0,.2781.0081t.2778.0243q.1386.0162.2766.0406t.2747.057l2.9261.7029a.99.99,0,0,1,.245.0965.9675.9675,0,0,1,.2063.1544.95.95,0,0,1,.1574.2026A.94.94,0,0,1,402.918,70.1584Z"/><path class="cls-1" d="M392.8073,68.6a.4558.4558,0,0,1,.28.2857.4607.4607,0,0,1,.0233.1377.455.455,0,0,1-.2385.4014l-1.6188.8883a2.5347,2.5347,0,0,1-1.2126.3086c-.0642,0-.1286-.0024-.1928-.0073s-.1284-.0122-.1924-.022-.1277-.022-.1911-.0367-.1264-.032-.1889-.0516l-3.01-.9492a.4741.4741,0,0,1-.1309-.0656.4662.4662,0,0,1-.1019-.1.4535.4535,0,0,1-.0662-.1258.4479.4479,0,0,1-.0236-.1435v-.1134a.4469.4469,0,0,1,.0884-.2667.458.458,0,0,1,.1009-.0995.466.466,0,0,1,.13-.0655l2.595-.8331q.0947-.03.1908-.0534t.1935-.0383q.0974-.0153.1955-.023t.1963-.0076c.0723,0,.1447.0031.2168.0093s.144.0156.2154.0281.1425.0282.2128.0469.14.0407.209.0657Z"/><path class="cls-1" d="M405.617,68.7553l1.6046-1.2177a3.2054,3.2054,0,0,1,.91-.4836,3.2266,3.2266,0,0,1,.5012-.1266,3.2592,3.2592,0,0,1,.5185-.0457l2.2781-.0193a.6256.6256,0,0,1,.3307.0944.6141.6141,0,0,1,.1313.11.5969.5969,0,0,1,.1274.5775.6111.6111,0,0,1-.062.1369l-.6144,1.0046a3.1731,3.1731,0,0,1-.5195.6435,3.2194,3.2194,0,0,1-1.41.7829,3.2435,3.2435,0,0,1-.8164.1044q-.05,0-.1008-.0016c-.0337-.001-.0674-.0026-.1012-.0046s-.0676-.0048-.1015-.0079-.0677-.0069-.1015-.0111l-2.222-.28a.6083.6083,0,0,1-.5077-.4179l-.056-.1771a.5982.5982,0,0,1-.0292-.1843.5959.5959,0,0,1,.1092-.3426A.6082.6082,0,0,1,405.617,68.7553Z"/><path class="cls-1" d="M376.0811,67.72l2.6652-.8552q.1077-.0345.2174-.06t.22-.0431q.1109-.0173.2224-.0258t.2234-.0087q.13,0,.26.0118t.2585.0352q.1286.0234.2551.0587t.25.0821l2.8252,1.0711a.4363.4363,0,0,1,.2061.16.4406.4406,0,0,1-.0727.5832.46.46,0,0,1-.1083.0706l-2.4492,1.1125a2.8832,2.8832,0,0,1-2.6061-.1052c-.2792-.1571-.5546-.3023-.8156-.4372s-.5074-.2593-.7285-.3747-.4169-.2217-.5765-.32a1.7237,1.7237,0,0,1-.3595-.2738.7748.7748,0,0,1-.1013-.1387.4836.4836,0,0,1-.0554-.1453.3148.3148,0,0,1,.0041-.1436.32.32,0,0,1,.077-.1341.4453.4453,0,0,1,.0419-.0385.48.48,0,0,1,.0457-.0325.4712.4712,0,0,1,.0488-.0268A.5237.5237,0,0,1,376.0811,67.72Z"/><path class="cls-1" d="M366.3659,67.7451a.6073.6073,0,0,1-.21-.6808.6161.6161,0,0,1,.0852-.1638.6238.6238,0,0,1,.127-.1295.63.63,0,0,1,.34-.1273l2.6119-.1606.0674-.0037.0673-.0026.0674-.0016.0673-.0005a4.282,4.282,0,0,1,2.2245.6228l1.9863,1.204a.63.63,0,0,1,.1584.1385.6187.6187,0,0,1,.1011.1766.61.61,0,0,1,.0071.4044.6306.6306,0,0,1-.0742.15.6236.6236,0,0,1-.2462.213.6326.6326,0,0,1-.1594.0521l-2.1462.3957q-.0979.0181-.1962.0318t-.1966.0227q-.0984.009-.1967.0136t-.1966.0045a4.2724,4.2724,0,0,1-2.5916-.8725Z"/><path class="cls-1" d="M395.2853,66.8146q-.1354,0-.2717-.0126t-.2721-.0381q-.136-.0254-.2712-.0637t-.2687-.09l-2.3-.8857a.5928.5928,0,0,1-.1437-.0791.6566.6566,0,0,1-.12-.116.7061.7061,0,0,1-.09-.145.7163.7163,0,0,1-.0537-.1662l-.0028-.0223a.7135.7135,0,0,1-.0059-.2359.6707.6707,0,0,1,.0679-.2134.6052.6052,0,0,1,.1317-.1714.545.545,0,0,1,.185-.11l2.11-.7278q.1139-.0386.23-.0679t.2349-.049q.1183-.02.2382-.03t.24-.01l.0509.0005.0508.0013.0509.0023.0509.0032,2.9289.2076a.5471.5471,0,0,1,.1587.0342.5961.5961,0,0,1,.1435.0781.6617.6617,0,0,1,.1214.116.7111.7111,0,0,1,.0925.148.7253.7253,0,0,1,.0595.21.7153.7153,0,0,1-.0048.2114.6706.6706,0,0,1-.0657.1959.6055.6055,0,0,1-.1236.1632l-1.1615,1.0739a3.0426,3.0426,0,0,1-.4453.3413,2.9333,2.9333,0,0,1-.4881.2467,2.8907,2.8907,0,0,1-1.0576.2Z"/><path class="cls-1" d="M384.9234,63.5205q.1162,0,.2321.0059t.2312.0175q.1152.0117.23.029t.2277.04l3.58.7418a.7984.7984,0,0,1,.1865.0637.753.753,0,0,1,.1586.1037.689.689,0,0,1,.1228.1369.628.628,0,0,1,.0792.1633.5835.5835,0,0,1,.0232.2163.5913.5913,0,0,1-.0559.2061.6425.6425,0,0,1-.128.18.7255.7255,0,0,1-.1929.1369l-1.6916.8413a4.319,4.319,0,0,1-.4746.2012,4.452,4.452,0,0,1-.4934.1438,4.5214,4.5214,0,0,1-.5061.0863,4.5748,4.5748,0,0,1-1.0179.0008,4.5123,4.5123,0,0,1-.4993-.0842,4.4028,4.4028,0,0,1-.4872-.14,4.2908,4.2908,0,0,1-.4687-.1965l-2.64-1.2925a.7436.7436,0,0,1-.159-.1051.6742.6742,0,0,1-.12-.1356.6211.6211,0,0,1-.0759-.1585.5822.5822,0,0,1-.0265-.1736v-.0222a.5827.5827,0,0,1,.0487-.2327.6454.6454,0,0,1,.1347-.1969.738.738,0,0,1,.2036-.144.8137.8137,0,0,1,.2555-.074l2.7857-.3266q.0672-.008.1344-.0139t.1346-.01q.0673-.0039.1346-.0059T384.9234,63.5205Z"/><path class="cls-1" d="M404.2693,61.439q.0878,0,.1756.0025t.1757.0076q.0877.0049.1756.0126t.1755.0178l.2287.0265,3.09.3581a.4722.4722,0,0,1,.3835.2935.4512.4512,0,0,1,.0214.262.4608.4608,0,0,1-.03.0911.4667.4667,0,0,1-.0484.0834.4786.4786,0,0,1-.0656.0727l-2.1939,1.9677a2.6,2.6,0,0,1-.8172.4956,2.6437,2.6437,0,0,1-.9328.17q-.092,0-.1839-.0064t-.184-.0194q-.0918-.0129-.1831-.0324t-.1818-.0458l-3.288-.9548a1.1052,1.1052,0,0,1-.2656-.1149,1.0927,1.0927,0,0,1-.4975-.6682.7236.7236,0,0,1-.0183-.2666.735.735,0,0,1,.0759-.2489.7482.7482,0,0,1,.1579-.2084.7559.7559,0,0,1,.2279-.1451l1.6831-.6919q.2763-.1137.5616-.2t.5766-.1434q.2913-.0575.5873-.0865T404.2693,61.439Z"/><path class="cls-1" d="M373.733,64.3245,371.5644,62.21a.5379.5379,0,0,1-.0991-.134.5254.5254,0,0,1-.0517-.1534.5155.5155,0,0,1,.047-.3187.5446.5446,0,0,1,.0861-.1281.53.53,0,0,1,.1145-.0957.5387.5387,0,0,1,.1355-.06.5463.5463,0,0,1,.1492-.0207h3.6668a2.6881,2.6881,0,0,1,.8742.1457,2.6412,2.6412,0,0,1,.7753.4217l2.1069,1.6549a.5222.5222,0,0,1,.19.2989.5278.5278,0,0,1-.11.45.5335.5335,0,0,1-.3093.1806l-3.0383.5812q-.0632.0122-.1266.0213t-.1267.0151q-.0633.0061-.1267.0091t-.1265.003a2.6605,2.6605,0,0,1-1.8613-.757Z"/><path class="cls-1" d="M392.1479,61.1307a.4272.4272,0,0,1,.1487.5426.4344.4344,0,0,1-.107.1355.4576.4576,0,0,1-.0709.05.4835.4835,0,0,1-.08.0361l-1.5934.5121q-.0872.0279-.1754.0487t-.1772.0347q-.0889.0138-.1783.0207t-.1786.0069a2.3112,2.3112,0,0,1-1.347-.4321l-1.442-1.0351a.44.44,0,0,1-.0983-.097.43.43,0,0,1-.0612-.1191.4206.4206,0,0,1,.0025-.2681l.0561-.1661a.4164.4164,0,0,1,.0527-.1057.4265.4265,0,0,1,.0788-.086.441.441,0,0,1,.2135-.0962l1.8994-.2933q.045-.007.09-.0125c.03-.0036.06-.0065.09-.0089s.06-.0042.09-.0054.06-.0017.09-.0017a2.2855,2.2855,0,0,1,.6683.0995,2.2847,2.2847,0,0,1,.6119.2915Z"/><path class="cls-1" d="M381.5,58.7317q.1307,0,.2609.0118t.2591.0352q.1288.0234.2555.0587t.25.0822l2.8223,1.0709a.4422.4422,0,0,1,.2072.16.4377.4377,0,0,1,.0582.1164.4258.4258,0,0,1,.0206.1306.4342.4342,0,0,1-.0679.2407.446.446,0,0,1-.0819.0955.4564.4564,0,0,1-.1081.0707L382.9264,61.92a2.8749,2.8749,0,0,1-.2905.1133,2.8975,2.8975,0,0,1-1.6311.0536,2.8651,2.8651,0,0,1-.6846-.2748c-.2792-.157-.5548-.3023-.816-.4372s-.508-.2593-.73-.3747-.4176-.2216-.5775-.32a1.7225,1.7225,0,0,1-.36-.2738.78.78,0,0,1-.1-.1388.4886.4886,0,0,1-.0546-.1452.3166.3166,0,0,1,.0045-.1437.32.32,0,0,1,.077-.1342.384.384,0,0,1,.04-.0383.3884.3884,0,0,1,.0451-.0322.4357.4357,0,0,1,.0493-.0259.4485.4485,0,0,1,.0531-.02l2.6624-.858q.1078-.0345.2175-.06t.2207-.0432q.111-.0172.2228-.0258T381.5,58.7317Z"/><path class="cls-1" d="M400.6119,60.2341a.7.7,0,0,1-.0085.2022.7083.7083,0,0,1-.064.1884.7206.7206,0,0,1-.114.164.7293.7293,0,0,1-.1584.129l-1.4365.85a3.1418,3.1418,0,0,1-1.5987.437q-.1385,0-.2769-.0122c-.0921-.0081-.1842-.02-.2757-.0366s-.1828-.0368-.2732-.0613-.18-.0533-.2687-.0861l-2.87-1.06a.7285.7285,0,0,1-.1911-.1065.7142.7142,0,0,1-.1469-.1539.7.7,0,0,1-.1277-.4037v-.0222a.7026.7026,0,0,1,.1312-.41.7142.7142,0,0,1,.1505-.1547.732.732,0,0,1,.1953-.1054l2.0676-.7279q.1261-.0441.2552-.0773t.26-.0553q.1309-.0222.2631-.0333t.2648-.0111q.1105,0,.221.0077t.22.0233q.11.0156.2186.0389t.2159.0545l2.8335.8164a.7243.7243,0,0,1,.1943.0881.704.704,0,0,1,.3191.518Z"/><path class="cls-1" d="M399.97,58.2471a.4534.4534,0,0,1,.0884-.2692.4576.4576,0,0,1,.101-.1.4634.4634,0,0,1,.13-.0655l2.595-.8331q.094-.03.19-.0532t.1927-.038q.0969-.0152.1945-.0227t.1955-.0076c.0726,0,.1453.0032.2177.0094s.1445.0156.2163.028.143.028.2137.0467.1406.04.21.0651l2.32.83a.4725.4725,0,0,1,.1227.0674.461.461,0,0,1,.0951.0977.4509.4509,0,0,1-.0533.5864.4494.4494,0,0,1-.1.0732l-1.6188.8885a2.5315,2.5315,0,0,1-1.2135.31q-.0962,0-.1926-.0074t-.1921-.0221q-.0958-.0149-.1909-.0371t-.1887-.0521l-3.01-.9494a.4719.4719,0,0,1-.1308-.0655.4654.4654,0,0,1-.102-.0995.4539.4539,0,0,1-.0662-.1249.44.44,0,0,1-.0236-.1418Z"/><path class="cls-1" d="M386.5394,55.633q.1318,0,.2634.011t.2618.0331q.13.0219.2589.055t.2544.0768l2.8952,1.0212a.4308.4308,0,0,1,.2588.2449.4258.4258,0,0,1,.0315.1746.4193.4193,0,0,1-.0462.1783l-.014.0277a.4425.4425,0,0,1-.0445.0686.45.45,0,0,1-.0562.0593.4322.4322,0,0,1-.0662.0479.4152.4152,0,0,1-.0744.0345l-2.2191.797q-.1275.0459-.2578.08t-.2624.0573q-.1321.023-.2655.0343t-.2672.0115q-.1321,0-.2642-.0112t-.2629-.0334q-.1308-.0222-.26-.0556t-.2558-.0777l-3.0242-1.0655a.4306.4306,0,0,1-.2889-.4068.4221.4221,0,0,1,.0216-.1336.4319.4319,0,0,1,.0608-.1178.44.44,0,0,1,.0939-.0945.4484.4484,0,0,1,.1211-.0636l2.4295-.7972q.1193-.0391.2406-.0685t.2441-.0489q.1227-.0195.2464-.0293T386.5394,55.633Z"/><path class="cls-1" d="M398.8109,56l.0337.0969a.4585.4585,0,0,1-.1291.4815l-.8163.7223a2.5823,2.5823,0,0,1-.8061.4863,2.6132,2.6132,0,0,1-.919.1669q-.0832,0-.1666-.0053t-.1667-.016q-.0834-.0106-.1664-.0268t-.1655-.0377l-2.9822-.786a.4594.4594,0,0,1-.2469-.1616.4509.4509,0,0,1-.07-.1284.446.446,0,0,1-.0087-.2667.4535.4535,0,0,1,.0467-.11.4594.4594,0,0,1,.0742-.094.4543.4543,0,0,1,.0984-.0727l1.68-.9216a2.5809,2.5809,0,0,1,.2975-.1389,2.61,2.61,0,0,1,.63-.16,2.6461,2.6461,0,0,1,.3246-.02q.0783,0,.1568.0047t.1568.0141q.0783.0093.1562.0235t.1551.0329l.5575.1379,1.0082.2492.9423.2329a.4518.4518,0,0,1,.2006.1066.4636.4636,0,0,1,.0741.0864A.4557.4557,0,0,1,398.8109,56Z"/><path class="cls-1" d="M377.4783,56.8578l-1.442-1.0351a.4319.4319,0,0,1-.098-.097.4236.4236,0,0,1-.0812-.25.4294.4294,0,0,1,.022-.1344l.0562-.1688a.418.418,0,0,1,.0527-.1057.4287.4287,0,0,1,.0788-.0859.4338.4338,0,0,1,.0993-.0621.4391.4391,0,0,1,.1143-.0341l1.8992-.2934c.03-.0048.06-.0089.09-.0125s.06-.0065.09-.0089.06-.0041.09-.0053.06-.0017.09-.0017a2.2855,2.2855,0,0,1,1.28.3911l.2926.196,1.1241.7532a.427.427,0,0,1,.1487.5424.4491.4491,0,0,1-.047.0739.4372.4372,0,0,1-.211.1475l-1.5936.5119q-.087.0281-.1753.0489t-.1772.0347q-.089.0138-.1783.0207t-.1786.0069a2.3112,2.3112,0,0,1-1.3469-.4321Z"/><path class="cls-1" d="M398.5331,53.426a.4152.4152,0,0,1-.0973-.02.3993.3993,0,0,1-.0878-.0416.4051.4051,0,0,1-.1347-.1405.4114.4114,0,0,1-.0394-.0973.3989.3989,0,0,1-.0131-.1016.3936.3936,0,0,1,.0525-.1969l.44-.7582a1.8811,1.8811,0,0,1,.6991-.6924,1.9113,1.9113,0,0,1,.9449-.25q.0516,0,.1034.0028t.1038.0084q.0521.0057.104.0142t.104.02l1.2513.2739a.4031.4031,0,0,1,.1605.0741.4078.4078,0,0,1,.1143.1363l.1095.2159a.409.409,0,0,1,.0363.1094.3958.3958,0,0,1,.004.1123.3883.3883,0,0,1-.0282.1086.3961.3961,0,0,1-.06.0986l-.4545.5618a1.8781,1.8781,0,0,1-.302.2967,1.91,1.91,0,0,1-1.1748.4045l-.04,0-.04-.0012-.04-.002-.04-.003Z"/><path class="cls-1" d="M379.1138,51.7157a.46.46,0,0,1-.1862-.2654.4618.4618,0,0,1-.0122-.1616.4689.4689,0,0,1,.1206-.2665.4636.4636,0,0,1,.0989-.081.473.473,0,0,1,.1178-.0515.4791.4791,0,0,1,.13-.018H382.59a2.3524,2.3524,0,0,1,.5394.0629,2.3767,2.3767,0,0,1,.26.0771,2.4044,2.4044,0,0,1,.25.1062l2.8251,1.3921a.4769.4769,0,0,1,.1477.114.4638.4638,0,0,1,.089.1548.4519.4519,0,0,1-.0263.3539.5332.5332,0,0,1-.0581.09.4826.4826,0,0,1-.0723.0727.46.46,0,0,1-.085.0545.4676.4676,0,0,1-.0959.0352l-2.5.6171q-.07.0172-.1408.03c-.0471.0085-.0943.0157-.1416.0213s-.0947.01-.1421.0128-.0949.0043-.1423.0043a2.3773,2.3773,0,0,1-1.0282-.2332,2.3332,2.3332,0,0,1-.31-.1785Z"/><path class="cls-1" d="M396.6254,50.4676a.6263.6263,0,0,1,.39.2041.6177.6177,0,0,1,.1151.1866.6047.6047,0,0,1,.0173.39.6143.6143,0,0,1-.3206.3787l-2.8251,1.3948a3.736,3.736,0,0,1-1.2319.3627,3.7508,3.7508,0,0,1-.4278.0244q-.1047,0-.2095-.0058t-.2092-.0175q-.1045-.0117-.2085-.0293t-.2072-.0411l-2.4127-.548a.6394.6394,0,0,1-.1494-.0557.628.628,0,0,1-.2317-.2081.6244.6244,0,0,1-.0706-.143l-.0223-.0692a.607.607,0,0,1,.0195-.441.6152.6152,0,0,1,.3142-.3145l2.5754-1.154a3.7431,3.7431,0,0,1,.7526-.2473,3.7423,3.7423,0,0,1,.7861-.0834q.0582,0,.1162.0018t.1162.0054q.0582.0036.1161.0091t.1159.0127Z"/><path class="cls-1" d="M392.44,47.36l2.1462-.8359.0485-.0182c.0358-.0129.072-.0245.1083-.035q.079-.0228.1592-.038t.1609-.0227c.0538-.005.1078-.0076.1617-.0076a1.7515,1.7515,0,0,1,.3587.0374,1.8134,1.8134,0,0,1,.3493.1118l1.9161.83a.3786.3786,0,0,1,.1018.0678.4431.4431,0,0,1,.0792.0983.5079.5079,0,0,1,.0518.1212.5322.5322,0,0,1,.02.1362.542.542,0,0,1-.0137.1215.5169.5169,0,0,1-.0392.1113.4577.4577,0,0,1-.0619.0953.39.39,0,0,1-.0817.0731l-1.3381.8885a1.9425,1.9425,0,0,1-.2389.1357,1.8457,1.8457,0,0,1-.2492.0973,1.7618,1.7618,0,0,1-.2563.0586,1.7309,1.7309,0,0,1-.26.02q-.0795,0-.159-.0073t-.1587-.022q-.079-.0145-.1575-.0367t-.1557-.0515l-2.4885-.9521a.3626.3626,0,0,1-.1075-.0655.4263.4263,0,0,1-.0833-.0995.4917.4917,0,0,1-.0538-.1249.5334.5334,0,0,1-.0191-.1418v-.1134a.5416.5416,0,0,1,.0187-.1418.493.493,0,0,1,.0528-.1249.42.42,0,0,1,.0823-.1A.3582.3582,0,0,1,392.44,47.36Z"/><path class="cls-1" d="M383.07,47.6309a.5019.5019,0,0,1-.1009-.0959.6112.6112,0,0,1-.077-.1249.7056.7056,0,0,1-.0491-.1466.7633.7633,0,0,1-.0172-.1612.75.75,0,0,1,.0336-.2238.6445.6445,0,0,1,.0923-.1862.4935.4935,0,0,1,.1381-.1306.38.38,0,0,1,.1709-.0572l3.01-.227.0464-.0031.0464-.0023.0464-.0013.0463,0a2.38,2.38,0,0,1,.2475.0128,2.4247,2.4247,0,0,1,.2457.0383,2.5083,2.5083,0,0,1,.2432.0637q.1207.0381.24.0889l.2258.0974,2.3328,1.0068a.4523.4523,0,0,1,.16.1185.6012.6012,0,0,1,.1079.1817.7384.7384,0,0,1,.0469.2212.7754.7754,0,0,1-.0231.2368l-.0111.0443a.6636.6636,0,0,1-.0493.1357.5739.5739,0,0,1-.0735.1134.4843.4843,0,0,1-.0935.0864.4081.4081,0,0,1-.1092.0547l-2.3986.775q-.0933.03-.1871.0525t-.1882.0375q-.0944.015-.1888.0224t-.1889.0075a2.4023,2.4023,0,0,1-.3766-.03,2.48,2.48,0,0,1-.3708-.0889,2.6112,2.6112,0,0,1-.3608-.1474,2.8242,2.8242,0,0,1-.3468-.2052Z"/><path class="cls-1" d="M387.85,44.4122a.5175.5175,0,0,1-.1415-.0727.5022.5022,0,0,1-.18-.2452.5079.5079,0,0,1-.0263-.1553V43.87a.4951.4951,0,0,1,.19-.3972.5023.5023,0,0,1,.1352-.0759l3.4508-1.334c.0152-.0058.0306-.0108.046-.0152s.031-.0079.0467-.0108.0313-.005.047-.0065.0314-.0021.0471-.0021a.5113.5113,0,0,1,.0866.0073.4962.4962,0,0,1,.084.0218.51.51,0,0,1,.1531.0857l2.8505,2.3a.5094.5094,0,0,1,.12.14.4984.4984,0,0,1-.0083.5161.49.49,0,0,1-.0821.1.505.505,0,0,1-.1037.0749.5217.5217,0,0,1-.12.0468.5283.5283,0,0,1-.13.0161h-3.128q-.141,0-.2808-.0109t-.2778-.033q-.1381-.0221-.2742-.0553t-.27-.0779Z"/><path class="cls-1" d="M389.7465,80.6916l4.7524,1.8045a.76.76,0,0,1,.1969.1111.75.75,0,0,1,.2509.355.7422.7422,0,0,1,.0375.22.7358.7358,0,0,1-.1167.4051.75.75,0,0,1-.1385.16.7667.7667,0,0,1-.1824.1181l-4.124,1.8765a4.8731,4.8731,0,0,1-3.2343.2808,4.8251,4.8251,0,0,1-1.1534-.4636c-.47-.2629-.9339-.5066-1.3735-.7332s-.8551-.4359-1.2278-.63-.703-.3734-.9722-.5394a2.9178,2.9178,0,0,1-.6066-.4608,1.3274,1.3274,0,0,1-.1692-.2339.8154.8154,0,0,1-.0924-.2445.5307.5307,0,0,1,.0075-.2419.54.54,0,0,1,.1307-.2261.7463.7463,0,0,1,.1448-.1183.7663.7663,0,0,1,.0828-.0451.8231.8231,0,0,1,.0893-.0358l4.4832-1.4391q.1821-.0587.3675-.1026t.3726-.0732q.1874-.0294.3761-.044t.3776-.0146q.2192,0,.4378.02t.4346.059q.2162.0393.4288.0983T389.7465,80.6916Z"/></g></svg>