<svg xmlns="http://www.w3.org/2000/svg" xmlns:xlink="http://www.w3.org/1999/xlink" width="260" height="171.907" viewBox="0 0 260 171.907"><defs><style>.cls-1{fill:none;}.cls-2{clip-path:url(#clip-path);}.cls-3{fill:#3f4533;}.cls-4{fill:#a8ad8b;}</style><clipPath id="clip-path"><path class="cls-1" d="M153.8286,100.416c0,25.1911-10.6628,30.0375-23.8159,30.0375s-23.816-4.8464-23.816-30.0375c0-7.2313,10.7481-58.9625,23.9013-58.9625S153.8286,93.1847,153.8286,100.416Z"/></clipPath></defs><g id="Assets"><g class="cls-2"><path class="cls-3" d="M153.8286,100.416c0,25.1911-10.6628,30.0375-23.8159,30.0375s-23.816-4.8464-23.816-30.0375c0-7.2313,10.7481-58.9625,23.9013-58.9625S153.8286,93.1847,153.8286,100.416Z"/><polygon class="cls-4" points="126.987 126.742 130.003 124.465 133.012 126.742 130.003 127.229 126.987 126.742"/><polygon class="cls-4" points="118.54 122.733 121.275 120.196 123.835 121.904 120.819 124.181 118.54 122.733"/><polygon class="cls-4" points="139.302 124.181 136.293 121.904 138.888 120.196 141.676 122.626 139.302 124.181"/><polygon class="cls-4" points="113.874 118.886 112.434 115.843 113.874 114.501 116.609 116.349 113.874 118.886"/><polygon class="cls-4" points="143.485 116.225 146.155 114.377 147.618 115.748 146.273 118.656 143.485 116.225"/><polygon class="cls-4" points="130.05 112.976 132.649 115.082 130.054 116.79 127.494 115.082 130.05 112.976"/><polygon class="cls-4" points="118.535 108.872 121.271 106.585 123.826 108.615 121.271 110.721 118.535 108.872"/><polygon class="cls-4" points="138.745 106.585 136.146 108.615 138.745 110.721 141.415 108.872 138.745 106.585"/><polygon class="cls-4" points="108.409 107.525 108.794 110.449 110.234 109.106 108.409 107.525"/><polygon class="cls-4" points="150.993 110.829 151.217 108.15 149.53 109.458 150.993 110.829"/><polygon class="cls-4" points="144.135 102.219 146.805 104.507 148.825 102.219 146.48 100.327 144.135 102.219"/><polygon class="cls-4" points="127.494 101.82 130.054 99.843 132.649 101.82 130.05 103.851 127.494 101.82"/><polygon class="cls-4" points="113.12 104.409 111.034 102.257 113.408 100.144 115.855 102.121 113.12 104.409"/><polygon class="cls-4" points="121.761 93.251 119.165 95.2 121.612 97.178 124.172 95.2 121.761 93.251"/><polygon class="cls-4" points="138.222 93.251 135.776 95.2 138.371 97.178 140.716 95.285 138.222 93.251"/><polygon class="cls-4" points="109.524 94.413 110.829 95.609 108.691 97.184 108.933 94.677 109.524 94.413"/><polygon class="cls-4" points="149.216 96.163 150.623 94.883 151.215 95.299 151.562 98.056 149.216 96.163"/><polygon class="cls-4" points="127.643 88.842 130.054 90.791 132.499 88.842 130.05 87.04 127.643 88.842"/><polygon class="cls-4" points="115.737 87.951 117.427 89.333 114.831 91.282 113.526 90.085 115.737 87.951"/><polygon class="cls-4" points="142.716 89.431 145.21 91.465 146.617 90.184 144.405 88.049 142.716 89.431"/><polygon class="cls-4" points="134.828 83.169 136.647 81.8 138.967 83.589 137.278 84.971 134.828 83.169"/><polygon class="cls-4" points="122.814 84.873 121.125 83.491 123.334 81.617 125.221 83.071 122.814 84.873"/><polygon class="cls-4" points="110.637 86.358 110.943 86.812 113.272 84.845 111.862 83.547 111.207 84.209 110.637 86.358"/><polygon class="cls-4" points="146.76 84.845 148.082 83.547 148.737 84.196 149.3 86.511 149.125 86.812 146.76 84.845"/><polygon class="cls-4" points="141.979 77.369 143.954 79.161 142.632 80.459 140.312 78.67 141.979 77.369"/><polygon class="cls-4" points="129.924 76.538 131.74 77.918 129.92 79.143 128.034 77.834 129.924 76.538"/><polygon class="cls-4" points="117.849 77.369 119.487 78.586 117.278 80.459 115.868 79.161 117.849 77.369"/><polygon class="cls-4" points="144.411 73.94 145.97 72.3 146.804 75.157 146.386 75.733 144.411 73.94"/><polygon class="cls-4" points="114.231 72.3 115.672 73.94 113.691 75.733 113.464 75.157 114.231 72.3"/><polygon class="cls-4" points="134.075 73.515 135.89 72.148 137.558 73.594 135.89 74.895 134.075 73.515"/><polygon class="cls-4" points="124.005 74.712 122.366 73.496 124.115 72.05 125.895 73.417 124.005 74.712"/><polygon class="cls-4" points="139.827 68.926 141.555 67.466 143.053 68.732 141.494 70.372 139.827 68.926"/><path class="cls-4" d="M128.2735,68.7535s1.84,1.4028,1.78,1.367,1.8151-1.367,1.8151-1.367l-1.8529-1.53Z"/><polygon class="cls-4" points="118.608 70.291 117.167 68.65 118.504 67.314 120.357 68.845 118.608 70.291"/><polygon class="cls-4" points="124.103 62.652 122.096 64.025 123.949 65.555 125.692 64.025 124.103 62.652"/><polygon class="cls-4" points="135.843 65.031 134.064 63.695 135.638 62.234 137.645 63.765 135.843 65.031"/><polygon class="cls-4" points="129.869 58.445 128.28 59.562 129.869 60.936 131.442 59.475 129.869 58.445"/><polygon class="cls-4" points="119.566 56.842 121.102 58.488 119.233 60.073 118.505 59.078 119.566 56.842"/><polygon class="cls-4" points="140.353 60.224 138.346 58.693 140.044 56.924 141.101 59.186 140.353 60.224"/><polygon class="cls-4" points="144.844 65.021 143.926 64.299 144.469 63.426 144.844 65.021"/><polygon class="cls-4" points="114.79 65.409 115.943 64.497 115.399 63.621 114.79 65.409"/><polygon class="cls-4" points="123.074 53.892 124.609 55.538 126.554 54.475 124.382 52.949 123.074 53.892"/><polygon class="cls-4" points="135.277 56.034 133.704 55.005 135.593 53.518 136.976 54.265 135.277 56.034"/><polygon class="cls-4" points="128.094 51.353 129.836 52.805 131.536 51.318 129.87 50.461 128.094 51.353"/><polygon class="cls-4" points="124.786 47.258 125.205 47.912 127.192 47.251 125.83 46.182 124.786 47.258"/><polygon class="cls-4" points="135.048 48.058 133.377 47.201 134.732 45.895 135.744 47.354 135.048 48.058"/><polygon class="cls-4" points="139.18 51.38 137.798 50.632 138.494 49.928 139.18 51.38"/><polygon class="cls-4" points="120.469 51.21 121.717 50.463 121.359 49.614 120.469 51.21"/><polygon class="cls-4" points="128.845 44.462 130.207 45.531 131.747 44.224 130.237 43.649 128.845 44.462"/><path class="cls-4" d="M141.1105,53.2164a.2926.2926,0,0,1-.1468-.0394c-1.2516-.7265-3.0844-1.5366-5.0246-2.3942-3.8962-1.7225-8.3128-3.6749-9.9143-5.7694a8.27,8.27,0,0,1-.8455-1.333.28.28,0,0,1,.1338-.3774.2909.2909,0,0,1,.3848.1308,7.6945,7.6945,0,0,0,.7881,1.2408c1.5122,1.9777,5.8567,3.8984,9.69,5.5928,1.9548.8645,3.8017,1.6806,5.0815,2.4234a.28.28,0,0,1,.1012.3868A.2887.2887,0,0,1,141.1105,53.2164Z"/><path class="cls-4" d="M146.6865,67.8359a.29.29,0,0,1-.1952-.0748,141.623,141.623,0,0,0-11.54-8.5694c-5.3565-3.74-10.4155-7.2732-11.8067-9.0926q-.9433-1.2342-1.5307-2.02a.2793.2793,0,0,1,.0608-.3951.292.292,0,0,1,.4028.06q.5889.7839,1.5284,2.0159c1.3372,1.749,6.5947,5.42,11.68,8.9712a141.8284,141.8284,0,0,1,11.5963,8.6141.2786.2786,0,0,1,.0163.3993A.2893.2893,0,0,1,146.6865,67.8359Z"/><path class="cls-4" d="M150.4691,82.001a.29.29,0,0,1-.2116-.0911c-3.5209-3.7439-10.9263-10.0117-17.46-15.5413-6.0553-5.1249-11.2842-9.5506-12.533-11.1838a17.5785,17.5785,0,0,1-1.4615-2.2007.28.28,0,0,1,.1176-.3827.291.291,0,0,1,.39.1159,17.059,17.059,0,0,0,1.4154,2.1287c1.2106,1.584,6.669,6.2037,12.448,11.0946,6.5452,5.54,13.9641,11.8187,17.507,15.5863a.2787.2787,0,0,1-.0163.3993A.2909.2909,0,0,1,150.4691,82.001Z"/><path class="cls-4" d="M152.6276,91.81a.288.288,0,0,1-.2054-.0847c-3.5271-3.5226-12.2623-10.1584-19.9692-16.0128-7.6788-5.8332-14.31-10.8709-15.645-12.6164a18.2848,18.2848,0,0,1-1.3619-2.0222.28.28,0,0,1,.1108-.3843.2917.2917,0,0,1,.3921.109,17.6854,17.6854,0,0,0,1.32,1.9587c1.2877,1.6842,8.2087,6.9418,15.5364,12.5082,7.7215,5.8657,16.473,12.5137,20.0272,16.0642a.2791.2791,0,0,1-.0034.4A.2919.2919,0,0,1,152.6276,91.81Z"/><path class="cls-4" d="M153.8247,101.5312a.29.29,0,0,1-.2043-.0833C149.9453,97.82,140.4057,90.69,131.9889,84.4c-8.35-6.2415-15.5629-11.6316-16.909-13.3925-.7977-1.0438-1.5256-1.967-2.0764-2.6579a.2792.2792,0,0,1,.0495-.3968.2918.2918,0,0,1,.4039.0486c.553.6931,1.2832,1.62,2.0843,2.6673,1.2978,1.6977,8.8263,7.3245,16.797,13.2818,8.4309,6.3017,17.9874,13.4444,21.6907,17.0995a.2792.2792,0,0,1-.0012.4A.2892.2892,0,0,1,153.8247,101.5312Z"/><path class="cls-4" d="M152.5162,114.3189a.2893.2893,0,0,1-.2149-.0946c-3.5013-3.8549-14.166-12.3308-23.5752-19.8087-8.17-6.4932-15.2253-12.1006-16.5265-13.8022a13.42,13.42,0,0,1-1.903-3.13.2813.2813,0,0,1,.167-.3645.29.29,0,0,1,.3719.1636,12.8461,12.8461,0,0,0,1.8254,2.9924c1.2579,1.6453,8.6267,7.5016,16.4281,13.702,9.426,7.4915,20.11,15.9828,23.6421,19.8719a.2791.2791,0,0,1-.0231.399A.2929.2929,0,0,1,152.5162,114.3189Z"/><path class="cls-4" d="M147.7278,124.2075a.29.29,0,0,1-.2335-.117c-2.361-3.2031-13.2884-11.8716-22.9293-19.52-7.7907-6.18-14.5193-11.5179-15.8216-13.2211a19.7492,19.7492,0,0,1-1.1313-1.6318.28.28,0,0,1,.0984-.3877.2916.2916,0,0,1,.3955.0963,19.0487,19.0487,0,0,0,1.0987,1.5844c1.2589,1.6469,8.2846,7.22,15.7225,13.1207,9.6691,7.67,20.628,16.3635,23.034,19.6276a.2791.2791,0,0,1-.0646.3946A.2915.2915,0,0,1,147.7278,124.2075Z"/><path class="cls-4" d="M140.1987,129.2888a.2885.2885,0,0,1-.2205-.1009c-2.0584-2.4058-9.9616-7.6427-17.6043-12.7074-7.3148-4.8474-14.224-9.4257-15.6467-11.2862q-.3494-.4569-.6357-.8534l-.1412-.1951a.28.28,0,0,1,.07-.3937.2919.2919,0,0,1,.4016.0682l.139.1931c.189.2607.3971.5414.6272.8418,1.3648,1.7847,8.2346,6.3373,15.5083,11.157,7.6759,5.0863,15.6129,10.3461,17.723,12.8125a.2784.2784,0,0,1-.0354.3979A.2913.2913,0,0,1,140.1987,129.2888Z"/><path class="cls-4" d="M119.0318,53.2164a.2887.2887,0,0,1-.2481-.1388.28.28,0,0,1,.1012-.3868c1.28-.7425,3.1267-1.5589,5.0815-2.4231,3.8332-1.6947,8.1783-3.6154,9.69-5.5931a7.6646,7.6646,0,0,0,.7881-1.2409.29.29,0,0,1,.3848-.1307.28.28,0,0,1,.1338.3774,8.2373,8.2373,0,0,1-.8455,1.333c-1.601,2.0945-6.0175,4.0469-9.9143,5.7694-1.94.8576-3.773,1.6677-5.0246,2.3942A.2923.2923,0,0,1,119.0318,53.2164Z"/><path class="cls-4" d="M113.4558,67.8359a.2893.2893,0,0,1-.2115-.091.2787.2787,0,0,1,.0163-.3993,141.8284,141.8284,0,0,1,11.5963-8.6141c5.0849-3.5508,10.3424-7.2222,11.68-8.9712q.9417-1.2318,1.5284-2.0159a.2927.2927,0,0,1,.4028-.06.2793.2793,0,0,1,.0608.3951q-.5891.7855-1.5307,2.02c-1.3912,1.8194-6.45,5.3522-11.8067,9.0926a141.623,141.623,0,0,0-11.54,8.5694A.29.29,0,0,1,113.4558,67.8359Z"/><path class="cls-4" d="M109.6733,82.001a.291.291,0,0,1-.1953-.0748.2786.2786,0,0,1-.0163-.3993c3.5429-3.7676,10.9618-10.0467,17.507-15.5863,5.779-4.8909,11.2374-9.5106,12.448-11.0946a17.0087,17.0087,0,0,0,1.4154-2.1287.2908.2908,0,0,1,.39-.1159.28.28,0,0,1,.1176.3827,17.5728,17.5728,0,0,1-1.4615,2.2007c-1.2488,1.6332-6.4777,6.0589-12.5329,11.1838-6.534,5.53-13.9394,11.7974-17.46,15.5413A.2894.2894,0,0,1,109.6733,82.001Z"/><path class="cls-4" d="M107.5148,91.81a.2911.2911,0,0,1-.202-.0808.2791.2791,0,0,1-.0034-.4c3.5542-3.55,12.304-10.1968,20.0244-16.0615,7.3289-5.5674,14.2515-10.8261,15.5392-12.5106a17.6766,17.6766,0,0,0,1.32-1.9588.2914.2914,0,0,1,.3921-.1089.28.28,0,0,1,.1108.3843,18.2848,18.2848,0,0,1-1.3619,2.0222c-1.3349,1.7457-7.9673,6.7846-15.6478,12.6186-7.7057,5.8536-16.4392,12.4883-19.9664,16.0109A.2889.2889,0,0,1,107.5148,91.81Z"/><path class="cls-4" d="M106.3177,101.5313a.2893.2893,0,0,1-.2031-.0823.2791.2791,0,0,1-.0011-.4c3.7032-3.6551,13.26-10.7978,21.6906-17.0994,7.9707-5.9574,15.4993-11.5842,16.797-13.2819.8017-1.0477,1.5313-1.9742,2.0843-2.6673a.2914.2914,0,0,1,.4039-.0486.2792.2792,0,0,1,.0495.3968c-.5507.6909-1.2781,1.6141-2.0764,2.6582-1.3461,1.7606-8.5585,7.1507-16.909,13.3922C119.7366,90.69,110.197,97.82,106.5219,101.4479A.29.29,0,0,1,106.3177,101.5313Z"/><path class="cls-4" d="M107.6262,114.3189a.2932.2932,0,0,1-.1919-.0714.279.279,0,0,1-.023-.399c3.5322-3.8891,14.2161-12.38,23.6421-19.8719,7.8013-6.2,15.17-12.0568,16.428-13.7021a12.8442,12.8442,0,0,0,1.8254-2.9923.2906.2906,0,0,1,.3719-.1636.2814.2814,0,0,1,.1671.3645,13.4214,13.4214,0,0,1-1.9031,3.13c-1.3012,1.7016-8.3566,7.309-16.5265,13.8022-9.4091,7.4779-20.0739,15.9538-23.5752,19.8087A.2891.2891,0,0,1,107.6262,114.3189Z"/><path class="cls-4" d="M112.4145,124.2075a.2912.2912,0,0,1-.1687-.0535.279.279,0,0,1-.0647-.3945c2.406-3.2642,13.3649-11.9578,23.034-19.6277,7.438-5.9,14.4636-11.4738,15.7226-13.1207a18.8477,18.8477,0,0,0,1.0986-1.5844.2918.2918,0,0,1,.3955-.0963.28.28,0,0,1,.0984.3877A19.767,19.767,0,0,1,151.399,91.35c-1.3023,1.7029-8.0309,7.0406-15.8216,13.2208-9.6409,7.6479-20.5684,16.3164-22.9294,19.52A.29.29,0,0,1,112.4145,124.2075Z"/><path class="cls-4" d="M119.9437,129.2888a.2909.2909,0,0,1-.1851-.0662.2784.2784,0,0,1-.0355-.3979c2.11-2.4664,10.0471-7.7262,17.723-12.8125,7.2738-4.82,14.1436-9.3723,15.5077-11.1567.157-.2045.3027-.4.44-.5852a.2915.2915,0,0,1,.4022-.0629.2789.2789,0,0,1,.0636.3945c-.139.1885-.2869.3858-.4455.5927-1.4222,1.86-8.3313,6.4385-15.6461,11.2859-7.6428,5.0647-15.546,10.3016-17.6043,12.7074A.2887.2887,0,0,1,119.9437,129.2888Z"/></g></g></svg>