<svg xmlns="http://www.w3.org/2000/svg" width="260" height="171.907" viewBox="0 0 260 171.907"><defs><style>.cls-1{fill:#70745a;}.cls-2{fill:#372b16;}.cls-3{fill:#010101;}</style></defs><g id="Assets"><path class="cls-1" d="M105.3391,36.6427a.2421.2421,0,0,1-.1861-.3967,41.2556,41.2556,0,0,0,9.477-21.6312.2376.2376,0,0,1,.2678-.2133.2423.2423,0,0,1,.2131.2681,41.7363,41.7363,0,0,1-9.5853,21.8856A.2417.2417,0,0,1,105.3391,36.6427Z"/><path class="cls-1" d="M107.4005,37.212a.2422.2422,0,0,1-.1194-.453,49.5568,49.5568,0,0,0,16.5892-14.99.2419.2419,0,1,1,.4.2723,50.0466,50.0466,0,0,1-16.7509,15.1394A.24.24,0,0,1,107.4005,37.212Z"/><path class="cls-1" d="M110.5788,38.7242a.2421.2421,0,0,1-.0764-.4719,53.6333,53.6333,0,0,0,18.2517-10.2359.2423.2423,0,0,1,.3164.367,54.1241,54.1241,0,0,1-18.4153,10.3285A.2394.2394,0,0,1,110.5788,38.7242Z"/><path class="cls-1" d="M119.9609,46.41a.2419.2419,0,0,1-.099-.4629A62.1943,62.1943,0,0,0,140.911,30.7585a.242.242,0,1,1,.3617.3216A62.6668,62.6668,0,0,1,120.06,46.3883.2374.2374,0,0,1,119.9609,46.41Z"/><path class="cls-1" d="M123.8346,48.8306a.242.242,0,0,1-.0991-.463A62.1934,62.1934,0,0,0,144.7846,33.18a.242.242,0,1,1,.3618.3216,62.6678,62.6678,0,0,1-21.2132,15.3082A.2382.2382,0,0,1,123.8346,48.8306Z"/><path class="cls-1" d="M127.3554,51.1868a.2421.2421,0,0,1-.1865-.3963,38.408,38.408,0,0,0,8.7658-20.1961.2385.2385,0,0,1,.2671-.2142.2422.2422,0,0,1,.2142.2672,38.8935,38.8935,0,0,1-8.8735,20.4514A.2413.2413,0,0,1,127.3554,51.1868Z"/><path class="cls-1" d="M129.2031,54.53a.2423.2423,0,0,1-.1442-.4369,63.0509,63.0509,0,0,0,19.97-24.0575.242.242,0,1,1,.44.2024,63.5392,63.5392,0,0,1-20.1218,24.2447A.2434.2434,0,0,1,129.2031,54.53Z"/><path class="cls-1" d="M104.6764,35.7353a.242.242,0,0,1-.1189-.453,56.2093,56.2093,0,0,0,18.829-16.9036.2421.2421,0,0,1,.3991.2743,56.6974,56.6974,0,0,1-18.9908,17.0511A.239.239,0,0,1,104.6764,35.7353Z"/><path class="cls-1" d="M104.8549,34.2217a.2421.2421,0,0,1-.1887-.3934,40.6268,40.6268,0,0,0,8.9947-21.6293.2422.2422,0,1,1,.4823.0444,41.11,41.11,0,0,1-9.0992,21.8875A.2423.2423,0,0,1,104.8549,34.2217Z"/><path class="cls-1" d="M106.3075,33.7375a.2421.2421,0,0,1-.1861-.3967,41.2556,41.2556,0,0,0,9.477-21.6312.237.237,0,0,1,.2679-.2133.2421.2421,0,0,1,.213.2681A41.7367,41.7367,0,0,1,106.494,33.65.2417.2417,0,0,1,106.3075,33.7375Z"/><path class="cls-1" d="M138.2677,61.3744a.2419.2419,0,0,1-.1269-.4482,57.7859,57.7859,0,0,0,19.1329-18.8107.2421.2421,0,0,1,.4132.2525,58.2726,58.2726,0,0,1-19.2927,18.9705A.2376.2376,0,0,1,138.2677,61.3744Z"/><path class="cls-1" d="M143.337,62.845a.2423.2423,0,0,1-.13-.4464,51.5907,51.5907,0,0,0,16.97-17.3731.2421.2421,0,0,1,.4189.243,52.0864,52.0864,0,0,1-17.128,17.5387A.2434.2434,0,0,1,143.337,62.845Z"/><path class="cls-1" d="M137.3558,61.2657a.242.242,0,0,1-.1886-.3934,51.3721,51.3721,0,0,0,11.3563-27.3684.248.248,0,0,1,.2634-.2189.2422.2422,0,0,1,.2189.2634A51.856,51.856,0,0,1,137.545,61.1749.2421.2421,0,0,1,137.3558,61.2657Z"/><path class="cls-1" d="M135.8734,59.849a.242.242,0,0,1-.2007-.3768,43.0328,43.0328,0,0,0,7.5236-24.4906.2423.2423,0,0,1,.2395-.245h.0026a.242.242,0,0,1,.2421.2393,43.514,43.514,0,0,1-7.6059,24.7658A.24.24,0,0,1,135.8734,59.849Z"/><path class="cls-1" d="M133.4822,58.3605a.242.242,0,0,1-.1986-.38,48.6087,48.6087,0,0,0,8.9443-27.3613.2424.2424,0,0,1,.2421-.24h.0019a.242.242,0,0,1,.24.244,49.0881,49.0881,0,0,1-9.0308,27.6336A.2422.2422,0,0,1,133.4822,58.3605Z"/><path class="cls-1" d="M134.7268,58.9416a.2422.2422,0,0,1-.1242-.45,62.3467,62.3467,0,0,0,20.7366-19.7691.2422.2422,0,0,1,.4086.26A62.8378,62.8378,0,0,1,134.85,58.9076.2406.2406,0,0,1,134.7268,58.9416Z"/><path class="cls-1" d="M142.0626,64.2366a.242.242,0,0,1-.1917-.39A40.778,40.778,0,0,0,150.46,41.7415a.2456.2456,0,0,1,.2577-.2255.2421.2421,0,0,1,.2256.2577,41.2642,41.2642,0,0,1-8.6882,22.3684A.2426.2426,0,0,1,142.0626,64.2366Z"/><path class="cls-1" d="M139.8989,62.7661a.2372.2372,0,0,1-.1216-.0331.242.242,0,0,1-.0874-.331,39.842,39.842,0,0,0,5.4442-23.5288.242.242,0,1,1,.4823-.0416,40.3247,40.3247,0,0,1-5.5081,23.8144A.2421.2421,0,0,1,139.8989,62.7661Z"/><path class="cls-1" d="M132.3786,56.9736a.2421.2421,0,0,1-.1965-.383,39.6821,39.6821,0,0,0,7.6248-22.1022.23.23,0,0,1,.2482-.236.2423.2423,0,0,1,.236.2483,40.1618,40.1618,0,0,1-7.7156,22.3717A.2408.2408,0,0,1,132.3786,56.9736Z"/><path class="cls-1" d="M129.1542,55.4193a.242.242,0,0,1-.2107-.3608A50.8351,50.8351,0,0,0,135.45,24.8351a.2422.2422,0,0,1,.4819-.0492,51.3153,51.3153,0,0,1-6.5668,30.51A.2418.2418,0,0,1,129.1542,55.4193Z"/><path class="cls-1" d="M131.3374,56.5206a.2422.2422,0,0,1-.1183-.4535,66.1919,66.1919,0,0,0,22.1885-19.7738.2423.2423,0,0,1,.3982.2761,66.688,66.688,0,0,1-22.3507,19.92A.2414.2414,0,0,1,131.3374,56.5206Z"/><path class="cls-1" d="M114.6933,44.4392a.2421.2421,0,0,1-.1276-.4478,54.472,54.472,0,0,0,18.0131-17.8536.2421.2421,0,0,1,.4143.2506,54.9511,54.9511,0,0,1-18.1726,18.0143A.2409.2409,0,0,1,114.6933,44.4392Z"/><path class="cls-1" d="M111.9335,71.3432a.2422.2422,0,0,1-.1149-.4554,53.3547,53.3547,0,0,0,17.9406-15.4165.2422.2422,0,1,1,.392.2847A53.8439,53.8439,0,0,1,112.048,71.3143.2435.2435,0,0,1,111.9335,71.3432Z"/><path class="cls-1" d="M85.7107,51.9689a.242.242,0,0,1-.12-.4525,52.3916,52.3916,0,0,0,17.5328-15.8913.2422.2422,0,1,1,.4.2724A52.8767,52.8767,0,0,1,85.83,51.9372.2364.2364,0,0,1,85.7107,51.9689Z"/><path class="cls-1" d="M87.315,53.4333a.2421.2421,0,0,1-.1054-.46,57.1319,57.1319,0,0,0,19.3168-14.9445.2421.2421,0,1,1,.3741.3073A57.6188,57.6188,0,0,1,87.42,53.4092.2379.2379,0,0,1,87.315,53.4333Z"/><path class="cls-1" d="M121.92,76.2088a.2422.2422,0,0,1-.1019-.4619A53.553,53.553,0,0,0,139.94,62.235a.2422.2422,0,0,1,.3679.315,54.046,54.046,0,0,1-18.2855,13.6366A.241.241,0,0,1,121.92,76.2088Z"/><path class="cls-1" d="M121.92,78.1457a.2422.2422,0,0,1-.0884-.4677,62.2411,62.2411,0,0,0,21.0264-13.52.2419.2419,0,1,1,.3409.3433,62.7341,62.7341,0,0,1-21.19,13.6281A.24.24,0,0,1,121.92,78.1457Z"/><path class="cls-1" d="M121.1038,73.3154a.2421.2421,0,0,1-.112-.4567A44.7037,44.7037,0,0,0,136.0564,60.31a.2421.2421,0,0,1,.3868.2913A45.1914,45.1914,0,0,1,121.2154,73.288.2424.2424,0,0,1,121.1038,73.3154Z"/><path class="cls-1" d="M114.9144,73.2857a.2422.2422,0,0,1-.1123-.4568A53.023,53.023,0,0,0,132.6668,57.89a.242.242,0,1,1,.3873.29,53.5075,53.5075,0,0,1-18.0279,15.0784A.2427.2427,0,0,1,114.9144,73.2857Z"/><path class="cls-1" d="M109.8154,67.009a.2421.2421,0,0,1-.1123-.4568A48.0344,48.0344,0,0,0,125.8879,53.047a.2423.2423,0,0,1,.3873.2913,48.5265,48.5265,0,0,1-16.348,13.6433A.245.245,0,0,1,109.8154,67.009Z"/><path class="cls-1" d="M104.0047,64.1038a.2421.2421,0,0,1-.0927-.4658A59.3032,59.3032,0,0,0,123.97,50.12a.242.242,0,1,1,.35.3348,59.7913,59.7913,0,0,1-20.2221,13.6305A.2371.2371,0,0,1,104.0047,64.1038Z"/><path class="cls-1" d="M100.3885,63.1174a.2421.2421,0,0,1-.1054-.46A57.1319,57.1319,0,0,0,119.6,47.7127a.2421.2421,0,1,1,.374.3074,57.6187,57.6187,0,0,1-19.48,15.0732A.2393.2393,0,0,1,100.3885,63.1174Z"/><path class="cls-1" d="M97.9675,60.6964a.242.242,0,0,1-.11-.4578A54.3815,54.3815,0,0,0,116.206,45.2974a.242.242,0,0,1,.383.296A54.8627,54.8627,0,0,1,98.077,60.67.2391.2391,0,0,1,97.9675,60.6964Z"/><path class="cls-1" d="M94.0939,58.76a.2421.2421,0,0,1-.1076-.4592,55.748,55.748,0,0,0,18.8324-14.9427.2421.2421,0,0,1,.3788.3017A56.2364,56.2364,0,0,1,94.201,58.7345.2422.2422,0,0,1,94.0939,58.76Z"/><path class="cls-1" d="M89.9928,57.7732a.2422.2422,0,0,1-.1149-.4554,56.6749,56.6749,0,0,0,19.0606-16.3726.2422.2422,0,0,1,.392.2847A57.1713,57.1713,0,0,1,90.1073,57.7443.2447.2447,0,0,1,89.9928,57.7732Z"/><path class="cls-1" d="M195.3106,70.02a.2408.2408,0,0,1-.1783-.0784,44.1156,44.1156,0,0,1-11.1639-21.9826.2421.2421,0,0,1,.4767-.0851,43.6345,43.6345,0,0,0,11.0437,21.74.2421.2421,0,0,1-.1782.4057Z"/><path class="cls-1" d="M196.8358,68.3349a.2414.2414,0,0,1-.1887-.09,38.2824,38.2824,0,0,1-8.5161-20.3437.2422.2422,0,0,1,.218-.2643.2449.2449,0,0,1,.2638.218A37.804,37.804,0,0,0,197.024,67.941a.2419.2419,0,0,1-.1882.3939Z"/><path class="cls-1" d="M198.7922,65.867a.2409.2409,0,0,1-.1962-.1,32.2972,32.2972,0,0,1-6.3008-17.9193.2421.2421,0,0,1,.234-.25.2537.2537,0,0,1,.25.2346,31.82,31.82,0,0,0,6.2091,17.6507.2417.2417,0,0,1-.1958.3839Z"/><path class="cls-1" d="M204.0785,69.16a.2424.2424,0,0,1-.1965-.1A38.2534,38.2534,0,0,1,196.46,47.8087a.2424.2424,0,0,1,.235-.2492.2539.2539,0,0,1,.2492.235,37.7674,37.7674,0,0,0,7.33,20.9811.2421.2421,0,0,1-.0546.3381A.2392.2392,0,0,1,204.0785,69.16Z"/><path class="cls-1" d="M208.0278,69.5132a.2415.2415,0,0,1-.1984-.1031,38.5825,38.5825,0,0,1-7.2044-21.643.242.242,0,0,1,.2388-.2454h.0033a.2423.2423,0,0,1,.2421.2388,38.1017,38.1017,0,0,0,7.1165,21.3716.2421.2421,0,0,1-.1979.3811Z"/><path class="cls-1" d="M211.7359,67.0851a.2424.2424,0,0,1-.1965-.1A34.68,34.68,0,0,1,204.79,47.7335a.2424.2424,0,0,1,.2346-.25.2531.2531,0,0,1,.25.2345,34.1955,34.1955,0,0,0,6.6576,18.9828.2421.2421,0,0,1-.196.3839Z"/><path class="cls-1" d="M219.421,69.2423a.2427.2427,0,0,1-.1816-.0818,42.1218,42.1218,0,0,1-10.2813-21.4364.242.242,0,1,1,.4785-.0728A41.638,41.638,0,0,0,219.6025,68.84a.2422.2422,0,0,1-.1815.4024Z"/><path class="cls-1" d="M222.059,69.8305a.2423.2423,0,0,1-.1912-.0931,40.9193,40.9193,0,0,1-8.7467-22.07.2423.2423,0,0,1,.2234-.26.2384.2384,0,0,1,.2594.2237A40.4341,40.4341,0,0,0,222.25,69.44a.2424.2424,0,0,1-.0423.34A.24.24,0,0,1,222.059,69.8305Z"/><path class="cls-1" d="M225.3442,69.2437a.2424.2424,0,0,1-.1948-.0979,39.121,39.121,0,0,1-7.8636-21.5234.2419.2419,0,0,1,.231-.2525.2312.2312,0,0,1,.2527.2308,38.6382,38.6382,0,0,0,7.769,21.2567.2423.2423,0,0,1-.1943.3863Z"/><path class="cls-1" d="M229.9493,69.48a.2422.2422,0,0,1-.1929-.0955,40.0107,40.0107,0,0,1-8.3055-21.7962.242.242,0,0,1,.2272-.2563.238.238,0,0,1,.2561.2269,39.528,39.528,0,0,0,8.2076,21.5324.2419.2419,0,0,1-.1925.3887Z"/><path class="cls-1" d="M233.4669,70.6173a.2417.2417,0,0,1-.1984-.103,40.9623,40.9623,0,0,1-7.6527-22.9756.242.242,0,0,1,.2388-.2454.2539.2539,0,0,1,.2454.2388,40.4794,40.4794,0,0,0,7.5648,22.7041.242.242,0,0,1-.1979.3811Z"/><path class="cls-1" d="M238.7194,69.6787a.2423.2423,0,0,1-.1913-.0931,40.9184,40.9184,0,0,1-8.7466-22.07.2422.2422,0,0,1,.2234-.26.2363.2363,0,0,1,.2593.2237,40.4335,40.4335,0,0,0,8.646,21.8081.2425.2425,0,0,1-.0424.34A.24.24,0,0,1,238.7194,69.6787Z"/><path class="cls-1" d="M240.6928,69.3264a.2412.2412,0,0,1-.2019-.1082,38.1083,38.1083,0,0,1-6.545-21.7632.2609.2609,0,0,1,.2463-.2378.2421.2421,0,0,1,.2379.2463,37.6286,37.6286,0,0,0,6.4641,21.487.2418.2418,0,0,1-.2014.3759Z"/><path class="cls-1" d="M120.2591,129.0924a.2408.2408,0,0,1-.1783-.0784,44.1156,44.1156,0,0,1-11.1639-21.9826.2421.2421,0,0,1,.4767-.0851,43.6345,43.6345,0,0,0,11.0437,21.74.2421.2421,0,0,1-.1782.4057Z"/><path class="cls-1" d="M121.7843,127.4077a.2412.2412,0,0,1-.1887-.09,38.2818,38.2818,0,0,1-8.5161-20.3436.2422.2422,0,0,1,.218-.2643.2449.2449,0,0,1,.2638.218,37.804,37.804,0,0,0,8.4112,20.0864.2419.2419,0,0,1-.1882.3939Z"/><path class="cls-1" d="M122.71,127.7655a.2408.2408,0,0,1-.1791-.1079,38.2815,38.2815,0,0,1-6.5278-21.066.2423.2423,0,0,1,.2423-.2423.2452.2452,0,0,1,.2418.2423,37.8032,37.8032,0,0,0,6.4479,20.8.2418.2418,0,0,1-.2251.374Z"/><path class="cls-1" d="M118.9088,127.8809a.2412.2412,0,0,1-.1749-.1148,38.2821,38.2821,0,0,1-5.7174-21.3.2422.2422,0,0,1,.2514-.2328.2452.2452,0,0,1,.2323.2514,37.8037,37.8037,0,0,0,5.6478,21.0312.2419.2419,0,0,1-.2392.3652Z"/><path class="cls-1" d="M123.7407,124.94a.2409.2409,0,0,1-.1962-.1,32.2974,32.2974,0,0,1-6.3008-17.9193.2421.2421,0,0,1,.234-.25.2537.2537,0,0,1,.25.2346,31.82,31.82,0,0,0,6.2091,17.6507.2417.2417,0,0,1-.1958.3839Z"/><path class="cls-1" d="M129.027,128.2323a.2424.2424,0,0,1-.1965-.1,38.2534,38.2534,0,0,1-7.4219-21.2506.2424.2424,0,0,1,.235-.2492.2539.2539,0,0,1,.2492.235,37.7666,37.7666,0,0,0,7.33,20.9811.2421.2421,0,0,1-.0546.3381A.2392.2392,0,0,1,129.027,128.2323Z"/><path class="cls-1" d="M132.9763,128.586a.2415.2415,0,0,1-.1984-.1031,38.5825,38.5825,0,0,1-7.2044-21.643.242.242,0,0,1,.2388-.2454h.0033a.2423.2423,0,0,1,.2421.2388,38.1012,38.1012,0,0,0,7.1165,21.3716.2422.2422,0,0,1-.1979.3811Z"/><path class="cls-1" d="M136.6844,126.1579a.2424.2424,0,0,1-.1965-.1,34.68,34.68,0,0,1-6.7493-19.2514.2424.2424,0,0,1,.2346-.25.2531.2531,0,0,1,.25.2345A34.1955,34.1955,0,0,0,136.88,125.774a.2421.2421,0,0,1-.196.3839Z"/><path class="cls-1" d="M144.37,128.3151a.2425.2425,0,0,1-.1816-.0818,42.1218,42.1218,0,0,1-10.2813-21.4364.242.242,0,1,1,.4785-.0728,41.638,41.638,0,0,0,10.1659,21.1886.2423.2423,0,0,1-.1815.4024Z"/><path class="cls-1" d="M147.0075,128.9033a.2426.2426,0,0,1-.1912-.0931,40.9193,40.9193,0,0,1-8.7467-22.07.2423.2423,0,0,1,.2234-.26.2384.2384,0,0,1,.2594.2237,40.4344,40.4344,0,0,0,8.6459,21.8076.2424.2424,0,0,1-.0423.34A.24.24,0,0,1,147.0075,128.9033Z"/><path class="cls-1" d="M150.2927,128.3165a.2424.2424,0,0,1-.1948-.0979,39.121,39.121,0,0,1-7.8636-21.5234.2419.2419,0,0,1,.231-.2525.2312.2312,0,0,1,.2527.2308,38.6382,38.6382,0,0,0,7.769,21.2567.2423.2423,0,0,1-.1943.3863Z"/><path class="cls-1" d="M154.8978,128.5529a.2422.2422,0,0,1-.1929-.0955,40.011,40.011,0,0,1-8.3055-21.7962.242.242,0,0,1,.2272-.2563.238.238,0,0,1,.2561.2269,39.528,39.528,0,0,0,8.2076,21.5324.2419.2419,0,0,1-.1925.3887Z"/><path class="cls-1" d="M158.4154,129.69a.2417.2417,0,0,1-.1984-.103,40.9623,40.9623,0,0,1-7.6527-22.9756.242.242,0,0,1,.2388-.2454.2538.2538,0,0,1,.2454.2388,40.4794,40.4794,0,0,0,7.5648,22.7041.242.242,0,0,1-.1979.3811Z"/><path class="cls-1" d="M163.6678,128.7515a.2423.2423,0,0,1-.1912-.0931,40.9193,40.9193,0,0,1-8.7467-22.07.2424.2424,0,0,1,.2235-.26.2363.2363,0,0,1,.2593.2237,40.4341,40.4341,0,0,0,8.6459,21.8081.2423.2423,0,0,1-.0423.34A.24.24,0,0,1,163.6678,128.7515Z"/><path class="cls-1" d="M169.951,125.3412a.2412.2412,0,0,1-.2258-.0386,38.1084,38.1084,0,0,1-13.116-18.5592.2609.2609,0,0,1,.1581-.3037.2421.2421,0,0,1,.3038.1581,37.6281,37.6281,0,0,0,12.9516,18.323.2419.2419,0,0,1-.0717.42Z"/><path class="cls-1" d="M25.93,101.0418a.2421.2421,0,0,1-.1861-.3968,41.2547,41.2547,0,0,0,9.4769-21.6312.2375.2375,0,0,1,.2679-.2132.242.242,0,0,1,.213.2681,41.7369,41.7369,0,0,1-9.5852,21.8856A.2417.2417,0,0,1,25.93,101.0418Z"/><path class="cls-1" d="M29.9847,102.4707a.242.242,0,0,1-.1842-.3991A45.4955,45.4955,0,0,0,40.5473,78.5258a.2391.2391,0,0,1,.2715-.209.2422.2422,0,0,1,.2085.2714,45.9749,45.9749,0,0,1-10.8584,23.7974A.241.241,0,0,1,29.9847,102.4707Z"/><path class="cls-1" d="M27.9912,101.6111a.2422.2422,0,0,1-.1194-.453,49.5558,49.5558,0,0,0,16.5891-14.99.242.242,0,1,1,.4.2724A50.0487,50.0487,0,0,1,28.11,101.58.2413.2413,0,0,1,27.9912,101.6111Z"/><path class="cls-1" d="M33.2715,105.4426a.2421.2421,0,0,1-.1272-.4483A56.1261,56.1261,0,0,0,51.7171,86.6627a.2421.2421,0,0,1,.4138.2516,56.6148,56.6148,0,0,1-18.7326,18.4924A.2435.2435,0,0,1,33.2715,105.4426Z"/><path class="cls-1" d="M31.17,103.1233a.2421.2421,0,0,1-.0764-.4719A53.6343,53.6343,0,0,0,49.3448,92.4155a.2422.2422,0,0,1,.3164.3669A54.1222,54.1222,0,0,1,31.2458,103.111.2388.2388,0,0,1,31.17,103.1233Z"/><path class="cls-1" d="M36.2333,107.2711a.2372.2372,0,0,1-.1263-.0359.2419.2419,0,0,1-.08-.3329,46.0654,46.0654,0,0,0,6.94-26.8785.2421.2421,0,0,1,.2272-.2558.2358.2358,0,0,1,.2561.2275,46.55,46.55,0,0,1-7.01,27.16A.2424.2424,0,0,1,36.2333,107.2711Z"/><path class="cls-1" d="M38.2323,107.8745a.2418.2418,0,0,1-.2062-.3683,29.6625,29.6625,0,0,0,4.4564-17.3136.2421.2421,0,0,1,.4833-.0293,30.1416,30.1416,0,0,1-4.5269,17.5954A.2415.2415,0,0,1,38.2323,107.8745Z"/><path class="cls-1" d="M40.3341,110.1939a.2365.2365,0,0,1-.1239-.0346.2418.2418,0,0,1-.0837-.3319,43.34,43.34,0,0,0,6.23-25.4424.242.242,0,1,1,.4828-.035,43.8209,43.8209,0,0,1-6.2971,25.7261A.2422.2422,0,0,1,40.3341,110.1939Z"/><path class="cls-1" d="M40.5516,110.8086a.242.242,0,0,1-.0991-.463,62.1949,62.1949,0,0,0,21.0492-15.188.242.242,0,1,1,.3617.3215A62.6668,62.6668,0,0,1,40.65,110.7873.2363.2363,0,0,1,40.5516,110.8086Z"/><path class="cls-1" d="M44.4252,113.23a.242.242,0,0,1-.099-.4629A62.197,62.197,0,0,0,65.3753,97.5786a.242.242,0,1,1,.3617.3215,62.6668,62.6668,0,0,1-21.2132,15.3082A.236.236,0,0,1,44.4252,113.23Z"/><path class="cls-1" d="M47.9461,115.5858a.242.242,0,0,1-.1865-.3962,38.4082,38.4082,0,0,0,8.7657-20.1961.2386.2386,0,0,1,.2672-.2142.2421.2421,0,0,1,.2142.2671,38.8932,38.8932,0,0,1-8.8736,20.4515A.2413.2413,0,0,1,47.9461,115.5858Z"/><path class="cls-1" d="M49.1254,117.4631a.2421.2421,0,0,1-.2135-.3561,41.5616,41.5616,0,0,0,4.7087-24.9615.2422.2422,0,1,1,.48-.0615,42.0431,42.0431,0,0,1-4.7616,25.2509A.2424.2424,0,0,1,49.1254,117.4631Z"/><path class="cls-1" d="M49.7938,118.9289a.2423.2423,0,0,1-.1442-.4369A63.05,63.05,0,0,0,69.62,94.4346a.242.242,0,0,1,.44.2023,63.5388,63.5388,0,0,1-20.1219,24.2447A.2429.2429,0,0,1,49.7938,118.9289Z"/><path class="cls-1" d="M50.6591,130.4675a62.5662,62.5662,0,0,1-6.6632-.3565.2421.2421,0,0,1,.0515-.4814,61.6233,61.6233,0,0,0,19.3339-.9755.2421.2421,0,0,1,.1.4738A61.9814,61.9814,0,0,1,50.6591,130.4675Z"/><path class="cls-1" d="M40.379,122.7822a92.0063,92.0063,0,0,1-15.8541-1.377.2419.2419,0,1,1,.0832-.4766,91.5655,91.5655,0,0,0,28.6931.4539.2422.2422,0,0,1,.0681.48A92.33,92.33,0,0,1,40.379,122.7822Z"/><path class="cls-1" d="M32.5242,135.7422a.2422.2422,0,0,1-.1149-.4554A53.3556,53.3556,0,0,0,50.35,119.87a.2422.2422,0,1,1,.392.2846,53.8454,53.8454,0,0,1-18.1033,15.5584A.2439.2439,0,0,1,32.5242,135.7422Z"/><path class="cls-1" d="M34.2877,115.1243a75.8932,75.8932,0,0,1-14.8526-1.4673.242.242,0,1,1,.0946-.4747,75.5834,75.5834,0,0,0,23.6846.9306.2358.2358,0,0,1,.2688.2118.2418.2418,0,0,1-.2121.2686A76.3858,76.3858,0,0,1,34.2877,115.1243Z"/><path class="cls-1" d="M25.267,100.1343a.242.242,0,0,1-.1189-.4529A56.209,56.209,0,0,0,43.9772,82.7777a.2421.2421,0,0,1,.3991.2743,56.6984,56.6984,0,0,1-18.9908,17.0511A.2393.2393,0,0,1,25.267,100.1343Z"/><path class="cls-1" d="M25.4456,98.6207a.2421.2421,0,0,1-.1887-.3934A40.6271,40.6271,0,0,0,34.2515,76.598a.2422.2422,0,1,1,.4823.0445A41.11,41.11,0,0,1,25.6347,98.53.2426.2426,0,0,1,25.4456,98.6207Z"/><path class="cls-1" d="M26.8982,98.1365a.2421.2421,0,0,1-.1861-.3967A41.2547,41.2547,0,0,0,36.189,76.1086a.2371.2371,0,0,1,.2679-.2133.2422.2422,0,0,1,.213.2682,41.7361,41.7361,0,0,1-9.5852,21.8856A.2419.2419,0,0,1,26.8982,98.1365Z"/><path class="cls-1" d="M6.3013,116.3679a.2419.2419,0,0,1-.12-.4525,52.39,52.39,0,0,0,17.5327-15.8912.2422.2422,0,1,1,.4.2723,52.8763,52.8763,0,0,1-17.6944,16.04A.2368.2368,0,0,1,6.3013,116.3679Z"/><path class="cls-1" d="M27.2493,102.675l-.0211-.0009A66.3189,66.3189,0,0,1,5.8259,97.1776a.2419.2419,0,1,1,.1976-.4417A65.8419,65.8419,0,0,0,27.27,102.1917a.2421.2421,0,0,1-.02.4833Z"/><path class="cls-1" d="M8.9339,103.8794q-4.0492,0-8.1061-.4053a.2419.2419,0,1,1,.0482-.4813,80.3522,80.3522,0,0,0,25.22-1.4536.242.242,0,0,1,.1035.4729A80.6741,80.6741,0,0,1,8.9339,103.8794Z"/><path class="cls-1" d="M7.9057,117.8324a.2421.2421,0,0,1-.1054-.46,57.1331,57.1331,0,0,0,19.3168-14.9446.242.242,0,1,1,.374.3073,57.6171,57.6171,0,0,1-19.48,15.0732A.2387.2387,0,0,1,7.9057,117.8324Z"/><path class="cls-1" d="M28.5208,103.62l-.0249-.0015a83.4618,83.4618,0,0,1-27.0317-7.41A.2422.2422,0,0,1,1.67,95.769a82.9933,82.9933,0,0,0,26.8756,7.368.242.242,0,0,1-.0243.4828Z"/><path class="cls-1" d="M18.4691,105.21A80.41,80.41,0,0,1,4.43,103.9739a.2418.2418,0,0,1-.196-.28.2372.2372,0,0,1,.2806-.1962,79.9587,79.9587,0,0,0,25.0613.4539.2421.2421,0,0,1,.0671.48A80.6879,80.6879,0,0,1,18.4691,105.21Z"/><path class="cls-1" d="M31.1229,105.9145h-.01a83.6285,83.6285,0,0,1-26.7276-5.4922.2422.2422,0,1,1,.174-.452,83.1266,83.1266,0,0,0,26.5735,5.46.2422.2422,0,0,1-.01.4842Z"/><path class="cls-1" d="M22.91,108.4717a86.7309,86.7309,0,0,1-16.5473-1.593.2423.2423,0,0,1,.0922-.4757,86.35,86.35,0,0,0,27.074.931.2421.2421,0,1,1,.0591.48A87.2311,87.2311,0,0,1,22.91,108.4717Z"/><path class="cls-1" d="M34.0238,107.4792a.234.234,0,0,1-.0406-.0033A73.2775,73.2775,0,0,1,9.8744,98.9423a.2422.2422,0,1,1,.24-.4209,72.7874,72.7874,0,0,0,23.95,8.4769.2421.2421,0,0,1-.04.4809Z"/><path class="cls-1" d="M35.7689,109.3039h-.01A87.5452,87.5452,0,0,1,7.7747,103.572a.2421.2421,0,1,1,.1736-.452,87.0574,87.0574,0,0,0,27.83,5.7.2422.2422,0,0,1-.0095.4842Z"/><path class="cls-1" d="M36.525,109.7882l-.0187-.0005a75.7347,75.7347,0,0,1-24.3832-5.9741.2422.2422,0,0,1,.1925-.4445,75.2364,75.2364,0,0,0,24.2276,5.9353.2423.2423,0,0,1-.0182.4838Z"/><path class="cls-1" d="M44.8321,115.7367l-.0236-.001a74.1139,74.1139,0,0,1-23.9752-6.454.2422.2422,0,1,1,.2034-.44,73.6154,73.6154,0,0,0,23.8186,6.4114.2422.2422,0,0,1-.0232.4833Z"/><path class="cls-1" d="M35.8992,117.2768a77.3314,77.3314,0,0,1-13.5539-1.1978.242.242,0,1,1,.0846-.4766,76.9085,76.9085,0,0,0,24.0932.4539.2421.2421,0,0,1,.0666.48A77.6159,77.6159,0,0,1,35.8992,117.2768Z"/><path class="cls-1" d="M43.9609,124.9521a71.3841,71.3841,0,0,1-9.58-.6464.2418.2418,0,0,1-.2076-.2723.2358.2358,0,0,1,.2723-.2071,70.689,70.689,0,0,0,22.1637-.5.2446.2446,0,0,1,.2813.1948.242.242,0,0,1-.1948.2818A71.2018,71.2018,0,0,1,43.9609,124.9521Z"/><path class="cls-1" d="M49.494,127.027a64.15,64.15,0,0,1-9.9586-.7792.2422.2422,0,0,1,.0752-.4786,63.4922,63.4922,0,0,0,19.9091-.0227.2423.2423,0,0,1,.0761.4786A64.1343,64.1343,0,0,1,49.494,127.027Z"/><path class="cls-1" d="M42.5111,140.6079a.2422.2422,0,0,1-.1019-.462A53.554,53.554,0,0,0,60.53,126.6341a.2421.2421,0,0,1,.3679.3149,54.0479,54.0479,0,0,1-18.2856,13.6367A.2418.2418,0,0,1,42.5111,140.6079Z"/><path class="cls-1" d="M42.5109,142.5447a.2422.2422,0,0,1-.0884-.4677,62.238,62.238,0,0,0,21.0264-13.52.2419.2419,0,1,1,.3409.3433,62.7326,62.7326,0,0,1-21.19,13.6281A.2412.2412,0,0,1,42.5109,142.5447Z"/><path class="cls-1" d="M58.8584,125.7735a.242.242,0,0,1-.1269-.4483,57.7853,57.7853,0,0,0,19.1328-18.8106.2422.2422,0,0,1,.4133.2525,58.2742,58.2742,0,0,1-19.2927,18.97A.238.238,0,0,1,58.8584,125.7735Z"/><path class="cls-1" d="M63.9277,127.2441a.2423.2423,0,0,1-.1306-.4464,51.59,51.59,0,0,0,16.97-17.3732.2422.2422,0,0,1,.419.2431,52.088,52.088,0,0,1-17.128,17.5386A.2426.2426,0,0,1,63.9277,127.2441Z"/><path class="cls-2" d="M25.0507,168.3767c.38.57.9684,1.4527,1.4526,1.4527s1.4526.9684,2.9052,0l2.9053-1.9369c.2225-.1483,2.1268-1.6716,5.1923-4.1451,1.4493-1.1694,3.1581-3.0354,5.0715-4.5846,2.108-1.7068,4.4642-3.1327,6.9951-5.186,1.0021-.813,2.0253-2.6614,3.0776-3.5156,1.411-1.1453,2.8693-1.3114,4.3514-2.5152,1.4541-1.181,2.8627-3.0435,4.3643-4.2636,1.28-1.04,2.6477-1.9178,3.948-2.9748,1.0464-.8505,2.0972-1.2205,3.1493-2.0759,1.5184-1.2345,3.01-2.9185,4.5235-4.1492,1.9453-1.582,3.907-3.1909,5.8057-4.7355,1.9486-1.5852,3.8614-2.6573,5.7153-4.1659,1.6862-1.3721,3.3236-2.7046,4.8949-3.9835,1.56-1.27,3.0555-2.9712,4.4684-4.1213,2.6133-2.1273,4.9451-3.5416,6.8876-5.1233,1.825-1.486,3.3063-2.6923,4.3545-3.546l1.5458-1.259a.7786.7786,0,0,1,.51-.1755c.5354.01,1.7573.0346,3.147.07l3.1648.0808c1.0811.0276,2.2787-.426,3.57-.3931,1.0239.0261,2.107.5379,3.2381.5667.9511.0242,1.9361-.435,2.9485-.4093.8789.0224,1.7784.5294,2.6942.5526,1.1325.0288,2.29-.4261,3.464-.3964.89.0226,1.789.5295,2.6942.5524l5.0224.1268c.905.0227,1.8093-.4387,2.71-.4161,1.043.0262,2.0807.5365,3.1076.5622,1.81.0453,3.5874.09,5.3017.1323,1.16.0289,2.2919-.4273,3.3856-.4,1.2782.0315,2.5047.5459,3.665.5743,1.07.0261,2.0834.0508,3.0294.0736.9623.0232,1.8545-.44,2.6648-.42.7783.0183,1.4809.5189,2.0972.5329,1.6227.037,2.6475.058,2.8805.058.4491,0,.794-.7395,1.0348-1.1354.4014-.66.5136-.2572.3364-1.1661-.1749-.8978-.632-.2051-1.3712-.3152a15.889,15.889,0,0,0-3.9153-.6569c-.805-.0254-1.7143-.0521-2.7106-.08-1.0044-.028-2.0974-.0571-3.2613-.0869-.9909-.0254-2.0333-.0513-3.1163-.0776-1.107-.0269-2.2564-.0542-3.4367-.0817q-1.1135-.026-2.2606-.0521c-1.8342-.0418-3.6072-.6645-5.5094-.7061-1.2154-.0265-2.5517.5278-3.7683.5018-1.9144-.0409-3.58-.9475-5.4316-.986-.8178-.017-1.8626.8329-2.6567.8166-1.4209-.0292-2.8082-.3058-4.1221-.3324-1.346-.0272-2.6155.1957-3.8068.1719l-2.0742-.0412c-1.2205-.0241-2.39-.5968-3.3189-.6149-.89-.0173-1.5522.52-2.1182.5086a7.3516,7.3516,0,0,1-1.7227-.4368.8915.8915,0,0,1-.2674-1.5373l1.1193-.9019,3.29-2.6509,2.5625-2.2088a.913.913,0,0,1,.0876-.0665l2.1025-1.4017a4.9636,4.9636,0,0,0,1.2856-1.2448l1.3727-1.9217a4.17,4.17,0,0,1,1.2917-1.1781l4.1327-2.4118a3.3753,3.3753,0,0,0,.7395-.5841l5.4414-5.7a.8946.8946,0,0,1,.11-.0976l5.658-4.2435a.8926.8926,0,0,1,.2017-.1137l1.7934-.723a2.9105,2.9105,0,0,0,.9774-.649l.9757-.9828a5.2468,5.2468,0,0,1,1.1232-.8608l.3329-.19a5.2509,5.2509,0,0,0,1.2133-.9539l2.5-2.6454a6.4248,6.4248,0,0,1,1.4962-1.1738l2.5915-1.4724a7.1463,7.1463,0,0,0,.9521-.6479l2.7637-2.2268a6.8589,6.8589,0,0,0,.5245-.469l4.7505-4.7077a.8926.8926,0,0,1,.4041-.23h0a6.0206,6.0206,0,0,0,2.653-1.4785l2.26-2.1625a2.6732,2.6732,0,0,1,.3887-.3082l1.8814-1.2253a19.556,19.556,0,0,0,2.6356-2.0579l2.0006-1.8582a.8862.8862,0,0,1,.1122-.0886l1.5449-1.03a3.833,3.833,0,0,1,2.7429-.5993,17.9174,17.9174,0,0,0,2.39.2548l3.4711.0559c1.1592.0187,2.46-.4446,3.8749-.4218,1.1878.0191,2.4557-.4448,3.7869-.4234,2.0988.0338,4.3552.5542,6.7038.5919l2.8831.0462c.7925.0128,1.592-.4586,2.3964-.4457.7978.0127,1.6.51,2.4052.5227l1.77.0283,3.5161.0563c1.4377.0229,2.8674-.4384,4.2763-.416,1.15.0184,2.2865.5207,3.4018.5384l4.2437.0675c1.3745.0218,2.6974-.4414,3.9527-.4216,1.8678.0295,3.5861.5407,5.1028.5644,1.493.0234,2.7907.0435,3.8433.06a9.5345,9.5345,0,0,0,3.0015-.4411c.5865,0,.2749-.2253.4842-.9684.1362-.4837.8822-.3956.9066-.9684.0618-1.4526.0618-.9684-.9066-.9684-.2007,0-2.7291-.0415-6.6122-.1075-.8533-.0144-1.772.4541-2.7458.4375-1.4518-.0249-3.0259-.5361-4.6882-.5647-.7623-.0132-1.5432.4576-2.3393.4438-.6676-.0115-1.3459-.5074-2.033-.5193-.6938-.012-1.3965.46-2.1062.4477-.7282-.0126-1.4636-.5095-2.2042-.5224l-2.4164-.0419c-.6288-.0109-1.26.4623-1.8912.4513-.5817-.01-2.8864-.4986-3.4683-.5087-3.128-.0544-4.5219-.1145-7.4713-.166-4.059-.0708-7.8018-.1362-10.8237-.1891-.7235-.0127-1.4058.46-2.0411.4485-.7313-.0129-1.4-.5088-1.9991-.5193-1.0837-.0189-3.2411-.5325-3.8118-.5425a1.3845,1.3845,0,0,1-.6686-.2926.8874.8874,0,0,1-.1069-1.3529l2.6774-2.6774a.8824.8824,0,0,1,.0735-.0658l2.3439-1.8751a.8967.8967,0,0,0,.0735-.0658l1.857-1.857a.9063.9063,0,0,1,.0955-.0829l1.8354-1.3765a.8862.8862,0,0,0,.0956-.0829l2.7827-2.7827a.8962.8962,0,0,1,.1718-.1342l2.2624-1.3574a.8863.8863,0,0,0,.1216-.0876l3.3024-2.8306q.03-.0256.062-.0486l3.2973-2.3552a.9011.9011,0,0,0,.1122-.0951L207.5953,23.6l1.35-1.35a.8933.8933,0,0,1,.2318-.1671l1.6779-.8389a.8916.8916,0,0,0,.2318-.1671l.9506-.95a4.5912,4.5912,0,0,1,.8844-.6906l1.8849-1.1309a.9106.9106,0,0,0,.0982-.0683l2.3742-1.8994,1.9368-1.4526,1.917-1.4377c.0132-.01.0267-.02.04-.0286l.8251-.55a7.3689,7.3689,0,0,0,1.1227-.92l1.7024-1.7023a4.0283,4.0283,0,0,0,.375-.4325l1.1133-1.4843a.8914.8914,0,0,1,.4315-.311l.8378-.2793a.8919.8919,0,0,0,.5157-.4473l.1387-.2775a.99.99,0,0,0,.0682-.6126c-.0392-.2354.0314-.6355.5963-1.2.4393-.4393.2974-.53-.0212-1.2986-.2219-.5353-.0436-.5981-.463-1.1224a4.5063,4.5063,0,0,0-1.0409-.9695,3.539,3.539,0,0,0-3.1932-.3108,6.8509,6.8509,0,0,0-1.5764.7961c-.1868.1246-1.5514,1.2106-3.7878,3.0087-.9345.7514-2.0214,1.6272-3.2381,2.6091q-1.08.8719-2.2925,1.8516c-1.1791.9529-2.4456,1.9771-3.7849,3.061-.6972.5643-1.4142,1.6289-2.1488,2.2238-.6584.5331-1.331.5937-2.0164,1.1489-1.6464,1.3337-3.3663,2.7277-5.1395,4.1653q-1.3573,1.1-2.7534,2.2327c-1.1431.927-.7822,1.5058-1.9539,2.4565-1.0141.8227-3.5579,2.4991-4.5864,3.3338-1.0118.8211-2.0289,1.1624-3.0484,1.99Q185.8548,32,183.8491,33.6289q-2.3106,1.8761-4.5985,3.7342c-1.4708,1.1945-2.9279,2.8623-4.3616,4.027-1.2387,1.0062-2.46,1.5141-3.6575,2.4871l-2.5737,2.0912q-1.4368,1.1674-2.8125,2.2855c-1.4716,1.1958-2.8845,2.3442-4.2244,3.4332-1.9074,1.55-3.6666,3.4646-5.2357,4.74-.964.7837-1.8562,1.0248-2.6669,1.684-2.55,2.0733-4.2939,3.4915-4.9293,4.0082a.7968.7968,0,0,1-.6721.1584,5.5159,5.5159,0,0,1-2.0154-.91c-.4959-.3483-2.2637-1.4863-2.9052-1.9368-1.0013-.7031-2.1009-1.5163-3.3894-2.421-.8991-.6313-1.9-1.2312-2.9052-1.9368-.9813-.689-2.3334-1.1955-3.3895-1.9368-2.8385-1.9927-5.6826-3.6823-8.7156-5.8105-1.94-1.3614-3.96-2.5755-5.8105-3.8736-1.3479-.9454-3.602-2.52-4.842-3.3895-1.25-.8766-1.8165-1.6583-2.9052-2.4209-3.8429-2.692-5.4572-3.6382-5.81-3.8737-1.4527-.9684-1.4527-.4842-1.9369,0s0,1.4526.9685,2.4211a27.2056,27.2056,0,0,0,3.3894,2.9052c.8624.6219,2.2735,1.6233,3.3894,2.421.9442.675,1.3385,1.65,2.421,2.421.8731.6215,1.9655,1.2694,2.9052,1.9368.9852.7,1.87,1.2031,2.9053,1.9368,2.4516,1.738,4.7574,2.5868,7.263,4.3579,1.861,1.3154,4.0724,3.131,5.81,4.3578,1.29.9105,3.1982,2.5715,4.3579,3.3894,2.7776,1.959,3.3921,3.4257,4.9039,4.49l.9144.6439a.89.89,0,0,1,.0463,1.4193L141.51,67.49l-5.6145,4.564-6.412,5.2124L123.4886,82.14c-.0134.011-.0266.0223-.0394.034l-4.6975,4.2968a.892.892,0,0,1-.0844.0682l-4.763,3.3944c-.0153.0109-.03.0224-.0449.0343l-3.6046,2.93-4.3528,3.5384-5.8557,5.2416q-.0336.03-.07.0566l-5.6332,4.1q-.0192.0141-.0377.0291l-4.3934,3.5714q-.0236.0191-.0456.04l-4,3.7283a.8845.8845,0,0,1-.0782.0651L79.31,118.0527l-4.2666,3.4684L71.24,124.6128l-2.078,1.6892a.8882.8882,0,0,1-1.0853.0306c-.5545-.4042-1.5056-1.0972-2.7583-2.0091-1.7118-1.2461-3.9867-2.9009-6.5825-4.7858-1.8159-1.3187-5.0071-3.4246-7.054-4.9075-1.6522-1.1969-3.6189-2.6449-5.3262-3.8736-3.3411-2.4046-4.0292-3.9243-6.7809-5.8984-1.4743-1.0577-2.887-2.0678-4.2028-3.0051-2.83-2.0156-5.6957-3.21-7.2825-4.2945a20.1507,20.1507,0,0,0-2.07-1.3281c-1.4526-.4842-3.3894-.9684-3.3894,0a6.9982,6.9982,0,0,0,.9684,3.3894c.0859.0859,1.4378,1.087,3.6036,2.6757.71.5208,1.5074,1.1047,2.3763,1.74q.8082.591,1.695,1.2389,1.006.735,2.0985,1.5321l1.1683.8523q1.154.8417,2.3714,1.729c1.4892,1.0855,3.0366,2.2127,4.605,3.3547q1.3464.98,2.7063,1.97c1.0117.7363,2.0232,1.4724,3.0248,2.201.9841.716,1.9586,1.4249,2.9143,2.12q1.2128.8821,2.3794,1.73c1.056.7679,2.0766,1.51,3.0476,2.2157l1.2823.9321,2.7373,1.9893a28.5566,28.5566,0,0,1,4.0536,3.53.861.861,0,0,1-.0856,1.2584c-.4322.3513-1.0542.8569-1.8324,1.49-1.0569.8594-2.4019,2.4376-3.9507,3.6979-1.6212,1.3192-3.4657,2.3364-5.4369,3.942-1.3509,1.1-2.7614,2.25-4.2,3.4227q-1.3058,1.0645-2.6359,2.15c-1.3559,1.1061-1.206,2.0322-2.5538,3.133-1.7467,1.4267-4.98,3.0195-6.6172,4.36-1.0875.89-1.0988,1.5987-2.0984,2.4189-1.026.8418-3.0377,1.7933-3.9373,2.534-3.4817,2.8663-5.8891,4.8713-6.231,5.2132C22.63,164.5031,23.1139,165.4715,25.0507,168.3767Z"/><path class="cls-3" d="M27.2017,102.2956c.71.5208,1.5074,1.1046,2.3762,1.74q.8084.591,1.6951,1.2389,1.0062.7349,2.0985,1.5321l1.1683.8523q1.154.8417,2.3714,1.729c1.4893,1.0855,3.0367,2.2127,4.605,3.3547q1.3464.98,2.7063,1.97c1.0117.7363,2.0232,1.4724,3.0247,2.2011l2.9144,2.12,2.3794,1.73c1.056.7678,2.0766,1.51,3.0476,2.2156l1.2823.9321c.9813.7133,1.8994,1.38,2.7373,1.9892a28.5621,28.5621,0,0,1,4.0536,3.53.8554.8554,0,0,1,.2089.4047,5.96,5.96,0,0,0,1.0947-.4237c.2478-.1048.49-.2211.7291-.3434.2112-.1791.4251-.3552.6387-.5319a2.4542,2.4542,0,0,1-.6878-.35,34.4208,34.4208,0,0,1-4.6712-4.5524,26.1273,26.1273,0,0,0-5.0241-3.8394c-3.7122-2.3552-7.6417-4.3571-11.2738-6.84-3.7964-2.5957-6.9423-5.9374-10.5519-8.7683a55.909,55.909,0,0,0-11.4-7.02,5.84,5.84,0,0,0,.8735,2.4534C23.684,99.7058,25.0359,100.7069,27.2017,102.2956Z"/><path class="cls-3" d="M73.1788,123.1873q.8672-.7465,1.6943-1.5278L71.24,124.6128l-2.078,1.6892c-.0092.0075-.0206.01-.03.0172-.0014.0134-.0048.0264-.0065.04C70.5,125.3231,71.8694,124.2914,73.1788,123.1873Z"/><path class="cls-3" d="M67.7486,137.0779a11.7232,11.7232,0,0,1-2.4841-.1881,13.542,13.542,0,0,0-1.2549,2.522,2.475,2.475,0,0,1-2.5951,1.6338,25.11,25.11,0,0,1-4.8707,4.3138c-2.58,1.965-4.8644,4.3744-7.2616,6.56-2.3783,2.1681-4.7682,4.3005-7.2685,6.33-2.5813,2.0953-13.8281,12.4812-17.1839,6.9941a2.8147,2.8147,0,0,1-1.5856-.4749c.0353.8615.667,1.8989,1.8065,3.6081.38.57.9684,1.4527,1.4526,1.4527s1.4526.9684,2.9052,0l2.9053-1.9369c.2225-.1483,2.1267-1.6716,5.1924-4.1451,1.4492-1.1694,3.1581-3.0354,5.0714-4.5846,2.1079-1.7068,4.4642-3.1326,6.9951-5.186,1.0021-.813,2.0254-2.6614,3.0776-3.5156,1.411-1.1453,2.8693-1.3114,4.3513-2.5152,1.4542-1.1811,2.8628-3.0435,4.3644-4.2636,1.28-1.04,2.6477-1.9178,3.9481-2.9748,1.0463-.8505,2.0972-1.2206,3.1492-2.0759.8117-.66,1.6158-1.4478,2.42-2.2267A8.78,8.78,0,0,1,67.7486,137.0779Z"/><path class="cls-3" d="M124.7776,106.9789a30.9822,30.9822,0,0,0-6.14-.332c-1.9647.1813-3.8917.6219-5.8633.7718-2.954.2245-3.08-4.123-.4471-4.7685a.8834.8834,0,0,1,.13-.138l1.1192-.9019,3.29-2.6509,2.5625-2.2088a.8969.8969,0,0,1,.0876-.0665l2.1025-1.4017a4.9636,4.9636,0,0,0,1.2856-1.2448l1.3726-1.9217a4.1711,4.1711,0,0,1,1.2919-1.1781l4.1326-2.4119a3.3719,3.3719,0,0,0,.7395-.584l1.4254-1.4931c-.2918.1949-.5817.3909-.8847.5784-3.7023,2.29-8.0431,3.8622-11.4113,6.6509-3.1964,2.6464-5.4664,6.2176-8.6284,8.9106a2.426,2.426,0,0,1-2.8143.3737q-.6687.5106-1.356.9977A111.5436,111.5436,0,0,1,87.87,119.6156a2.2016,2.2016,0,0,1-2.244.0622,109.57,109.57,0,0,0-7.9819,10.0167c-.57.8172-1.1407,1.63-1.7355,2.4054.9706-.7927,1.9354-1.5809,2.8845-2.353,1.9485-1.5852,3.8613-2.6572,5.7152-4.1658,1.6862-1.3721,3.3236-2.7047,4.8949-3.9835,1.56-1.27,3.0555-2.9712,4.4684-4.1213,2.6133-2.1273,4.9451-3.5416,6.8876-5.1233,1.825-1.486,3.3063-2.6923,4.3545-3.546l1.5458-1.259a.7791.7791,0,0,1,.51-.1755c.5354.01,1.7573.0346,3.147.07l3.1648.0808c1.0812.0276,2.2787-.426,3.57-.3931,1.024.0261,2.107.5378,3.2381.5667.9511.0241,1.9362-.435,2.9485-.4093.8789.0224,1.7784.5294,2.6942.5527,1.0626.0269,2.1473-.3669,3.247-.3917C127.7111,107.2956,126.2442,107.135,124.7776,106.9789Z"/><path class="cls-3" d="M130.0926,107.5437a10.2952,10.2952,0,0,0,1.9974.4527l5.0224.1267c.0321.0008.0641-.0031.0961-.0034C134.8316,107.9947,132.4607,107.7844,130.0926,107.5437Z"/><path class="cls-3" d="M166.51,108.2428c-4.5489-.0247-9.09-.3889-13.6394-.3623-3.4984.02-6.9816.2735-10.4746.3336a4.0484,4.0484,0,0,0,.5335.0552c1.81.0453,3.5874.09,5.3017.1323,1.16.0289,2.2919-.4273,3.3856-.4,1.2782.0315,2.5047.5459,3.665.5742,1.07.0262,2.0834.0509,3.0294.0737.9623.0232,1.8545-.44,2.6648-.42.7782.0183,1.4809.5189,2.0972.5329,1.6227.037,2.6475.058,2.8805.058.2749,0,.51-.2776.7072-.5835C166.611,108.2386,166.5621,108.2431,166.51,108.2428Z"/><path class="cls-3" d="M105.3248,34.9485q-.9951-.4373-1.9948-.8627c-.118.5271.34,1.313,1.13,2.1035a26.8791,26.8791,0,0,0,2.1545,1.9556A8.0318,8.0318,0,0,1,105.3248,34.9485Z"/><path class="cls-3" d="M229.67,48.9328a56.5921,56.5921,0,0,0-14.3782-1.1186c-5.22.1865-10.44.6277-15.6659.4085-4.7613-.2-9.3977-.9062-14.0927.2633-3.029.7545-4.3092-3.9163-1.2872-4.6691l.0445-.01a.8927.8927,0,0,1,.2563-.5473l2.6774-2.6774a.9142.9142,0,0,1,.0734-.0658l2.344-1.8751a.8967.8967,0,0,0,.0735-.0658l1.857-1.857a.8989.8989,0,0,1,.0956-.0829l1.8353-1.3765a.8877.8877,0,0,0,.0956-.0829l2.7827-2.7827a.8962.8962,0,0,1,.1718-.1342l2.2625-1.3574a.9.9,0,0,0,.1215-.0876l3.3024-2.8306c.02-.0171.0407-.0334.062-.0486l3.2973-2.3552a.9011.9011,0,0,0,.1122-.0951l3.097-3.097c-4.3893,3.37-8.9868,6.5205-13.5976,9.5694-.8036.5315-1.7325,1.0724-2.697,1.6433-1.2407,1.5043-2.5226,2.9688-3.89,4.3419-3.4454,3.4587-7.6276,6.0263-11.5549,8.879-5.8643,4.26-12.193,8.3865-17.15,13.757a2.0313,2.0313,0,0,1-.178.1922,36.8078,36.8078,0,0,0-3.5839,4.57,2.4,2.4,0,0,1-3.0537.8887c-1.8064,1.8578-4.165,3.556-6.5544,3.7151-.243.225-.4818.4531-.713.6871a13.9167,13.9167,0,0,1-2.9392,3.5455c-1.1158,1.5473-2.154,3.1584-3.2815,4.7145q-.4626.6385-.9426,1.2438l2.9791-2.2343a.8926.8926,0,0,1,.2017-.1137l1.7934-.723a2.91,2.91,0,0,0,.9774-.649l.9757-.9828a5.2488,5.2488,0,0,1,1.1232-.8607l.3329-.19a5.2509,5.2509,0,0,0,1.2133-.9539l2.5-2.6453a6.4226,6.4226,0,0,1,1.4962-1.1739l2.5915-1.4725a7.1361,7.1361,0,0,0,.9521-.6478l2.7637-2.2269a6.8365,6.8365,0,0,0,.5245-.4689l4.7505-4.7077a.8929.8929,0,0,1,.4042-.23,6.0226,6.0226,0,0,0,2.653-1.4785l2.26-2.1625a2.6754,2.6754,0,0,1,.3888-.3082l1.8813-1.2254a19.5473,19.5473,0,0,0,2.6356-2.0578l2.0006-1.8582a.8889.8889,0,0,1,.1122-.0887l1.545-1.03a3.8325,3.8325,0,0,1,2.7428-.5993,17.9171,17.9171,0,0,0,2.3906.2548l3.471.0559c1.1592.0186,2.46-.4446,3.8749-.4218,1.1878.0191,2.4557-.4447,3.787-.4233,2.0988.0336,4.3551.5541,6.7036.5918l2.8832.0463c.7925.0126,1.5921-.4587,2.3964-.4458.7978.0128,1.6.51,2.4052.5227l1.77.0283,3.5161.0562c1.4377.023,2.8674-.4383,4.2763-.4159,1.15.0184,2.2865.5207,3.4018.5384l4.2437.0675c1.3745.0218,2.6973-.4415,3.9527-.4217a14.1133,14.1133,0,0,1,1.5508.1211C230.62,49.123,230.1465,49.0366,229.67,48.9328Z"/><path class="cls-3" d="M232.3645,49.386a16.6964,16.6964,0,0,0,2.28.2582c1.493.0234,2.7907.0435,3.8433.06a9.5011,9.5011,0,0,0,1.1758-.0546A51.8759,51.8759,0,0,1,232.3645,49.386Z"/><path class="cls-3" d="M222.8548,9.5111c-4.44,3.9584-8.3086,8.4119-13.0247,12.1015-.1833.1432-.373.28-.5571.4222l1.5823-.7911a.8933.8933,0,0,0,.2318-.1671l.9506-.9506a4.5946,4.5946,0,0,1,.8844-.6905l1.8849-1.1309a.8913.8913,0,0,0,.0982-.0683l2.3742-1.8994,1.9368-1.4526,1.917-1.4378c.0132-.01.0267-.0194.04-.0285l.8251-.55a7.3689,7.3689,0,0,0,1.1227-.92l1.7024-1.7024a4.0175,4.0175,0,0,0,.375-.4324l1.1133-1.4843a.892.892,0,0,1,.4315-.311l.8378-.2793a.8921.8921,0,0,0,.5157-.4472l.1387-.2776a.99.99,0,0,0,.0682-.6127c-.0392-.2353.0314-.6355.5963-1.2.4364-.4364.2988-.53-.0156-1.2854C227.5527,6.2087,224.4852,8.0576,222.8548,9.5111Z"/><path class="cls-3" d="M141.8056,64.4056l.9144.6439a.8611.8611,0,0,1,.3336.4765A21.7505,21.7505,0,0,1,144.5919,62.8c-.07-.0468-.1416-.0939-.2093-.14-2.9792-2.0341-5.5845-4.57-8.5074-6.6807a72.9189,72.9189,0,0,0-10.1729-5.6019c-3.382-1.703-6.6833-3.5293-9.9907-5.37-.7535-.4193-1.5625-.861-2.3846-1.334.1046.09.2132.1782.3329.2634.8731.6215,1.9655,1.2694,2.9052,1.9368.9852.7,1.87,1.2031,2.9053,1.9368,2.4516,1.738,4.7573,2.5868,7.263,4.3579,1.861,1.3154,4.0724,3.131,5.81,4.3578,1.29.9105,3.1982,2.5715,4.3579,3.3894C139.6793,61.8742,140.2938,63.3409,141.8056,64.4056Z"/><path class="cls-1" d="M185.61,46.0388a.2421.2421,0,0,1-.175-.41,44.9757,44.9757,0,0,1,15.2113-10.2628.2421.2421,0,0,1,.1854.4473,44.4869,44.4869,0,0,0-15.0468,10.15A.2414.2414,0,0,1,185.61,46.0388Z"/><path class="cls-1" d="M190.4489,45.8847a.2421.2421,0,0,1-.1936-.3873,63.0611,63.0611,0,0,1,21.2428-17.7756.2423.2423,0,0,1,.2246.4294,62.5632,62.5632,0,0,0-21.08,17.6365A.242.242,0,0,1,190.4489,45.8847Z"/><path class="cls-1" d="M192.8688,45.8076a.2506.2506,0,0,1-.074-.0114.2423.2423,0,0,1-.1566-.3045A50.982,50.982,0,0,1,207.55,23.1441a.2422.2422,0,1,1,.3215.3622,50.4956,50.4956,0,0,0-14.7724,22.133A.242.242,0,0,1,192.8688,45.8076Z"/><path class="cls-1" d="M195.2886,45.7305a.2372.2372,0,0,1-.07-.01.2418.2418,0,0,1-.1624-.3012,56.4674,56.4674,0,0,1,16.2454-25.2481.2421.2421,0,0,1,.3267.3575,55.9819,55.9819,0,0,0-16.1083,25.03A.242.242,0,0,1,195.2886,45.7305Z"/><path class="cls-1" d="M200.1283,45.5768a.2384.2384,0,0,1-.0944-.0193.242.242,0,0,1-.1286-.3173,65.51,65.51,0,0,1,20.4094-25.9371.2422.2422,0,0,1,.2964.3831,65.0184,65.0184,0,0,0-20.26,25.7431A.242.242,0,0,1,200.1283,45.5768Z"/><path class="cls-1" d="M202.5479,45.5a.2422.2422,0,0,1-.22-.3424A54.98,54.98,0,0,1,219.7033,24.079a.2422.2422,0,0,1,.2889.3887,54.4955,54.4955,0,0,0-17.2238,20.89A.2419.2419,0,0,1,202.5479,45.5Z"/><path class="cls-1" d="M207.3875,45.3456a.2323.2323,0,0,1-.0813-.0142.2417.2417,0,0,1-.1466-.3092,57.6964,57.6964,0,0,1,17.307-24.4182.242.242,0,1,1,.3125.37,57.2132,57.2132,0,0,0-17.1637,24.2111A.2414.2414,0,0,1,207.3875,45.3456Z"/><path class="cls-1" d="M209.8074,45.269a.2416.2416,0,0,1-.2287-.3215,45.5388,45.5388,0,0,1,13.5788-19.4467.2421.2421,0,1,1,.3149.3679A45.0534,45.0534,0,0,0,210.036,45.1064.2418.2418,0,0,1,209.8074,45.269Z"/><path class="cls-1" d="M212.2272,45.1919a.242.242,0,0,1-.2289-.321,52.4412,52.4412,0,0,1,15.6061-22.462.2419.2419,0,1,1,.3154.3669,51.9621,51.9621,0,0,0-15.4637,22.253A.2422.2422,0,0,1,212.2272,45.1919Z"/><path class="cls-1" d="M214.647,45.1149a.2469.2469,0,0,1-.09-.0171.2422.2422,0,0,1-.1352-.3149,47.88,47.88,0,0,1,14.7263-19.4362.2422.2422,0,1,1,.3027.3783,47.3882,47.3882,0,0,0-14.5793,19.2376A.2425.2425,0,0,1,214.647,45.1149Z"/><path class="cls-1" d="M217.0664,45.0378a.242.242,0,0,1-.22-.3428,45.5783,45.5783,0,0,1,14.4152-17.4418.242.242,0,0,1,.2885.3887,45.0961,45.0961,0,0,0-14.2635,17.2545A.2419.2419,0,0,1,217.0664,45.0378Z"/><path class="cls-1" d="M219.4862,44.9607a.242.242,0,0,1-.2177-.3475,59.5388,59.5388,0,0,1,19.0362-22.1457.2421.2421,0,0,1,.2823.3934,59.05,59.05,0,0,0-18.8826,21.9632A.242.242,0,0,1,219.4862,44.9607Z"/><path class="cls-1" d="M228.1972,46.59a.2419.2419,0,0,1-.2317-.3126,51.208,51.208,0,0,1,14.7786-22.8152.2422.2422,0,0,1,.3258.3584,50.7233,50.7233,0,0,0-14.641,22.5977A.2422.2422,0,0,1,228.1972,46.59Z"/><path class="cls-1" d="M231.1014,46.5126a.2421.2421,0,0,1-.2279-.3234A45.836,45.836,0,0,1,244.63,26.8026a.2421.2421,0,0,1,.3125.37,45.3566,45.3566,0,0,0-13.6128,19.18A.2417.2417,0,0,1,231.1014,46.5126Z"/><path class="cls-1" d="M234.005,46.4355a.2393.2393,0,0,1-.1185-.0312.2418.2418,0,0,1-.0924-.3295,40.92,40.92,0,0,1,13.4035-14.03.2421.2421,0,0,1,.2644.4057,40.4347,40.4347,0,0,0-13.2456,13.8617A.2424.2424,0,0,1,234.005,46.4355Z"/><path class="cls-1" d="M238.3616,46.3585a.2426.2426,0,0,1-.2189-.3452A43.3019,43.3019,0,0,1,251.9118,29.66a.2419.2419,0,1,1,.2856.3906A42.8226,42.8226,0,0,0,238.581,46.22.2424.2424,0,0,1,238.3616,46.3585Z"/><path class="cls-1" d="M234.7937,46.4644a.242.242,0,0,1-.0607-.4762,57.1949,57.1949,0,0,1,17.998-1.7325.2421.2421,0,1,1-.03.4832,56.6659,56.6659,0,0,0-17.8463,1.7175A.23.23,0,0,1,234.7937,46.4644Z"/><path class="cls-1" d="M229.558,46.3405a.2421.2421,0,0,1-.0759-.4719,85.7578,85.7578,0,0,1,27.3348-4.3148.2421.2421,0,0,1-.0007.4842h-.0007a85.6061,85.6061,0,0,0-27.1816,4.29A.2373.2373,0,0,1,229.558,46.3405Z"/><path class="cls-1" d="M224.3219,46.2166a.2421.2421,0,0,1-.0866-.4681A94.1427,94.1427,0,0,1,254.3169,39.63a.2508.2508,0,0,1,.2514.2327.2423.2423,0,0,1-.2324.2516,93.6625,93.6625,0,0,0-29.9275,6.0865A.2412.2412,0,0,1,224.3219,46.2166Z"/><path class="cls-1" d="M219.0862,46.0923a.2423.2423,0,0,1-.117-.4545A96.7368,96.7368,0,0,1,250.702,34.8861a.2422.2422,0,0,1,.0751.4785,96.2419,96.2419,0,0,0-31.5744,10.6979A.2416.2416,0,0,1,219.0862,46.0923Z"/><path class="cls-1" d="M213.85,45.9684a.242.242,0,0,1-.1-.4625,75.7706,75.7706,0,0,1,24.4749-6.3987.2422.2422,0,0,1,.0435.4824,75.2986,75.2986,0,0,0-24.3189,6.357A.24.24,0,0,1,213.85,45.9684Z"/><path class="cls-1" d="M208.6141,45.844a.242.242,0,0,1-.1262-.4487,85.3676,85.3676,0,0,1,28.2556-10.8374.2423.2423,0,0,1,.0922.4757A84.8706,84.8706,0,0,0,208.74,45.8085.24.24,0,0,1,208.6141,45.844Z"/><path class="cls-1" d="M203.378,45.72a.2421.2421,0,0,1-.0937-.4653,96.8015,96.8015,0,0,1,31.1023-7.2956.2421.2421,0,1,1,.0321.4832,96.3166,96.3166,0,0,0-30.9471,7.2588A.2412.2412,0,0,1,203.378,45.72Z"/><path class="cls-1" d="M198.1423,45.5958a.2422.2422,0,0,1-.105-.4606,81.94,81.94,0,0,1,26.5794-7.5387.2421.2421,0,1,1,.053.4813,81.4417,81.4417,0,0,0-26.4229,7.4943A.2426.2426,0,0,1,198.1423,45.5958Z"/><path class="cls-1" d="M192.9061,45.4719a.2423.2423,0,0,1-.1135-.4563,87.57,87.57,0,0,1,28.6335-9.225.2422.2422,0,0,1,.0686.48,87.0793,87.0793,0,0,0-28.4756,9.1739A.2433.2433,0,0,1,192.9061,45.4719Z"/><path class="cls-1" d="M187.67,45.3475a.2421.2421,0,0,1-.13-.4464,81.8949,81.8949,0,0,1,27.21-10.9967.2421.2421,0,1,1,.1.4738A81.4069,81.4069,0,0,0,187.8,45.31.2422.2422,0,0,1,187.67,45.3475Z"/><path class="cls-1" d="M186.6528,46.1811a.2422.2422,0,0,1-.2409-.22,20.9682,20.9682,0,0,1,2.8211-12.403.2421.2421,0,0,1,.4194.2421,20.487,20.487,0,0,0-2.7582,12.1174.2421.2421,0,0,1-.22.2629Z"/><path class="cls-1" d="M205.9694,60.3521a.2363.2363,0,0,1-.0943-.0194,50.628,50.628,0,0,1-17.1327-11.78.242.242,0,1,1,.3532-.331,50.1569,50.1569,0,0,0,16.9682,11.6658.2419.2419,0,0,1-.0944.4648Z"/><path class="cls-1" d="M210.27,57.131a.2377.2377,0,0,1-.0513-.0056,70.1871,70.1871,0,0,1-23.3467-9.5838.242.242,0,1,1,.2624-.4067,69.7086,69.7086,0,0,0,23.1864,9.5176.242.242,0,0,1-.0508.4785Z"/><path class="cls-1" d="M188.854,46.8375a.2422.2422,0,0,1-.0707-.4738,66.0728,66.0728,0,0,1,20.8784-2.8509.2423.2423,0,0,1,.2364.2478.2547.2547,0,0,1-.2477.2364,65.44,65.44,0,0,0-20.7257,2.83A.2436.2436,0,0,1,188.854,46.8375Z"/><path class="cls-1" d="M214.2,48.6471l-.0193-.001-21.8552-1.7268a.2418.2418,0,0,1-.2222-.26.2446.2446,0,0,1,.2605-.2222l21.8552,1.7268a.242.242,0,0,1-.019.4833Z"/><path class="cls-1" d="M195.7165,46.3287a.2422.2422,0,0,1-.0565-.4776,70.88,70.88,0,0,1,22.29-1.7477.2419.2419,0,1,1-.0383.4823,70.44,70.44,0,0,0-22.1379,1.7364A.2638.2638,0,0,1,195.7165,46.3287Z"/><path class="cls-1" d="M197.4656,47.2219a.242.242,0,0,1-.08-.4705,81.3065,81.3065,0,0,1,25.86-4.5139h.0028a.2421.2421,0,0,1,.0028.4842,80.8352,80.8352,0,0,0-25.706,4.4865A.2362.2362,0,0,1,197.4656,47.2219Z"/><path class="cls-1" d="M200.956,47.3047a.2422.2422,0,0,1-.06-.4767A80.079,80.079,0,0,1,226.1,44.4363a.2421.2421,0,0,1-.0307.4833,79.6062,79.6062,0,0,0-25.0523,2.3775A.2462.2462,0,0,1,200.956,47.3047Z"/><path class="cls-1" d="M204.4466,47.3874a.242.242,0,0,1-.0132-.4837L223.51,45.8322a.242.242,0,1,1,.027.4832L204.46,47.3869Z"/><path class="cls-1" d="M207.9377,47.47a.2421.2421,0,0,1-.0828-.47,84.4069,84.4069,0,0,1,26.8929-5.0236.23.23,0,0,1,.2478.2364.2423.2423,0,0,1-.2364.2478A83.9291,83.9291,0,0,0,208.02,47.4555.243.243,0,0,1,207.9377,47.47Z"/><path class="cls-1" d="M212.892,47.1387a.2421.2421,0,0,1-.0019-.4842l22.7909-.1721h.0019a.2421.2421,0,0,1,.0019.4842l-22.7909.1721Z"/><path class="cls-1" d="M214.9189,47.6357a.2422.2422,0,0,1-.0941-.4653,99.741,99.741,0,0,1,32.0586-7.5695.2422.2422,0,0,1,.0331.4833,99.254,99.254,0,0,0-31.9035,7.5325A.2441.2441,0,0,1,214.9189,47.6357Z"/><path class="cls-1" d="M218.41,47.7184a.2422.2422,0,0,1-.1088-.4587,81.3532,81.3532,0,0,1,26.49-7.9714.2421.2421,0,0,1,.06.48,80.8705,80.8705,0,0,0-26.3332,7.9241A.24.24,0,0,1,218.41,47.7184Z"/><path class="cls-1" d="M221.9,47.8011a.2421.2421,0,0,1-.0858-.4685,80.9215,80.9215,0,0,1,25.8472-5.1821.2515.2515,0,0,1,.2506.2336.2419.2419,0,0,1-.2331.2506,80.4168,80.4168,0,0,0-25.693,5.1508A.248.248,0,0,1,221.9,47.8011Z"/><path class="cls-1" d="M250.97,50.1905l-.022-.001L225.369,47.883a.242.242,0,0,1-.2194-.263.2485.2485,0,0,1,.2629-.2194l25.5791,2.3066a.2421.2421,0,0,1-.0215.4833Z"/><path class="cls-1" d="M228.8811,47.9666a.242.242,0,0,1-.0643-.4752A83.17,83.17,0,0,1,255.0546,44.59a.2419.2419,0,0,1,.23.2535.2283.2283,0,0,1-.2535.23,82.79,82.79,0,0,0-26.0855,2.8849A.2366.2366,0,0,1,228.8811,47.9666Z"/><path class="cls-1" d="M232.372,48.0494a.242.242,0,0,1-.0109-.4837l25.6618-1.1841a.2389.2389,0,0,1,.253.23.242.242,0,0,1-.2307.253l-25.6619,1.184Z"/><path class="cls-1" d="M258.23,49.9593l-.02-.001-22.3665-1.8271a.2423.2423,0,0,1-.2218-.261.2478.2478,0,0,1,.2611-.2213L258.249,49.476a.242.242,0,0,1-.0194.4833Z"/><path class="cls-1" d="M218.576,57.0615a.2432.2432,0,0,1-.0369-.0028,85.9147,85.9147,0,0,1-28.1613-9.4249.2423.2423,0,0,1,.2317-.4256,85.4244,85.4244,0,0,0,28.0029,9.372.242.242,0,0,1-.0364.4813Z"/><path class="cls-1" d="M218.4339,53.6471l-.0177-.0005a76.2294,76.2294,0,0,1-24.5273-5.92.2422.2422,0,0,1,.1906-.4454,75.727,75.727,0,0,0,24.3716,5.8823.2422.2422,0,0,1-.0172.4838Z"/><path class="cls-1" d="M221.9245,53.73l-.0177,0a76.2287,76.2287,0,0,1-24.5272-5.92.2422.2422,0,0,1,.19-.4454,75.73,75.73,0,0,0,24.3717,5.8823.2422.2422,0,0,1-.0173.4837Z"/><path class="cls-1" d="M225.4151,53.8126l-.0177-.0005a76.2289,76.2289,0,0,1-24.5272-5.92.2422.2422,0,0,1,.19-.4454,75.727,75.727,0,0,0,24.3717,5.8823.2422.2422,0,0,1-.0173.4838Z"/><path class="cls-1" d="M228.9057,53.8953l-.0177-.0005a76.2287,76.2287,0,0,1-24.5272-5.92.2422.2422,0,0,1,.19-.4454,75.73,75.73,0,0,0,24.3717,5.8823.2422.2422,0,0,1-.0173.4837Z"/><path class="cls-1" d="M230.982,55.9035a.2577.2577,0,0,1-.038-.0028A70.4576,70.4576,0,0,1,207.83,48.0466a.2419.2419,0,1,1,.2336-.4237A69.9662,69.9662,0,0,0,231.02,55.4221a.2422.2422,0,0,1-.0376.4814Z"/><path class="cls-1" d="M235.1287,55.869a.28.28,0,0,1-.0352-.0024,72.66,72.66,0,0,1-23.77-7.7359.2422.2422,0,1,1,.2279-.4274,72.1708,72.1708,0,0,0,23.612,7.6839.2422.2422,0,0,1-.0348.4818Z"/><path class="cls-1" d="M239.3776,54.1436l-.0178-.0005a76.2341,76.2341,0,0,1-24.5269-5.9206.2423.2423,0,0,1,.1905-.4455A75.7272,75.7272,0,0,0,239.3948,53.66a.2422.2422,0,0,1-.0172.4838Z"/><path class="cls-1" d="M242.8684,54.2263l-.0177-.0005a76.2107,76.2107,0,0,1-24.527-5.9206.2422.2422,0,0,1,.1906-.4454,75.724,75.724,0,0,0,24.3714,5.8828.2422.2422,0,0,1-.0173.4837Z"/><path class="cls-1" d="M245.8245,56.7835a.2265.2265,0,0,1-.04-.0033A72.9759,72.9759,0,0,1,221.79,48.3761a.2422.2422,0,1,1,.2384-.4217,72.4824,72.4824,0,0,0,23.8352,8.3482.2421.2421,0,0,1-.04.4809Z"/><path class="cls-1" d="M249.85,54.3918l-.0177-.0005a76.2114,76.2114,0,0,1-24.527-5.9206.2422.2422,0,0,1,.1906-.4454,75.724,75.724,0,0,0,24.3714,5.8828.2422.2422,0,0,1-.0173.4837Z"/><path class="cls-1" d="M254.7893,58.7137a.2388.2388,0,0,1-.048-.0047,78.3747,78.3747,0,0,1-25.9781-10.1726.242.242,0,1,1,.2553-.4113,77.896,77.896,0,0,0,25.8183,10.1091.2421.2421,0,0,1-.0475.48Z"/><path class="cls-1" d="M259.1441,57.23a.2831.2831,0,0,1-.0341-.0023,82.1112,82.1112,0,0,1-26.8413-8.6.2421.2421,0,1,1,.2255-.4284,81.6347,81.6347,0,0,0,26.6835,8.5492.2421.2421,0,0,1-.0336.4818Z"/><path class="cls-1" d="M256.9316,55.8581a.2524.2524,0,0,1-.0376-.0028,64.4368,64.4368,0,0,1-21.1385-7.1467.2422.2422,0,0,1,.2331-.4247,63.9528,63.9528,0,0,0,20.98,7.0929.2421.2421,0,0,1-.0371.4813Z"/><path class="cls-1" d="M211.2264,59.9455a.25.25,0,0,1-.0861-.0156,54.0038,54.0038,0,0,1-18.2245-11.4048.2419.2419,0,1,1,.3362-.348,53.515,53.515,0,0,0,18.06,11.3.2422.2422,0,0,1-.0861.4686Z"/><path class="cls-1" d="M217.155,61.5371a.2493.2493,0,0,1-.09-.017,59.16,59.16,0,0,1-19.9882-13.0338.2422.2422,0,0,1,.3437-.3414A58.6556,58.6556,0,0,0,217.2447,61.07a.2422.2422,0,0,1-.09.4672Z"/><path class="cls-1" d="M227.691,64.4258a.2435.2435,0,0,1-.083-.0147,78.23,78.23,0,0,1-26.3588-15.9536.2422.2422,0,0,1,.33-.3547,77.733,77.733,0,0,0,26.1947,15.8534.2421.2421,0,0,1-.0829.47Z"/><path class="cls-1" d="M227.2373,61.5068a.2411.2411,0,0,1-.0826-.0146,64.5387,64.5387,0,0,1-21.74-13.07.2423.2423,0,1,1,.3291-.3556A64.0559,64.0559,0,0,0,227.32,61.0373a.242.242,0,0,1-.0825.4695Z"/><path class="cls-1" d="M231.8422,61.7456a.2411.2411,0,0,1-.0826-.0146,65.8515,65.8515,0,0,1-22.18-13.3445.2422.2422,0,0,1,.3291-.3555,65.3548,65.3548,0,0,0,22.0157,13.2451.242.242,0,0,1-.0825.47Z"/><path class="cls-1" d="M235.7834,61.0439a.243.243,0,0,1-.079-.0132,64.41,64.41,0,0,1-21.9556-12.6763.2422.2422,0,1,1,.3216-.3622,63.9306,63.9306,0,0,0,21.792,12.5808.2421.2421,0,0,1-.079.4709Z"/><path class="cls-1" d="M246.5316,63.0124a.25.25,0,0,1-.069-.01A84.3428,84.3428,0,0,1,217.9244,48.327a.242.242,0,1,1,.3007-.3793,83.858,83.858,0,0,0,28.3756,14.59.2422.2422,0,0,1-.0691.4743Z"/><path class="cls-1" d="M249.3536,58.98a.2388.2388,0,0,1-.048-.0047,82.0188,82.0188,0,0,1-27.1934-10.6676.2421.2421,0,0,1,.2554-.4114A81.5305,81.5305,0,0,0,249.4011,58.5a.2421.2421,0,0,1-.0475.48Z"/><path class="cls-1" d="M251.3581,62.8592a.2333.2333,0,0,1-.08-.0137,74.435,74.435,0,0,1-25.0351-14.5989.2421.2421,0,0,1,.3235-.36,73.9618,73.9618,0,0,0,24.8709,14.5024.242.242,0,0,1-.08.4705Z"/><path class="cls-1" d="M253.5474,62.1168a.24.24,0,0,1-.0825-.0146,68.437,68.437,0,0,1-23.06-13.8944.2419.2419,0,1,1,.3291-.3546A67.9611,67.9611,0,0,0,253.63,61.6473a.242.242,0,0,1-.0825.4695Z"/><path class="cls-1" d="M256.8484,63.647a.2355.2355,0,0,1-.0955-.02,65.5818,65.5818,0,0,1-22.1954-15.468.242.242,0,1,1,.3556-.3282,65.1069,65.1069,0,0,0,22.0308,15.3517.242.242,0,0,1-.0955.4644Z"/><path class="cls-1" d="M188.0289,45.9617a.242.242,0,0,1-.22-.3428A37.9581,37.9581,0,0,1,199.811,31.0905a.2421.2421,0,0,1,.2889.3886,37.4679,37.4679,0,0,0-11.85,14.3413A.2422.2422,0,0,1,188.0289,45.9617Z"/><path class="cls-1" d="M197.7087,45.6539a.2421.2421,0,0,1-.2334-.3078,45.4189,45.4189,0,0,1,12.8562-20.6685.2421.2421,0,1,1,.3315.3528,44.9313,44.9313,0,0,0-12.7215,20.4471A.2424.2424,0,0,1,197.7087,45.6539Z"/><path class="cls-1" d="M204.9679,45.4227a.2464.2464,0,0,1-.0458-.0043.2426.2426,0,0,1-.1923-.2837A40.479,40.479,0,0,1,215.161,25.2a.242.242,0,1,1,.3532.331,39.9948,39.9948,0,0,0-10.3087,19.6954A.2423.2423,0,0,1,204.9679,45.4227Z"/><path class="cls-1" d="M221.9061,44.8836a.2374.2374,0,0,1-.1131-.0283.2421.2421,0,0,1-.1007-.3273,51.5637,51.5637,0,0,1,16.736-18.2895.2422.2422,0,0,1,.2719.401A51.073,51.073,0,0,0,222.12,44.755.2425.2425,0,0,1,221.9061,44.8836Z"/><path class="cls-1" d="M224.3259,44.807a.2419.2419,0,0,1-.2-.3773,63.5164,63.5164,0,0,1,21.2366-19.371.2423.2423,0,0,1,.24.4209A63.0232,63.0232,0,0,0,224.5269,44.7.2414.2414,0,0,1,224.3259,44.807Z"/><path class="cls-1" d="M226.7457,44.73a.242.242,0,0,1-.1844-.3987,68.0363,68.0363,0,0,1,23.0153-17.3192.2422.2422,0,0,1,.2052.4388,67.5449,67.5449,0,0,0-22.8512,17.1935A.2407.2407,0,0,1,226.7457,44.73Z"/><path class="cls-1" d="M188.104,44.4344a.2385.2385,0,0,1-.1142-.0288.2419.2419,0,0,1-.0988-.3277,22.5253,22.5253,0,0,0,2.5858-13.5137.2421.2421,0,1,1,.48-.0605,23.004,23.004,0,0,1-2.64,13.8031A.2419.2419,0,0,1,188.104,44.4344Z"/><path class="cls-1" d="M197.1214,44.6165a.2419.2419,0,0,1-.2161-.1329,28.3425,28.3425,0,0,1-2.8338-17.158.242.242,0,1,1,.4785.0728,27.868,27.868,0,0,0,2.787,16.8667.2421.2421,0,0,1-.1064.3254A.2453.2453,0,0,1,197.1214,44.6165Z"/><path class="cls-1" d="M199.148,46.0743a.2422.2422,0,0,1-.2411-.2246,28.2769,28.2769,0,0,1,4.0665-16.6.2422.2422,0,0,1,.4157.2487A27.7975,27.7975,0,0,0,199.39,45.8147a.2424.2424,0,0,1-.2239.2591Z"/><path class="cls-1" d="M203.3134,46.0383a.2421.2421,0,0,1-.2421-.2416A45.307,45.307,0,0,1,211.1935,20.15a.2423.2423,0,0,1,.4.2733,44.8206,44.8206,0,0,0-8.0381,25.3729.2422.2422,0,0,1-.2416.2425Z"/><path class="cls-1" d="M209.6194,45.286a.2414.2414,0,0,1-.1925-.095A31.7968,31.7968,0,0,1,202.768,27.92a.2423.2423,0,0,1,.226-.2572.236.236,0,0,1,.2572.226,31.3146,31.3146,0,0,0,6.56,17.0077.2419.2419,0,0,1-.192.3891Z"/><path class="cls-1" d="M214.6972,45.4373a.2426.2426,0,0,1-.1923-.0945,42.55,42.55,0,0,1-8.9589-23.0706.2422.2422,0,0,1,.4833-.0322,42.0682,42.0682,0,0,0,8.86,22.8077.2421.2421,0,0,1-.1917.39Z"/><path class="cls-1" d="M218.6174,45.68a.2418.2418,0,0,1-.1934-.096,39.49,39.49,0,0,1-8.1357-21.5627.242.242,0,0,1,.2279-.2553.2347.2347,0,0,1,.2553.2279A39.0081,39.0081,0,0,0,218.81,45.2912a.2422.2422,0,0,1-.1929.3883Z"/><path class="cls-1" d="M223.091,45.8785a.242.242,0,0,1-.2144-.1291,39.1541,39.1541,0,0,1-4.32-23.5595.2381.2381,0,0,1,.2721-.2076.242.242,0,0,1,.2078.2719,38.673,38.673,0,0,0,4.268,23.2692.242.242,0,0,1-.214.3551Z"/><path class="cls-1" d="M227.3567,46.0937a.2424.2424,0,0,1-.2142-.1286A40.3046,40.3046,0,0,1,222.64,21.7336a.242.242,0,1,1,.48.0634,39.8227,39.8227,0,0,0,4.45,23.9411.242.242,0,0,1-.1005.3272A.2385.2385,0,0,1,227.3567,46.0937Z"/><path class="cls-1" d="M228.304,45.8246a.2422.2422,0,0,1-.2345-.183,38.0138,38.0138,0,0,0-10.4662-17.7784.2421.2421,0,1,1,.3386-.3461A38.494,38.494,0,0,1,228.539,45.5234a.2424.2424,0,0,1-.1756.2941A.253.253,0,0,1,228.304,45.8246Z"/><path class="cls-1" d="M235.1193,46.585a.2419.2419,0,0,1-.2088-.1192,35.1841,35.1841,0,0,1-4.9335-20.7172.2421.2421,0,0,1,.4828.0379A34.7009,34.7009,0,0,0,235.3276,46.22a.2422.2422,0,0,1-.2083.3651Z"/><path class="cls-1" d="M239.7043,46.7751a.2417.2417,0,0,1-.2083-.1183,39.8158,39.8158,0,0,1-5.6643-23.4058.2389.2389,0,0,1,.26-.2237.2423.2423,0,0,1,.2232.26,39.3337,39.3337,0,0,0,5.5976,23.1222.2419.2419,0,0,1-.0844.3319A.2391.2391,0,0,1,239.7043,46.7751Z"/><path class="cls-1" d="M110.558,105.1116a.2421.2421,0,0,1-.175-.4095,44.9743,44.9743,0,0,1,15.2113-10.2628.2421.2421,0,0,1,.1854.4473,44.4859,44.4859,0,0,0-15.0468,10.15A.2414.2414,0,0,1,110.558,105.1116Z"/><path class="cls-1" d="M115.3974,104.9575a.2421.2421,0,0,1-.1936-.3873,63.0617,63.0617,0,0,1,21.2427-17.7756.2423.2423,0,0,1,.2247.4294,62.5632,62.5632,0,0,0-21.08,17.6365A.242.242,0,0,1,115.3974,104.9575Z"/><path class="cls-1" d="M117.8173,104.88a.2506.2506,0,0,1-.074-.0114.2423.2423,0,0,1-.1566-.3045,50.982,50.982,0,0,1,14.912-22.3476.2422.2422,0,1,1,.3215.3622,50.4956,50.4956,0,0,0-14.7724,22.133A.242.242,0,0,1,117.8173,104.88Z"/><path class="cls-1" d="M120.2371,104.8033a.2367.2367,0,0,1-.07-.01.2417.2417,0,0,1-.1624-.3012,56.4681,56.4681,0,0,1,16.2453-25.2481.2422.2422,0,0,1,.3268.3575,55.9819,55.9819,0,0,0-16.1083,25.03A.242.242,0,0,1,120.2371,104.8033Z"/><path class="cls-1" d="M125.0768,104.65a.2384.2384,0,0,1-.0944-.0193.242.242,0,0,1-.1286-.3173,65.51,65.51,0,0,1,20.4094-25.9371.2421.2421,0,0,1,.2964.383,65.0194,65.0194,0,0,0-20.26,25.7432A.242.242,0,0,1,125.0768,104.65Z"/><path class="cls-1" d="M127.4964,104.5726a.2422.2422,0,0,1-.22-.3424,54.9788,54.9788,0,0,1,17.3756-21.0784.2422.2422,0,0,1,.2889.3887,54.4955,54.4955,0,0,0-17.2238,20.89A.2419.2419,0,0,1,127.4964,104.5726Z"/><path class="cls-1" d="M132.336,104.4184a.2323.2323,0,0,1-.0813-.0142.2416.2416,0,0,1-.1466-.3092,57.6964,57.6964,0,0,1,17.307-24.4182.242.242,0,1,1,.3125.37,57.2132,57.2132,0,0,0-17.1637,24.2111A.2414.2414,0,0,1,132.336,104.4184Z"/><path class="cls-1" d="M134.7559,104.3418a.2416.2416,0,0,1-.2287-.3215A45.5388,45.5388,0,0,1,148.106,84.5736a.2421.2421,0,1,1,.3149.3679,45.0523,45.0523,0,0,0-13.4364,19.2376A.2418.2418,0,0,1,134.7559,104.3418Z"/><path class="cls-1" d="M137.1757,104.2647a.242.242,0,0,1-.2289-.321,52.4421,52.4421,0,0,1,15.6061-22.4621.242.242,0,1,1,.3154.367,51.9621,51.9621,0,0,0-15.4637,22.253A.2422.2422,0,0,1,137.1757,104.2647Z"/><path class="cls-1" d="M139.5955,104.1877a.2469.2469,0,0,1-.09-.0171.2422.2422,0,0,1-.1352-.3149A47.88,47.88,0,0,1,154.097,84.42a.2422.2422,0,1,1,.3027.3783A47.3882,47.3882,0,0,0,139.82,104.0354.2425.2425,0,0,1,139.5955,104.1877Z"/><path class="cls-1" d="M142.0149,104.1106a.242.242,0,0,1-.22-.3428A45.5774,45.5774,0,0,1,156.21,86.326a.242.242,0,0,1,.2885.3887,45.0961,45.0961,0,0,0-14.2635,17.2545A.2419.2419,0,0,1,142.0149,104.1106Z"/><path class="cls-1" d="M144.4347,104.0335a.242.242,0,0,1-.2177-.3475A59.5388,59.5388,0,0,1,163.2532,81.54a.2421.2421,0,0,1,.2822.3934,59.051,59.051,0,0,0-18.8825,21.9632A.242.242,0,0,1,144.4347,104.0335Z"/><path class="cls-1" d="M153.1456,105.6625a.242.242,0,0,1-.2317-.3126,51.209,51.209,0,0,1,14.7787-22.8152.2421.2421,0,0,1,.3257.3584,50.725,50.725,0,0,0-14.641,22.5977A.2422.2422,0,0,1,153.1456,105.6625Z"/><path class="cls-1" d="M156.05,105.5854a.2441.2441,0,0,1-.0815-.0142.2417.2417,0,0,1-.1464-.3092,45.836,45.836,0,0,1,13.7561-19.3866.2421.2421,0,0,1,.3125.37,45.3569,45.3569,0,0,0-13.6128,19.1794A.2417.2417,0,0,1,156.05,105.5854Z"/><path class="cls-1" d="M158.9535,105.5083a.2393.2393,0,0,1-.1185-.0312.2418.2418,0,0,1-.0924-.3295,40.92,40.92,0,0,1,13.4035-14.03.2421.2421,0,0,1,.2644.4057,40.4347,40.4347,0,0,0-13.2456,13.8617A.2424.2424,0,0,1,158.9535,105.5083Z"/><path class="cls-1" d="M163.31,105.4313a.2426.2426,0,0,1-.2189-.3452A43.3019,43.3019,0,0,1,176.86,88.7329a.2419.2419,0,1,1,.2856.3906A42.823,42.823,0,0,0,163.53,105.2922.2423.2423,0,0,1,163.31,105.4313Z"/><path class="cls-1" d="M159.7422,105.5372a.242.242,0,0,1-.0608-.4762,57.1958,57.1958,0,0,1,17.9981-1.7325.2421.2421,0,1,1-.03.4832,56.6688,56.6688,0,0,0-17.8463,1.7174A.2259.2259,0,0,1,159.7422,105.5372Z"/><path class="cls-1" d="M154.5065,105.4133a.2421.2421,0,0,1-.0759-.4719,85.7578,85.7578,0,0,1,27.3348-4.3148.2421.2421,0,0,1-.0007.4842h-.0007a85.6061,85.6061,0,0,0-27.1816,4.29A.2373.2373,0,0,1,154.5065,105.4133Z"/><path class="cls-1" d="M149.27,105.2894a.2421.2421,0,0,1-.0866-.4681,94.1427,94.1427,0,0,1,30.0816-6.1188.2508.2508,0,0,1,.2514.2327.2421.2421,0,0,1-.2325.2515,93.6652,93.6652,0,0,0-29.9274,6.0866A.2412.2412,0,0,1,149.27,105.2894Z"/><path class="cls-1" d="M144.0347,105.1651a.2423.2423,0,0,1-.117-.4545,96.7368,96.7368,0,0,1,31.7328-10.7517.2422.2422,0,0,1,.0751.4785,96.2419,96.2419,0,0,0-31.5744,10.6979A.2416.2416,0,0,1,144.0347,105.1651Z"/><path class="cls-1" d="M138.7988,105.0412a.242.242,0,0,1-.1-.4625A75.7706,75.7706,0,0,1,163.1737,98.18a.2422.2422,0,0,1,.0435.4824,75.2986,75.2986,0,0,0-24.3189,6.357A.24.24,0,0,1,138.7988,105.0412Z"/><path class="cls-1" d="M133.5626,104.9168a.242.242,0,0,1-.1262-.4487A85.3676,85.3676,0,0,1,161.692,93.6307a.2423.2423,0,0,1,.0922.4757,84.8706,84.8706,0,0,0-28.0958,10.7749A.24.24,0,0,1,133.5626,104.9168Z"/><path class="cls-1" d="M128.3264,104.7929a.2421.2421,0,0,1-.0936-.4653,96.8042,96.8042,0,0,1,31.1023-7.2957.2422.2422,0,0,1,.0321.4833A96.3166,96.3166,0,0,0,128.42,104.774.2413.2413,0,0,1,128.3264,104.7929Z"/><path class="cls-1" d="M123.0908,104.6686a.2422.2422,0,0,1-.105-.4606,81.94,81.94,0,0,1,26.5794-7.5387.2421.2421,0,1,1,.053.4813,81.4417,81.4417,0,0,0-26.4229,7.4943A.2426.2426,0,0,1,123.0908,104.6686Z"/><path class="cls-1" d="M117.8546,104.5447a.2423.2423,0,0,1-.1135-.4563,87.57,87.57,0,0,1,28.6335-9.225.2422.2422,0,0,1,.0686.48,87.0793,87.0793,0,0,0-28.4756,9.1739A.2436.2436,0,0,1,117.8546,104.5447Z"/><path class="cls-1" d="M112.6187,104.42a.2421.2421,0,0,1-.13-.4464,81.8949,81.8949,0,0,1,27.21-10.9967.2421.2421,0,1,1,.1.4738,81.4069,81.4069,0,0,0-27.05,10.9315A.2422.2422,0,0,1,112.6187,104.42Z"/><path class="cls-1" d="M111.6013,105.2539a.2422.2422,0,0,1-.2409-.22,20.968,20.968,0,0,1,2.8211-12.403.2421.2421,0,0,1,.4194.2421,20.487,20.487,0,0,0-2.7582,12.1174.2421.2421,0,0,1-.22.2629Z"/><path class="cls-1" d="M130.9179,119.4249a.236.236,0,0,1-.0943-.0194,50.628,50.628,0,0,1-17.1327-11.78.242.242,0,1,1,.3532-.331A50.1569,50.1569,0,0,0,131.0123,118.96a.2419.2419,0,0,1-.0944.4648Z"/><path class="cls-1" d="M135.2183,116.2038a.2377.2377,0,0,1-.0513-.0056,70.1871,70.1871,0,0,1-23.3467-9.5838.242.242,0,1,1,.2624-.4067,69.7086,69.7086,0,0,0,23.1864,9.5176.242.242,0,0,1-.0508.4785Z"/><path class="cls-1" d="M113.8025,105.91a.2422.2422,0,0,1-.0707-.4738,66.0728,66.0728,0,0,1,20.8784-2.8509.2423.2423,0,0,1,.2364.2478.2547.2547,0,0,1-.2477.2364,65.44,65.44,0,0,0-20.7257,2.83A.2436.2436,0,0,1,113.8025,105.91Z"/><path class="cls-1" d="M139.1484,107.72l-.0193-.001-21.8552-1.7268a.2419.2419,0,0,1-.2222-.26.2446.2446,0,0,1,.2605-.2222l21.8552,1.7268a.242.242,0,0,1-.019.4833Z"/><path class="cls-1" d="M120.665,105.4015a.2422.2422,0,0,1-.0565-.4776,70.88,70.88,0,0,1,22.29-1.7477.2419.2419,0,1,1-.0383.4823,70.4373,70.4373,0,0,0-22.1379,1.7364A.2638.2638,0,0,1,120.665,105.4015Z"/><path class="cls-1" d="M122.4141,106.2947a.242.242,0,0,1-.08-.4705,81.3065,81.3065,0,0,1,25.86-4.5139h.0028a.2421.2421,0,0,1,.0028.4842,80.8352,80.8352,0,0,0-25.706,4.4865A.2362.2362,0,0,1,122.4141,106.2947Z"/><path class="cls-1" d="M125.9045,106.3774a.2422.2422,0,0,1-.0605-.4766,80.079,80.079,0,0,1,25.2045-2.3917.2421.2421,0,0,1-.0307.4833,79.6062,79.6062,0,0,0-25.0523,2.3775A.2461.2461,0,0,1,125.9045,106.3774Z"/><path class="cls-1" d="M129.3951,106.46a.242.242,0,0,1-.0132-.4837l19.0768-1.0715a.242.242,0,1,1,.027.4832L129.4088,106.46Z"/><path class="cls-1" d="M132.8862,106.5429a.242.242,0,0,1-.0828-.4695,84.4069,84.4069,0,0,1,26.8929-5.0236.23.23,0,0,1,.2478.2364.2423.2423,0,0,1-.2364.2478,83.9291,83.9291,0,0,0-26.7388,4.9943A.2429.2429,0,0,1,132.8862,106.5429Z"/><path class="cls-1" d="M137.8405,106.2115a.2421.2421,0,0,1-.0019-.4842l22.7909-.1721h.0019a.2421.2421,0,0,1,.0019.4842l-22.7909.1721Z"/><path class="cls-1" d="M139.8674,106.7084a.2421.2421,0,0,1-.0941-.4652,99.741,99.741,0,0,1,32.0586-7.57.2422.2422,0,0,1,.0331.4833,99.254,99.254,0,0,0-31.9035,7.5325A.244.244,0,0,1,139.8674,106.7084Z"/><path class="cls-1" d="M143.3583,106.7912a.2422.2422,0,0,1-.1088-.4587,81.3532,81.3532,0,0,1,26.49-7.9714.2421.2421,0,0,1,.06.4805,80.8718,80.8718,0,0,0-26.3333,7.9241A.24.24,0,0,1,143.3583,106.7912Z"/><path class="cls-1" d="M146.8486,106.8739a.2422.2422,0,0,1-.0858-.4686,80.9242,80.9242,0,0,1,25.8472-5.182.2515.2515,0,0,1,.2506.2336.2419.2419,0,0,1-.2331.2506,80.4168,80.4168,0,0,0-25.693,5.1508A.2485.2485,0,0,1,146.8486,106.8739Z"/><path class="cls-1" d="M175.9186,109.2633l-.022-.001-25.5791-2.3065a.242.242,0,0,1-.2194-.263.2485.2485,0,0,1,.2629-.2194L175.94,108.78a.2421.2421,0,0,1-.0215.4833Z"/><path class="cls-1" d="M153.83,107.0394a.242.242,0,0,1-.0643-.4752,83.17,83.17,0,0,1,26.2378-2.9019.2419.2419,0,0,1,.23.2535.2284.2284,0,0,1-.2535.23,82.79,82.79,0,0,0-26.0855,2.8849A.2371.2371,0,0,1,153.83,107.0394Z"/><path class="cls-1" d="M157.3205,107.1222a.242.242,0,0,1-.0109-.4837l25.6618-1.1841a.2389.2389,0,0,1,.253.23.242.242,0,0,1-.2307.253l-25.6619,1.184Z"/><path class="cls-1" d="M183.1781,109.0321l-.02-.001-22.3665-1.8271a.2423.2423,0,0,1-.2218-.261.2478.2478,0,0,1,.2611-.2213l22.3665,1.8271a.242.242,0,0,1-.0194.4833Z"/><path class="cls-1" d="M143.5245,116.1343a.2432.2432,0,0,1-.0369-.0028,85.9147,85.9147,0,0,1-28.1613-9.4249.2423.2423,0,0,1,.2317-.4256,85.4244,85.4244,0,0,0,28.0029,9.372.242.242,0,0,1-.0364.4813Z"/><path class="cls-1" d="M143.3824,112.72l-.0178-.0005a76.23,76.23,0,0,1-24.5272-5.92.2422.2422,0,0,1,.1906-.4454A75.727,75.727,0,0,0,143.4,112.2361a.2422.2422,0,0,1-.0172.4838Z"/><path class="cls-1" d="M146.873,112.8026l-.0177-.0005a76.2287,76.2287,0,0,1-24.5272-5.92.2422.2422,0,0,1,.1905-.4454,75.73,75.73,0,0,0,24.3717,5.8823.2422.2422,0,0,1-.0173.4837Z"/><path class="cls-1" d="M150.3636,112.8853l-.0177,0a76.2289,76.2289,0,0,1-24.5272-5.92.2422.2422,0,0,1,.1905-.4454,75.727,75.727,0,0,0,24.3717,5.8823.2422.2422,0,0,1-.0173.4837Z"/><path class="cls-1" d="M153.8542,112.9681l-.0177-.0005a76.2287,76.2287,0,0,1-24.5272-5.92.2422.2422,0,0,1,.19-.4454,75.73,75.73,0,0,0,24.3717,5.8823.2422.2422,0,0,1-.0173.4837Z"/><path class="cls-1" d="M155.9305,114.9763a.2577.2577,0,0,1-.038-.0028,70.46,70.46,0,0,1-23.1139-7.8541.2419.2419,0,1,1,.2336-.4237,69.9662,69.9662,0,0,0,22.9559,7.7992.2422.2422,0,0,1-.0376.4814Z"/><path class="cls-1" d="M160.0772,114.9418a.3.3,0,0,1-.0352-.0024,72.66,72.66,0,0,1-23.77-7.7359.2422.2422,0,1,1,.2279-.4274,72.17,72.17,0,0,0,23.612,7.6839.2422.2422,0,0,1-.0348.4818Z"/><path class="cls-1" d="M164.3261,113.2163l-.0178,0a76.2341,76.2341,0,0,1-24.5269-5.9206.2423.2423,0,0,1,.1905-.4455,75.7272,75.7272,0,0,0,24.3714,5.8828.2422.2422,0,0,1-.0172.4837Z"/><path class="cls-1" d="M167.8169,113.2991l-.0177-.0005a76.2107,76.2107,0,0,1-24.527-5.9206.2422.2422,0,0,1,.1906-.4454,75.724,75.724,0,0,0,24.3714,5.8828.2422.2422,0,0,1-.0173.4837Z"/><path class="cls-1" d="M170.773,115.8563a.2265.2265,0,0,1-.04-.0033,72.9759,72.9759,0,0,1-23.9941-8.4041.2422.2422,0,1,1,.2384-.4217,72.4826,72.4826,0,0,0,23.8351,8.3482.2421.2421,0,0,1-.0394.4809Z"/><path class="cls-1" d="M174.7981,113.4646l-.0177-.0005a76.2114,76.2114,0,0,1-24.527-5.9206.2422.2422,0,0,1,.1906-.4454,75.724,75.724,0,0,0,24.3714,5.8828.2422.2422,0,0,1-.0173.4837Z"/><path class="cls-1" d="M179.7378,117.7865a.2388.2388,0,0,1-.048-.0047,78.3747,78.3747,0,0,1-25.9781-10.1726.242.242,0,1,1,.2553-.4113,77.896,77.896,0,0,0,25.8183,10.1091.2421.2421,0,0,1-.0475.48Z"/><path class="cls-1" d="M184.0926,116.3031a.2831.2831,0,0,1-.0341-.0023,82.1112,82.1112,0,0,1-26.8413-8.6.2421.2421,0,1,1,.2255-.4284,81.6349,81.6349,0,0,0,26.6834,8.5492.2421.2421,0,0,1-.0335.4818Z"/><path class="cls-1" d="M181.88,114.9309a.2524.2524,0,0,1-.0376-.0028,64.4368,64.4368,0,0,1-21.1385-7.1467.2422.2422,0,0,1,.2331-.4247,63.9528,63.9528,0,0,0,20.98,7.0929.2421.2421,0,0,1-.0371.4813Z"/><path class="cls-1" d="M136.1749,119.0183a.25.25,0,0,1-.0861-.0156,54.0038,54.0038,0,0,1-18.2245-11.4048.2419.2419,0,1,1,.3362-.348,53.515,53.515,0,0,0,18.06,11.3.2422.2422,0,0,1-.0861.4686Z"/><path class="cls-1" d="M142.1035,120.61a.2493.2493,0,0,1-.09-.017,59.16,59.16,0,0,1-19.9882-13.0338.2422.2422,0,0,1,.3437-.3414,58.6556,58.6556,0,0,0,19.8238,12.925.2422.2422,0,0,1-.09.4672Z"/><path class="cls-1" d="M152.64,123.4986a.2435.2435,0,0,1-.083-.0147A78.23,78.23,0,0,1,126.1977,107.53a.2422.2422,0,0,1,.33-.3547,77.733,77.733,0,0,0,26.1947,15.8534.2421.2421,0,0,1-.0829.47Z"/><path class="cls-1" d="M152.1858,120.58a.2411.2411,0,0,1-.0826-.0146,64.5387,64.5387,0,0,1-21.74-13.07.2423.2423,0,1,1,.3291-.3556A64.0565,64.0565,0,0,0,152.2683,120.11a.242.242,0,0,1-.0825.4695Z"/><path class="cls-1" d="M156.7906,120.8184a.241.241,0,0,1-.0825-.0146,65.8515,65.8515,0,0,1-22.18-13.3445.2422.2422,0,0,1,.3291-.3555,65.3548,65.3548,0,0,0,22.0157,13.2451.242.242,0,0,1-.0826.4695Z"/><path class="cls-1" d="M160.7319,120.1167a.243.243,0,0,1-.079-.0132,64.41,64.41,0,0,1-21.9556-12.6763.2422.2422,0,1,1,.3216-.3622,63.9306,63.9306,0,0,0,21.792,12.5808.2421.2421,0,0,1-.079.4709Z"/><path class="cls-1" d="M171.48,122.0852a.25.25,0,0,1-.069-.01A84.3428,84.3428,0,0,1,142.8729,107.4a.242.242,0,1,1,.3007-.3793,83.86,83.86,0,0,0,28.3756,14.59.2422.2422,0,0,1-.0691.4743Z"/><path class="cls-1" d="M174.3021,118.0527a.2388.2388,0,0,1-.048-.0047A82.0188,82.0188,0,0,1,147.0607,107.38a.2421.2421,0,0,1,.2554-.4114A81.5305,81.5305,0,0,0,174.35,117.5732a.2421.2421,0,0,1-.0475.48Z"/><path class="cls-1" d="M176.3065,121.932a.2332.2332,0,0,1-.08-.0137,74.435,74.435,0,0,1-25.0351-14.5989.2421.2421,0,0,1,.3234-.36,73.9649,73.9649,0,0,0,24.871,14.5024.242.242,0,0,1-.08.4705Z"/><path class="cls-1" d="M178.4959,121.19a.24.24,0,0,1-.0825-.0146,68.437,68.437,0,0,1-23.0595-13.8944.2419.2419,0,1,1,.3291-.3546A67.9611,67.9611,0,0,0,178.5784,120.72a.242.242,0,0,1-.0825.4695Z"/><path class="cls-1" d="M181.7969,122.72a.2359.2359,0,0,1-.0956-.02,65.5824,65.5824,0,0,1-22.1953-15.468.242.242,0,1,1,.3556-.3282,65.1069,65.1069,0,0,0,22.0308,15.3517.242.242,0,0,1-.0955.4644Z"/><path class="cls-1" d="M112.9773,105.0345a.242.242,0,0,1-.22-.3428A37.9581,37.9581,0,0,1,124.76,90.1633a.2421.2421,0,0,1,.2889.3886,37.4679,37.4679,0,0,0-11.85,14.3413A.2422.2422,0,0,1,112.9773,105.0345Z"/><path class="cls-1" d="M122.6572,104.7267a.2421.2421,0,0,1-.2334-.3078A45.4189,45.4189,0,0,1,135.28,83.75a.2421.2421,0,1,1,.3315.3528A44.9308,44.9308,0,0,0,122.89,104.55.2424.2424,0,0,1,122.6572,104.7267Z"/><path class="cls-1" d="M129.9164,104.4955a.2464.2464,0,0,1-.0458-.0043.2426.2426,0,0,1-.1923-.2837A40.479,40.479,0,0,1,140.11,84.2729a.242.242,0,1,1,.3532.331,39.9948,39.9948,0,0,0-10.3087,19.6954A.2423.2423,0,0,1,129.9164,104.4955Z"/><path class="cls-1" d="M146.8546,103.9564a.2385.2385,0,0,1-.1131-.0283.2421.2421,0,0,1-.1007-.3273,51.5637,51.5637,0,0,1,16.736-18.29.2422.2422,0,0,1,.2719.401,51.0721,51.0721,0,0,0-16.58,18.1155A.2425.2425,0,0,1,146.8546,103.9564Z"/><path class="cls-1" d="M149.2744,103.88a.2419.2419,0,0,1-.2005-.3773,63.5164,63.5164,0,0,1,21.2366-19.371.2423.2423,0,0,1,.24.4209,63.0222,63.0222,0,0,0-21.0753,19.2206A.2414.2414,0,0,1,149.2744,103.88Z"/><path class="cls-1" d="M151.6942,103.8028a.242.242,0,0,1-.1844-.3987,68.0363,68.0363,0,0,1,23.0153-17.3192.2422.2422,0,0,1,.2052.4388,67.5449,67.5449,0,0,0-22.8512,17.1935A.2408.2408,0,0,1,151.6942,103.8028Z"/><path class="cls-1" d="M113.0525,103.5072a.2382.2382,0,0,1-.1142-.0288.2419.2419,0,0,1-.0988-.3277,22.5253,22.5253,0,0,0,2.5858-13.5137.2421.2421,0,0,1,.48-.0606,23.0042,23.0042,0,0,1-2.64,13.8032A.2419.2419,0,0,1,113.0525,103.5072Z"/><path class="cls-1" d="M122.07,103.6893a.2418.2418,0,0,1-.2161-.1329,28.3425,28.3425,0,0,1-2.8338-17.158.242.242,0,1,1,.4785.0728,27.868,27.868,0,0,0,2.787,16.8667.2421.2421,0,0,1-.1064.3254A.2453.2453,0,0,1,122.07,103.6893Z"/><path class="cls-1" d="M124.0965,105.1471a.2421.2421,0,0,1-.2411-.2246,28.2769,28.2769,0,0,1,4.0665-16.6.2422.2422,0,0,1,.4157.2487,27.7967,27.7967,0,0,0-3.9994,16.3168.2424.2424,0,0,1-.2239.2591Z"/><path class="cls-1" d="M128.2619,105.1111a.2421.2421,0,0,1-.2421-.2416,45.3075,45.3075,0,0,1,8.1222-25.6472.2423.2423,0,0,1,.4.2734,44.8206,44.8206,0,0,0-8.0381,25.3729.2422.2422,0,0,1-.2416.2425Z"/><path class="cls-1" d="M134.5679,104.3588a.2414.2414,0,0,1-.1925-.095,31.796,31.796,0,0,1-6.6589-17.2706.2422.2422,0,0,1,.226-.2572.236.236,0,0,1,.2572.226,31.3146,31.3146,0,0,0,6.56,17.0077.2419.2419,0,0,1-.192.3891Z"/><path class="cls-1" d="M139.6456,104.51a.2425.2425,0,0,1-.1922-.0945,42.55,42.55,0,0,1-8.9589-23.0706.2421.2421,0,0,1,.4832-.0322,42.0691,42.0691,0,0,0,8.86,22.8077.2421.2421,0,0,1-.1918.39Z"/><path class="cls-1" d="M143.5658,104.7522a.242.242,0,0,1-.1933-.0959,39.49,39.49,0,0,1-8.1358-21.5627.2422.2422,0,0,1,.228-.2553.2347.2347,0,0,1,.2553.2279,39.0081,39.0081,0,0,0,8.0388,21.2978.242.242,0,0,1-.193.3882Z"/><path class="cls-1" d="M148.04,104.9513a.242.242,0,0,1-.2144-.1291,39.1541,39.1541,0,0,1-4.32-23.5595.2381.2381,0,0,1,.2721-.2076.242.242,0,0,1,.2078.2719,38.6722,38.6722,0,0,0,4.268,23.2692.242.242,0,0,1-.214.3551Z"/><path class="cls-1" d="M152.3051,105.1665a.2425.2425,0,0,1-.2142-.1286,40.3053,40.3053,0,0,1-4.5022-24.2315.242.242,0,1,1,.48.0634,39.8227,39.8227,0,0,0,4.45,23.9411.242.242,0,0,1-.1005.3272A.2386.2386,0,0,1,152.3051,105.1665Z"/><path class="cls-1" d="M153.2525,104.8974a.2422.2422,0,0,1-.2345-.183A38.0138,38.0138,0,0,0,142.5518,86.936a.2421.2421,0,1,1,.3386-.3461,38.4948,38.4948,0,0,1,10.5971,18.0063.2425.2425,0,0,1-.1756.2941A.253.253,0,0,1,153.2525,104.8974Z"/><path class="cls-1" d="M160.0678,105.6578a.2419.2419,0,0,1-.2088-.1192,35.1841,35.1841,0,0,1-4.9335-20.7172.2421.2421,0,0,1,.4828.0378,34.7011,34.7011,0,0,0,4.8678,20.4335.2422.2422,0,0,1-.2083.3651Z"/><path class="cls-1" d="M164.6528,105.8479a.2417.2417,0,0,1-.2083-.1183A39.816,39.816,0,0,1,158.78,82.3238a.2389.2389,0,0,1,.26-.2237.2423.2423,0,0,1,.2232.26,39.3337,39.3337,0,0,0,5.5976,23.1222.2419.2419,0,0,1-.0844.3319A.2394.2394,0,0,1,164.6528,105.8479Z"/><path class="cls-1" d="M57.9465,125.6647a.2419.2419,0,0,1-.1887-.3934A51.3715,51.3715,0,0,0,69.1142,97.9029a.2481.2481,0,0,1,.2633-.2189.2424.2424,0,0,1,.219.2634,51.856,51.856,0,0,1-11.4608,27.6265A.2422.2422,0,0,1,57.9465,125.6647Z"/><path class="cls-1" d="M56.4641,124.248a.2419.2419,0,0,1-.2007-.3768A43.0335,43.0335,0,0,0,63.787,99.3806a.2422.2422,0,0,1,.2395-.2449h.0026a.242.242,0,0,1,.2421.2392,43.5155,43.5155,0,0,1-7.6059,24.7658A.2407.2407,0,0,1,56.4641,124.248Z"/><path class="cls-1" d="M54.0729,122.76a.2418.2418,0,0,1-.1986-.38,48.6092,48.6092,0,0,0,8.9443-27.3612.2423.2423,0,0,1,.2421-.24h.0019a.2419.2419,0,0,1,.24.2439,49.09,49.09,0,0,1-9.0308,27.6337A.2423.2423,0,0,1,54.0729,122.76Z"/><path class="cls-1" d="M55.3174,123.3406a.2421.2421,0,0,1-.1241-.45A62.3477,62.3477,0,0,0,75.93,103.1214a.2421.2421,0,1,1,.4085.26,62.8365,62.8365,0,0,1-20.8973,19.9252A.24.24,0,0,1,55.3174,123.3406Z"/><path class="cls-1" d="M27.4739,100.8744a.2381.2381,0,0,1-.1019-.0227A45.3249,45.3249,0,0,1,12.0352,89.3665a.242.242,0,1,1,.3683-.314,44.8513,44.8513,0,0,0,15.1727,11.36.2421.2421,0,0,1-.1023.4615Z"/><path class="cls-1" d="M32.968,103.69a.2453.2453,0,0,1-.1121-.0274,66.15,66.15,0,0,1-22.283-18.666.2422.2422,0,0,1,.3877-.29,65.6557,65.6557,0,0,0,22.12,18.5269.2422.2422,0,0,1-.1125.4568Z"/><path class="cls-1" d="M37.78,106.56a.238.238,0,0,1-.1194-.0317,70.8633,70.8633,0,0,1-23.7051-21.54.2421.2421,0,1,1,.4009-.2714A70.3763,70.3763,0,0,0,37.9,106.107a.2421.2421,0,0,1-.12.4525Z"/><path class="cls-1" d="M42.82,109.4113a.2414.2414,0,0,1-.14-.0449,70.02,70.02,0,0,1-22.4464-25.86.2421.2421,0,1,1,.4346-.2137A69.5339,69.5339,0,0,0,42.96,108.972a.2419.2419,0,0,1-.14.4393Z"/><path class="cls-1" d="M46.024,112.4073a.24.24,0,0,1-.1284-.0369A55.9291,55.9291,0,0,1,27.45,93.8028a.2421.2421,0,0,1,.4166-.2468A55.438,55.438,0,0,0,46.1528,111.96a.2422.2422,0,0,1-.1288.4473Z"/><path class="cls-1" d="M51.2324,115.2454a.2393.2393,0,0,1-.1463-.05A61.3413,61.3413,0,0,1,31.85,91.2433a.242.242,0,1,1,.4435-.1939,60.8639,60.8639,0,0,0,19.0859,23.7614.242.242,0,0,1-.1469.4346Z"/><path class="cls-1" d="M55.439,118.1624a.2393.2393,0,0,1-.1244-.0345A72.0261,72.0261,0,0,1,31.3827,95.149a.242.242,0,1,1,.41-.2581,71.5415,71.5415,0,0,0,23.7716,22.8218.2421.2421,0,0,1-.1248.45Z"/><path class="cls-1" d="M59.418,121.0979a.2416.2416,0,0,1-.1319-.0393,60.0812,60.0812,0,0,1-19.6783-20.5937.2422.2422,0,0,1,.4222-.2374,59.5905,59.5905,0,0,0,19.52,20.4254.2422.2422,0,0,1-.1324.445Z"/><path class="cls-1" d="M64.1546,123.9728a.2427.2427,0,0,1-.1376-.043,63.6111,63.6111,0,0,1-20.54-22.9892.2419.2419,0,1,1,.4307-.22,63.13,63.13,0,0,0,20.3848,22.8115.242.242,0,0,1-.1381.4411Z"/><path class="cls-1" d="M67.1355,126.8724a.2421.2421,0,0,1-.1492-.0515,58.6874,58.6874,0,0,1-18.1912-23.4768.2421.2421,0,0,1,.4473-.1854A58.1972,58.1972,0,0,0,67.2852,126.44a.2422.2422,0,0,1-.15.4327Z"/><path class="cls-1" d="M64.8656,129.318H64.86a75.8129,75.8129,0,0,1-24.1553-4.5342.2421.2421,0,0,1,.166-.4549,75.3182,75.3182,0,0,0,24.0012,4.5049.2421.2421,0,0,1-.0059.4842Z"/><path class="cls-1" d="M65.2571,127.5306a.2342.2342,0,0,1-.1085-.026A51.2207,51.2207,0,0,1,47.86,113.5691a.2421.2421,0,0,1,.3811-.2988,50.73,50.73,0,0,0,17.1252,13.8021.242.242,0,0,1-.109.4582Z"/><path class="cls-1" d="M61.8977,125.63a.2412.2412,0,0,1-.0721-.0108,61.05,61.05,0,0,1-20.7078-11.0436.2423.2423,0,0,1,.3074-.3745A60.57,60.57,0,0,0,61.97,125.1564a.2421.2421,0,0,1-.0721.4733Z"/><path class="cls-1" d="M60.8993,123.657a.237.237,0,0,1-.0989-.0213,56.8039,56.8039,0,0,1-19.226-13.9294.242.242,0,1,1,.3627-.32,56.3235,56.3235,0,0,0,19.0615,13.8083.2421.2421,0,0,1-.0993.4629Z"/><path class="cls-1" d="M59.5937,121.8814a.2452.2452,0,0,1-.1149-.0288A61.9724,61.9724,0,0,1,38.654,103.8775a.2422.2422,0,0,1,.393-.2833,61.47,61.47,0,0,0,20.6621,17.8319.2422.2422,0,0,1-.1154.4553Z"/><path class="cls-1" d="M55.417,120.9371a.2366.2366,0,0,1-.1017-.0227,63.52,63.52,0,0,1-21.4908-16.0529.2421.2421,0,0,1,.3679-.3149,63.0372,63.0372,0,0,0,21.3267,15.929.2419.2419,0,0,1-.1021.4615Z"/><path class="cls-1" d="M51.83,119.0537a.2434.2434,0,0,1-.0953-.0193A50.0529,50.0529,0,0,1,34.8,107.29a.2419.2419,0,1,1,.3546-.3291,49.5666,49.5666,0,0,0,16.7715,11.6284.2422.2422,0,0,1-.0953.4648Z"/><path class="cls-1" d="M50.0612,117.0276a.2379.2379,0,0,1-.1168-.03,63.9668,63.9668,0,0,1-21.46-18.9331.242.242,0,1,1,.3963-.278,63.4826,63.4826,0,0,0,21.2981,18.7874.2422.2422,0,0,1-.1173.454Z"/><path class="cls-1" d="M45.2778,113.9833a.2434.2434,0,0,1-.087-.0161A61.351,61.351,0,0,1,24.48,100.8484a.2421.2421,0,0,1,.3386-.3462,60.8505,60.8505,0,0,0,20.5467,13.013.2421.2421,0,0,1-.087.4681Z"/><path class="cls-1" d="M45.0083,113.0944a.2434.2434,0,0,1-.1246-.0346A74.1788,74.1788,0,0,1,20.2458,89.3381a.242.242,0,0,1,.41-.2572,73.6924,73.6924,0,0,0,24.4775,23.5638.2422.2422,0,0,1-.125.45Z"/><path class="cls-1" d="M41.6484,111.1935a.24.24,0,0,1-.1345-.0412A59.404,59.404,0,0,1,22.1746,90.2928a.242.242,0,1,1,.426-.23A58.9231,58.9231,0,0,0,41.7834,110.75a.242.242,0,0,1-.135.4431Z"/><path class="cls-1" d="M38.3644,109.286a.2413.2413,0,0,1-.1189-.0312A60.9915,60.9915,0,0,1,17.83,90.7983a.242.242,0,1,1,.4-.2724,60.5,60.5,0,0,0,20.254,18.3071.2422.2422,0,0,1-.1194.453Z"/><path class="cls-1" d="M34.5506,107.421a.2413.2413,0,0,1-.07-.01A71.8991,71.8991,0,0,1,10.131,94.7244a.242.242,0,1,1,.3031-.3773,71.4212,71.4212,0,0,0,24.1867,12.6.2421.2421,0,0,1-.07.4738Z"/><path class="cls-1" d="M32.3268,105.43a.2416.2416,0,0,1-.1043-.0236A65.4367,65.4367,0,0,1,10.096,88.3953a.242.242,0,1,1,.3731-.3083A64.9517,64.9517,0,0,0,32.4315,104.97a.2421.2421,0,0,1-.1047.46Z"/><path class="cls-1" d="M29.1946,103.5115a.2428.2428,0,0,1-.0934-.0189A67.589,67.589,0,0,1,6.2332,87.9233a.242.242,0,1,1,.3514-.3328A67.1126,67.1126,0,0,0,29.288,103.0462a.242.242,0,0,1-.0934.4653Z"/><path class="cls-1" d="M25.6077,101.6286a.2355.2355,0,0,1-.0716-.0109A62.5773,62.5773,0,0,1,4.3189,90.3656a.2423.2423,0,0,1,.3064-.3754,62.0888,62.0888,0,0,0,21.0541,11.165.2421.2421,0,0,1-.0717.4734Z"/><path class="cls-1" d="M62.415,127.3457l-.0218-.0009a88.2132,88.2132,0,0,1-28.4843-7.41.2422.2422,0,0,1,.1991-.4416,87.7208,87.7208,0,0,0,28.3283,7.369.2421.2421,0,0,1-.0213.4832Z"/><path class="cls-1" d="M60.1708,125.8789a.2332.2332,0,0,1-.0406-.0033,73.273,73.273,0,0,1-24.1088-8.5336.2422.2422,0,1,1,.24-.4208,72.7873,72.7873,0,0,0,23.95,8.4768.2421.2421,0,0,1-.04.4809Z"/><path class="cls-1" d="M56.7814,123.4579a.2344.2344,0,0,1-.0407-.0033A73.277,73.277,0,0,1,32.632,114.921a.2422.2422,0,1,1,.24-.4209,72.7888,72.7888,0,0,0,23.95,8.4769.2421.2421,0,0,1-.04.4809Z"/><path class="cls-1" d="M53.8762,121.5211a.2344.2344,0,0,1-.0407-.0033,73.2762,73.2762,0,0,1-24.1087-8.5336.2422.2422,0,1,1,.24-.4209,72.788,72.788,0,0,0,23.95,8.4769.2421.2421,0,0,1-.04.4809Z"/><path class="cls-1" d="M51.4552,120.0685a.2446.2446,0,0,1-.0407-.0033,73.2762,73.2762,0,0,1-24.1087-8.5336.2422.2422,0,1,1,.24-.4209,72.7872,72.7872,0,0,0,23.95,8.4769.2421.2421,0,0,1-.04.4809Z"/><path class="cls-1" d="M47.6617,117.68l-.0208-.0009a72.5946,72.5946,0,0,1-23.4148-5.9745.2422.2422,0,1,1,.1967-.4426,72.1072,72.1072,0,0,0,23.2592,5.9348.242.242,0,0,1-.02.4832Z"/><path class="cls-1" d="M42.2553,113.7738a.2344.2344,0,0,1-.0407-.0033,73.2724,73.2724,0,0,1-24.1087-8.5336.2421.2421,0,1,1,.24-.4208,72.7911,72.7911,0,0,0,23.95,8.4769.2421.2421,0,0,1-.04.4808Z"/><path class="cls-1" d="M39.35,111.837a.2344.2344,0,0,1-.0407-.0033A73.2716,73.2716,0,0,1,15.2007,103.3a.2421.2421,0,1,1,.24-.4208,72.7878,72.7878,0,0,0,23.95,8.4768.2421.2421,0,0,1-.04.4809Z"/><path class="cls-1" d="M38.079,120.1635a75.7825,75.7825,0,0,1-13.3129-1.1793.2421.2421,0,1,1,.0851-.4766,75.327,75.327,0,0,0,23.6087.4539.2421.2421,0,0,1,.0666.48A76.0151,76.0151,0,0,1,38.079,120.1635Z"/><path class="cls-1" d="M33.3812,112.3534a96.4437,96.4437,0,0,1-24.1276-3.057.2422.2422,0,0,1,.121-.4691,96.1825,96.1825,0,0,0,30.2819,2.84.24.24,0,0,1,.2572.226.2424.2424,0,0,1-.226.2573Q36.53,112.3536,33.3812,112.3534Z"/><path class="cls-1" d="M41.6945,137.7145a.2421.2421,0,0,1-.1121-.4568,44.705,44.705,0,0,0,15.0647-12.5486.2421.2421,0,1,1,.3868.2913,45.1926,45.1926,0,0,1-15.2278,12.6867A.2436.2436,0,0,1,41.6945,137.7145Z"/><path class="cls-1" d="M35.5051,137.6847a.2422.2422,0,0,1-.1123-.4568,53.0217,53.0217,0,0,0,17.8646-14.9394.242.242,0,1,1,.3873.29,53.5094,53.5094,0,0,1-18.0278,15.0784A.2438.2438,0,0,1,35.5051,137.6847Z"/><path class="cls-1" d="M30.406,131.408a.2421.2421,0,0,1-.1123-.4568A48.0338,48.0338,0,0,0,46.4786,117.446a.2423.2423,0,0,1,.3873.2913,48.5253,48.5253,0,0,1-16.348,13.6433A.2457.2457,0,0,1,30.406,131.408Z"/><path class="cls-1" d="M24.5954,128.5028a.2421.2421,0,0,1-.0927-.4658,59.3044,59.3044,0,0,0,20.058-13.5179.2419.2419,0,1,1,.3494.3347A59.7881,59.7881,0,0,1,24.688,128.4844.2382.2382,0,0,1,24.5954,128.5028Z"/><path class="cls-1" d="M20.9792,127.5164a.2421.2421,0,0,1-.1054-.46,57.1329,57.1329,0,0,0,19.3168-14.9445.242.242,0,1,1,.374.3073,57.6194,57.6194,0,0,1-19.48,15.0732A.2385.2385,0,0,1,20.9792,127.5164Z"/><path class="cls-1" d="M18.5582,125.0954a.242.242,0,0,1-.11-.4577,54.381,54.381,0,0,0,18.3485-14.9413.242.242,0,1,1,.383.296,54.8627,54.8627,0,0,1-18.512,15.0765A.2391.2391,0,0,1,18.5582,125.0954Z"/><path class="cls-1" d="M14.6846,123.1586a.2421.2421,0,0,1-.1076-.4592,55.75,55.75,0,0,0,18.8324-14.9426.2421.2421,0,0,1,.3787.3016,56.2348,56.2348,0,0,1-18.9964,15.0751A.2411.2411,0,0,1,14.6846,123.1586Z"/><path class="cls-1" d="M10.5835,122.1722a.2421.2421,0,0,1-.1149-.4553,56.6758,56.6758,0,0,0,19.06-16.3726.2422.2422,0,0,1,.392.2846,57.17,57.17,0,0,1-19.2232,16.5145A.2442.2442,0,0,1,10.5835,122.1722Z"/><path class="cls-1" d="M62.6533,128.6357a.2422.2422,0,0,1-.1917-.39,40.7792,40.7792,0,0,0,8.5889-22.1055.2456.2456,0,0,1,.2577-.2255.2422.2422,0,0,1,.2256.2577,41.2636,41.2636,0,0,1-8.6883,22.3684A.2423.2423,0,0,1,62.6533,128.6357Z"/><path class="cls-1" d="M60.49,127.1651a.2371.2371,0,0,1-.1215-.0331.2421.2421,0,0,1-.0875-.331,39.8411,39.8411,0,0,0,5.4442-23.5288.242.242,0,0,1,.4823-.0416,40.3244,40.3244,0,0,1-5.508,23.8144A.2419.2419,0,0,1,60.49,127.1651Z"/><path class="cls-1" d="M52.9692,121.3726a.2389.2389,0,0,1-.1406-.0454.2416.2416,0,0,1-.0558-.3376,39.6826,39.6826,0,0,0,7.6248-22.1022.23.23,0,0,1,.2482-.2359.2422.2422,0,0,1,.236.2482,40.1623,40.1623,0,0,1-7.7156,22.3717A.2409.2409,0,0,1,52.9692,121.3726Z"/><path class="cls-1" d="M49.7448,119.8183a.242.242,0,0,1-.2106-.3607,50.8361,50.8361,0,0,0,6.5067-30.2235.2422.2422,0,0,1,.4818-.0492,51.3152,51.3152,0,0,1-6.5667,30.51A.2419.2419,0,0,1,49.7448,119.8183Z"/><path class="cls-1" d="M44.3888,115.4965a.2422.2422,0,0,1-.2045-.3717,47.2463,47.2463,0,0,0,7.4978-27.3575.2421.2421,0,1,1,.4838-.0208,47.7319,47.7319,0,0,1-7.5721,27.6374A.242.242,0,0,1,44.3888,115.4965Z"/><path class="cls-1" d="M43.3611,114.1152a.24.24,0,0,1-.13-.0383.2424.2424,0,0,1-.0731-.3347,37.4916,37.4916,0,0,0,6.1036-21.619.2425.2425,0,0,1,.2334-.2506.2513.2513,0,0,1,.25.2336,37.9756,37.9756,0,0,1-6.18,21.8979A.2422.2422,0,0,1,43.3611,114.1152Z"/><path class="cls-1" d="M40.894,112.621a.2383.2383,0,0,1-.131-.0388.2423.2423,0,0,1-.0724-.3347,43.3586,43.3586,0,0,0,7.1179-24.9668.242.242,0,1,1,.4837-.016A43.8459,43.8459,0,0,1,41.0978,112.51.243.243,0,0,1,40.894,112.621Z"/><path class="cls-1" d="M40.7214,106.84a.2417.2417,0,0,1-.2138-.1282,38.0644,38.0644,0,0,1-4.3183-22.86.2422.2422,0,0,1,.48.0615,37.5824,37.5824,0,0,0,4.2649,22.57.2419.2419,0,0,1-.2132.3561Z"/><path class="cls-1" d="M39.3146,105.3462a.2421.2421,0,0,1-.2024-.1088A45.7758,45.7758,0,0,1,31.3454,79.036a.2531.2531,0,0,1,.2473-.2369.2423.2423,0,0,1,.2369.2473,45.2908,45.2908,0,0,0,7.6869,25.9243.2421.2421,0,0,1-.2019.3755Z"/><path class="cls-1" d="M37.3021,103.8992a.2412.2412,0,0,1-.1893-.0912A48.1881,48.1881,0,0,1,26.5043,78.0946a.2421.2421,0,0,1,.4823-.0435,47.7076,47.7076,0,0,0,10.5045,25.4552.242.242,0,0,1-.189.3929Z"/><path class="cls-1" d="M51.928,120.92a.2421.2421,0,0,1-.1182-.4534,66.1942,66.1942,0,0,0,22.1885-19.7739.2423.2423,0,0,1,.3981.2762,66.6875,66.6875,0,0,1-22.3506,19.92A.2415.2415,0,0,1,51.928,120.92Z"/><path class="cls-1" d="M45.8778,116.1348a.242.242,0,0,1-.099-.4629,62.1957,62.1957,0,0,0,21.0491-15.1881.242.242,0,1,1,.3617.3215,62.6641,62.6641,0,0,1-21.2132,15.3082A.236.236,0,0,1,45.8778,116.1348Z"/><path class="cls-1" d="M35.284,108.8382a.242.242,0,0,1-.1277-.4478A54.4713,54.4713,0,0,0,53.17,90.5368a.2421.2421,0,0,1,.4142.2506,54.9529,54.9529,0,0,1-18.1725,18.0144A.2408.2408,0,0,1,35.284,108.8382Z"/><path class="cls-1" d="M109.3941,38.0717a.242.242,0,0,1-.1842-.3991,45.4975,45.4975,0,0,0,10.7468-23.5458.2389.2389,0,0,1,.2714-.209.2421.2421,0,0,1,.2085.2714,45.9741,45.9741,0,0,1-10.8584,23.7974A.241.241,0,0,1,109.3941,38.0717Z"/><path class="cls-1" d="M112.6809,41.0436a.2421.2421,0,0,1-.1272-.4483,56.128,56.128,0,0,0,18.5728-18.3316.2421.2421,0,0,1,.4137.2515,56.6138,56.6138,0,0,1-18.7326,18.4924A.2426.2426,0,0,1,112.6809,41.0436Z"/><path class="cls-1" d="M115.6426,42.8721a.2372.2372,0,0,1-.1263-.0359.242.242,0,0,1-.08-.3329,46.0646,46.0646,0,0,0,6.94-26.8785.242.242,0,0,1,.2273-.2558.2357.2357,0,0,1,.256.2274,46.5491,46.5491,0,0,1-7.01,27.16A.2423.2423,0,0,1,115.6426,42.8721Z"/><path class="cls-1" d="M117.6416,43.4755a.2418.2418,0,0,1-.2062-.3684,29.6623,29.6623,0,0,0,4.4564-17.3136.2421.2421,0,0,1,.4833-.0293A30.14,30.14,0,0,1,117.8482,43.36.2415.2415,0,0,1,117.6416,43.4755Z"/><path class="cls-1" d="M119.7434,45.7948a.2364.2364,0,0,1-.1239-.0345.2419.2419,0,0,1-.0837-.3319,43.34,43.34,0,0,0,6.23-25.4425.242.242,0,1,1,.4828-.0349,43.8212,43.8212,0,0,1-6.297,25.7261A.2426.2426,0,0,1,119.7434,45.7948Z"/><path class="cls-1" d="M128.5347,53.064a.2419.2419,0,0,1-.2135-.356A41.561,41.561,0,0,0,133.03,27.7464a.2422.2422,0,0,1,.4805-.0614,42.0433,42.0433,0,0,1-4.7617,25.2509A.2421.2421,0,0,1,128.5347,53.064Z"/><path class="cls-1" d="M130.0684,66.0685a62.5415,62.5415,0,0,1-6.6632-.3566.242.242,0,1,1,.0516-.4813,61.6258,61.6258,0,0,0,19.3338-.9755.2421.2421,0,0,1,.1.4738A61.9807,61.9807,0,0,1,130.0684,66.0685Z"/><path class="cls-1" d="M119.7883,58.3832a92.0171,92.0171,0,0,1-15.8541-1.377.2419.2419,0,1,1,.0833-.4766,91.5648,91.5648,0,0,0,28.693.4539.2422.2422,0,1,1,.0681.48A92.33,92.33,0,0,1,119.7883,58.3832Z"/><path class="cls-1" d="M113.697,50.7253A75.8947,75.8947,0,0,1,98.8444,49.258a.242.242,0,1,1,.0946-.4747,75.5865,75.5865,0,0,0,23.6846.9305.2358.2358,0,0,1,.2688.2119.2418.2418,0,0,1-.2121.2686A76.4073,76.4073,0,0,1,113.697,50.7253Z"/><path class="cls-1" d="M106.6586,38.276l-.0211-.001a66.3168,66.3168,0,0,1-21.4023-5.4964.2419.2419,0,1,1,.1976-.4417,65.8469,65.8469,0,0,0,21.2464,5.4558.2421.2421,0,0,1-.0206.4833Z"/><path class="cls-1" d="M88.3433,39.48q-4.0494,0-8.1062-.4052a.2419.2419,0,1,1,.0483-.4814,80.3515,80.3515,0,0,0,25.22-1.4535.242.242,0,0,1,.1036.4728A80.6755,80.6755,0,0,1,88.3433,39.48Z"/><path class="cls-1" d="M107.93,39.2207l-.0248-.0014a83.4606,83.4606,0,0,1-27.0317-7.4106.2422.2422,0,0,1,.2052-.4388,82.989,82.989,0,0,0,26.8756,7.368.242.242,0,0,1-.0243.4828Z"/><path class="cls-1" d="M97.8784,40.8105a80.41,80.41,0,0,1-14.0393-1.2356.2419.2419,0,0,1-.196-.28.2373.2373,0,0,1,.2806-.1962,79.9617,79.9617,0,0,0,25.0613.4539.2421.2421,0,0,1,.0672.48A80.6894,80.6894,0,0,1,97.8784,40.8105Z"/><path class="cls-1" d="M110.5322,41.5155h-.01a83.6339,83.6339,0,0,1-26.7276-5.4922.2422.2422,0,0,1,.174-.4521,83.124,83.124,0,0,0,26.5735,5.46.2422.2422,0,0,1-.01.4842Z"/><path class="cls-1" d="M102.3194,44.0727A86.7237,86.7237,0,0,1,85.7721,42.48a.2422.2422,0,0,1,.0922-.4756,86.35,86.35,0,0,0,27.074.931.242.242,0,1,1,.0591.48A87.21,87.21,0,0,1,102.3194,44.0727Z"/><path class="cls-1" d="M113.4332,43.08a.2446.2446,0,0,1-.0407-.0033,73.2741,73.2741,0,0,1-24.1087-8.5337.2421.2421,0,1,1,.24-.4208,72.788,72.788,0,0,0,23.95,8.4769.2421.2421,0,0,1-.04.4809Z"/><path class="cls-1" d="M115.1782,44.9049h-.01A87.55,87.55,0,0,1,87.1841,39.173a.2421.2421,0,1,1,.1735-.4521,87.0554,87.0554,0,0,0,27.83,5.7.2422.2422,0,0,1-.01.4842Z"/><path class="cls-1" d="M115.9343,45.3891l-.0186-.0005a75.732,75.732,0,0,1-24.3833-5.974.2422.2422,0,0,1,.1925-.4445,75.239,75.239,0,0,0,24.2276,5.9353.2422.2422,0,0,1-.0182.4837Z"/><path class="cls-1" d="M124.2415,51.3376l-.0237-.0009a74.1152,74.1152,0,0,1-23.9751-6.454.2423.2423,0,1,1,.2033-.44,73.6162,73.6162,0,0,0,23.8186,6.4115.2422.2422,0,0,1-.0231.4832Z"/><path class="cls-1" d="M115.3085,52.8777A77.3312,77.3312,0,0,1,101.7546,51.68a.2421.2421,0,1,1,.0847-.4767,76.9109,76.9109,0,0,0,24.0931.454.2421.2421,0,0,1,.0667.48A77.6172,77.6172,0,0,1,115.3085,52.8777Z"/><path class="cls-1" d="M123.37,60.5531a71.4006,71.4006,0,0,1-9.58-.6464.2419.2419,0,0,1-.2076-.2724.236.236,0,0,1,.2724-.2071,70.6854,70.6854,0,0,0,22.1636-.5.2449.2449,0,0,1,.2814.1948.2422.2422,0,0,1-.1949.2819A71.201,71.201,0,0,1,123.37,60.5531Z"/><path class="cls-1" d="M128.9033,62.628a64.1354,64.1354,0,0,1-9.9585-.7793.2422.2422,0,1,1,.0752-.4785,63.4945,63.4945,0,0,0,19.909-.0227.2423.2423,0,0,1,.0762.4785A64.1366,64.1366,0,0,1,128.9033,62.628Z"/><path class="cls-1" d="M106.8832,36.4753a.2381.2381,0,0,1-.1019-.0227A45.327,45.327,0,0,1,91.4445,24.9675a.242.242,0,1,1,.3683-.314,44.8492,44.8492,0,0,0,15.1728,11.36.2421.2421,0,0,1-.1024.4615Z"/><path class="cls-1" d="M112.3773,39.2912a.2459.2459,0,0,1-.1121-.0274,66.153,66.153,0,0,1-22.283-18.666.2422.2422,0,0,1,.3877-.29,65.6588,65.6588,0,0,0,22.12,18.5269.2422.2422,0,0,1-.1125.4568Z"/><path class="cls-1" d="M117.19,42.1605a.2393.2393,0,0,1-.1194-.0317,70.8654,70.8654,0,0,1-23.7051-21.54.2421.2421,0,0,1,.401-.2715,70.3749,70.3749,0,0,0,23.5434,21.391.2421.2421,0,0,1-.12.4526Z"/><path class="cls-1" d="M122.2292,45.0123a.2405.2405,0,0,1-.14-.045,70.019,70.019,0,0,1-22.4465-25.86.2421.2421,0,1,1,.4346-.2137A69.5333,69.5333,0,0,0,122.37,44.573a.2419.2419,0,0,1-.14.4393Z"/><path class="cls-1" d="M125.4333,48.0083a.2414.2414,0,0,1-.1284-.0369,55.9287,55.9287,0,0,1-18.4458-18.5676.2421.2421,0,0,1,.4166-.2468,55.4365,55.4365,0,0,0,18.2864,18.4039.2422.2422,0,0,1-.1288.4474Z"/><path class="cls-1" d="M130.6418,50.8463a.2394.2394,0,0,1-.1464-.05,61.3418,61.3418,0,0,1-19.2362-23.9525.242.242,0,0,1,.4436-.1938,60.8636,60.8636,0,0,0,19.0858,23.7614.2419.2419,0,0,1-.1468.4345Z"/><path class="cls-1" d="M134.8483,53.7634a.24.24,0,0,1-.1244-.0345A72.028,72.028,0,0,1,110.792,30.75a.2421.2421,0,0,1,.4095-.2582,71.5408,71.5408,0,0,0,23.7716,22.8219.2422.2422,0,0,1-.1248.45Z"/><path class="cls-1" d="M138.8274,56.6989a.2419.2419,0,0,1-.132-.0393,60.0842,60.0842,0,0,1-19.6783-20.5938.2422.2422,0,0,1,.4223-.2373,59.59,59.59,0,0,0,19.52,20.4254.2422.2422,0,0,1-.1324.445Z"/><path class="cls-1" d="M143.564,59.5738a.243.243,0,0,1-.1376-.043,63.6108,63.6108,0,0,1-20.54-22.9893.2419.2419,0,1,1,.4308-.22A63.1288,63.1288,0,0,0,143.702,59.1326a.242.242,0,0,1-.138.4412Z"/><path class="cls-1" d="M146.5448,62.4734a.2426.2426,0,0,1-.1492-.0516,58.6859,58.6859,0,0,1-18.1911-23.4767.2421.2421,0,0,1,.4473-.1854,58.1961,58.1961,0,0,0,18.0427,23.281.2422.2422,0,0,1-.15.4327Z"/><path class="cls-1" d="M144.2749,64.919h-.0059a75.8124,75.8124,0,0,1-24.1553-4.5342.2421.2421,0,0,1,.1659-.4549,75.3242,75.3242,0,0,0,24.0012,4.5049.2421.2421,0,0,1-.0059.4842Z"/><path class="cls-1" d="M144.6664,63.1316a.236.236,0,0,1-.1085-.026A51.2207,51.2207,0,0,1,127.2691,49.17a.2422.2422,0,0,1,.3812-.2989,50.731,50.731,0,0,0,17.1251,13.8022.242.242,0,0,1-.109.4582Z"/><path class="cls-1" d="M141.307,61.2307a.2382.2382,0,0,1-.0721-.0109,61.0514,61.0514,0,0,1-20.7077-11.0435.2422.2422,0,0,1,.3073-.3745,60.5734,60.5734,0,0,0,20.5446,10.9556.2421.2421,0,0,1-.0721.4733Z"/><path class="cls-1" d="M140.3086,59.2579a.2376.2376,0,0,1-.0988-.0212,56.8053,56.8053,0,0,1-19.2261-13.9294.242.242,0,0,1,.3627-.3206A56.3231,56.3231,0,0,0,140.4079,58.795a.2421.2421,0,0,1-.0993.4629Z"/><path class="cls-1" d="M139.003,57.4824a.246.246,0,0,1-.1149-.0289,61.97,61.97,0,0,1-20.8247-17.9751.2422.2422,0,1,1,.3929-.2832A61.47,61.47,0,0,0,139.1184,57.027a.2423.2423,0,0,1-.1154.4554Z"/><path class="cls-1" d="M134.8263,56.5381a.2369.2369,0,0,1-.1017-.0227,63.5178,63.5178,0,0,1-21.4907-16.053.2421.2421,0,0,1,.3679-.3149,63.0361,63.0361,0,0,0,21.3266,15.9291.2419.2419,0,0,1-.1021.4615Z"/><path class="cls-1" d="M131.24,54.6547a.2418.2418,0,0,1-.0953-.0194,50.0526,50.0526,0,0,1-16.9355-11.7447.2419.2419,0,1,1,.3546-.3292A49.5669,49.5669,0,0,0,131.335,54.19a.2422.2422,0,0,1-.0953.4648Z"/><path class="cls-1" d="M129.47,52.6285a.2377.2377,0,0,1-.1168-.03,63.9688,63.9688,0,0,1-21.46-18.9331.2421.2421,0,0,1,.3963-.2781,63.4848,63.4848,0,0,0,21.2981,18.7875.2421.2421,0,0,1-.1173.4539Z"/><path class="cls-1" d="M124.6871,49.5843a.2434.2434,0,0,1-.087-.0161,61.3512,61.3512,0,0,1-20.7113-13.1189.2421.2421,0,0,1,.3386-.3461,60.8556,60.8556,0,0,0,20.5467,13.013.2421.2421,0,0,1-.087.4681Z"/><path class="cls-1" d="M124.4176,48.6953a.2432.2432,0,0,1-.1246-.0345A74.1788,74.1788,0,0,1,99.6551,24.9391a.242.242,0,0,1,.41-.2572,73.6916,73.6916,0,0,0,24.4776,23.5637.2422.2422,0,0,1-.1251.45Z"/><path class="cls-1" d="M121.0577,46.7944a.24.24,0,0,1-.1345-.0411,59.4049,59.4049,0,0,1-19.3393-20.86.2421.2421,0,1,1,.4261-.23,58.9245,58.9245,0,0,0,19.1827,20.6874.2419.2419,0,0,1-.135.443Z"/><path class="cls-1" d="M117.7737,44.8869a.24.24,0,0,1-.1189-.0312A60.9911,60.9911,0,0,1,97.2391,26.3993a.242.242,0,0,1,.4-.2724,60.5009,60.5009,0,0,0,20.254,18.3071.2421.2421,0,0,1-.1194.4529Z"/><path class="cls-1" d="M113.96,43.022a.2418.2418,0,0,1-.07-.01A71.9,71.9,0,0,1,89.54,30.3254a.242.242,0,1,1,.3031-.3774,71.4228,71.4228,0,0,0,24.1868,12.6.2421.2421,0,0,1-.07.4738Z"/><path class="cls-1" d="M111.7361,41.0313a.2418.2418,0,0,1-.1043-.0237A65.4377,65.4377,0,0,1,89.5053,23.9962a.242.242,0,1,1,.3731-.3083,64.95,64.95,0,0,0,21.9624,16.8828.2421.2421,0,0,1-.1047.4606Z"/><path class="cls-1" d="M108.6039,39.1124a.241.241,0,0,1-.0934-.0189A67.59,67.59,0,0,1,85.6426,23.5243a.242.242,0,1,1,.3513-.3329,67.1128,67.1128,0,0,0,22.7034,15.4558.2419.2419,0,0,1-.0934.4652Z"/><path class="cls-1" d="M105.0171,37.23a.2386.2386,0,0,1-.0717-.0108A62.5791,62.5791,0,0,1,83.7282,25.9666a.2423.2423,0,0,1,.3064-.3754,62.0924,62.0924,0,0,0,21.0541,11.165.2421.2421,0,0,1-.0716.4733Z"/><path class="cls-1" d="M141.8243,62.9467l-.0217-.001a88.2092,88.2092,0,0,1-28.4843-7.41.2422.2422,0,0,1,.199-.4416,87.7188,87.7188,0,0,0,28.3283,7.3689.2421.2421,0,0,1-.0213.4833Z"/><path class="cls-1" d="M139.58,61.48a.2446.2446,0,0,1-.0407-.0033,73.2762,73.2762,0,0,1-24.1087-8.5336.2422.2422,0,1,1,.24-.4209,72.7874,72.7874,0,0,0,23.95,8.4769.2421.2421,0,0,1-.04.4809Z"/><path class="cls-1" d="M136.1907,59.0589a.2443.2443,0,0,1-.0406-.0033,73.2775,73.2775,0,0,1-24.1088-8.5336.2422.2422,0,1,1,.24-.4209,72.7874,72.7874,0,0,0,23.95,8.4769.2421.2421,0,0,1-.04.4809Z"/><path class="cls-1" d="M133.2855,57.1221a.2454.2454,0,0,1-.0407-.0033,73.2757,73.2757,0,0,1-24.1087-8.5337.2421.2421,0,1,1,.24-.4208,72.7911,72.7911,0,0,0,23.95,8.4769.2421.2421,0,0,1-.04.4809Z"/><path class="cls-1" d="M130.8645,55.67a.2345.2345,0,0,1-.0407-.0034,73.2716,73.2716,0,0,1-24.1087-8.5336.2421.2421,0,1,1,.24-.4208,72.7911,72.7911,0,0,0,23.95,8.4769.2421.2421,0,0,1-.04.4809Z"/><path class="cls-1" d="M127.071,53.2806l-.0208-.001a72.5894,72.5894,0,0,1-23.4148-5.9745.2422.2422,0,0,1,.1967-.4426,72.1026,72.1026,0,0,0,23.2593,5.9348.2421.2421,0,0,1-.02.4833Z"/><path class="cls-1" d="M121.6646,49.3748a.234.234,0,0,1-.0406-.0033,73.2753,73.2753,0,0,1-24.1088-8.5336.2422.2422,0,1,1,.24-.4208,72.79,72.79,0,0,0,23.95,8.4768.2421.2421,0,0,1-.04.4809Z"/><path class="cls-1" d="M118.7594,47.438a.2351.2351,0,0,1-.0407-.0033A73.2778,73.2778,0,0,1,94.61,38.9011a.2422.2422,0,1,1,.24-.4209,72.7874,72.7874,0,0,0,23.95,8.4769.2421.2421,0,0,1-.04.4809Z"/><path class="cls-1" d="M117.4884,55.7645a75.7844,75.7844,0,0,1-13.313-1.1793.2421.2421,0,1,1,.0851-.4766,75.3271,75.3271,0,0,0,23.6087.4539.2421.2421,0,0,1,.0667.48A76.0173,76.0173,0,0,1,117.4884,55.7645Z"/><path class="cls-1" d="M112.7906,47.9544a96.4393,96.4393,0,0,1-24.1277-3.0571.2422.2422,0,1,1,.1211-.469,96.1875,96.1875,0,0,0,30.2818,2.84.24.24,0,0,1,.2573.226.2423.2423,0,0,1-.2261.2572Q115.94,47.9546,112.7906,47.9544Z"/><path class="cls-1" d="M123.7982,51.0974a.2421.2421,0,0,1-.2046-.3716,47.2466,47.2466,0,0,0,7.4979-27.3575.2421.2421,0,1,1,.4837-.0208,47.7321,47.7321,0,0,1-7.5721,27.6374A.2419.2419,0,0,1,123.7982,51.0974Z"/><path class="cls-1" d="M122.77,49.7162a.2422.2422,0,0,1-.2036-.3731,37.4911,37.4911,0,0,0,6.1037-21.6189.2423.2423,0,0,1,.2333-.2506.2513.2513,0,0,1,.25.2336,37.9757,37.9757,0,0,1-6.18,21.8979A.2421.2421,0,0,1,122.77,49.7162Z"/><path class="cls-1" d="M120.3033,48.222a.2388.2388,0,0,1-.131-.0388.2423.2423,0,0,1-.0723-.3348,43.358,43.358,0,0,0,7.1178-24.9667.242.242,0,1,1,.4838-.0161,43.8466,43.8466,0,0,1-7.1945,25.2457A.2431.2431,0,0,1,120.3033,48.222Z"/><path class="cls-1" d="M120.1307,42.4413a.2415.2415,0,0,1-.2137-.1281,38.0645,38.0645,0,0,1-4.3184-22.86.2422.2422,0,1,1,.48.0615,37.5826,37.5826,0,0,0,4.265,22.57.2421.2421,0,0,1-.1.3277A.24.24,0,0,1,120.1307,42.4413Z"/><path class="cls-1" d="M118.724,40.9471a.242.242,0,0,1-.2024-.1087,45.7761,45.7761,0,0,1-7.7669-26.2014.2531.2531,0,0,1,.2473-.2369.2422.2422,0,0,1,.2369.2473,45.2911,45.2911,0,0,0,7.687,25.9243.242.242,0,0,1-.2019.3754Z"/><path class="cls-1" d="M116.7115,39.5a.2412.2412,0,0,1-.1894-.0913,48.1874,48.1874,0,0,1-10.6085-25.7133.2421.2421,0,1,1,.4823-.0435A47.7078,47.7078,0,0,0,116.9,39.1072a.2421.2421,0,0,1-.1889.393Z"/><path class="cls-1" d="M125.2872,51.7358a.242.242,0,0,1-.0991-.463,62.1945,62.1945,0,0,0,21.0491-15.188.242.242,0,1,1,.3618.3215,62.6668,62.6668,0,0,1-21.2132,15.3082A.2366.2366,0,0,1,125.2872,51.7358Z"/></g></svg>