<svg xmlns="http://www.w3.org/2000/svg" width="110" height="110" viewBox="0 0 110 110"><defs><style>.cls-1{fill:#54381d;}.cls-2{fill:#d6bb84;}.cls-3{fill:#010101;opacity:0.1;}.cls-4{fill:#a8ad8b;}.cls-5{fill:#0f0e0f;}</style></defs><g id="Assets"><path class="cls-1" d="M110,56.1939a54.3215,54.3215,0,0,1-1.7758,13.8175c-1.1873,4.52-3.3572,6.07-5.6009,10.0481-3.0619,5.4292-7.8291,11.9473-11.29,17.0809-3.6239,5.3752-9.1934,9.3226-18.77,10.6407C67.0511,108.54,61.8649,110,56,110a57.5972,57.5972,0,0,1-9.761-.3988,53.9247,53.9247,0,0,1-20.303-8.0952,54.54,54.54,0,0,1-14.33-13.8024c-.3274-.4579,1.9432-3.27,1.63-3.7388-.3769-.5633-3.3345,1.2151-3.69.6371a53.969,53.969,0,0,1-5.6244-12.4c-1.5607-5.06.26-11.1124-2.401-16.0082-3.229-5.9407-.8254-11.5822,2.671-16.8585,1.8219-2.7494,2.3265-6.1447,3.8775-8.9993,4.0467-7.4478,10.7184-12.7254,16.7042-18.6651,1.0469-1.0389,2.383,2.2618,2.7826,1.9986.4751-.313-.53-3.2925-.1542-3.7206C36.0808.06,45.729-2.1448,55.76,1.9537c6.9327,2.8327,14.6236,1.5178,21.1128,4.2625a54.1958,54.1958,0,0,1,12.1109,7.1c3.9984,3.1027,9.3006,9.0314,9.3006,11.6349,0,2.3389,3.8926,3.0667,5.0266,5.1272a53.8673,53.8673,0,0,1,5.979,17.3149A54.6243,54.6243,0,0,1,110,56.1939Z"/><path class="cls-2" d="M106.7573,56.1363a51.1231,51.1231,0,0,1-1.6711,13.0029c-1.1173,4.2538-3.1593,5.712-5.2706,9.4557C96.9342,83.704,92.448,89.8378,89.191,94.6687c-3.41,5.0582-8.6513,8.7729-17.6637,10.0134-5.1867.7138-10.2931,2.4964-15.8123,2.4964a51.3606,51.3606,0,0,1-8.9594-.7837A50.745,50.745,0,0,1,27.65,98.7769,51.3241,51.3241,0,0,1,14.1642,85.7883c-.3081-.431,1.8286-3.0776,1.5337-3.5184-.3546-.53-4.198,1.261-5.9337-2.21-1.8991-3.7981-1.5553-4.72-2.832-8.8588-1.4687-4.7616.2448-10.4573-2.2594-15.0644-3.0387-5.59-.7767-10.8993,2.5135-15.8646,1.7145-2.5873,2.1893-5.7823,3.6489-8.4687,3.8081-7.0087,6.5845-12.4149,13.6823-15.9638,1.7357-.8678,4.28.5277,4.6556.28.4471-.2946-.4987-3.0984-.1451-3.5013C37.1963,3.3115,46.2756,1.2371,55.715,5.094,62.2389,7.76,69.4764,6.5223,75.583,9.1052A50.9994,50.9994,0,0,1,86.98,15.787c3.7627,2.92,8.7523,8.4989,8.7523,10.9489,0,2.201,3.6631,2.8859,4.73,4.8249a50.6905,50.6905,0,0,1,5.6265,16.294A51.3986,51.3986,0,0,1,106.7573,56.1363Z"/><path class="cls-3" d="M89.0365,55.8215a33.6183,33.6183,0,0,1-1.099,8.551c-.7347,2.7973-2.0776,3.7562-3.466,6.2182-1.8949,3.36-4.8451,7.3935-6.9869,10.57-2.2426,3.3264-5.6893,5.7692-11.616,6.5849-3.4109.47-6.7689,1.6418-10.3984,1.6418a33.7735,33.7735,0,0,1-5.8919-.5154,33.37,33.37,0,0,1-12.5644-5.01,33.753,33.753,0,0,1-8.8682-8.5415,14.1583,14.1583,0,0,1-2.8935-3.7673c-1.2489-2.4977-1.0228-3.1039-1.8624-5.8258-.9658-3.1313.161-6.8768-1.4858-9.9066-1.9983-3.6763-.5108-7.1675,1.6529-10.4328,1.1275-1.7014,1.44-3.8025,2.4-5.5691,2.5043-4.6091,4.33-8.1643,8.9977-10.4981A15.3419,15.3419,0,0,0,37.92,27.2031c5.3716-6.12,11.3423-7.4842,17.55-4.9478,4.29,1.753,9.05.9393,13.0655,2.6378a33.5386,33.5386,0,0,1,7.4948,4.3941c2.4744,1.92,5.7557,5.589,5.7557,7.2,0,1.4474,2.4089,1.8978,3.1107,3.1729a33.3367,33.3367,0,0,1,3.7,10.7152A33.8032,33.8032,0,0,1,89.0365,55.8215Z"/><path class="cls-3" d="M74.6344,55.5657a19.392,19.392,0,0,1-.6339,4.9328c-.4238,1.6137-1.1985,2.1668-1.9994,3.587-1.0931,1.9382-2.795,4.2651-4.03,6.0977-1.2937,1.9189-3.282,3.3281-6.7009,3.7987-1.9676.2708-3.9047.947-5.9984.947a19.4817,19.4817,0,0,1-3.3989-.2973,19.2491,19.2491,0,0,1-7.248-2.89,19.4708,19.4708,0,0,1-5.1157-4.9273A8.1674,8.1674,0,0,1,37.84,64.6412a15.75,15.75,0,0,1-1.0743-3.3607c-.5572-1.8063.0929-3.967-.8571-5.7148-1.1528-2.1207-.2947-4.1347.9535-6.0183.65-.9815.8305-2.1935,1.3842-3.2126,1.4446-2.6588,2.4979-4.71,5.1905-6.056a8.8545,8.8545,0,0,0,1.7111-1.222c3.0986-3.5305,6.543-4.3174,10.1239-2.8542,2.4748,1.0112,5.22.5418,7.537,1.5216a19.3466,19.3466,0,0,1,4.3235,2.5348c1.4274,1.1076,3.32,3.2241,3.32,4.1535,0,.835,1.39,1.0948,1.7945,1.83a19.2328,19.2328,0,0,1,2.1344,6.1812A19.5034,19.5034,0,0,1,74.6344,55.5657Z"/><path class="cls-3" d="M64.22,55.3808a9.1053,9.1053,0,0,1-.2977,2.3164,6.27,6.27,0,0,1-.9389,1.6845c-.5133.91-1.3125,2.0029-1.8927,2.8635a4.1828,4.1828,0,0,1-3.1467,1.7838,20.1225,20.1225,0,0,1-2.8169.4447,9.144,9.144,0,0,1-1.5961-.14,9.0385,9.0385,0,0,1-3.4037-1.3571,9.1441,9.1441,0,0,1-2.4023-2.3138,3.8359,3.8359,0,0,1-.7839-1.0206,7.399,7.399,0,0,1-.5045-1.5782c-.2616-.8482.0436-1.8629-.4025-2.6836a2.6247,2.6247,0,0,1,.4478-2.8262c.3054-.4609.39-1.03.65-1.5087A5.6838,5.6838,0,0,1,49.57,48.202a4.16,4.16,0,0,0,.8035-.5738,3.9316,3.9316,0,0,1,4.7542-1.34c1.1622.4749,2.4515.2545,3.5394.7146a9.0923,9.0923,0,0,1,2.03,1.19c.67.52,1.5592,1.5141,1.5592,1.95,0,.3921.6525.5141.8426.86a9.0292,9.0292,0,0,1,1.0024,2.9027A9.1615,9.1615,0,0,1,64.22,55.3808Z"/><path class="cls-3" d="M79.1793,79.3963q.0048.3024.0109.6049l.7924.9914A15.3028,15.3028,0,0,0,82.62,83.5789l3.1886,2.447Z"/><path class="cls-3" d="M58.1379,58.3549l3.71,3.71A15.3,15.3,0,0,1,63.76,64.3976a15.3054,15.3054,0,0,0,3.2035,3.4854L70.1258,70.4l.0068-.05Z"/><path class="cls-3" d="M72.2714,55.7243a4.3512,4.3512,0,0,1,.3893-.5073H64.6845a15.31,15.31,0,0,1,3.0016.2972A15.2984,15.2984,0,0,0,72.2714,55.7243Z"/><path class="cls-3" d="M85.8664,55.217l5.0251.5608a15.3092,15.3092,0,0,0,3.6939-.0364l3.985-.5244Z"/><path class="cls-3" d="M80.6876,54.8918l-1.0374.0865c.0893.0783.1751.1584.2611.2387h5.9551l-1.9449-.2516A15.31,15.31,0,0,0,80.6876,54.8918Z"/><path class="cls-3" d="M76.8258,33.3912l3.95-3.1568a15.3028,15.3028,0,0,0,2.5863-2.6377l2.447-3.1886Z"/><path class="cls-3" d="M64.1806,46.4568h0a15.3075,15.3075,0,0,0,3.4854-3.2035l2.7385-3.4407L61.848,48.369A15.3,15.3,0,0,1,64.1806,46.4568Z"/><path class="cls-3" d="M72.934,36.8232l-2.5295,2.9894,6.4213-6.4214-1.5531,1.1973A15.3051,15.3051,0,0,0,72.934,36.8232Z"/><path class="cls-3" d="M55,47.8044V45.5325a15.31,15.31,0,0,1,.2972-3.0016,15.3047,15.3047,0,0,0,.1994-4.73l-.8217-8.2718c-.09-1.0775-1.3016-23.4534-1.3016-23.4534l1.36,41.0975Z"/><path class="cls-3" d="M33.1741,33.3912h0l1.1973,1.5531a15.31,15.31,0,0,0,2.2347,2.3388l2.9893,2.53h0Z"/><path class="cls-3" d="M27.38,26.8551l-3.1886-2.447,8.983,8.9831-3.1567-3.95A15.3028,15.3028,0,0,0,27.38,26.8551Z"/><path class="cls-3" d="M44.8907,44.3069a15.2934,15.2934,0,0,0-1.8544-1.7559l-3.4407-2.7384,4.9852,4.9852A5.67,5.67,0,0,1,44.8907,44.3069Z"/><path class="cls-3" d="M26.6381,82.8373l-2.447,3.1886,8.9831-8.9831L29.2244,80.2A15.31,15.31,0,0,0,26.6381,82.8373Z"/><path class="cls-3" d="M42.334,67.1807l-.9088,1.1419.0556.4136L48.152,62.065a15.2955,15.2955,0,0,1-2.3326,1.9122A15.3054,15.3054,0,0,0,42.334,67.1807Z"/><path class="cls-3" d="M35.8971,74.32l-2.7229,2.7229,1.5531-1.1973a15.3071,15.3071,0,0,0,1.627-1.4568A3.61,3.61,0,0,1,35.8971,74.32Z"/><path class="cls-3" d="M54.7028,67.9031a15.3047,15.3047,0,0,0-.1994,4.73L55,77.0022V64.9015A15.31,15.31,0,0,1,54.7028,67.9031Z"/><path class="cls-3" d="M54.4756,94.8024,55,98.7874V86.0834l-.5608,5.0251A15.3091,15.3091,0,0,0,54.4756,94.8024Z"/><path class="cls-3" d="M55,77.0022v9.0812l.2516-1.9449a15.31,15.31,0,0,0,.0736-3.2339Z"/><path class="cls-4" d="M39.41,74.6826a3.9218,3.9218,0,0,1-3.91-3.915v-31.17a3.923,3.923,0,0,1,3.9131-3.9151,3.8745,3.8745,0,0,1,1.7773.4356L72.3721,52.0674a3.9078,3.9078,0,0,1-.0664,6.9912L41.125,74.2793A3.88,3.88,0,0,1,39.41,74.6826Z"/><path class="cls-5" d="M39.4132,37.1824a2.387,2.387,0,0,1,1.0945.2716l31.1807,15.95a2.4071,2.4071,0,0,1-.04,4.307L40.4674,72.9312A2.3987,2.3987,0,0,1,37,70.7676v-31.17a2.42,2.42,0,0,1,2.4132-2.415m0-3A5.4162,5.4162,0,0,0,34,39.5974v31.17a5.3986,5.3986,0,0,0,7.7834,4.8595L72.964,60.4065a5.4071,5.4071,0,0,0,.0906-9.6737l-31.1807-15.95a5.38,5.38,0,0,0-2.4611-.6007Z"/></g></svg>