<svg xmlns="http://www.w3.org/2000/svg" width="220" height="110" viewBox="0 0 220 110"><defs><style>.cls-1{fill:#54381d;}.cls-2{fill:#d6bb84;}.cls-3,.cls-5{opacity:0.1;}.cls-4,.cls-5{fill:#010101;}</style></defs><g id="Assets"><path class="cls-1" d="M189.1571,107.78l-9.4164,1.7839a24.6961,24.6961,0,0,1-4.5977.4317H138.1791a17.4543,17.4543,0,0,1-4.0374-.4734l-6.4887-1.5431a24.2506,24.2506,0,0,0-8.6-.4729l-19.9462,2.4777a1.5307,1.5307,0,0,1-.189.0117H40.1866a1.5165,1.5165,0,0,1-1.05-.4225l-.543-.5213a1.5107,1.5107,0,0,0-2.2963.2414l-.0169.0249A1.5417,1.5417,0,0,1,34.998,110c-2.1589-.0048-7.8546-.0048-7.8546-.0048a26.9231,26.9231,0,0,1-17.2189-6.2235A27.3071,27.3071,0,0,1,2.2124,93.4381,26.8138,26.8138,0,0,1,.0779,83.1846a1.5766,1.5766,0,0,1,.0774-.4989l.8742-2.7A11.878,11.878,0,0,0,.98,72.5207h0A11.8763,11.8763,0,0,1,.4692,67.06l.0047-.0334A21.71,21.71,0,0,0,.381,60.3809h0a21.7151,21.7151,0,0,1-.3043-3.6225V36.6627q0-.0752.0074-.15l.5177-5.2679a47.1143,47.1143,0,0,0,.1894-6.8893A14.5269,14.5269,0,0,1,1.0794,19.87,27.2771,27.2771,0,0,1,16.6339,2.2257,26.8177,26.8177,0,0,1,27.1434.09H84.1717a1.5322,1.5322,0,0,1,.6969.1676L86.8334,1.26a5.1725,5.1725,0,0,0,4.0154.29L94.9061.1715A1.5325,1.5325,0,0,1,95.3994.09h68.51a26.5934,26.5934,0,0,1,6.6693.85l3.3543.869a16.3645,16.3645,0,0,0,6.8353.2935L192.518.1135A1.63,1.63,0,0,1,192.7986.09a27.1342,27.1342,0,0,1,26.9252,27.0663V39.248a20.1135,20.1135,0,0,1-.8663,5.8394l-.61,2.0125a36.0363,36.0363,0,0,0-1.5521,10.462v9.96a4.9613,4.9613,0,0,0,1.0184,3.0112h0a9.7943,9.7943,0,0,1,2.0105,5.9449v6.4509A27.2148,27.2148,0,0,1,203.1667,107.86c-2.4467,1.0394-5.9278.2434-9.0891-.2064A15.047,15.047,0,0,0,189.1571,107.78Z"/><path class="cls-2" d="M186.8828,105.0807l-8.9345,1.6926a23.4315,23.4315,0,0,1-4.3623.41H136.6806a16.5553,16.5553,0,0,1-3.8307-.4492l-6.1567-1.464a23.0086,23.0086,0,0,0-8.16-.4488L99.608,107.1718a1.453,1.453,0,0,1-.1793.0111H41.1071a1.4384,1.4384,0,0,1-.9964-.4009l-.5153-.4946a1.4334,1.4334,0,0,0-2.1787.229l-.0161.0236a1.4628,1.4628,0,0,1-1.2166.6475c-2.0483-.0046-7.4526-.0046-7.4526-.0046a25.5451,25.5451,0,0,1-16.3376-5.905,25.909,25.909,0,0,1-7.3174-9.8048,25.4411,25.4411,0,0,1-2.0253-9.7287,1.4953,1.4953,0,0,1,.0735-.4734l.8294-2.5622a11.27,11.27,0,0,0-.0469-7.0825h0a11.27,11.27,0,0,1-.4848-5.1812l.0045-.0317a20.6016,20.6016,0,0,0-.0881-6.3056h0A20.6069,20.6069,0,0,1,3.05,56.6707V37.6035q0-.0712.007-.1423l.4912-4.9982a44.7018,44.7018,0,0,0,.18-6.5368A13.7832,13.7832,0,0,1,4.0014,21.67,25.8809,25.8809,0,0,1,18.76,4.9289a25.446,25.446,0,0,1,9.9716-2.0264h54.11a1.4541,1.4541,0,0,1,.6612.1589l1.8642.9514a4.908,4.908,0,0,0,3.81.2753L95.6223,2.98a1.4548,1.4548,0,0,1,.468-.0773h66.837a25.23,25.23,0,0,1,6.3281.8064l3.1826.8245a15.5271,15.5271,0,0,0,6.4855.2784l11.1482-1.887a1.5528,1.5528,0,0,1,.2663-.022,25.7457,25.7457,0,0,1,25.5472,25.6811V40.0565a19.0841,19.0841,0,0,1-.822,5.5405l-.5793,1.91a34.192,34.192,0,0,0-1.4726,9.9265v9.45a4.7072,4.7072,0,0,0,.9662,2.857v0a9.2924,9.2924,0,0,1,1.9077,5.6406v6.1207a25.8225,25.8225,0,0,1-15.71,23.655c-2.3215.9863-5.6244.2309-8.6239-.1958A14.2785,14.2785,0,0,0,186.8828,105.0807Z"/><g class="cls-3"><path class="cls-4" d="M202.8486,44.2251c-2.74-.1482-5.4832-.1518-8.2266-.1448-1.3712-.0023-2.7461-.0019-4.117-.1358a8.5737,8.5737,0,0,1-6.9411-3.9742,12.1386,12.1386,0,0,1-1.9038-3.6745,20.229,20.229,0,0,1-.6376-4.0822,5.902,5.902,0,0,0-1.5654-3.5992,13.3123,13.3123,0,0,0-3.2251-2.4309c-.2929-.1793-.5873-.3466-.8829-.4945l-.442-.2326a4.4882,4.4882,0,0,0-.4681-.1641,4.2217,4.2217,0,0,0-.9588-.2468,5.0168,5.0168,0,0,0-.9876-.1047,9.7445,9.7445,0,0,0-3.9183.7264,16.8411,16.8411,0,0,0-3.5619,1.9032,27.0986,27.0986,0,0,0-5.8689,5.5882,32.0134,32.0134,0,0,0-4.21,6.9454c-.287.62-.5659,1.2524-.9083,1.8768a5.1108,5.1108,0,0,1-1.4016,1.7081,4.9815,4.9815,0,0,1-2.0557.83,13.3645,13.3645,0,0,1-2.1146.2013c-2.7923.0321-7.5246-.2653-10.2613-.5229-5.4645-.5484-10.9121-1.2458-16.3622-1.78a219.8242,219.8242,0,0,0-32.8008-.4455c-10.9434.5512-21.8591,1.5842-32.8068,2.4454-5.4748.4186-10.9566.8366-16.4749.9139a78.75,78.75,0,0,1-8.3-.2574c-2.7493-.245-5.4441-.5626-8.1812-.7577a80,80,0,0,1-8.2733-.87,9.6808,9.6808,0,0,1-4.03-1.7491,15.4744,15.4744,0,0,1-2.9546-3.1271A11.3534,11.3534,0,0,1,5.9719,34.71a9.767,9.767,0,0,1-.165-4.4031,30.2853,30.2853,0,0,1,1.1442-4.0536A9.44,9.44,0,0,0,7.6,22.5259l-.0444-.4388-.08-.5523a8.55,8.55,0,0,1-.0806-1.1318,5.891,5.891,0,0,1,.5-2.3084,7.0956,7.0956,0,0,1,3.3011-3.092,31.797,31.797,0,0,1,3.891-1.646,22.3555,22.3555,0,0,1,4.1205-1.0342,77.96,77.96,0,0,1,8.29-.6483l8.2206-.3278c5.4635-.2293,10.9093-.6937,16.373-1.2149A110.4623,110.4623,0,0,1,68.63,9.438c1.3879.05,2.7676.2164,4.1494.3479,1.3721.2061,2.7531.3635,4.11.6473,1.3676.2349,2.7157.55,4.0628.8693l3.9886.9354a63.6191,63.6191,0,0,0,8.03,1.2327,48.7078,48.7078,0,0,0,8.1038-.0441c2.7078-.2211,5.4242-.5819,8.1563-.8925s5.4754-.58,8.224-.7726c2.7529-.1835,5.4974-.3068,8.2375-.4206q4.1135-.18,8.2336-.302c5.4929-.1674,13.0017-.1709,18.4948-.0029,5.4866.1484,10.99.49,16.44.655a101.9859,101.9859,0,0,0,16.32-1.06,48.91,48.91,0,0,1,8.2916-.659,9.4327,9.4327,0,0,1,4.166,1.0828,5.8869,5.8869,0,0,1,.9166.5985l.4453.32.3922.2975a10.4244,10.4244,0,0,0,1.6455,1.0654,15.134,15.134,0,0,0,3.7888,1.2268,8.44,8.44,0,0,1,2.0586.6855,4.7542,4.7542,0,0,1,.9546.65,4.7808,4.7808,0,0,1,.7087.9045,10.5993,10.5993,0,0,1,1.1727,4.1239c.148,1.3724.2768,2.74.3776,4.1135.4164,5.4921.47,10.99.5388,16.4742l.0953,8.226c.0643,2.7234.3132,5.4581.5181,8.1933a114.2891,114.2891,0,0,1,.4106,16.4721,43.59,43.59,0,0,1-1.2627,8.151,22.798,22.798,0,0,1-3.3539,7.51,16.6045,16.6045,0,0,1-6.1866,5.347,22.1984,22.1984,0,0,1-7.93,2.0561,22.15,22.15,0,0,0,7.8863-2.1427,16.4576,16.4576,0,0,0,6.0711-5.3712,22.5591,22.5591,0,0,0,3.2316-7.4723,43.2647,43.2647,0,0,0,1.1571-8.1018,113.8511,113.8511,0,0,0-.6031-16.4c-.2368-2.7323-.5188-5.4624-.6169-8.2243l-.1923-8.23c-.12-5.4843-.2-10.9674-.6525-16.4166-.1089-1.3616-.2466-2.7248-.4016-4.0785a9.7958,9.7958,0,0,0-1.0619-3.727c-.6007-1.1074-1.8157-1.5084-3.1406-1.7937a16.0684,16.0684,0,0,1-4.0219-1.2831,11.4283,11.4283,0,0,1-1.81-1.1533l-.4286-.3223-.394-.2752a4.9518,4.9518,0,0,0-.8042-.5192,8.4057,8.4057,0,0,0-3.7339-.9321,48.2046,48.2046,0,0,0-8.0862.7055,103.1816,103.1816,0,0,1-16.4862,1.178c-5.5186-.13-10.9718-.4343-16.4555-.5462-5.4752-.1432-12.9438-.1366-18.4183.0448q-4.1058.1308-8.2136.3194c-2.7412.12-5.4777.249-8.1986.4364-2.7242.1972-5.4417.47-8.16.7847s-5.4416.6833-8.2022.9152a50.1827,50.1827,0,0,1-8.3353.0625,65.0664,65.0664,0,0,1-8.2283-1.2435l-4.0255-.9345c-1.3231-.3105-2.6468-.6172-3.9847-.8436-1.33-.2758-2.6779-.4249-4.0186-.6243-1.349-.1245-2.695-.2854-4.05-.33a109.05,109.05,0,0,0-16.3148.7249c-5.4576.531-10.9476,1.0171-16.4482,1.2525l-8.226.31a76.7566,76.7566,0,0,0-8.112.6127,20.777,20.777,0,0,0-3.8512.9569,30.4784,30.4784,0,0,0-3.6866,1.5467,5.631,5.631,0,0,0-2.64,2.3851A4.3762,4.3762,0,0,0,8.91,20.4215a7.0506,7.0506,0,0,0,.0658.9181l.0654.466.0637.5841a10.8135,10.8135,0,0,1-.7241,4.3237,29.1381,29.1381,0,0,0-1.1038,3.8539,8.2666,8.2666,0,0,0,.1237,3.7417,9.885,9.885,0,0,0,1.7829,3.3688,14.0965,14.0965,0,0,0,2.6631,2.8487A8.2026,8.2026,0,0,0,15.2986,42.02a79.765,79.765,0,0,0,8.0837.86c2.7358.2007,5.4913.53,8.2052.7779a77.46,77.46,0,0,0,8.1412.2685c5.4561-.0641,10.9243-.468,16.3889-.8742,10.9292-.8541,21.8743-1.82,32.8551-2.2936a220.88,220.88,0,0,1,32.9614.6662c5.4662.5723,10.9,1.3044,16.35,1.8875,2.72.2753,7.4544.5869,10.1524.5725a6.7568,6.7568,0,0,0,3.71-.8479,8.5538,8.5538,0,0,0,2.0891-3.2608,32.7558,32.7558,0,0,1,4.3816-7.04,27.712,27.712,0,0,1,6.0716-5.6455,17.3892,17.3892,0,0,1,3.7-1.9205,10.2429,10.2429,0,0,1,4.1238-.711,5.4607,5.4607,0,0,1,1.0521.1239,4.6436,4.6436,0,0,1,1.0244.2767,4.8909,4.8909,0,0,1,.4986.1825l.4661.2508c.316.1633.6152.339.9055.5212a13.6833,13.6833,0,0,1,3.2844,2.5428,6.275,6.275,0,0,1,1.613,3.8163,20,20,0,0,0,.5795,4.039A11.88,11.88,0,0,0,183.76,39.83a8.3846,8.3846,0,0,0,6.7606,3.9707c1.3587.1489,2.7321.165,4.1027.1833C197.3652,44.0091,200.1108,44.0448,202.8486,44.2251Z"/><path class="cls-4" d="M77.6539,91.6823l-10.3453.1233-5.1721.0473a22.3415,22.3415,0,0,0-5.066.7462,10.4225,10.4225,0,0,1-2.6182.3164,3.0378,3.0378,0,0,1-1.3379-.3463,1.7782,1.7782,0,0,0-.5439-.2176,5.1184,5.1184,0,0,0-.6081-.11,48.6943,48.6943,0,0,0-5.1287-.2441c-3.44-.0284-6.8858.0445-10.3294.1377s-6.8882.2045-10.3312.3429l-5.1622.2255a21.6541,21.6541,0,0,1-5.2631-.2092,14.9457,14.9457,0,0,1-9.0672-5.258A16.8134,16.8134,0,0,1,5.14,85.054,7.24,7.24,0,0,1,4.104,82.4508a3.9236,3.9236,0,0,1,.1316-1.51A11.7,11.7,0,0,1,4.72,79.6661a11.6776,11.6776,0,0,0,.7638-2.3444,13.4964,13.4964,0,0,0,.2655-2.4589c.0256-.8518.0293-1.7006-.0086-2.535a9.988,9.988,0,0,0-.3667-2.3957c-.2288-.7487-.6115-1.5583-.878-2.4195a21.5177,21.5177,0,0,1-.6435-2.5921,18.0623,18.0623,0,0,1-.267-2.663l-.1187-5.1789c-.0434-1.7206-.1141-3.4322-.1846-5.16-.0313-.8669-.0625-1.7334-.0471-2.6263a9.156,9.156,0,0,1,.1111-1.3944,2.9905,2.9905,0,0,1,.2378-.8009,1.586,1.586,0,0,1,.7954-.7927A2.9358,2.9358,0,0,1,6.0753,46.29c.45.098.8655.2092,1.2817.3133.8265.209,1.6422.3916,2.4686.5239a24.485,24.485,0,0,0,5.0089.27c3.4184-.1633,6.86-.4543,10.3026-.6838q5.1648-.3571,10.3375-.6184c6.8951-.355,13.7934-.5856,20.6916-.7614,3.4358-.1082,6.9294-.0764,10.3177-.2374,3.43-.1833,6.8722-.4174,10.31-.645l20.6376-1.4129,10.3289-.6663c1.7192-.1095,3.4871-.1643,5.2049-.1518,1.7292-.021,3.4587.004,5.1882.0353a146.4833,146.4833,0,0,1,20.6856,1.7383c1.7114.2741,5.4168.5952,7.1116.9628l2.5262.57c.45.1168.6951.1192,1.3024.2531a1.9479,1.9479,0,0,1,1.29,1.1339,17.5459,17.5459,0,0,1,.559,2.631,6.1394,6.1394,0,0,0,.9039,2.19,8.8187,8.8187,0,0,0,3.84,2.91,9.7487,9.7487,0,0,0,4.8063.8425,13.8413,13.8413,0,0,0,4.7966-1.3175A21.267,21.267,0,0,0,173.648,47.69c.5245-.6843.95-1.374,1.4983-2.1a5.4472,5.4472,0,0,1,2.0306-1.8181,4.2368,4.2368,0,0,1,2.7257-.2833,17.4435,17.4435,0,0,1,2.5288.7327,23.9991,23.9991,0,0,0,4.93,1.3285c1.67.2085,3.4177.1224,5.1356.1636l20.6855.21-20.6869.21c-1.7262-.0129-3.4381.1076-5.1966-.0783a24.518,24.518,0,0,1-5.0592-1.2668,16.9285,16.9285,0,0,0-2.4434-.6655,3.5682,3.5682,0,0,0-2.32.2682,4.7577,4.7577,0,0,0-1.7373,1.6292c-.4829.6559-.9555,1.443-1.4687,2.1346a21.9715,21.9715,0,0,1-7.9115,6.8177,14.7562,14.7562,0,0,1-5.1072,1.4561,10.7458,10.7458,0,0,1-5.2806-.8691,9.814,9.814,0,0,1-4.3106-3.2321,7.22,7.22,0,0,1-1.0882-2.5471,19.8094,19.8094,0,0,0-.5167-2.4169.801.801,0,0,0-.5835-.5042c-.2318-.0537-.8511-.1226-1.2369-.2226l-2.5245-.5417c-1.6783-.3456-5.3655-.6449-7.0612-.8981-3.39-.5136-6.8056-.87-10.2293-1.1166-3.4228-.2628-6.8567-.3972-10.2916-.4559-1.7178-.0252-3.4357-.044-5.1543-.0171-1.7305-.0057-3.409.0524-5.1309.1674l-10.3119.7013L76.898,45.9613c-3.4417.24-6.8781.4858-10.3334.6826-1.7466.1068-3.4784.1154-5.1946.1555l-5.1666.1159c-6.8886.1517-13.7753.3581-20.6542.6883q-5.16.2429-10.3136.5812c-3.4384.2171-6.87.496-10.34.65A25.9225,25.9225,0,0,1,9.596,48.53c-.8756-.1432-1.743-.3411-2.5868-.5577-.4194-.1068-.8366-.2189-1.2286-.3056a2.0775,2.0775,0,0,0-.8516-.0708c-.02.0039-.0281.0181-.084.112a1.6879,1.6879,0,0,0-.1218.436,7.9344,7.9344,0,0,0-.0942,1.18c-.0173.8308.01,1.6881.0377,2.5437.064,1.7172.13,3.4507.1672,5.1769l.1,5.1617a16.7,16.7,0,0,0,.2382,2.479,22.23,22.23,0,0,0,.5834,2.4283c.2323.79.5882,1.5478.859,2.45A11.244,11.244,0,0,1,7.0066,72.27c.0311.8881.0172,1.7644-.0178,2.6351a14.7414,14.7414,0,0,1-.319,2.6715,12.8952,12.8952,0,0,1-.8589,2.5549,4.2215,4.2215,0,0,0-.5561,2.1812,6.2215,6.2215,0,0,0,.8631,2.17,15.6831,15.6831,0,0,0,1.4166,2.0524,13.8824,13.8824,0,0,0,8.3936,4.9792,20.6764,20.6764,0,0,0,5.0409.2479l5.1733-.1718c3.4483-.099,6.8969-.185,10.347-.2272,3.45-.0341,6.9012-.0481,10.3554.04a48.9872,48.9872,0,0,1,5.1922.3381,5.5922,5.5922,0,0,1,.6609.1318,2.5148,2.5148,0,0,1,.6472.27,2.5668,2.5668,0,0,0,1.1369.311,10.0535,10.0535,0,0,0,2.505-.2646,22.662,22.662,0,0,1,5.1552-.666l5.1709.0439Z"/></g><g class="cls-3"><path class="cls-4" d="M173.6121,29.2291c-3.7141-2.4029-10.0148.7108-14.0454,6.9408s-4.2882,13.2533-.5741,15.6562,10.0148-.7108,14.0454-6.9408S177.3262,31.632,173.6121,29.2291Z"/></g><g class="cls-3"><path class="cls-4" d="M172.6477,32.734c-2.3927-2.2982-7.2153-.6074-10.75,3.7689s-4.4649,9.8062-2.0722,12.1043,7.2152.6074,10.7505-3.7689S175.04,35.0321,172.6477,32.734Z"/></g><g class="cls-3"><path class="cls-4" d="M169.761,36.7675c-1.45-1.3965-4.3773-.3751-6.5255,2.2769s-2.7165,5.9456-1.2666,7.3422,4.3773.375,6.5255-2.277S171.2109,38.164,169.761,36.7675Z"/></g><path class="cls-5" d="M22.577,95.7162a73.0613,73.0613,0,0,1,9.6231.6476c3.1953.4263,6.3444,1.1089,9.5073,1.5532a75.2789,75.2789,0,0,0,19.0875.3209c6.3214-.7461,12.6256-2.1559,19.0633-2.8148q2.411-.2511,4.8293-.4176c.8062-.057,1.62-.0682,2.43-.1044.8121-.039,1.62-.0545,2.4252-.0516,3.2277-.0367,6.4442.0165,9.66.0854,6.43.1816,12.85.4769,19.2688.7835,6.4181.32,12.8356.62,19.2469,1.0368l21.2341,1.2011q9.6133.669,19.2325,1.2215c-6.4269-.01-12.8491-.2627-19.2714-.4457l-21.2567-.76c-12.8348-.5077-25.6663-1.174-38.4943-1.4554a140.4621,140.4621,0,0,0-19.155.3376c-3.177.3158-6.3377.7834-9.5062,1.29-3.1654.5146-6.3572,1.0186-9.5836,1.3a71.5655,71.5655,0,0,1-9.699.2327,74.7748,74.7748,0,0,1-9.6332-.998c-3.1813-.5676-6.2923-1.3635-9.449-1.903A86.19,86.19,0,0,0,22.577,95.7162Z"/><path class="cls-5" d="M44.6446,87.4949l2.8038-.1815,2.8109.0057c1.8709.06,3.7477.1094,5.615.2393,3.74.2336,7.465.5959,11.1871.9766,7.4432.7624,14.8581,1.7088,22.2792,2.49,3.7076.4287,7.4188.7522,11.1278,1.0194,1.8516.0889,3.7082.219,5.5491.1874.46-.0054.9261.0189,1.3806-.0107l1.3616-.0988c.8914-.05,1.8591-.1424,2.807-.2239A39.7007,39.7007,0,0,1,133.26,97.2182,46.949,46.949,0,0,0,122.6657,93.77a40.5834,40.5834,0,0,0-5.4927-.7209c-.9181-.0871-1.84-.0486-2.7583-.0829-.9164.0539-1.8371.05-2.746.1644-.9112.11-1.8013.2233-2.7738.314l-1.4319.1353c-.4772.04-.9472.0249-1.4213.04-1.8983.07-3.7752-.0246-5.6586-.0776q-5.6254-.3361-11.2112-.9427c-7.4454-.8161-14.8544-1.83-22.2569-2.8421-3.7029-.4854-7.4018-1.0136-11.11-1.43A89.2593,89.2593,0,0,0,44.6446,87.4949Z"/></g></svg>