<svg xmlns="http://www.w3.org/2000/svg" width="110" height="110" viewBox="0 0 110 110"><defs><style>.cls-1{fill:#54381d;}.cls-2{fill:#d6bb84;}.cls-3{fill:#010101;opacity:0.1;}.cls-4{fill:#a8ad8b;}.cls-5{fill:#0f0e0f;}</style></defs><g id="Assets"><path class="cls-1" d="M109.8547,56.192A54.3267,54.3267,0,0,1,108.0789,70.01c-1.1873,4.52-3.3573,6.07-5.6009,10.0481-3.0619,5.4292-7.8292,11.9473-11.29,17.0809-3.6238,5.3751-9.1934,9.3225-18.77,10.6407-5.5117.7586-10.6978,2.2189-16.5627,2.2189a57.5868,57.5868,0,0,1-9.761-.3989,53.9214,53.9214,0,0,1-20.303-8.0952A54.54,54.54,0,0,1,11.46,87.7018c-.3274-.458,1.9432-3.27,1.63-3.7388C12.7134,83.4,9.7558,85.1781,9.4,84.6A53.9635,53.9635,0,0,1,3.7754,72.2c-1.5608-5.06.26-11.1124-2.401-16.0082C-1.8547,50.2514.549,44.61,4.0454,39.3335c1.8219-2.7494,2.3265-6.1446,3.8775-8.9993C11.97,22.8864,18.6412,17.6089,24.6271,11.6691,25.674,10.63,27.01,13.931,27.41,13.6678c.4751-.313-.53-3.2925-.1541-3.7207,8.68-9.8894,18.3282-12.0938,28.359-7.9952C62.5471,4.7845,70.238,3.47,76.7272,6.2143a54.1968,54.1968,0,0,1,12.111,7.1005c3.9984,3.1027,9.3006,9.0314,9.3006,11.6349,0,2.3389,3.8926,3.0667,5.0266,5.1272a53.8691,53.8691,0,0,1,5.979,17.3148A54.6252,54.6252,0,0,1,109.8547,56.192Z"/><path class="cls-2" d="M106.612,56.1344a51.1219,51.1219,0,0,1-1.6711,13.0029c-1.1173,4.2538-3.1593,5.712-5.2707,9.4557-2.8814,5.1091-7.3676,11.2429-10.6245,16.0739-3.41,5.0582-8.6514,8.7729-17.6637,10.0133-5.1868.7139-10.2931,2.4965-15.8123,2.4965a51.3618,51.3618,0,0,1-8.9595-.7837,50.7454,50.7454,0,0,1-19.106-7.618A51.326,51.326,0,0,1,14.0188,85.7864c-.3081-.4309,1.8287-3.0775,1.5338-3.5183-.3546-.53-4.198,1.261-5.9337-2.21-1.8991-3.7981-1.5553-4.72-2.832-8.8589-1.4687-4.7616.2448-10.4572-2.2594-15.0644C1.4888,50.544,3.7508,45.2352,7.041,40.27,8.7555,37.6826,9.23,34.4875,10.69,31.8012c3.8081-7.0087,6.5845-12.4149,13.6823-15.9638,1.7357-.8679,4.28.5276,4.6555.28.4471-.2945-.4986-3.0984-.145-3.5013C37.0509,3.31,46.13,1.2353,55.57,5.0922c6.5239,2.6656,13.7614,1.4283,19.868,4.0111a51.0036,51.0036,0,0,1,11.3969,6.6819c3.7627,2.92,8.7522,8.4989,8.7522,10.9489,0,2.201,3.6631,2.8859,4.73,4.8249a50.6929,50.6929,0,0,1,5.6265,16.294A51.41,51.41,0,0,1,106.612,56.1344Z"/><path class="cls-3" d="M88.8911,55.82a33.6175,33.6175,0,0,1-1.0989,8.5509c-.7347,2.7974-2.0776,3.7563-3.4661,6.2182-1.8948,3.36-4.845,7.3936-6.9868,10.57-2.2426,3.3263-5.6893,5.7692-11.616,6.5849-3.4109.4695-6.7689,1.6417-10.3984,1.6417a33.7735,33.7735,0,0,1-5.8919-.5154,33.3686,33.3686,0,0,1-12.5644-5.01A33.7483,33.7483,0,0,1,28,75.3193a14.1541,14.1541,0,0,1-2.8935-3.7673c-1.2489-2.4977-1.0228-3.1038-1.8624-5.8257-.9658-3.1313.161-6.8769-1.4858-9.9066-1.9983-3.6763-.5108-7.1676,1.6529-10.4328,1.1275-1.7014,1.44-3.8026,2.4-5.5692,2.5042-4.609,4.33-8.1642,8.9977-10.498a15.3463,15.3463,0,0,0,2.9662-2.1184c5.3715-6.12,11.3423-7.4842,17.55-4.9478,4.29,1.7529,9.05.9392,13.0655,2.6378a33.5348,33.5348,0,0,1,7.4948,4.3941c2.4744,1.92,5.7556,5.589,5.7556,7.2,0,1.4474,2.4089,1.8977,3.1107,3.1729a33.3368,33.3368,0,0,1,3.7,10.7152A33.8023,33.8023,0,0,1,88.8911,55.82Z"/><path class="cls-3" d="M74.4891,55.5639a19.3951,19.3951,0,0,1-.6339,4.9327c-.4239,1.6137-1.1985,2.1669-1.9995,3.5871-1.0931,1.9382-2.7949,4.2651-4.0305,6.0977C66.5316,72.1,64.5433,73.51,61.1244,73.98c-1.9676.2709-3.9047.9471-5.9985.9471a19.4815,19.4815,0,0,1-3.3988-.2973,19.2507,19.2507,0,0,1-7.248-2.89,19.4709,19.4709,0,0,1-5.1157-4.9273,8.1665,8.1665,0,0,1-1.6692-2.1733A15.7491,15.7491,0,0,1,36.62,61.2787c-.5572-1.8064.0928-3.9671-.8572-5.7148-1.1527-2.1208-.2946-4.1347.9536-6.0183.65-.9815.8305-2.1936,1.3842-3.2127,1.4446-2.6588,2.4979-4.71,5.1905-6.0559a8.8491,8.8491,0,0,0,1.711-1.2221c3.0987-3.53,6.543-4.3173,10.1239-2.8542,2.4749,1.0112,5.2205.5418,7.5371,1.5217a19.3466,19.3466,0,0,1,4.3235,2.5348c1.4273,1.1076,3.32,3.2241,3.32,4.1535,0,.835,1.39,1.0948,1.7944,1.83a19.2289,19.2289,0,0,1,2.1345,6.1812A19.5025,19.5025,0,0,1,74.4891,55.5639Z"/><path class="cls-3" d="M64.075,55.3789a9.1047,9.1047,0,0,1-.2977,2.3164,6.2685,6.2685,0,0,1-.9389,1.6845c-.5133.91-1.3125,2.0029-1.8927,2.8635a4.1833,4.1833,0,0,1-3.1468,1.7839,20.1357,20.1357,0,0,1-2.8168.4447,9.1537,9.1537,0,0,1-1.5961-.14,9.0418,9.0418,0,0,1-3.4037-1.3571A9.1433,9.1433,0,0,1,47.58,60.6613a3.8375,3.8375,0,0,1-.7838-1.02,7.397,7.397,0,0,1-.5045-1.5782c-.2616-.8483.0436-1.8629-.4025-2.6837a2.6246,2.6246,0,0,1,.4478-2.8262c.3054-.4609.39-1.03.65-1.5086A5.6841,5.6841,0,0,1,49.4243,48.2a4.1527,4.1527,0,0,0,.8036-.5739,3.9316,3.9316,0,0,1,4.7542-1.34c1.1622.4749,2.4515.2544,3.5393.7146a9.0831,9.0831,0,0,1,2.03,1.19c.67.52,1.5591,1.514,1.5591,1.95,0,.3921.6526.5141.8427.86a9.03,9.03,0,0,1,1.0023,2.9027A9.151,9.151,0,0,1,64.075,55.3789Z"/><path class="cls-3" d="M79.0339,79.3944q.0049.3026.011.605l.7924.9914A15.2987,15.2987,0,0,0,82.475,83.577l3.1886,2.4471Z"/><path class="cls-3" d="M57.9926,58.3531l3.71,3.71a15.2966,15.2966,0,0,1,1.9122,2.3326,15.3027,15.3027,0,0,0,3.2035,3.4853l3.1621,2.5167.0067-.05Z"/><path class="cls-3" d="M72.1261,55.7225a4.3512,4.3512,0,0,1,.3893-.5073H64.5392a15.3018,15.3018,0,0,1,3.0015.2972A15.2992,15.2992,0,0,0,72.1261,55.7225Z"/><path class="cls-3" d="M85.7211,55.2152l5.0251.5607A15.2982,15.2982,0,0,0,94.44,55.74l3.9851-.5243Z"/><path class="cls-3" d="M80.5423,54.89l-1.0374.0865c.0893.0782.1751.1584.261.2387h5.9552l-1.9449-.2516A15.3031,15.3031,0,0,0,80.5423,54.89Z"/><path class="cls-3" d="M76.6805,33.3893l3.95-3.1567a15.3058,15.3058,0,0,0,2.5862-2.6377l2.4471-3.1887Z"/><path class="cls-3" d="M64.0352,46.4549h0a15.3029,15.3029,0,0,0,3.4854-3.2034l2.7385-3.4408-8.5564,8.5565A15.3013,15.3013,0,0,1,64.0352,46.4549Z"/><path class="cls-3" d="M72.7886,36.8214l-2.5295,2.9893,6.4214-6.4214-1.5531,1.1974A15.3056,15.3056,0,0,0,72.7886,36.8214Z"/><path class="cls-3" d="M54.8547,47.8026V45.5307a15.302,15.302,0,0,1,.2972-3.0016,15.3017,15.3017,0,0,0,.1993-4.73L54.53,29.5276C54.44,28.45,53.228,6.0741,53.228,6.0741l1.36,41.0975Z"/><path class="cls-3" d="M33.0288,33.3893h0l1.1974,1.5531a15.2964,15.2964,0,0,0,2.2347,2.3388L39.45,39.8107l0,0Z"/><path class="cls-3" d="M27.2344,26.8533l-3.1887-2.4471,8.9831,8.9831-3.1567-3.95A15.3058,15.3058,0,0,0,27.2344,26.8533Z"/><path class="cls-3" d="M44.7454,44.305a15.3,15.3,0,0,0-1.8544-1.7558L39.45,39.8108l4.9852,4.9851A5.6616,5.6616,0,0,1,44.7454,44.305Z"/><path class="cls-3" d="M26.4928,82.8355l-2.4471,3.1886,8.9831-8.9831-3.95,3.1568A15.3023,15.3023,0,0,0,26.4928,82.8355Z"/><path class="cls-3" d="M42.1887,67.1789,41.28,68.3208l.0555.4136,6.6713-6.6712a15.3063,15.3063,0,0,1-2.3326,1.9122A15.3032,15.3032,0,0,0,42.1887,67.1789Z"/><path class="cls-3" d="M35.7518,74.318l-2.723,2.723,1.5531-1.1973a15.3081,15.3081,0,0,0,1.6271-1.4568A3.6071,3.6071,0,0,1,35.7518,74.318Z"/><path class="cls-3" d="M54.5574,67.9012a15.3053,15.3053,0,0,0-.1993,4.73L54.8547,77V64.9A15.3019,15.3019,0,0,1,54.5574,67.9012Z"/><path class="cls-3" d="M54.33,94.8005l.5244,3.9851V86.0815l-.5608,5.0252A15.3033,15.3033,0,0,0,54.33,94.8005Z"/><path class="cls-3" d="M54.8547,77v9.0811l.2515-1.9448a15.3039,15.3039,0,0,0,.0736-3.234Z"/><path class="cls-4" d="M54.8569,63.498a3.3475,3.3475,0,0,1-3.3437-3.3437v-2.39a8.1576,8.1576,0,0,1,5.021-7.4365,4.23,4.23,0,0,0,2.5639-4.0215A4.3249,4.3249,0,0,0,55.19,42.1982c-.1119-.0087-.2251-.0127-.336-.0127a4.2561,4.2561,0,0,0-4.1523,3.3819,3.3443,3.3443,0,0,1-6.0664,1.1748,3.3181,3.3181,0,0,1-.4854-2.5117,10.9834,10.9834,0,0,1,10.7432-8.73c.2627,0,.5268.0088.7925.0283A11.02,11.02,0,0,1,65.7827,46.12,10.8812,10.8812,0,0,1,59.18,56.4688l-.1421.0615-.2.1279-.6377.4482v3.0479A3.3475,3.3475,0,0,1,54.8569,63.498Z"/><path class="cls-5" d="M54.892,37.0007h0c.2271,0,.4555.0082.6795.0243a9.507,9.507,0,0,1,8.7121,9.1374,9.3941,9.3941,0,0,1-5.7071,8.9339,3.446,3.446,0,0,0-.57.3141l-1.3053.8936v3.85a1.8438,1.8438,0,1,1-3.6875,0v-2.39a6.66,6.66,0,0,1,4.1139-6.0592,5.7208,5.7208,0,0,0,3.47-5.44,5.8564,5.8564,0,0,0-5.2916-5.5625c-.153-.0117-.3044-.0174-.4525-.0174a5.757,5.757,0,0,0-5.6224,4.5833,1.8466,1.8466,0,0,1-1.8,1.4753,1.8689,1.8689,0,0,1-.3748-.0385,1.8425,1.8425,0,0,1-1.4369-2.175,9.4782,9.4782,0,0,1,9.2731-7.53m0-3A12.4784,12.4784,0,0,0,42.68,43.93,4.8434,4.8434,0,1,0,52.17,45.8691a2.7576,2.7576,0,0,1,2.6829-2.1836c.0738,0,.1491.003.2252.0087a2.8269,2.8269,0,0,1,2.52,2.6537A2.7362,2.7362,0,0,1,55.94,48.95a9.6557,9.6557,0,0,0-5.927,8.8144v2.39a4.8438,4.8438,0,1,0,9.6875,0V57.8859a.4466.4466,0,0,1,.0728-.0389,12.3761,12.3761,0,0,0,7.5088-11.7678,12.5358,12.5358,0,0,0-11.49-12.046q-.4527-.0326-.9008-.0325Z"/><circle class="cls-4" cx="54.8545" cy="70.998" r="3.5"/><path class="cls-5" d="M54.8547,68.9982a2,2,0,1,1-2,2,2.0023,2.0023,0,0,1,2-2m0-3a5,5,0,1,0,5,5,5,5,0,0,0-5-5Z"/></g></svg>