<svg xmlns="http://www.w3.org/2000/svg" width="110" height="110" viewBox="0 0 110 110"><defs><style>.cls-1{fill:#54381d;}.cls-2{fill:#d6bb84;}.cls-3{fill:#010101;opacity:0.1;}.cls-4{fill:#a8ad8b;}.cls-5{fill:#0f0e0f;}.cls-6{fill:none;stroke:#0f0e0f;stroke-linecap:round;stroke-linejoin:round;stroke-width:3px;}</style></defs><g id="Assets"><path class="cls-1" d="M110.02,56.2078a54.3259,54.3259,0,0,1-1.7758,13.8175c-1.1873,4.52-3.3573,6.07-5.6009,10.0481-3.0619,5.4292-7.8292,11.9473-11.29,17.0809-3.6238,5.3752-9.1934,9.3226-18.77,10.6407-5.5117.7587-10.6978,2.2189-16.5627,2.2189a57.5972,57.5972,0,0,1-9.761-.3988A53.9258,53.9258,0,0,1,25.9555,101.52a54.5415,54.5415,0,0,1-14.33-13.8024c-.3274-.4579,1.9432-3.27,1.63-3.7388-.3768-.5633-3.3344,1.2151-3.69.6371A53.96,53.96,0,0,1,3.94,72.216c-1.5608-5.06.26-11.1124-2.401-16.0082C-1.69,50.2671.7139,44.6256,4.21,39.3493,6.0321,36.6,6.5367,33.2046,8.0878,30.35c4.0466-7.4478,10.7183-12.7254,16.7042-18.6651,1.0468-1.0389,2.3829,2.2618,2.7825,1.9986.4751-.313-.53-3.2925-.1541-3.7206C36.1.0734,45.7486-2.1309,55.7794,1.9676,62.712,4.8,70.4029,3.4854,76.8921,6.23a54.1964,54.1964,0,0,1,12.111,7.1c3.9984,3.1027,9.3006,9.0314,9.3006,11.6349,0,2.3389,3.8926,3.0667,5.0266,5.1272a53.87,53.87,0,0,1,5.979,17.3149A54.6243,54.6243,0,0,1,110.02,56.2078Z"/><path class="cls-2" d="M106.7769,56.15a51.1231,51.1231,0,0,1-1.6711,13.0029c-1.1173,4.2538-3.1593,5.712-5.2707,9.4557-2.8814,5.1091-7.3676,11.2429-10.6245,16.0738-3.41,5.0582-8.6514,8.7729-17.6637,10.0134-5.1868.7138-10.2931,2.4964-15.8123,2.4964a51.3521,51.3521,0,0,1-8.9595-.7837,50.7452,50.7452,0,0,1-19.106-7.6179A51.326,51.326,0,0,1,14.1837,85.8022c-.3081-.431,1.8287-3.0776,1.5338-3.5184-.3546-.53-4.1981,1.261-5.9337-2.21-1.8991-3.7981-1.5553-4.72-2.832-8.8588C5.4831,66.453,7.1966,60.7573,4.6924,56.15c-3.0387-5.59-.7767-10.8993,2.5135-15.8646,1.7145-2.5873,2.1893-5.7823,3.6489-8.4687,3.808-7.0087,6.5845-12.4149,13.6823-15.9638,1.7357-.8678,4.28.5277,4.6555.28.4471-.2946-.4986-3.0984-.145-3.5013C37.2158,3.3254,46.2952,1.251,55.7346,5.1079c6.5239,2.6657,13.7614,1.4283,19.868,4.0112A50.9994,50.9994,0,0,1,87,15.8009c3.7627,2.92,8.7522,8.4989,8.7522,10.9489,0,2.201,3.6631,2.8859,4.73,4.8249a50.6929,50.6929,0,0,1,5.6265,16.294A51.41,51.41,0,0,1,106.7769,56.15Z"/><path class="cls-3" d="M89.056,55.8354a33.6183,33.6183,0,0,1-1.0989,8.551c-.7348,2.7973-2.0776,3.7562-3.4661,6.2182-1.8948,3.36-4.845,7.3935-6.9868,10.57-2.2426,3.3264-5.6893,5.7692-11.616,6.5849-3.4109.4695-6.7689,1.6418-10.3984,1.6418a33.7735,33.7735,0,0,1-5.8919-.5154,33.3713,33.3713,0,0,1-12.5645-5.01,33.7545,33.7545,0,0,1-8.8682-8.5415,14.1589,14.1589,0,0,1-2.8934-3.7673c-1.2489-2.4977-1.0228-3.1039-1.8624-5.8258-.9658-3.1313.161-6.8768-1.4858-9.9066-1.9983-3.6763-.5108-7.1675,1.6529-10.4328,1.1275-1.7014,1.44-3.8025,2.4-5.5691,2.5042-4.6091,4.33-8.1643,8.9977-10.4981A15.3419,15.3419,0,0,0,37.94,27.217c5.3715-6.12,11.3423-7.4842,17.55-4.9478,4.29,1.753,9.05.9393,13.0655,2.6378A33.5386,33.5386,0,0,1,76.05,29.3011c2.4744,1.92,5.7556,5.589,5.7556,7.2,0,1.4474,2.4089,1.8978,3.1107,3.1729a33.3368,33.3368,0,0,1,3.7,10.7152A33.8032,33.8032,0,0,1,89.056,55.8354Z"/><path class="cls-3" d="M74.654,55.58a19.3965,19.3965,0,0,1-.6339,4.9328c-.4239,1.6137-1.1985,2.1668-1.9995,3.587-1.0931,1.9382-2.7949,4.2651-4.0305,6.0978-1.2936,1.9188-3.2819,3.328-6.7008,3.7986-1.9676.2708-3.9048.947-5.9985.947a19.4806,19.4806,0,0,1-3.3988-.2973,19.2491,19.2491,0,0,1-7.248-2.89,19.4712,19.4712,0,0,1-5.1158-4.9273,8.1681,8.1681,0,0,1-1.6691-2.1732,15.75,15.75,0,0,1-1.0743-3.3607c-.5572-1.8063.0928-3.967-.8572-5.7148-1.1527-2.1207-.2946-4.1347.9536-6.0183.65-.9815.8305-2.1935,1.3842-3.2126,1.4446-2.6588,2.4979-4.71,5.1905-6.056a8.85,8.85,0,0,0,1.711-1.222c3.0987-3.5305,6.543-4.3174,10.1239-2.8542,2.4749,1.0112,5.2205.5418,7.537,1.5216a19.3421,19.3421,0,0,1,4.3235,2.5348c1.4274,1.1076,3.32,3.2241,3.32,4.1535,0,.835,1.39,1.0948,1.7944,1.83A19.228,19.228,0,0,1,74.4,52.438,19.492,19.492,0,0,1,74.654,55.58Z"/><path class="cls-3" d="M64.24,55.3947a9.1053,9.1053,0,0,1-.2977,2.3164,6.2685,6.2685,0,0,1-.9389,1.6845c-.5133.91-1.3125,2.0029-1.8928,2.8635a4.1828,4.1828,0,0,1-3.1467,1.7838,20.12,20.12,0,0,1-2.8169.4447,9.1437,9.1437,0,0,1-1.596-.14,9.0378,9.0378,0,0,1-3.4037-1.3571,9.1445,9.1445,0,0,1-2.4024-2.3138,3.8388,3.8388,0,0,1-.7838-1.0206,7.3933,7.3933,0,0,1-.5045-1.5782c-.2616-.8482.0436-1.8629-.4025-2.6836a2.6246,2.6246,0,0,1,.4478-2.8262c.3054-.4609.39-1.03.65-1.5087a5.6841,5.6841,0,0,1,2.4374-2.8439,4.161,4.161,0,0,0,.8036-.5738,3.9315,3.9315,0,0,1,4.7541-1.34c1.1622.4749,2.4516.2545,3.5394.7146a9.0907,9.0907,0,0,1,2.03,1.19c.67.52,1.5591,1.5141,1.5591,1.95,0,.3921.6526.5141.8427.86a9.0315,9.0315,0,0,1,1.0023,2.9027A9.15,9.15,0,0,1,64.24,55.3947Z"/><path class="cls-3" d="M79.1988,79.41q.0049.3024.011.6049l.7924.9914A15.2957,15.2957,0,0,0,82.64,83.5928l3.1886,2.447Z"/><path class="cls-3" d="M58.1575,58.3688l3.71,3.71A15.3123,15.3123,0,0,1,63.78,64.4115a15.3032,15.3032,0,0,0,3.2035,3.4854l3.162,2.5167.0068-.05Z"/><path class="cls-3" d="M72.291,55.7382a4.34,4.34,0,0,1,.3893-.5073H64.7041a15.3094,15.3094,0,0,1,3.0015.2972A15.2991,15.2991,0,0,0,72.291,55.7382Z"/><path class="cls-3" d="M85.886,55.2309l5.0251.5608a15.3084,15.3084,0,0,0,3.6938-.0364l3.9851-.5244Z"/><path class="cls-3" d="M80.7072,54.9057l-1.0374.0865c.0893.0783.1751.1584.261.2387H85.886l-1.9449-.2516A15.31,15.31,0,0,0,80.7072,54.9057Z"/><path class="cls-3" d="M76.8454,33.4051l3.95-3.1568a15.3058,15.3058,0,0,0,2.5862-2.6377l2.4471-3.1886Z"/><path class="cls-3" d="M64.2,46.4707h0a15.3033,15.3033,0,0,0,3.4854-3.2035l2.7385-3.4407-8.5564,8.5564A15.2948,15.2948,0,0,1,64.2,46.4707Z"/><path class="cls-3" d="M72.9535,36.8371,70.424,39.8265l6.4214-6.4214-1.5531,1.1973A15.31,15.31,0,0,0,72.9535,36.8371Z"/><path class="cls-3" d="M55.02,47.8183V45.5464a15.302,15.302,0,0,1,.2972-3.0016,15.3016,15.3016,0,0,0,.1993-4.73l-.8217-8.2718C54.6046,28.4658,53.3928,6.09,53.3928,6.09l1.3605,41.0975Z"/><path class="cls-3" d="M33.1937,33.4051h0l1.1974,1.5531a15.3056,15.3056,0,0,0,2.2347,2.3388l2.9893,2.53h0Z"/><path class="cls-3" d="M27.3993,26.869l-3.1887-2.447,8.9831,8.9831-3.1567-3.95A15.3028,15.3028,0,0,0,27.3993,26.869Z"/><path class="cls-3" d="M44.91,44.3208a15.3082,15.3082,0,0,0-1.8544-1.7559l-3.4407-2.7384L44.6,44.8117A5.6464,5.6464,0,0,1,44.91,44.3208Z"/><path class="cls-3" d="M26.6577,82.8512,24.2106,86.04l8.9831-8.9831-3.95,3.1568A15.3058,15.3058,0,0,0,26.6577,82.8512Z"/><path class="cls-3" d="M42.3536,67.1946l-.9088,1.1419L41.5,68.75l6.6713-6.6712a15.3,15.3,0,0,1-2.3326,1.9122A15.3054,15.3054,0,0,0,42.3536,67.1946Z"/><path class="cls-3" d="M35.9167,74.3338l-2.723,2.7229,1.5531-1.1973a15.3081,15.3081,0,0,0,1.6271-1.4568A3.607,3.607,0,0,1,35.9167,74.3338Z"/><path class="cls-3" d="M54.7223,67.917a15.3046,15.3046,0,0,0-.1993,4.73l.4966,4.3694V64.9154A15.3021,15.3021,0,0,1,54.7223,67.917Z"/><path class="cls-3" d="M54.4952,94.8163l.5244,3.985V86.0973l-.5608,5.0251A15.304,15.304,0,0,0,54.4952,94.8163Z"/><path class="cls-3" d="M55.02,77.0161v9.0812l.2515-1.9449a15.3028,15.3028,0,0,0,.0736-3.2339Z"/><circle class="cls-4" cx="55.0195" cy="55.0137" r="19.5"/><path class="cls-5" d="M55.02,37.0139a18,18,0,1,1-18,18,18.02,18.02,0,0,1,18-18m0-3a21,21,0,1,0,21,21,21,21,0,0,0-21-21Z"/><path class="cls-6" d="M46.02,55.014a9,9,0,1,0,12.4182-8.3183"/><path class="cls-5" d="M62.9467,46.775l-1.9787.1019a1.5263,1.5263,0,0,0-1.4458,1.6036l.1031,1.9785a1.5263,1.5263,0,0,1-2.5462,1.213v0a1.5262,1.5262,0,0,1-.5023-1.0546l-.26-5.0274a1.5262,1.5262,0,0,1,1.4453-1.6031l5.0274-.26a1.5267,1.5267,0,0,1,1.1009.3906h0A1.5263,1.5263,0,0,1,62.9467,46.775Z"/></g></svg>