<svg xmlns="http://www.w3.org/2000/svg" width="110" height="110" viewBox="0 0 110 110"><defs><style>.cls-1{fill:#54381d;}.cls-2{fill:#d6bb84;}.cls-3{fill:#010101;opacity:0.1;}.cls-4{fill:#a8ad8b;}.cls-5{fill:#0f0e0f;}</style></defs><g id="Assets"><path class="cls-1" d="M109.9908,56.1845A54.3168,54.3168,0,0,1,108.2154,70c-1.1872,4.52-3.3567,6.0689-5.6,10.0465-3.0614,5.4283-7.8279,11.9453-11.2883,17.078-3.6232,5.3743-9.1919,9.321-18.7673,10.6389-5.5107.7585-10.696,2.2185-16.56,2.2185a57.588,57.588,0,0,1-9.7593-.3987,53.9142,53.9142,0,0,1-20.3-8.0939,54.5309,54.5309,0,0,1-14.3278-13.8c-.3274-.4579,1.9428-3.27,1.63-3.7382-.3767-.5632-3.3338,1.2149-3.69.637A53.962,53.962,0,0,1,3.9292,72.19c-1.56-5.0591.26-11.11-2.4006-16.0055-3.2285-5.94-.8252-11.58,2.6706-16.8557C6.0208,36.58,6.5253,33.1852,8.0761,30.331c4.0459-7.4466,10.7165-12.7232,16.7014-18.662C25.8242,10.63,27.16,13.9305,27.56,13.6673c.475-.3129-.53-3.2919-.1542-3.72C36.084.06,45.7306-2.1445,55.76,1.9534c6.9315,2.8322,14.6211,1.5175,21.1092,4.2617a54.191,54.191,0,0,1,12.109,7.0993c3.9977,3.1022,9.299,9.03,9.299,11.633,0,2.3385,3.8919,3.0661,5.0258,5.1263a53.86,53.86,0,0,1,5.9779,17.3119A54.6079,54.6079,0,0,1,109.9908,56.1845Z"/><path class="cls-2" d="M106.7487,56.1269a51.1148,51.1148,0,0,1-1.6708,13.0007c-1.1171,4.2531-3.1588,5.711-5.27,9.4541C96.9272,83.69,92.4417,89.8228,89.1853,94.6529c-3.41,5.0574-8.65,8.7714-17.6608,10.0117-5.1858.7137-10.2913,2.496-15.81,2.496a51.3446,51.3446,0,0,1-8.958-.7836A50.7346,50.7346,0,0,1,27.6541,98.76,51.3165,51.3165,0,0,1,14.171,85.774c-.3081-.4309,1.8283-3.0771,1.5335-3.5178-.3546-.53-4.1973,1.2608-5.9327-2.21C7.873,76.2487,8.2167,75.3271,6.94,71.1888,5.4718,66.428,7.185,60.7333,4.6812,56.1269c-3.0382-5.59-.7766-10.8975,2.5131-15.8619,1.7142-2.5869,2.189-5.7814,3.6483-8.4673C14.65,24.79,17.426,19.3849,24.5226,15.8366c1.7354-.8677,4.2788.5275,4.6548.28.447-.2945-.4986-3.0979-.145-3.5007C37.1992,3.3109,46.2771,1.2369,55.7149,5.0932c6.5228,2.6652,13.7591,1.428,19.8647,4.01a50.9908,50.9908,0,0,1,11.395,6.6807c3.762,2.9192,8.7508,8.4975,8.7508,10.9471,0,2.2006,3.6624,2.8854,4.7294,4.824A50.6851,50.6851,0,0,1,106.08,47.8468,51.3936,51.3936,0,0,1,106.7487,56.1269Z"/><path class="cls-3" d="M89.0308,55.8122a33.611,33.611,0,0,1-1.0988,8.55c-.7346,2.7969-2.0772,3.7557-3.4655,6.2172-1.8945,3.3593-4.8442,7.3923-6.9857,10.5686-2.2422,3.3259-5.6883,5.7683-11.614,6.5839-3.41.4694-6.7678,1.6414-10.3967,1.6414a33.7629,33.7629,0,0,1-5.8909-.5153,33.3637,33.3637,0,0,1-12.5623-5.0088,33.7464,33.7464,0,0,1-8.8667-8.54,14.1548,14.1548,0,0,1-2.893-3.7667c-1.2487-2.4973-1.0227-3.1033-1.8621-5.8247-.9657-3.1308.161-6.8758-1.4856-9.905-1.9979-3.6757-.5107-7.1663,1.6527-10.431,1.1273-1.7012,1.4395-3.802,2.3992-5.5683,2.5038-4.6082,4.3293-8.1629,8.9962-10.4963a15.3433,15.3433,0,0,0,2.9657-2.118c5.3706-6.119,11.34-7.483,17.5468-4.947,4.2895,1.7527,9.0482.9391,13.0634,2.6374a33.5329,33.5329,0,0,1,7.4935,4.3933c2.474,1.92,5.7547,5.5881,5.7547,7.199,0,1.4472,2.4085,1.8975,3.11,3.1724a33.3312,33.3312,0,0,1,3.6994,10.7134A33.8025,33.8025,0,0,1,89.0308,55.8122Z"/><path class="cls-3" d="M74.6312,55.5565a19.39,19.39,0,0,1-.6339,4.9319c-.4237,1.6134-1.1983,2.1665-1.9991,3.5864-1.0929,1.9379-2.7945,4.2644-4.03,6.0967-1.2934,1.9186-3.2814,3.3275-6.7,3.798-1.9673.2708-3.9041.9469-5.9975.9469a19.4846,19.4846,0,0,1-3.3983-.2972,19.248,19.248,0,0,1-7.2467-2.89,19.4674,19.4674,0,0,1-5.1149-4.9264A8.1666,8.1666,0,0,1,37.8424,64.63a15.75,15.75,0,0,1-1.0742-3.36c-.557-1.8061.0929-3.9664-.8569-5.7138-1.1526-2.12-.2946-4.1341.9533-6.0173.65-.9814.83-2.1933,1.384-3.2122,1.4444-2.6583,2.4975-4.7089,5.19-6.0549A8.843,8.843,0,0,0,45.149,39.05c3.0982-3.53,6.5419-4.3166,10.1222-2.8537,2.4745,1.0111,5.22.5417,7.5358,1.5214A19.3464,19.3464,0,0,1,67.13,40.2523c1.4271,1.1074,3.32,3.2235,3.32,4.1528,0,.8348,1.3894,1.0946,1.7942,1.83a19.2281,19.2281,0,0,1,2.134,6.18A19.4963,19.4963,0,0,1,74.6312,55.5565Z"/><path class="cls-3" d="M64.2188,55.3715a9.106,9.106,0,0,1-.2976,2.316,6.274,6.274,0,0,1-.9388,1.6843c-.5133.91-1.3123,2.0025-1.8924,2.863a4.1822,4.1822,0,0,1-3.1462,1.7835,20.1177,20.1177,0,0,1-2.8164.4447,9.1514,9.1514,0,0,1-1.5959-.14,9.0387,9.0387,0,0,1-3.4031-1.3569,9.1413,9.1413,0,0,1-2.4019-2.3135,3.8323,3.8323,0,0,1-.7837-1.02,7.3905,7.3905,0,0,1-.5044-1.5779c-.2616-.8481.0436-1.8626-.4025-2.6832a2.6243,2.6243,0,0,1,.4477-2.8257c.3054-.4608.39-1.03.65-1.5084a5.6826,5.6826,0,0,1,2.437-2.8434,4.1569,4.1569,0,0,0,.8034-.5738,3.9309,3.9309,0,0,1,4.7534-1.34c1.162.4748,2.4511.2544,3.5388.7144a9.0832,9.0832,0,0,1,2.03,1.19c.67.52,1.5589,1.5138,1.5589,1.95,0,.392.6525.514.8426.8593A9.0282,9.0282,0,0,1,64.1,53.8965,9.1473,9.1473,0,0,1,64.2188,55.3715Z"/><path class="cls-3" d="M79.1752,79.383q.0049.3024.011.6049l.7922.9912a15.3012,15.3012,0,0,0,2.6373,2.5858l3.1881,2.4467Z"/><path class="cls-3" d="M58.1374,58.3452l3.7094,3.7094a15.3068,15.3068,0,0,1,1.912,2.3322,15.3,15.3,0,0,0,3.2029,3.4848l3.1616,2.5163.0067-.05Z"/><path class="cls-3" d="M72.2685,55.715a4.3688,4.3688,0,0,1,.3892-.5072H64.6829a15.296,15.296,0,0,1,3.001.2972A15.2972,15.2972,0,0,0,72.2685,55.715Z"/><path class="cls-3" d="M85.8612,55.2078l5.0243.5607a15.3042,15.3042,0,0,0,3.6933-.0364l3.9843-.5243Z"/><path class="cls-3" d="M80.6833,54.8827l-1.0372.0864c.0893.0783.1751.1584.261.2387h5.9541l-1.9445-.2515A15.2983,15.2983,0,0,0,80.6833,54.8827Z"/><path class="cls-3" d="M76.8222,33.3856l3.9491-3.1562a15.2975,15.2975,0,0,0,2.5858-2.6373l2.4467-3.1881Z"/><path class="cls-3" d="M64.179,46.449h0a15.3,15.3,0,0,0,3.4848-3.2029l2.7381-3.44-8.5551,8.555A15.3121,15.3121,0,0,1,64.179,46.449Z"/><path class="cls-3" d="M72.931,36.8171l-2.5291,2.9888,6.42-6.42-1.5528,1.1971A15.3011,15.3011,0,0,0,72.931,36.8171Z"/><path class="cls-3" d="M55,47.7964V45.5249a15.2978,15.2978,0,0,1,.2972-3.0011,15.3026,15.3026,0,0,0,.1993-4.7289l-.8216-8.27c-.09-1.0774-1.3013-23.4495-1.3013-23.4495l1.36,41.0906Z"/><path class="cls-3" d="M44.8924,44.3a15.3031,15.3031,0,0,0-1.8541-1.7556l-3.44-2.7379L44.5825,44.79A5.6931,5.6931,0,0,1,44.8924,44.3Z"/><path class="cls-3" d="M42.3361,67.17l-.9086,1.1417.0555.4136,6.67-6.67a15.29,15.29,0,0,1-2.3322,1.9119A15.3046,15.3046,0,0,0,42.3361,67.17Z"/><path class="cls-3" d="M54.7028,67.8917a15.3034,15.3034,0,0,0-.1993,4.729L55,76.9893V64.8907A15.3036,15.3036,0,0,1,54.7028,67.8917Z"/><path class="cls-3" d="M54.4757,94.7865,55,98.7709V86.069l-.5607,5.0243A15.3034,15.3034,0,0,0,54.4757,94.7865Z"/><path class="cls-3" d="M55,76.9893v9.08l.2515-1.9445a15.2983,15.2983,0,0,0,.0736-3.2334Z"/><path class="cls-4" d="M57.3491,74.707a4.1885,4.1885,0,0,1-2.6787-.9931L43.2485,64.1455a6.2912,6.2912,0,0,0-3.9233-1.543h0a3.5175,3.5175,0,0,1-3.5137-3.5136v-7.97a3.5175,3.5175,0,0,1,3.5137-3.5136h0a6.3157,6.3157,0,0,0,3.8721-1.4688L54.7026,36.832a4.2267,4.2267,0,0,1,2.6426-.9463,3.5545,3.5545,0,0,1,2.19.7237,3.8676,3.8676,0,0,1,1.5219,3.0947v31.165a3.877,3.877,0,0,1-1.8706,3.333,3.52,3.52,0,0,1-1.8369.5049Z"/><path class="cls-5" d="M57.345,37.3864h0a2.0886,2.0886,0,0,1,1.2771.413,2.3542,2.3542,0,0,1,.9346,1.9043v31.165a2.3714,2.3714,0,0,1-1.1525,2.0537,1.9922,1.9922,0,0,1-1.0551.2849,2.7244,2.7244,0,0,1-1.7154-.6432L44.2119,62.9952a7.8179,7.8179,0,0,0-4.8867-1.8921v-.0006a2.016,2.016,0,0,1-2.0138-2.0138V51.1193a2.0161,2.0161,0,0,1,2.0138-2.0138l-.0029-.5368.0064.5368A7.793,7.793,0,0,0,44.14,47.3033l11.5053-9.3045a2.7552,2.7552,0,0,1,1.6994-.6124m0-3a5.7375,5.7375,0,0,0-3.586,1.28L42.2538,44.9707a4.7745,4.7745,0,0,1-2.9385,1.1348h.01a5.0139,5.0139,0,0,0-5.0138,5.0138v7.9694a5.0138,5.0138,0,0,0,5.0138,5.0138H39.26l.0232,0a4.78,4.78,0,0,1,3.0025,1.1922l11.4219,9.5689a5.7161,5.7161,0,0,0,3.6419,1.3436,4.9985,4.9985,0,0,0,2.6188-.7246,5.3607,5.3607,0,0,0,2.5888-4.614V39.7037a5.35,5.35,0,0,0-2.1088-4.2847,5.0645,5.0645,0,0,0-3.1027-1.0326Z"/><path class="cls-5" d="M65.5692,61.2756a1.5,1.5,0,0,1-1.06-2.56,4.856,4.856,0,0,0,0-6.8583A1.5,1.5,0,0,1,66.63,49.7365a7.8577,7.8577,0,0,1,0,11.1A1.494,1.494,0,0,1,65.5692,61.2756Z"/><path class="cls-5" d="M70.5683,65.7748a1.5,1.5,0,0,1-1.06-2.56,11.2122,11.2122,0,0,0,0-15.8567,1.5,1.5,0,0,1,2.1207-2.1207,14.2105,14.2105,0,0,1,0,20.0982A1.495,1.495,0,0,1,70.5683,65.7748Z"/></g></svg>