<svg xmlns="http://www.w3.org/2000/svg" xmlns:xlink="http://www.w3.org/1999/xlink" width="110" height="110" viewBox="0 0 110 110"><defs><style>.cls-1{fill:none;}.cls-2{fill:#862d28;}.cls-3{clip-path:url(#clip-path);}.cls-4{fill:#ddb893;}.cls-5{fill:#7f563a;}.cls-6{fill:#010101;opacity:0.1;}.cls-7{fill:#b08968;}.cls-8{fill:#3d4433;}.cls-9{fill:#55574e;}.cls-10{fill:#a8ad8b;}.cls-11{fill:#d6bb84;}</style><clipPath id="clip-path"><circle class="cls-1" cx="55" cy="55" r="55"/></clipPath></defs><g id="Assets"><circle class="cls-2" cx="55" cy="55" r="55"/><g class="cls-3"><path class="cls-4" d="M28.7372,56.2868l2.2366,10.5579a5.8848,5.8848,0,0,0,.9109,2.1285h0a.5363.5363,0,0,0,.7113.1772l.4957-.2791a.5548.5548,0,0,1,.8046.3814l2.15,9.1928a39.5634,39.5634,0,0,0,1.547,5.0639l.6568,1.7253a40.0054,40.0054,0,0,1,2.5164,11.5732h0a55.8936,55.8936,0,0,1-.1006,8.0179L40.2285,110H73.46l-.0623-.3864a55.838,55.838,0,0,1-.1736-16.5963l.6342-4.5391a11.4353,11.4353,0,0,1,.8661-3.0475l1.1835-2.6719a21.3522,21.3522,0,0,0,1.0862-3.0677l3.05-11.2677a.55.55,0,0,1,.9127-.2949h0A.5332.5332,0,0,0,81.75,68.07h0a6.0921,6.0921,0,0,0,1.1948-2.4674l2.628-11.3552-29.66-18.5276Z"/><polygon class="cls-5" points="31.207 54.112 33.192 61.887 34.147 60.941 34.601 53.539 31.207 54.112"/><polygon class="cls-5" points="81.85 53.014 79.866 60.789 78.911 59.843 78.456 52.441 81.85 53.014"/><path class="cls-6" d="M61.86,94.8719l-3.6433-.9312a5.6048,5.6048,0,0,0-3.3032.1628l-2.113.7684Z"/><path class="cls-6" d="M55.4187,93.0389h0a6.2839,6.2839,0,0,0,3.12.1457l.7021-.1457H55.4187"/><path class="cls-7" d="M51.8425,89.4711,54.55,88.0442a1.9118,1.9118,0,0,1,1.72-.0316h0a1.9119,1.9119,0,0,0,1.6622-.0021l.3143-.1522a1.912,1.912,0,0,1,1.7635.05l2.8145,1.5671c.3879.216.2346.5084-.2095.5084H52.0432C51.5939,89.9842,51.445,89.6806,51.8425,89.4711Z"/><path class="cls-6" d="M61.563,80.4274l-.7246-.28a1.0681,1.0681,0,0,0-1.089.1924l-.2255.1972a2.4,2.4,0,0,1-1.5087.5927l-.8034.0239a2.4,2.4,0,0,1-1.5758-.529l-.6807-.5477a1.0684,1.0684,0,0,0-1.088-.1507l-.7707.328,2.146.3782a4.0663,4.0663,0,0,0,4.8794,0Z"/><path class="cls-6" d="M53.1336,77.1941h-.3147a2.0342,2.0342,0,0,0-1.4383.5958l-.4241.4241.1127-.2437a1.5716,1.5716,0,0,1,2.0644-.7762Z"/><path class="cls-6" d="M63.5493,78.214l-.3838-.3979a2.0342,2.0342,0,0,0-1.464-.622h-.4089l.199-.069a1.5913,1.5913,0,0,1,2.0577,1.0889Z"/><polygon class="cls-6" points="54.866 62.916 53.846 76.344 52.826 76.344 54.866 62.916"/><polygon class="cls-6" points="58.313 62.916 60.511 76.344 61.478 75.753 58.313 62.916"/><path class="cls-8" d="M28.4333,58.0887l-.9947.4006a.774.774,0,0,1-1.0327-.6407L23.53,41.2106a1.3461,1.3461,0,0,1,.9055-1.5483h0a1.2923,1.2923,0,0,0,.9007-1.0242l.661-3.4476A41.5907,41.5907,0,0,1,33.425,18.17l.7081-.95a32.5246,32.5246,0,0,1,4.2522-4.6841L50.1112,1.9267q.2243-.2029.4306-.4279l.133-.145a5.904,5.904,0,0,1,9.06.24h0A6.4733,6.4733,0,0,0,60.8479,2.65l8.3435,6.2a32.3982,32.3982,0,0,1,7.8115,8.3623h0a41.4789,41.4789,0,0,1,5.0324,11.0191l2.4527,8.4245a1.8348,1.8348,0,0,0,1.3611,1.3169h0a1.9008,1.9008,0,0,1,1.4448,1.9054V55.3118a.6375.6375,0,0,1-.7716.661l-.65-.1761a.6876.6876,0,0,1-.4536-.8282h0a.6813.6813,0,0,0-.5043-.84L75.0161,52.387a88.6555,88.6555,0,0,0-39.36,1.9652l-6.1689,1.7283a.8589.8589,0,0,0-.5647,1.0169h0A.8689.8689,0,0,1,28.4333,58.0887Z"/><path class="cls-5" d="M77.8827,58.88,75.8958,57.14a5.7537,5.7537,0,0,0-3.5472-1.42l-8.8559-.3742a1.737,1.737,0,0,0-1.81,1.6847h0a1.737,1.737,0,0,0,1.8524,1.7839l8.3295-.5582a5.7536,5.7536,0,0,1,3.8023,1.1121l1.143.8438a.8561.8561,0,0,0,.712.1429h0A.8562.8562,0,0,0,77.8827,58.88Z"/><path class="cls-5" d="M36.7646,58.88,38.7515,57.14a5.754,5.754,0,0,1,3.5473-1.42l8.8558-.3742a1.737,1.737,0,0,1,1.81,1.6847h0a1.737,1.737,0,0,1-1.8525,1.7839l-8.3294-.5582A5.7538,5.7538,0,0,0,38.98,59.3686l-1.1429.8438a.8563.8563,0,0,1-.7121.1429h0A.8562.8562,0,0,1,36.7646,58.88Z"/><path class="cls-6" d="M29.4752,56.0805l2.1261,10.15a1.3254,1.3254,0,0,0,.5622.8313h0a1.3258,1.3258,0,0,0,1.7462-.2451l.621-.7316s-1.6579.9467-2.0705.021S29.4752,56.0805,29.4752,56.0805Z"/><path class="cls-9" d="M82.36,37.2563l-5.2045-1.69a63.4148,63.4148,0,0,0-40.6344.4442l-7.77,2.7094s12.3736-8.1018,28.025-8.134C77.1612,30.5438,82.36,37.2563,82.36,37.2563Z"/><path class="cls-6" d="M84.3128,54.0874l-2.1261,10.15a1.3259,1.3259,0,0,1-.5622.8314h0a1.3257,1.3257,0,0,1-1.7462-.2452l-.621-.7315s1.6579.9467,2.07.021S84.3128,54.0874,84.3128,54.0874Z"/><path class="cls-6" d="M36.1837,76.1307s1.5523,6.1152,3.0286,8.2734a88.3514,88.3514,0,0,1,5.0535,9.02c.8143,1.8007-3.8752-6.0394-5.0453-7.39S36.1837,76.1307,36.1837,76.1307Z"/><path class="cls-6" d="M77.0983,76.1307S75.546,82.2459,74.07,84.4041a88.3494,88.3494,0,0,0-5.0534,9.02c-.8144,1.8007,3.8751-6.0394,5.0452-7.39S77.0983,76.1307,77.0983,76.1307Z"/><path class="cls-6" d="M68.9406,95.6338a20.8688,20.8688,0,0,1-4.0662,5.6926c-2.561,2.4077-3.057,2.4024-7.21,2.4829H56.742c-4.1527-.08-3.9082-.05-7.21-2.4829a11.132,11.132,0,0,1-4.0662-5.6926s2.44,7.3622,11.8637,7.5826C64.9818,103.3954,68.9406,95.6338,68.9406,95.6338Z"/></g><path class="cls-10" d="M55,3A52,52,0,1,1,3,55,52.0589,52.0589,0,0,1,55,3m0-3a55,55,0,1,0,55,55A55,55,0,0,0,55,0Z"/><path class="cls-5" d="M51.96,62.4105c-2.2192-.1239-6.9622,1.5042-10,0-3.1266-1.5481,1,1.7813,4,1.7813S52.9582,62.4663,51.96,62.4105Z"/><path class="cls-6" d="M51.9059,64.28c-2.2361,0-7,1-10,0s1,1,4,1S52.9059,64.28,51.9059,64.28Z"/><path class="cls-5" d="M63,62.4105c2.2192-.1239,6.9622,1.5042,10,0,3.1266-1.5481-1,1.7813-4,1.7813S62.0012,62.4663,63,62.4105Z"/><path class="cls-6" d="M63.0535,64.28c2.2361,0,7,1,10,0s-1,1-4,1S62.0535,64.28,63.0535,64.28Z"/><circle class="cls-11" cx="92" cy="18" r="18"/></g></svg>