<svg xmlns="http://www.w3.org/2000/svg" width="91" height="91" viewBox="0 0 91 91"><defs><style>.cls-1{opacity:0.5;}.cls-2{fill:#0e0d0e;}.cls-3{fill:#d6bb84;}</style></defs><g id="Assets"><g class="cls-1"><circle class="cls-2" cx="45.5" cy="45.5" r="45"/><path class="cls-3" d="M45.5,1A44.5,44.5,0,1,1,1,45.5,44.55,44.55,0,0,1,45.5,1m0-1A45.5,45.5,0,1,0,91,45.5,45.5,45.5,0,0,0,45.5,0Z"/></g><path class="cls-3" d="M45.5,2A43.5,43.5,0,1,1,2,45.5,43.5492,43.5492,0,0,1,45.5,2m0-2A45.5,45.5,0,1,0,91,45.5,45.5,45.5,0,0,0,45.5,0Z"/><path class="cls-3" d="M20.0929,61.8555A1.9749,1.9749,0,0,1,19.5113,60.4a2.0618,2.0618,0,0,1,.5816-1.4812,1.9386,1.9386,0,0,1,1.4564-.6062h5.7754V33.7063l-4.9509,2.4271a3.0037,3.0037,0,0,1-1.1158.2913,1.9965,1.9965,0,0,1-2.0874-2.0874,2.089,2.089,0,0,1,1.2619-1.99l6.6009-3.4461a3.0191,3.0191,0,0,1,1.3587-.34h1.02a2.32,2.32,0,0,1,2.3293,2.3293V58.3127h4.8047A2.07,2.07,0,0,1,38.6325,60.4a1.9364,1.9364,0,0,1-.6062,1.4554,2.0587,2.0587,0,0,1-1.48.5826H21.5493A1.978,1.978,0,0,1,20.0929,61.8555Z"/><path class="cls-3" d="M48.8977,58.2159q-3.3739-4.707-3.373-12.7159t3.373-12.7159q3.3725-4.707,9.7793-4.708a11.3,11.3,0,0,1,9.7547,4.708Q71.8293,37.4926,71.8294,45.5T68.4317,58.2159a11.2971,11.2971,0,0,1-9.7547,4.708Q52.27,62.9239,48.8977,58.2159ZM65.1564,55.304q2.2558-3.5429,2.2563-9.804,0-6.2118-2.2563-9.7556a7.6963,7.6963,0,0,0-12.9588,0Q49.94,39.2886,49.94,45.5q0,6.2607,2.2572,9.804a7.6963,7.6963,0,0,0,12.9588,0Z"/></g></svg>