<svg xmlns="http://www.w3.org/2000/svg" width="110" height="110" viewBox="0 0 110 110"><defs><style>.cls-1{fill:#54381d;}.cls-2{fill:#d6bb84;}.cls-3{fill:#b23330;}.cls-4{fill:#010101;opacity:0.5;}</style></defs><g id="Assets"><path class="cls-1" d="M109.8513,56.0682A54.1151,54.1151,0,0,1,107.65,69.8045c-1.1826,4.5025-3.3441,6.046-5.5789,10.0086-3.05,5.4078-7.7984,11.9-11.2458,17.0137-3.61,5.3541-9.1573,9.286-18.6966,10.5989-5.49.7557-10.895,2.6425-16.7369,2.6425a54.3571,54.3571,0,0,1-9.4834-.83,53.7109,53.7109,0,0,1-20.2232-8.0634,54.325,54.325,0,0,1-14.274-13.7481c-.3261-.4561,1.9356-3.2575,1.6235-3.7241-.3754-.5611-3.3214,1.21-3.676.6346A53.7544,53.7544,0,0,1,3.7566,71.9865c-1.5546-5.04.2591-11.0687-2.3916-15.9453C-1.8513,50.1239.5429,44.5046,4.0255,39.249c1.8148-2.7386,2.3174-6.12,3.8623-8.964C11.9186,22.8665,18.564,17.61,24.5264,11.6933c1.0427-1.0347,2.3735,2.253,2.7716,1.9908.4732-.3118-.5279-3.28-.1535-3.706C35.79.1275,45.4006-2.0682,55.392,2.0142,62.2974,4.8358,69.9581,3.526,76.4217,6.26a53.983,53.983,0,0,1,12.0634,7.0726c3.9827,3.09,9.2641,8.9959,9.2641,11.5892,0,2.33,3.8772,3.0546,5.0068,5.107a53.6556,53.6556,0,0,1,5.9555,17.2468A54.8434,54.8434,0,0,1,109.8513,56.0682Z"/><path class="cls-2" d="M106.189,55.9839a50.9167,50.9167,0,0,1-1.6645,12.9517c-1.1129,4.2371-3.1469,5.69-5.25,9.4186-2.87,5.089-7.3386,11.1987-10.5828,16.0106-3.3968,5.0384-8.6174,8.7385-17.5943,9.974-5.1664.7111-10.2526,2.4867-15.75,2.4867a51.1473,51.1473,0,0,1-8.9243-.7807,50.5421,50.5421,0,0,1-19.0309-7.588A51.1216,51.1216,0,0,1,13.96,85.5193c-.3069-.4292,1.8215-3.0655,1.5277-3.5045-.3532-.528-4.1815,1.256-5.91-2.2017C7.6855,76.03,8.028,75.1118,6.7563,70.989,5.2934,66.2461,7,60.5729,4.5057,55.9839,1.479,50.4154,3.7321,45.1274,7.0094,40.1816c1.7077-2.5771,2.1807-5.76,3.6346-8.4354,3.793-6.9811,6.5586-12.3661,13.6285-15.9011,1.7288-.8644,4.2627.5256,4.6372.2789.4454-.2934-.4967-3.0862-.1445-3.4875,8.1362-9.27,17.18-11.336,26.5822-7.4943,6.4982,2.6552,13.7072,1.4227,19.79,3.9954a50.7993,50.7993,0,0,1,11.3521,6.6556c3.7479,2.9082,8.7178,8.4655,8.7178,10.9059,0,2.1923,3.6487,2.8745,4.7117,4.8059a50.4947,50.4947,0,0,1,5.6044,16.23A51.2055,51.2055,0,0,1,106.189,55.9839Z"/><path class="cls-3" d="M53.9913,54.9282,53.6346,14.07q.1784-.0017.3567-.0016a41.0552,41.0552,0,0,1,40.86,40.86q0,.1919-.0018.3837Z"/><path class="cls-1" d="M60.46,57.3435a5.7685,5.7685,0,1,1-.1518-4.2306l2.4028,0H94.136a2.115,2.115,0,0,1,2.1151,2.115h0a2.115,2.115,0,0,1-2.1151,2.1151H62.7106Z"/><path class="cls-4" d="M53.6442,54.3031c-.2043.34.0551.706.2832.9525a1.5237,1.5237,0,0,0,.9066.498,1.6378,1.6378,0,0,0,1.0108-.1577c.1459-.0793.2929-.1947.2869-.3305a.8328.8328,0,0,0-.1791-.4416,4.2562,4.2562,0,0,0-.7288-.76,2.9281,2.9281,0,0,0-.8625-.556,1.1568,1.1568,0,0,0-1.4763.8475,3.9592,3.9592,0,0,0,.1828,2.0254,1.5835,1.5835,0,0,0,.5139.777,2.1691,2.1691,0,0,0,.9391.2321,5.2473,5.2473,0,0,0,2.03-.3126,2.3424,2.3424,0,0,0,.8253-.4943,1.121,1.121,0,0,0,.2671-.8118,3.7282,3.7282,0,0,0-.7154-1.8455A4.433,4.433,0,0,0,55.49,52.5226a2.1009,2.1009,0,0,0-1.79-.3352,3.0829,3.0829,0,0,0-1.2934,1.4181,7.9183,7.9183,0,0,0-.8043,1.9087,2.831,2.831,0,0,0,.0711,1.8957,2.5413,2.5413,0,0,0,1.45,1.1744,4.42,4.42,0,0,0,1.9644.3193,5.2371,5.2371,0,0,0,3.5286-1.7908l.3253-.401a.9137.9137,0,0,1,.1249-.1174.9556.9556,0,0,1,.0965-.0553,1.0773,1.0773,0,0,1,.1685-.0706,2.6557,2.6557,0,0,1,.2962-.0824,10.533,10.533,0,0,1,1.1073-.17c.7287-.08,1.4524-.1275,2.1766-.1691,2.8947-.1473,5.7834-.21,8.6735-.2093q4.3342-.0078,8.666.05c2.888.0583,5.7754.1118,8.6624.2061-5.7758.1124-11.5507.1537-17.3212.2859-2.8839.0849-5.7711.1279-8.6426.3074-.7167.0464-1.4338.0993-2.14.182a9.9952,9.9952,0,0,0-1.0309.1651,2.0228,2.0228,0,0,0-.2247.0636.4825.4825,0,0,0-.081.0334l-.0216.01a.0428.0428,0,0,0,.0245-.0267l-.3537.4422a5.912,5.912,0,0,1-3.99,2.0493,5.1189,5.1189,0,0,1-2.27-.3852,3.53,3.53,0,0,1-.5212-.251,3.1185,3.1185,0,0,1-.5-.3194,2.5246,2.5246,0,0,1-.776-.9545,3.477,3.477,0,0,1-.0985-2.3433,8.5483,8.5483,0,0,1,.8849-2.0652,3.6383,3.6383,0,0,1,1.6168-1.6788,2.03,2.03,0,0,1,1.2482-.067,4.047,4.047,0,0,1,1.0757.4543A4.9234,4.9234,0,0,1,57.4164,53.6a4.2492,4.2492,0,0,1,.7658,2.1651,1.6437,1.6437,0,0,1-.4366,1.1762,2.8073,2.8073,0,0,1-1.0259.5967,5.6971,5.6971,0,0,1-2.23.2935,2.5515,2.5515,0,0,1-1.1334-.3206,1.9377,1.9377,0,0,1-.6611-.9986,4.2429,4.2429,0,0,1-.1435-2.241,1.4623,1.4623,0,0,1,1.8917-1.0147,3.1111,3.1111,0,0,1,.9279.6378,4.44,4.44,0,0,1,.7355.8271.979.979,0,0,1,.19.5555.5917.5917,0,0,1-.3851.4489,1.7487,1.7487,0,0,1-1.097.1319,1.6032,1.6032,0,0,1-.9276-.5675C53.6676,55.0314,53.42,54.634,53.6442,54.3031Z"/><path class="cls-4" d="M85.7842,54.2668c-2.4106.1454-4.8207.2145-7.229.2941-2.4075.09-4.8161.1351-7.2137.26-.5991.029-1.1972.0631-1.7922.11-.5855.0483-1.1994.1246-1.8158.1449a11.0544,11.0544,0,0,1-1.8587-.09,13.3643,13.3643,0,0,1-1.795-.41c-.5791-.1617-1.1533-.3079-1.7384-.4177-.5829-.1088-1.19-.2-1.7807-.3241a15.81,15.81,0,0,1-1.7614-.4734,2.44,2.44,0,0,1-1.4725-1.0166,2.5148,2.5148,0,0,0,1.5266.838,15.5949,15.5949,0,0,0,1.7659.3119l1.793.2252c.6054.08,1.2079.2,1.7978.3309.59.1286,1.1657.2553,1.7434.3236a10.4161,10.4161,0,0,0,1.75.036c1.16-.0873,2.4-.245,3.6021-.2914,2.418-.1083,4.8311-.1356,7.2441-.0965C80.9627,54.0548,83.3737,54.1217,85.7842,54.2668Z"/></g></svg>