<svg xmlns="http://www.w3.org/2000/svg" width="110" height="110" viewBox="0 0 110 110"><defs><style>.cls-1{fill:#54381d;}.cls-2{fill:#d6bb84;}</style></defs><g id="Assets"><path class="cls-1" d="M110,56a54.1151,54.1151,0,0,1-2.2011,13.7363c-1.1826,4.5025-3.3441,6.046-5.5789,10.0086-3.05,5.4079-7.7984,11.9-11.2458,17.0137-3.61,5.3541-9.1573,9.286-18.6966,10.5989-5.49.7557-10.895,2.6425-16.7369,2.6425a54.3563,54.3563,0,0,1-9.4834-.83A53.712,53.712,0,0,1,25.834,101.107,54.3262,54.3262,0,0,1,11.56,87.3589c-.3261-.4561,1.9356-3.2575,1.6235-3.7241-.3754-.5611-3.3214,1.21-3.676.6346A53.7544,53.7544,0,0,1,3.9053,71.9183c-1.5546-5.04.2591-11.0687-2.3916-15.9453C-1.7026,50.0557.6916,44.4364,4.1742,39.1808c1.8148-2.7386,2.3174-6.12,3.8623-8.964,4.0307-7.4185,10.6762-12.6753,16.6385-18.5917,1.0428-1.0347,2.3736,2.253,2.7717,1.9908.4732-.3118-.5279-3.28-.1536-3.706C35.939.0593,45.5493-2.1364,55.5407,1.946c6.9054,2.8216,14.566,1.5118,21.03,4.2458a53.9788,53.9788,0,0,1,12.0634,7.0725c3.9827,3.0905,9.2641,8.9959,9.2641,11.5892,0,2.33,3.8772,3.0546,5.0068,5.107A53.658,53.658,0,0,1,108.86,47.2073,54.8434,54.8434,0,0,1,110,56Z"/><path class="cls-2" d="M106.3377,55.9157a50.9212,50.9212,0,0,1-1.6645,12.9517c-1.1129,4.2371-3.1469,5.69-5.25,9.4186-2.87,5.089-7.3387,11.1987-10.5828,16.0106-3.3968,5.0384-8.6174,8.7385-17.5943,9.974-5.1664.7111-10.2527,2.4867-15.75,2.4867a51.1473,51.1473,0,0,1-8.9243-.7807,50.5436,50.5436,0,0,1-19.0309-7.5879A51.1236,51.1236,0,0,1,14.1085,85.4511c-.3069-.4292,1.8214-3.0654,1.5277-3.5045-.3532-.528-4.1815,1.256-5.91-2.2017-1.8916-3.7832-1.5492-4.7013-2.8208-8.8241-1.463-4.7429.2438-10.4161-2.2506-15.0051-3.0267-5.5685-.7736-10.8565,2.5037-15.8023,1.7077-2.5771,2.1807-5.76,3.6345-8.4354,3.7931-6.9811,6.5587-12.3661,13.6286-15.901,1.7288-.8645,4.2627.5255,4.6372.2788.4453-.2934-.4967-3.0862-.1445-3.4875,8.1362-9.27,17.18-11.336,26.5822-7.4943,6.4982,2.6552,13.7072,1.4227,19.79,3.9954A50.7977,50.7977,0,0,1,86.6381,15.725c3.7479,2.9082,8.7178,8.4655,8.7178,10.9059,0,2.1923,3.6487,2.8745,4.7117,4.8059a50.4947,50.4947,0,0,1,5.6044,16.23A51.2055,51.2055,0,0,1,106.3377,55.9157Z"/></g></svg>