<svg xmlns="http://www.w3.org/2000/svg" width="110" height="110" viewBox="0 0 110 110"><defs><style>.cls-1{fill:#54381d;}.cls-2{fill:#010101;opacity:0.5;}</style></defs><g id="Assets"><path class="cls-1" d="M56.99,49.7916a5.7683,5.7683,0,1,1-4.23.1517l0-2.4028V16.1151A2.1151,2.1151,0,0,1,54.8749,14h0A2.1151,2.1151,0,0,1,56.99,16.1151V47.5405Z"/><path class="cls-2" d="M53.95,56.6069c.34.2043.706-.0551.9525-.2832a1.5247,1.5247,0,0,0,.498-.9066,1.6378,1.6378,0,0,0-.1577-1.0108c-.0794-.1459-.1948-.2929-.3305-.2868a.8321.8321,0,0,0-.4417.179,4.259,4.259,0,0,0-.76.7288,2.9241,2.9241,0,0,0-.556.8625,1.1568,1.1568,0,0,0,.8475,1.4763,3.9587,3.9587,0,0,0,2.0253-.1828,1.5828,1.5828,0,0,0,.777-.5139,2.1705,2.1705,0,0,0,.2322-.9391,5.2474,5.2474,0,0,0-.3127-2.03,2.3422,2.3422,0,0,0-.4942-.8253,1.1213,1.1213,0,0,0-.8118-.2671,3.7285,3.7285,0,0,0-1.8456.7154,4.434,4.434,0,0,0-1.4027,1.4376,2.1,2.1,0,0,0-.3351,1.79,3.0824,3.0824,0,0,0,1.4181,1.2934,7.9183,7.9183,0,0,0,1.9087.8043,2.831,2.831,0,0,0,1.8957-.0711,2.5417,2.5417,0,0,0,1.1744-1.45A4.4225,4.4225,0,0,0,58.55,55.163a5.2372,5.2372,0,0,0-1.7909-3.5286l-.4009-.3253a.9015.9015,0,0,1-.1174-.1249.9662.9662,0,0,1-.0554-.0965,1.0759,1.0759,0,0,1-.07-.1685,2.6177,2.6177,0,0,1-.0824-.2961,10.5618,10.5618,0,0,1-.17-1.1074c-.08-.7286-.1274-1.4524-.169-2.1766-.1473-2.8947-.21-5.7834-.2094-8.6735q-.0076-4.3342.05-8.666c.0583-2.888.1119-5.7754.2061-8.6624.1125,5.7758.1538,11.5507.2859,17.3212.0849,2.8839.1279,5.7711.3075,8.6426.0464.7167.0992,1.4338.1819,2.14a9.9679,9.9679,0,0,0,.1652,1.0309,2.0454,2.0454,0,0,0,.0635.2247.4811.4811,0,0,0,.0335.081l.01.0216a.0423.0423,0,0,0-.0267-.0245l.4422.3537a5.9115,5.9115,0,0,1,2.0493,3.99,5.1181,5.1181,0,0,1-.3852,2.27,3.5336,3.5336,0,0,1-.251.5211,3.1247,3.1247,0,0,1-.3193.5,2.5257,2.5257,0,0,1-.9546.776,3.4768,3.4768,0,0,1-2.3432.0985,8.5483,8.5483,0,0,1-2.0652-.8849,3.6374,3.6374,0,0,1-1.6788-1.6168,2.03,2.03,0,0,1-.0671-1.2482,4.0472,4.0472,0,0,1,.4544-1.0757,4.9232,4.9232,0,0,1,1.6043-1.6238,4.25,4.25,0,0,1,2.1652-.7658,1.6438,1.6438,0,0,1,1.1762.4366,2.8073,2.8073,0,0,1,.5967,1.0259,5.6989,5.6989,0,0,1,.2934,2.23,2.5513,2.5513,0,0,1-.32,1.1334,1.9376,1.9376,0,0,1-.9987.6611,4.2425,4.2425,0,0,1-2.2409.1435,1.4624,1.4624,0,0,1-1.0148-1.8917,3.1111,3.1111,0,0,1,.6378-.9279,4.4373,4.4373,0,0,1,.8272-.7355.9789.9789,0,0,1,.5554-.19.5918.5918,0,0,1,.449.3851,1.7487,1.7487,0,0,1,.1318,1.097,1.603,1.603,0,0,1-.5674.9276C54.678,56.5835,54.2807,56.8309,53.95,56.6069Z"/><path class="cls-2" d="M53.9135,24.4669c.1453,2.4106.2144,4.8207.294,7.229.0895,2.4075.1351,4.8162.26,7.2137.0291.5991.0632,1.1972.11,1.7922.0483.5855.1247,1.1994.1449,1.8158a11.0543,11.0543,0,0,1-.09,1.8587,13.38,13.38,0,0,1-.41,1.795c-.1617.5791-.3078,1.1533-.4176,1.7385-.1088.5828-.2,1.19-.3242,1.7806a15.8317,15.8317,0,0,1-.4733,1.7614,2.44,2.44,0,0,1-1.0167,1.4725,2.5145,2.5145,0,0,0,.8381-1.5266,15.5946,15.5946,0,0,0,.3118-1.7659l.2253-1.793c.08-.6054.2-1.2079.3309-1.7978.1285-.59.2552-1.1657.3236-1.7434a10.4267,10.4267,0,0,0,.0359-1.75c-.0872-1.16-.2449-2.4-.2914-3.602-.1083-2.4181-.1356-4.8312-.0964-7.2442C53.7014,29.2884,53.7684,26.8774,53.9135,24.4669Z"/></g></svg>